<svg width="231" height="231" viewBox="0 0 231 231" fill="none" xmlns="http://www.w3.org/2000/svg">
<circle opacity="0.3" cx="139.922" cy="129.53" r="26.6452" transform="rotate(120 139.922 129.53)" stroke="#E94B43" stroke-width="2"/>
<path opacity="0.3" d="M109.171 164.112C87.3079 151.489 79.7458 123.683 92.258 102.011C104.77 80.339 132.632 72.9847 154.496 85.6077C176.359 98.2306 183.921 126.037 171.409 147.709C158.897 169.381 131.035 176.735 109.171 164.112Z" stroke="#E94B43" stroke-width="2"/>
<path opacity="0.3" d="M91.0465 176.079C60.26 158.304 49.7864 118.789 67.6696 87.8146C85.5527 56.8401 125.011 46.1528 155.797 63.9274C186.584 81.702 197.057 121.217 179.174 152.192C161.291 183.166 121.833 193.854 91.0465 176.079Z" stroke="#E94B43" stroke-width="2"/>
<circle opacity="0.3" cx="115.334" cy="115.333" r="83.43" transform="rotate(120 115.334 115.333)" stroke="#E94B43" stroke-width="2"/>
</svg>
