<svg width="400" height="258" viewBox="0 0 400 258" fill="none" xmlns="http://www.w3.org/2000/svg">
<path d="M0 0.932617H72.2084C112.088 0.932617 144.417 33.2614 144.417 73.141C144.417 113.021 112.088 145.349 72.2084 145.349H0V0.932617Z" fill="#E84238"/>
<g filter="url(#filter0_i)">
<path d="M12.6958 13.6287H72.2082C105.076 13.6287 131.721 40.2733 131.721 73.1411C131.721 106.009 105.076 132.653 72.2082 132.653H12.6958V13.6287Z" fill="#DB3329"/>
</g>
<g filter="url(#filter1_i)">
<path d="M28.5659 29.4985H72.2084C96.3114 29.4985 115.851 49.0379 115.851 73.141C115.851 97.244 96.3114 116.783 72.2083 116.783H28.5659V29.4985Z" fill="#C9261C"/>
</g>
<g filter="url(#filter2_i)">
<path d="M44.436 45.3687H72.2085C87.5468 45.3687 99.981 57.8028 99.981 73.1411C99.981 88.4794 87.5468 100.914 72.2085 100.914H44.436V45.3687Z" fill="#AF160C"/>
</g>
<path d="M377.01 107.348H357.747V102.862L366.592 91.6219C367.715 90.0664 368.538 88.7054 369.062 87.5388C369.601 86.3573 369.87 85.2281 369.87 84.1512C369.87 82.7005 369.616 81.5638 369.107 80.7412C368.613 79.9186 367.895 79.5073 366.952 79.5073C365.919 79.5073 365.096 79.9859 364.482 80.9431C363.883 81.9003 363.584 83.2464 363.584 84.9813H357.208C357.208 82.9772 357.619 81.145 358.443 79.4849C359.281 77.8247 360.448 76.5385 361.945 75.6262C363.457 74.6989 365.163 74.2352 367.064 74.2352C369.983 74.2352 372.243 75.0429 373.844 76.6581C375.461 78.2585 376.269 80.5393 376.269 83.5006C376.269 85.3403 375.82 87.2098 374.922 89.1092C374.039 90.9937 372.43 93.3194 370.095 96.0863L365.896 102.076H377.01V107.348Z" fill="white"/>
<path d="M400 93.8429C400 98.3597 399.177 101.815 397.53 104.208C395.899 106.601 393.564 107.797 390.525 107.797C387.517 107.797 385.19 106.638 383.543 104.32C381.912 101.987 381.066 98.6513 381.006 94.314V88.1446C381.006 83.6427 381.822 80.2028 383.453 77.8247C385.085 75.4317 387.427 74.2352 390.481 74.2352C393.534 74.2352 395.876 75.4168 397.508 77.7799C399.139 80.143 399.97 83.5156 400 87.8978V93.8429ZM393.624 87.2247C393.624 84.6523 393.369 82.7229 392.86 81.4367C392.352 80.1504 391.558 79.5073 390.481 79.5073C388.46 79.5073 387.412 81.8629 387.337 86.5742V94.7178C387.337 97.3501 387.592 99.3094 388.101 100.596C388.625 101.882 389.433 102.525 390.525 102.525C391.558 102.525 392.322 101.927 392.815 100.73C393.324 99.5188 393.594 97.6717 393.624 95.189V87.2247Z" fill="white"/>
<path d="M377.01 144.105H357.747V139.618L366.592 128.378C367.715 126.823 368.538 125.462 369.062 124.295C369.601 123.114 369.87 121.985 369.87 120.908C369.87 119.457 369.616 118.32 369.107 117.498C368.613 116.675 367.895 116.264 366.952 116.264C365.919 116.264 365.096 116.742 364.482 117.7C363.883 118.657 363.584 120.003 363.584 121.738H357.208C357.208 119.734 357.619 117.902 358.443 116.241C359.281 114.581 360.448 113.295 361.945 112.383C363.457 111.455 365.163 110.992 367.064 110.992C369.983 110.992 372.243 111.799 373.844 113.415C375.461 115.015 376.269 117.296 376.269 120.257C376.269 122.097 375.82 123.966 374.922 125.866C374.039 127.75 372.43 130.076 370.095 132.843L365.896 138.833H377.01V144.105Z" fill="white"/>
<path d="M394.993 144.105H388.617V119.158L382.398 121.558V116.264L394.32 111.396H394.993V144.105Z" fill="white"/>
<path d="M146.67 145.883C157.067 145.883 166.196 143.089 173.93 137.372C181.665 131.655 186.99 123.652 189.906 113.235H169.746C167.718 117.936 164.548 121.493 160.364 123.906C156.18 126.32 151.488 127.59 146.417 127.59C138.809 127.59 132.47 124.923 127.525 119.714C122.58 114.506 120.044 107.9 120.044 99.8965C120.044 91.8932 122.58 85.2873 127.525 79.9518C132.47 74.6163 138.809 71.9486 146.417 71.9486C151.615 71.9486 156.306 73.2189 160.491 75.7597C164.675 78.3004 167.718 81.8574 169.62 86.4307H189.779C186.863 76.0137 181.538 68.0105 173.804 62.2939C166.069 56.5773 156.94 53.7825 146.543 53.7825C133.104 53.7825 122.073 58.2287 113.451 66.9942C104.829 75.7597 100.518 86.6847 100.518 99.7694C100.518 112.981 104.829 124.033 113.451 132.799C122.073 141.564 133.104 146.01 146.543 146.01L146.67 145.883Z" fill="white"/>
<path d="M234.574 145.756C244.845 145.756 253.34 142.453 260.06 135.721C266.78 128.988 270.076 120.603 270.076 110.567C270.076 100.532 266.78 92.1473 260.06 85.4144C253.34 78.6815 244.845 75.3786 234.574 75.3786C224.304 75.3786 215.809 78.6815 209.089 85.4144C202.369 92.1473 198.946 100.532 198.946 110.567C198.946 120.603 202.243 128.988 208.963 135.721C215.683 142.453 224.178 145.756 234.574 145.756ZM234.574 128.098C229.63 128.098 225.572 126.447 222.402 123.144C219.233 119.841 217.584 115.649 217.584 110.694C217.584 105.613 219.106 101.421 222.276 98.118C225.445 94.815 229.503 93.1636 234.448 93.1636C239.393 93.1636 243.45 94.815 246.62 98.118C249.789 101.421 251.311 105.613 251.311 110.694C251.311 115.649 249.789 119.841 246.62 123.144C243.45 126.447 239.393 128.098 234.448 128.098H234.574Z" fill="white"/>
<path d="M282.104 144.105H300.615V105.232C300.615 101.802 301.629 99.0072 303.785 96.7206C305.94 94.4339 308.603 93.2906 311.9 93.2906C315.069 93.2906 317.732 94.4339 319.761 96.5935C321.789 98.7531 322.804 101.548 322.804 104.978V143.978H341.315V99.0072C341.315 92.2743 339.16 86.6847 334.849 82.1115C330.538 77.5382 324.832 75.2515 317.859 75.2515C310.632 75.2515 305.18 77.7922 301.503 83.0007H300.235V76.903H281.723L282.104 144.105Z" fill="white"/>
<path d="M200.756 61.0363V41.8815H205.821C208.057 41.8815 209.838 42.5919 211.162 44.0127C212.495 45.4335 213.175 47.3806 213.201 49.8539V52.9586C213.201 55.4758 212.535 57.4535 211.202 58.8919C209.877 60.3215 208.049 61.0363 205.716 61.0363H200.756ZM204.624 45.1046V57.8263H205.781C207.071 57.8263 207.978 57.4886 208.505 56.8133C209.031 56.1292 209.307 54.9539 209.333 53.2875V49.9591C209.333 48.1699 209.083 46.9245 208.584 46.2229C208.084 45.5125 207.233 45.1397 206.031 45.1046H204.624Z" fill="#E84238"/>
<path d="M221.555 61.2994C219.643 61.2994 218.152 60.7293 217.082 59.5891C216.012 58.449 215.477 56.8176 215.477 54.6952V53.5638C215.477 51.3185 215.968 49.5864 216.951 48.3673C217.933 47.1482 219.341 46.5386 221.174 46.5386C222.963 46.5386 224.309 47.1131 225.212 48.262C226.116 49.4022 226.576 51.0949 226.594 53.3401V55.1688H219.187C219.24 56.2212 219.472 56.9931 219.884 57.4842C220.297 57.9666 220.932 58.2078 221.792 58.2078C223.037 58.2078 224.077 57.7824 224.91 56.9317L226.37 59.1813C225.914 59.8128 225.252 60.3258 224.384 60.7205C223.515 61.1064 222.573 61.2994 221.555 61.2994ZM219.213 52.5639H222.936V52.2219C222.919 51.3712 222.779 50.7265 222.515 50.288C222.252 49.8495 221.796 49.6302 221.147 49.6302C220.498 49.6302 220.025 49.8626 219.726 50.3275C219.437 50.7923 219.266 51.5378 219.213 52.5639Z" fill="#E84238"/>
<path d="M235 57.2211C235 56.9053 234.847 56.6159 234.54 56.3528C234.242 56.0809 233.571 55.7169 232.527 55.2609C230.992 54.6382 229.935 53.9935 229.356 53.327C228.786 52.6604 228.501 51.8316 228.501 50.8405C228.501 49.5951 228.949 48.569 229.843 47.7621C230.747 46.9464 231.939 46.5386 233.422 46.5386C234.983 46.5386 236.233 46.9421 237.171 47.7489C238.109 48.5558 238.579 49.639 238.579 50.9984H234.856C234.856 49.8407 234.373 49.2619 233.408 49.2619C233.014 49.2619 232.689 49.3846 232.435 49.6302C232.181 49.8758 232.053 50.2178 232.053 50.6564C232.053 50.9721 232.194 51.2528 232.474 51.4983C232.755 51.7351 233.417 52.0772 234.461 52.5245C235.978 53.0858 237.048 53.7129 237.671 54.4058C238.302 55.0899 238.618 55.9801 238.618 57.0764C238.618 58.3481 238.14 59.3699 237.184 60.1417C236.228 60.9135 234.974 61.2994 233.422 61.2994C232.378 61.2994 231.457 61.0977 230.659 60.6942C229.861 60.282 229.234 59.7119 228.778 58.984C228.33 58.256 228.107 57.471 228.107 56.6291H231.646C231.663 57.2781 231.812 57.7649 232.093 58.0894C232.382 58.4139 232.852 58.5761 233.501 58.5761C234.5 58.5761 235 58.1245 235 57.2211Z" fill="#E84238"/>
<path d="M244.841 61.0363H241.105V46.8017H244.841V61.0363ZM240.934 43.1181C240.934 42.5393 241.118 42.0656 241.486 41.6973C241.854 41.3289 242.346 41.1447 242.96 41.1447C243.573 41.1447 244.065 41.3289 244.433 41.6973C244.801 42.0656 244.986 42.5393 244.986 43.1181C244.986 43.6882 244.801 44.1618 244.433 44.5389C244.073 44.9161 243.582 45.1046 242.96 45.1046C242.337 45.1046 241.841 44.9161 241.473 44.5389C241.113 44.1618 240.934 43.6882 240.934 43.1181Z" fill="#E84238"/>
<path d="M247.275 53.4849C247.275 51.1519 247.696 49.4109 248.538 48.262C249.38 47.1131 250.559 46.5386 252.076 46.5386C253.366 46.5386 254.361 47.0473 255.063 48.0647L255.208 46.8017H258.562V61.0363C258.562 62.8518 258.054 64.2375 257.036 65.1935C256.019 66.1582 254.559 66.6406 252.655 66.6406C251.875 66.6406 251.055 66.4827 250.195 66.167C249.336 65.86 248.695 65.4654 248.274 64.983L249.524 62.4045C249.875 62.7728 250.331 63.071 250.892 63.2991C251.454 63.5359 251.984 63.6543 252.484 63.6543C253.318 63.6543 253.914 63.4525 254.274 63.0491C254.642 62.6544 254.83 62.0142 254.839 61.1283V59.9049C254.129 60.8345 253.204 61.2994 252.063 61.2994C250.546 61.2994 249.371 60.7118 248.538 59.5365C247.713 58.3525 247.292 56.6861 247.275 54.5373V53.4849ZM250.998 54.4189C250.998 55.7345 251.169 56.6949 251.511 57.3C251.853 57.8964 252.397 58.1946 253.142 58.1946C253.905 58.1946 254.471 57.9183 254.839 57.3658V50.5643C254.453 49.9591 253.896 49.6565 253.168 49.6565C252.432 49.6565 251.884 49.9591 251.524 50.5643C251.173 51.1694 250.998 52.143 250.998 53.4849V54.4189Z" fill="#E84238"/>
<path d="M264.68 46.8017L264.785 48.2094C265.627 47.0955 266.728 46.5386 268.087 46.5386C270.534 46.5386 271.793 48.2532 271.863 51.6825V61.0363H268.127V51.9588C268.127 51.1519 268.004 50.5687 267.758 50.2091C267.521 49.8407 267.1 49.6565 266.495 49.6565C265.82 49.6565 265.294 50.003 264.917 50.6958V61.0363H261.18V46.8017H264.68Z" fill="#E84238"/>
<path d="M285.887 58.2078C286.966 58.2078 287.514 57.5061 287.531 56.1028H291.031C291.013 57.6552 290.535 58.9094 289.597 59.8654C288.658 60.8214 287.448 61.2994 285.966 61.2994C284.133 61.2994 282.734 60.7293 281.769 59.5891C280.804 58.449 280.313 56.7694 280.296 54.5505V53.4191C280.296 51.1826 280.769 49.4767 281.716 48.3015C282.672 47.1262 284.08 46.5386 285.939 46.5386C287.509 46.5386 288.746 47.0254 289.649 47.9989C290.553 48.9637 291.013 50.3362 291.031 52.1167H287.531C287.523 51.3185 287.391 50.7046 287.137 50.2748C286.882 49.8451 286.461 49.6302 285.874 49.6302C285.225 49.6302 284.76 49.8626 284.479 50.3275C284.198 50.7835 284.049 51.6737 284.032 52.9981V54.4452C284.032 55.6029 284.089 56.4142 284.203 56.879C284.317 57.3351 284.505 57.6728 284.769 57.892C285.032 58.1025 285.404 58.2078 285.887 58.2078Z" fill="#E84238"/>
<path d="M292.701 53.4585C292.701 51.301 293.21 49.6083 294.228 48.3804C295.245 47.1525 296.653 46.5386 298.451 46.5386C300.266 46.5386 301.682 47.1525 302.7 48.3804C303.717 49.6083 304.226 51.3098 304.226 53.4849V54.3926C304.226 56.5589 303.722 58.2516 302.713 59.4707C301.704 60.6898 300.292 61.2994 298.477 61.2994C296.653 61.2994 295.232 60.6898 294.214 59.4707C293.206 58.2429 292.701 56.5414 292.701 54.3663V53.4585ZM296.438 54.3926C296.438 56.936 297.117 58.2078 298.477 58.2078C299.731 58.2078 300.406 57.1465 300.503 55.0241L300.516 53.4585C300.516 52.1605 300.336 51.2001 299.977 50.5774C299.617 49.9459 299.108 49.6302 298.451 49.6302C297.819 49.6302 297.324 49.9459 296.964 50.5774C296.613 51.2001 296.438 52.1605 296.438 53.4585V54.3926Z" fill="#E84238"/>
<path d="M309.962 46.8017L310.067 48.2094C310.909 47.0955 312.01 46.5386 313.369 46.5386C315.816 46.5386 317.075 48.2532 317.145 51.6825V61.0363H313.409V51.9588C313.409 51.1519 313.286 50.5687 313.04 50.2091C312.804 49.8407 312.383 49.6565 311.777 49.6565C311.102 49.6565 310.576 50.003 310.199 50.6958V61.0363H306.462V46.8017H309.962Z" fill="#E84238"/>
<path d="M320.671 61.0363V49.6039H318.947V46.8017H320.671V45.5256C320.679 43.9557 321.092 42.7366 321.907 41.8683C322.732 40.9913 323.868 40.5527 325.315 40.5527C325.753 40.5527 326.314 40.6404 326.999 40.8158L326.972 43.7891C326.718 43.7101 326.415 43.6707 326.065 43.6707C324.959 43.6707 324.407 44.3284 324.407 45.644V46.8017H326.63V49.6039H324.407V61.0363H320.671Z" fill="#E84238"/>
<path d="M334.09 61.2994C332.178 61.2994 330.687 60.7293 329.617 59.5891C328.547 58.449 328.012 56.8176 328.012 54.6952V53.5638C328.012 51.3185 328.503 49.5864 329.485 48.3673C330.467 47.1482 331.875 46.5386 333.708 46.5386C335.497 46.5386 336.843 47.1131 337.747 48.262C338.65 49.4022 339.111 51.0949 339.128 53.3401V55.1688H331.721C331.774 56.2212 332.007 56.9931 332.419 57.4842C332.831 57.9666 333.467 58.2078 334.326 58.2078C335.572 58.2078 336.611 57.7824 337.444 56.9317L338.905 59.1813C338.448 59.8128 337.786 60.3258 336.918 60.7205C336.05 61.1064 335.107 61.2994 334.09 61.2994ZM331.748 52.5639H335.471V52.2219C335.453 51.3712 335.313 50.7265 335.05 50.288C334.787 49.8495 334.331 49.6302 333.682 49.6302C333.033 49.6302 332.559 49.8626 332.261 50.3275C331.971 50.7923 331.8 51.5378 331.748 52.5639Z" fill="#E84238"/>
<path d="M348.258 50.3932L347.022 50.288C346.004 50.288 345.316 50.7353 344.956 51.6299V61.0363H341.22V46.8017H344.733L344.838 48.3409C345.425 47.1394 346.237 46.5386 347.272 46.5386C347.693 46.5386 348.035 46.5956 348.298 46.7096L348.258 50.3932Z" fill="#E84238"/>
<path d="M355.665 61.2994C353.753 61.2994 352.262 60.7293 351.192 59.5891C350.122 58.449 349.587 56.8176 349.587 54.6952V53.5638C349.587 51.3185 350.078 49.5864 351.06 48.3673C352.043 47.1482 353.45 46.5386 355.283 46.5386C357.073 46.5386 358.419 47.1131 359.322 48.262C360.226 49.4022 360.686 51.0949 360.704 53.3401V55.1688H353.297C353.35 56.2212 353.582 56.9931 353.994 57.4842C354.406 57.9666 355.042 58.2078 355.902 58.2078C357.147 58.2078 358.187 57.7824 359.02 56.9317L360.48 59.1813C360.024 59.8128 359.362 60.3258 358.493 60.7205C357.625 61.1064 356.682 61.2994 355.665 61.2994ZM353.323 52.5639H357.046V52.2219C357.029 51.3712 356.888 50.7265 356.625 50.288C356.362 49.8495 355.906 49.6302 355.257 49.6302C354.608 49.6302 354.135 49.8626 353.836 50.3275C353.547 50.7923 353.376 51.5378 353.323 52.5639Z" fill="#E84238"/>
<path d="M366.216 46.8017L366.321 48.2094C367.163 47.0955 368.264 46.5386 369.623 46.5386C372.07 46.5386 373.329 48.2532 373.399 51.6825V61.0363H369.663V51.9588C369.663 51.1519 369.54 50.5687 369.294 50.2091C369.058 49.8407 368.637 49.6565 368.031 49.6565C367.356 49.6565 366.83 50.003 366.453 50.6958V61.0363H362.716V46.8017H366.216Z" fill="#E84238"/>
<path d="M381.213 58.2078C382.292 58.2078 382.84 57.5061 382.858 56.1028H386.357C386.34 57.6552 385.862 58.9094 384.923 59.8654C383.985 60.8214 382.775 61.2994 381.292 61.2994C379.459 61.2994 378.06 60.7293 377.096 59.5891C376.131 58.449 375.64 56.7694 375.622 54.5505V53.4191C375.622 51.1826 376.096 49.4767 377.043 48.3015C377.999 47.1262 379.407 46.5386 381.266 46.5386C382.836 46.5386 384.073 47.0254 384.976 47.9989C385.879 48.9637 386.34 50.3362 386.357 52.1167H382.858C382.849 51.3185 382.718 50.7046 382.463 50.2748C382.209 49.8451 381.788 49.6302 381.2 49.6302C380.551 49.6302 380.086 49.8626 379.806 50.3275C379.525 50.7835 379.376 51.6737 379.359 52.9981V54.4452C379.359 55.6029 379.416 56.4142 379.53 56.879C379.644 57.3351 379.832 57.6728 380.095 57.892C380.358 58.1025 380.731 58.2078 381.213 58.2078Z" fill="#E84238"/>
<path d="M394.211 61.2994C392.299 61.2994 390.808 60.7293 389.738 59.5891C388.668 58.449 388.133 56.8176 388.133 54.6952V53.5638C388.133 51.3185 388.625 49.5864 389.607 48.3673C390.589 47.1482 391.997 46.5386 393.83 46.5386C395.619 46.5386 396.965 47.1131 397.869 48.262C398.772 49.4022 399.232 51.0949 399.25 53.3401V55.1688H391.843C391.896 56.2212 392.128 56.9931 392.541 57.4842C392.953 57.9666 393.589 58.2078 394.448 58.2078C395.694 58.2078 396.733 57.7824 397.566 56.9317L399.026 59.1813C398.57 59.8128 397.908 60.3258 397.04 60.7205C396.172 61.1064 395.229 61.2994 394.211 61.2994ZM391.87 52.5639H395.593V52.2219C395.575 51.3712 395.435 50.7265 395.172 50.288C394.909 49.8495 394.453 49.6302 393.804 49.6302C393.155 49.6302 392.681 49.8626 392.383 50.3275C392.093 50.7923 391.922 51.5378 391.87 52.5639Z" fill="#E84238"/>
<mask id="mask0" mask-type="alpha" maskUnits="userSpaceOnUse" x="3" y="165" width="394" height="54">
<path fill-rule="evenodd" clip-rule="evenodd" d="M15.9542 166.232H3.10889V217.514H15.9542C19.9764 217.514 23.1779 216.432 25.3583 214.092C27.5205 211.772 28.5183 208.455 28.5183 204.318V179.429C28.5183 175.292 27.5205 171.975 25.3583 169.655C23.1779 167.315 19.9764 166.232 15.9542 166.232ZM17.9419 207.618L17.9297 207.631L17.9181 207.644C17.5087 208.112 16.8674 208.416 15.8136 208.416H12.9104V175.331H15.8136C16.8674 175.331 17.5087 175.635 17.9181 176.103L17.9297 176.116L17.9419 176.129C18.3801 176.596 18.7168 177.494 18.7168 179.078V204.669C18.7168 206.253 18.3801 207.15 17.9419 207.618ZM11.8765 174.297V209.45H15.8136C16.1815 209.45 16.5237 209.418 16.8401 209.355C16.5231 209.418 16.1803 209.45 15.8116 209.45H11.8745V174.297H11.8765ZM104.045 166.232H80.885V217.514H104.045V208.416H90.6864V195.368H101.303V186.27H90.6864V175.331H104.045V166.232ZM89.6525 194.334V209.45H103.011V216.481H103.009V209.45H89.6506V194.334H89.6525ZM100.267 194.334H100.269V187.303H89.6525V174.297H89.6506V187.304H100.267V194.334ZM103.009 174.297H103.011V167.266H81.9189V167.267H103.009V174.297ZM157.586 214.708L157.594 214.716C159.768 217.102 162.921 218.217 166.865 218.217C170.857 218.217 174.053 217.079 176.272 214.652C178.521 212.243 179.57 208.863 179.57 204.669C179.57 201.439 178.933 198.571 177.621 196.099C176.317 193.641 173.983 190.989 170.708 188.141C168.206 185.963 166.539 184.169 165.634 182.75C164.797 181.366 164.384 179.89 164.384 178.304C164.384 176.849 164.686 175.95 165.116 175.427C165.513 174.944 166.147 174.628 167.217 174.628C168.25 174.628 168.885 174.941 169.301 175.446L169.311 175.458L169.321 175.47C169.731 175.938 170.05 176.848 170.05 178.445V182.01H179.429V178.937C179.429 174.803 178.433 171.473 176.285 169.11C174.16 166.671 171.049 165.529 167.146 165.529C163.196 165.529 160.026 166.671 157.809 169.096C155.61 171.455 154.582 174.74 154.582 178.796C154.582 181.814 155.252 184.566 156.609 187.029L156.613 187.037C157.96 189.432 160.284 192.052 163.509 194.898L163.515 194.903C166.018 197.082 167.653 198.893 168.505 200.342L168.512 200.354C169.338 201.717 169.768 203.331 169.768 205.232C169.768 206.863 169.431 207.824 168.972 208.344L168.969 208.347C168.567 208.807 167.909 209.119 166.795 209.119C165.671 209.119 165 208.793 164.582 208.294C164.134 207.76 163.821 206.847 163.821 205.372V200.964H154.442V204.81C154.442 208.951 155.441 212.301 157.586 214.708ZM178.536 204.669C178.536 208.7 177.528 211.793 175.513 213.949C174.282 215.297 172.695 216.223 170.751 216.729C172.694 216.223 174.281 215.297 175.511 213.95C177.526 211.794 178.534 208.7 178.534 204.669C178.534 201.576 177.925 198.881 176.706 196.584C175.487 194.288 173.261 191.733 170.027 188.921C167.496 186.718 165.738 184.843 164.754 183.296C163.816 181.75 163.348 180.086 163.348 178.305C163.348 175.602 164.302 174.063 166.211 173.686C164.304 174.064 163.35 175.603 163.35 178.304C163.35 180.085 163.818 181.749 164.756 183.296C165.74 184.843 167.498 186.718 170.029 188.921C173.263 191.733 175.489 194.287 176.708 196.584C177.927 198.881 178.536 201.576 178.536 204.669ZM178.393 180.976H178.395V178.937C178.395 174.953 177.434 171.906 175.513 169.797C173.638 167.641 170.849 166.563 167.146 166.563C166.12 166.563 165.161 166.644 164.269 166.805C165.161 166.644 166.119 166.564 167.144 166.564C170.847 166.564 173.636 167.642 175.511 169.798C177.432 171.907 178.393 174.953 178.393 178.937V180.976ZM167.882 210.053C167.549 210.12 167.187 210.153 166.795 210.153C164.123 210.153 162.787 208.559 162.787 205.372V201.997H155.475V201.998H162.785V205.373C162.785 208.56 164.121 210.153 166.793 210.153C167.185 210.153 167.549 210.12 167.882 210.053ZM240.952 166.232H231.15V217.514H240.952V166.232ZM296.551 214.717L296.559 214.725C298.777 217.102 301.946 218.217 305.892 218.217C309.838 218.217 313.007 217.102 315.225 214.725L315.233 214.717C317.43 212.31 318.456 208.957 318.456 204.81V187.676H305.21V196.774H309.076V205.372C309.076 206.847 308.764 207.76 308.316 208.294C307.898 208.793 307.227 209.119 306.103 209.119C304.979 209.119 304.308 208.793 303.89 208.294C303.442 207.76 303.129 206.847 303.129 205.372V178.445C303.129 176.944 303.443 176.011 303.894 175.465C304.314 174.957 304.984 174.628 306.103 174.628C307.222 174.628 307.892 174.957 308.311 175.465C308.762 176.011 309.076 176.944 309.076 178.445V184.189H318.456V178.937C318.456 174.795 317.432 171.46 315.23 169.097C313.013 166.671 309.843 165.529 305.892 165.529C301.941 165.529 298.771 166.671 296.554 169.097C294.352 171.46 293.328 174.795 293.328 178.937V204.81C293.328 208.957 294.354 212.31 296.551 214.717ZM307.042 210.078C306.749 210.128 306.436 210.153 306.101 210.153C303.429 210.153 302.093 208.56 302.093 205.373V178.445C302.093 175.879 302.935 174.331 304.617 173.801C302.936 174.331 302.095 175.879 302.095 178.445V205.372C302.095 208.559 303.431 210.153 306.103 210.153C306.437 210.153 306.75 210.128 307.042 210.078ZM317.42 183.155H317.422V178.937C317.422 174.953 316.438 171.906 314.469 169.797C312.501 167.641 309.642 166.563 305.892 166.563C304.775 166.563 303.737 166.659 302.777 166.85C303.736 166.659 304.774 166.564 305.89 166.564C309.64 166.564 312.499 167.642 314.467 169.798C316.436 171.907 317.42 174.953 317.42 178.937V183.155ZM306.243 188.71H317.42V204.81C317.42 208.794 316.436 211.864 314.467 214.02C313.237 215.338 311.66 216.244 309.735 216.739C311.661 216.244 313.239 215.338 314.469 214.02C316.438 211.864 317.422 208.794 317.422 204.81V188.71H306.243V188.71ZM382.107 166.232H370.568V217.514H379.526V188.146L387.112 217.514H396.891V166.232H387.933V189.048L382.107 166.232ZM378.492 180.555H378.49V216.481H378.492V180.555ZM371.602 167.267V167.266H381.304L388.827 196.725H388.965V196.725H388.825L381.302 167.267H371.602ZM388.967 167.267H395.855V216.481H395.857V167.266H388.967V167.267ZM4.1428 167.267V167.266H15.9542C19.7976 167.266 22.6802 168.297 24.6019 170.36C26.5236 172.422 27.4844 175.445 27.4844 179.429V204.318C27.4844 208.302 26.5236 211.325 24.6019 213.387C23.2824 214.803 21.5099 215.733 19.2844 216.177C21.509 215.733 23.2808 214.803 24.5999 213.387C26.5216 211.325 27.4824 208.302 27.4824 204.318V179.43C27.4824 175.446 26.5216 172.422 24.5999 170.36C22.6782 168.298 19.7956 167.267 15.9522 167.267H4.1428ZM232.184 167.267V167.266H239.918V216.481H239.916V167.267H232.184Z" fill="white"/>
</mask>
<g mask="url(#mask0)">
<path d="M-88.3867 147.513L537.531 162.443L114.106 339.871L-88.3867 147.513Z" fill="#E0545A"/>
<path d="M-88.3893 147.512L537.528 162.441L123.769 298.095L-88.3893 147.512Z" fill="#EFAC41"/>
<path d="M-88.3905 147.513L537.527 162.442L143.066 262.176L-88.3905 147.513Z" fill="#53C63C"/>
<path d="M-88.3892 147.514L537.528 162.443L161.869 226.309L-88.3892 147.514Z" fill="#3D73D6"/>
<path d="M-88.3898 147.514L537.528 162.443L182.157 190.286L-88.3898 147.514Z" fill="#6E58DC"/>
</g>
<g opacity="0.6">
<path d="M2.94141 257.67H5.27321V239.874H2.94141V257.67Z" fill="white"/>
<path d="M22.2388 239.848V253.993L12.8604 239.848H10.5286V257.67H12.8604V243.499L22.2388 257.67H24.5706V239.848H22.2388Z" fill="white"/>
<path d="M49.9315 257.67H52.3915L45.9598 239.976H43.2693L36.812 257.67H39.2719L40.7068 253.712H48.4966L49.9315 257.67ZM47.8304 251.823H41.3731L44.6017 242.835L47.8304 251.823Z" fill="white"/>
<path d="M75.2317 252.02C75.2317 253.638 74.1308 254.543 72.2593 254.543H68.3787V249.388H72.1768C74.0483 249.388 75.2317 250.375 75.2317 252.02ZM74.7639 244.04C74.7639 245.603 73.718 246.426 71.9015 246.426H68.3787V241.627H71.9015C73.718 241.627 74.7639 242.504 74.7639 244.04ZM79.1399 252.486C79.1399 250.238 77.5986 248.236 75.4244 247.852C77.2959 247.249 78.6995 245.795 78.6995 243.464C78.6995 240.612 76.4702 238.528 72.452 238.528H64.5256V257.67H72.8098C76.8005 257.67 79.1399 255.53 79.1399 252.486Z" fill="white"/>
<path d="M93.7701 244.479C93.7701 246.206 92.8068 247.331 90.6601 247.331H87.44V241.709H90.6601C92.8068 241.709 93.7701 242.779 93.7701 244.479ZM83.5869 238.528V257.67H87.44V250.21H89.2565L93.4949 257.67H97.9535L93.3573 249.909C96.4398 249.086 97.7333 246.728 97.7333 244.397C97.7333 241.188 95.4215 238.528 90.7977 238.528H83.5869Z" fill="white"/>
<path d="M121.337 248.044C121.337 242.312 116.989 238.254 111.512 238.254C106.09 238.254 101.659 242.312 101.659 248.044C101.659 253.803 106.09 257.862 111.512 257.862C116.961 257.862 121.337 253.803 121.337 248.044ZM105.622 248.044C105.622 244.15 108.016 241.709 111.512 241.709C114.979 241.709 117.374 244.15 117.374 248.044C117.374 251.938 114.979 254.434 111.512 254.434C108.016 254.434 105.622 251.938 105.622 248.044Z" fill="white"/>
<path d="M138.625 257.67H142.699L135.791 238.5H131.304L124.396 257.67H128.442L129.708 254.022H137.359L138.625 257.67ZM136.314 250.951H130.754L133.534 242.943L136.314 250.951Z" fill="white"/>
<path d="M153.372 238.528H146.657V257.67H153.372C159.51 257.67 163.501 253.913 163.501 248.126C163.501 242.312 159.51 238.528 153.372 238.528ZM150.51 254.406V241.764H153.235C157.281 241.764 159.565 244.15 159.565 248.126C159.565 252.103 157.281 254.406 153.235 254.406H150.51Z" fill="white"/>
<path d="M178.907 238.5H167.761V257.67H178.907V254.543H171.614V249.47H178.082V246.426H171.614V241.627H178.907V238.5Z" fill="white"/>
<path d="M193.968 244.479C193.968 246.206 193.005 247.331 190.858 247.331H187.638V241.709H190.858C193.005 241.709 193.968 242.779 193.968 244.479ZM183.785 238.528V257.67H187.638V250.21H189.455L193.693 257.67H198.152L193.556 249.909C196.638 249.086 197.932 246.728 197.932 244.397C197.932 241.188 195.62 238.528 190.996 238.528H183.785Z" fill="white"/>
<path d="M214.58 247.221V241.654H217.635C219.809 241.654 220.772 242.696 220.772 244.451C220.772 246.152 219.809 247.221 217.635 247.221H214.58ZM224.736 244.451C224.736 241.133 222.424 238.528 217.8 238.528H210.727V257.67H214.58V250.32H217.8C222.754 250.32 224.736 247.358 224.736 244.451Z" fill="white"/>
<path d="M239.994 238.5H228.848V257.67H239.994V254.543H232.701V249.47H239.168V246.426H232.701V241.627H239.994V238.5Z" fill="white"/>
<path d="M255.055 244.479C255.055 246.206 254.092 247.331 251.945 247.331H248.725V241.709H251.945C254.092 241.709 255.055 242.779 255.055 244.479ZM244.872 238.528V257.67H248.725V250.21H250.541L254.78 257.67H259.238L254.642 249.909C257.725 249.086 259.018 246.728 259.018 244.397C259.018 241.188 256.706 238.528 252.083 238.528H244.872Z" fill="white"/>
<path d="M277.31 252.13C277.31 245.384 267.457 247.523 267.457 243.684C267.457 242.12 268.586 241.38 270.099 241.435C271.751 241.462 272.769 242.449 272.852 243.711H277.09C276.842 240.256 274.145 238.254 270.209 238.254C266.246 238.254 263.439 240.338 263.439 243.793C263.411 250.731 273.319 248.236 273.319 252.377C273.319 253.748 272.246 254.708 270.43 254.708C268.641 254.708 267.622 253.693 267.512 252.157H263.384C263.439 255.777 266.521 257.862 270.512 257.862C274.888 257.862 277.31 255.147 277.31 252.13Z" fill="white"/>
<path d="M285.88 247.221V241.654H288.935C291.109 241.654 292.072 242.696 292.072 244.451C292.072 246.152 291.109 247.221 288.935 247.221H285.88ZM296.036 244.451C296.036 241.133 293.724 238.528 289.1 238.528H282.027V257.67H285.88V250.32H289.1C294.054 250.32 296.036 247.358 296.036 244.451Z" fill="white"/>
<path d="M311.294 238.5H300.147V257.67H311.294V254.543H304V249.47H310.468V246.426H304V241.627H311.294V238.5Z" fill="white"/>
<path d="M315.236 248.071C315.236 253.803 319.447 257.834 324.979 257.834C329.245 257.834 332.712 255.585 334.006 251.636H329.575C328.667 253.501 327.015 254.406 324.951 254.406C321.593 254.406 319.199 251.938 319.199 248.071C319.199 244.177 321.593 241.736 324.951 241.736C327.015 241.736 328.667 242.641 329.575 244.479H334.006C332.712 240.557 329.245 238.281 324.979 238.281C319.447 238.281 315.236 242.34 315.236 248.071Z" fill="white"/>
<path d="M337.655 241.627H342.774V257.67H346.627V241.627H351.746V238.528H337.655V241.627Z" fill="white"/>
<path d="M355.934 257.67H359.787V238.528H355.934V257.67Z" fill="white"/>
<path d="M372.869 253.748L367.584 238.528H363.456L370.502 257.67H375.181L382.226 238.528H378.125L372.869 253.748Z" fill="white"/>
<path d="M397.059 238.5H385.913V257.67H397.059V254.543H389.766V249.47H396.233V246.426H389.766V241.627H397.059V238.5Z" fill="white"/>
</g>
<defs>
<filter id="filter0_i" x="12.6958" y="13.6287" width="119.025" height="123.025" filterUnits="userSpaceOnUse" color-interpolation-filters="sRGB">
<feFlood flood-opacity="0" result="BackgroundImageFix"/>
<feBlend mode="normal" in="SourceGraphic" in2="BackgroundImageFix" result="shape"/>
<feColorMatrix in="SourceAlpha" type="matrix" values="0 0 0 0 0 0 0 0 0 0 0 0 0 0 0 0 0 0 127 0" result="hardAlpha"/>
<feOffset dy="4"/>
<feGaussianBlur stdDeviation="2"/>
<feComposite in2="hardAlpha" operator="arithmetic" k2="-1" k3="1"/>
<feColorMatrix type="matrix" values="0 0 0 0 0 0 0 0 0 0 0 0 0 0 0 0 0 0 0.08 0"/>
<feBlend mode="normal" in2="shape" result="effect1_innerShadow"/>
</filter>
<filter id="filter1_i" x="28.5659" y="29.4985" width="87.2849" height="91.2849" filterUnits="userSpaceOnUse" color-interpolation-filters="sRGB">
<feFlood flood-opacity="0" result="BackgroundImageFix"/>
<feBlend mode="normal" in="SourceGraphic" in2="BackgroundImageFix" result="shape"/>
<feColorMatrix in="SourceAlpha" type="matrix" values="0 0 0 0 0 0 0 0 0 0 0 0 0 0 0 0 0 0 127 0" result="hardAlpha"/>
<feOffset dy="4"/>
<feGaussianBlur stdDeviation="2"/>
<feComposite in2="hardAlpha" operator="arithmetic" k2="-1" k3="1"/>
<feColorMatrix type="matrix" values="0 0 0 0 0 0 0 0 0 0 0 0 0 0 0 0 0 0 0.08 0"/>
<feBlend mode="normal" in2="shape" result="effect1_innerShadow"/>
</filter>
<filter id="filter2_i" x="44.436" y="45.3687" width="55.5449" height="59.5449" filterUnits="userSpaceOnUse" color-interpolation-filters="sRGB">
<feFlood flood-opacity="0" result="BackgroundImageFix"/>
<feBlend mode="normal" in="SourceGraphic" in2="BackgroundImageFix" result="shape"/>
<feColorMatrix in="SourceAlpha" type="matrix" values="0 0 0 0 0 0 0 0 0 0 0 0 0 0 0 0 0 0 127 0" result="hardAlpha"/>
<feOffset dy="4"/>
<feGaussianBlur stdDeviation="2"/>
<feComposite in2="hardAlpha" operator="arithmetic" k2="-1" k3="1"/>
<feColorMatrix type="matrix" values="0 0 0 0 0 0 0 0 0 0 0 0 0 0 0 0 0 0 0.08 0"/>
<feBlend mode="normal" in2="shape" result="effect1_innerShadow"/>
</filter>
</defs>
</svg>
