<svg width="441" height="161" viewBox="0 0 441 161" fill="none" xmlns="http://www.w3.org/2000/svg">
<path d="M0 0.896484H79.4519C123.332 0.896484 158.904 36.4683 158.904 80.3484C158.904 124.228 123.332 159.8 79.4519 159.8H0V0.896484Z" fill="#E84238"/>
<g filter="url(#filter0_i)">
<path d="M13.9697 14.8662H79.452C115.617 14.8662 144.934 44.1836 144.934 80.3485C144.934 116.513 115.617 145.831 79.452 145.831H13.9697V14.8662Z" fill="#DB3329"/>
</g>
<g filter="url(#filter1_i)">
<path d="M31.4316 32.3279H79.452C105.973 32.3279 127.472 53.8273 127.472 80.3482C127.472 106.869 105.973 128.369 79.452 128.369H31.4316V32.3279Z" fill="#C9261C"/>
</g>
<g filter="url(#filter2_i)">
<path d="M48.8936 49.7898H79.452C96.3289 49.7898 110.01 63.4713 110.01 80.3482C110.01 97.2252 96.3289 110.907 79.452 110.907H48.8936V49.7898Z" fill="#AF160C"/>
</g>
<path d="M414.829 117.987H393.634V113.05L403.367 100.683C404.602 98.9714 405.508 97.4738 406.084 96.1902C406.677 94.8901 406.973 93.6477 406.973 92.4628C406.973 90.8665 406.694 89.6158 406.134 88.7107C405.59 87.8056 404.8 87.353 403.762 87.353C402.626 87.353 401.72 87.8796 401.045 88.9328C400.386 89.9861 400.056 91.4672 400.056 93.3761H393.041C393.041 91.1709 393.494 89.155 394.399 87.3283C395.322 85.5016 396.606 84.0864 398.253 83.0825C399.917 82.0622 401.794 81.5521 403.886 81.5521C407.097 81.5521 409.584 82.4407 411.346 84.218C413.125 85.9789 414.014 88.4885 414.014 91.7469C414.014 93.7711 413.52 95.8281 412.532 97.9181C411.56 99.9917 409.79 102.551 407.221 105.595L402.601 112.186H414.829V117.987Z" fill="white"/>
<path d="M440.126 103.127C440.126 108.097 439.22 111.898 437.408 114.531C435.613 117.164 433.044 118.481 429.701 118.481C426.39 118.481 423.829 117.205 422.018 114.654C420.223 112.087 419.292 108.417 419.226 103.645V96.8567C419.226 91.9033 420.124 88.1182 421.919 85.5016C423.714 82.8686 426.292 81.5521 429.651 81.5521C433.011 81.5521 435.588 82.8521 437.383 85.4523C439.179 88.0524 440.093 91.7634 440.126 96.5851V103.127ZM433.11 95.8446C433.11 93.0141 432.83 90.8912 432.27 89.4759C431.71 88.0606 430.837 87.353 429.651 87.353C427.428 87.353 426.275 89.9449 426.193 95.1287V104.089C426.193 106.986 426.473 109.142 427.033 110.557C427.609 111.972 428.498 112.68 429.701 112.68C430.837 112.68 431.677 112.021 432.22 110.705C432.78 109.372 433.077 107.34 433.11 104.608V95.8446Z" fill="white"/>
<path d="M414.829 158.431H393.634V153.494L403.367 141.127C404.602 139.415 405.508 137.918 406.084 136.634C406.677 135.334 406.973 134.091 406.973 132.906C406.973 131.31 406.694 130.059 406.134 129.154C405.59 128.249 404.8 127.797 403.762 127.797C402.626 127.797 401.72 128.323 401.045 129.377C400.386 130.43 400.056 131.911 400.056 133.82H393.041C393.041 131.615 393.494 129.599 394.399 127.772C395.322 125.945 396.606 124.53 398.253 123.526C399.917 122.506 401.794 121.996 403.886 121.996C407.097 121.996 409.584 122.884 411.346 124.662C413.125 126.423 414.014 128.932 414.014 132.191C414.014 134.215 413.52 136.272 412.532 138.362C411.56 140.435 409.79 142.994 407.221 146.039L402.601 152.63H414.829V158.431Z" fill="white"/>
<path d="M434.617 158.431H427.601V130.981L420.758 133.622V127.797L433.876 122.44H434.617V158.431Z" fill="white"/>
<path d="M161.383 160.388C172.823 160.388 182.868 157.312 191.378 151.022C199.888 144.732 205.748 135.926 208.957 124.464H186.774C184.542 129.636 181.054 133.55 176.451 136.206C171.847 138.862 166.685 140.259 161.104 140.259C152.734 140.259 145.758 137.324 140.317 131.593C134.876 125.862 132.086 118.594 132.086 109.787C132.086 100.981 134.876 93.7129 140.317 87.8421C145.758 81.9714 152.734 79.036 161.104 79.036C166.824 79.036 171.986 80.4338 176.59 83.2294C181.194 86.025 184.542 89.9388 186.635 94.9709H208.817C205.608 83.509 199.749 74.7029 191.239 68.4128C182.729 62.1228 172.684 59.0476 161.244 59.0476C146.456 59.0476 134.318 63.9399 124.832 73.5846C115.345 83.2294 110.602 95.2504 110.602 109.648C110.602 124.185 115.345 136.346 124.832 145.99C134.318 155.635 146.456 160.527 161.244 160.527L161.383 160.388Z" fill="white"/>
<path d="M258.106 160.248C269.406 160.248 278.753 156.613 286.147 149.205C293.541 141.797 297.169 132.571 297.169 121.529C297.169 110.486 293.541 101.261 286.147 93.8526C278.753 86.4443 269.406 82.8101 258.106 82.8101C246.805 82.8101 237.458 86.4443 230.064 93.8526C222.67 101.261 218.903 110.486 218.903 121.529C218.903 132.571 222.53 141.797 229.925 149.205C237.319 156.613 246.666 160.248 258.106 160.248ZM258.106 140.818C252.665 140.818 248.2 139.001 244.713 135.367C241.225 131.733 239.411 127.12 239.411 121.669C239.411 116.078 241.085 111.465 244.573 107.831C248.061 104.196 252.525 102.379 257.966 102.379C263.407 102.379 267.871 104.196 271.359 107.831C274.847 111.465 276.521 116.078 276.521 121.669C276.521 127.12 274.847 131.733 271.359 135.367C267.871 139.001 263.407 140.818 257.966 140.818H258.106Z" fill="white"/>
<path d="M310.403 158.431H330.771V115.658C330.771 111.884 331.887 108.809 334.259 106.293C336.63 103.777 339.56 102.519 343.187 102.519C346.675 102.519 349.605 103.777 351.837 106.153C354.069 108.529 355.185 111.605 355.185 115.379V158.291H375.554V108.809C375.554 101.401 373.182 95.2504 368.439 90.2184C363.696 85.1863 357.418 82.6703 349.744 82.6703C341.792 82.6703 335.793 85.4659 331.748 91.1968H330.353V84.4874H309.984L310.403 158.431Z" fill="white"/>
<path d="M247.855 62.9629V44.4785H252.743C254.901 44.4785 256.619 45.1641 257.897 46.5352C259.183 47.9062 259.839 49.7852 259.865 52.1719V55.168C259.865 57.597 259.221 59.5055 257.935 60.8936C256.657 62.2731 254.892 62.9629 252.641 62.9629H247.855ZM251.587 47.5889V59.8652H252.704C253.949 59.8652 254.825 59.5394 255.332 58.8877C255.84 58.2275 256.107 57.0934 256.132 55.4854V52.2734C256.132 50.5469 255.891 49.3451 255.409 48.668C254.926 47.9824 254.105 47.6227 252.946 47.5889H251.587ZM267.926 63.2168C266.081 63.2168 264.642 62.6667 263.61 61.5664C262.577 60.4661 262.061 58.8919 262.061 56.8438V55.752C262.061 53.5853 262.535 51.9137 263.483 50.7373C264.431 49.5609 265.789 48.9727 267.558 48.9727C269.285 48.9727 270.584 49.527 271.455 50.6357C272.327 51.736 272.771 53.3695 272.788 55.5361V57.3008H265.641C265.692 58.3164 265.916 59.0612 266.314 59.5352C266.712 60.0007 267.325 60.2334 268.155 60.2334C269.356 60.2334 270.359 59.8229 271.163 59.002L272.573 61.1729C272.132 61.7822 271.493 62.2773 270.656 62.6582C269.818 63.0306 268.908 63.2168 267.926 63.2168ZM265.666 54.7871H269.259V54.457C269.242 53.6361 269.107 53.014 268.853 52.5908C268.599 52.1676 268.159 51.9561 267.533 51.9561C266.906 51.9561 266.449 52.1803 266.161 52.6289C265.882 53.0775 265.717 53.7969 265.666 54.7871ZM280.901 59.2812C280.901 58.9766 280.753 58.6973 280.456 58.4434C280.169 58.181 279.521 57.8298 278.514 57.3896C277.033 56.7887 276.013 56.1667 275.454 55.5234C274.904 54.8802 274.629 54.0804 274.629 53.124C274.629 51.9222 275.061 50.932 275.924 50.1533C276.796 49.3662 277.947 48.9727 279.377 48.9727C280.884 48.9727 282.09 49.362 282.995 50.1406C283.901 50.9193 284.354 51.9645 284.354 53.2764H280.761C280.761 52.1592 280.296 51.6006 279.365 51.6006C278.984 51.6006 278.671 51.7191 278.425 51.9561C278.18 52.193 278.057 52.5231 278.057 52.9463C278.057 53.251 278.192 53.5218 278.463 53.7588C278.734 53.9873 279.373 54.3174 280.38 54.749C281.844 55.2907 282.877 55.8958 283.478 56.5645C284.087 57.2246 284.392 58.0837 284.392 59.1416C284.392 60.3688 283.931 61.3548 283.008 62.0996C282.086 62.8444 280.875 63.2168 279.377 63.2168C278.37 63.2168 277.481 63.0221 276.711 62.6328C275.941 62.235 275.336 61.6849 274.896 60.9824C274.464 60.2799 274.248 59.5225 274.248 58.71H277.663C277.68 59.3363 277.824 59.806 278.095 60.1191C278.374 60.4323 278.827 60.5889 279.453 60.5889C280.418 60.5889 280.901 60.153 280.901 59.2812ZM290.397 62.9629H286.791V49.2266H290.397V62.9629ZM286.626 45.6719C286.626 45.1133 286.804 44.6562 287.16 44.3008C287.515 43.9453 287.989 43.7676 288.581 43.7676C289.174 43.7676 289.648 43.9453 290.003 44.3008C290.359 44.6562 290.536 45.1133 290.536 45.6719C290.536 46.222 290.359 46.679 290.003 47.043C289.656 47.4069 289.182 47.5889 288.581 47.5889C287.98 47.5889 287.502 47.4069 287.147 47.043C286.8 46.679 286.626 46.222 286.626 45.6719ZM292.745 55.6758C292.745 53.4245 293.152 51.7445 293.964 50.6357C294.777 49.527 295.915 48.9727 297.379 48.9727C298.623 48.9727 299.584 49.4635 300.261 50.4453L300.401 49.2266H303.638V62.9629C303.638 64.7148 303.147 66.0521 302.165 66.9746C301.184 67.9056 299.774 68.3711 297.938 68.3711C297.185 68.3711 296.393 68.2188 295.564 67.9141C294.734 67.6178 294.117 67.237 293.71 66.7715L294.916 64.2832C295.255 64.6387 295.695 64.9264 296.237 65.1465C296.778 65.375 297.29 65.4893 297.773 65.4893C298.577 65.4893 299.152 65.2946 299.499 64.9053C299.855 64.5244 300.037 63.9066 300.045 63.0518V61.8711C299.36 62.7682 298.467 63.2168 297.367 63.2168C295.902 63.2168 294.768 62.6497 293.964 61.5156C293.169 60.373 292.762 58.765 292.745 56.6914V55.6758ZM296.338 56.5771C296.338 57.8467 296.503 58.7734 296.833 59.3574C297.163 59.9329 297.688 60.2207 298.408 60.2207C299.144 60.2207 299.69 59.9541 300.045 59.4209V52.8574C299.673 52.2734 299.135 51.9814 298.433 51.9814C297.722 51.9814 297.193 52.2734 296.846 52.8574C296.507 53.4414 296.338 54.3809 296.338 55.6758V56.5771ZM309.541 49.2266L309.643 50.585C310.455 49.5101 311.518 48.9727 312.829 48.9727C315.191 48.9727 316.405 50.6273 316.473 53.9365V62.9629H312.868V54.2031C312.868 53.4245 312.749 52.8617 312.512 52.5146C312.284 52.1592 311.877 51.9814 311.293 51.9814C310.642 51.9814 310.134 52.3158 309.77 52.9844V62.9629H306.164V49.2266H309.541ZM330.006 60.2334C331.047 60.2334 331.576 59.5563 331.593 58.2021H334.97C334.953 59.7002 334.492 60.9105 333.586 61.833C332.681 62.7555 331.513 63.2168 330.082 63.2168C328.313 63.2168 326.964 62.6667 326.033 61.5664C325.102 60.4661 324.628 58.8454 324.611 56.7041V55.6123C324.611 53.4541 325.068 51.8079 325.982 50.6738C326.904 49.5397 328.263 48.9727 330.057 48.9727C331.572 48.9727 332.765 49.4424 333.637 50.3818C334.509 51.3128 334.953 52.6374 334.97 54.3555H331.593C331.585 53.5853 331.458 52.9928 331.212 52.5781C330.967 52.1634 330.561 51.9561 329.993 51.9561C329.367 51.9561 328.919 52.1803 328.648 52.6289C328.377 53.069 328.233 53.9281 328.216 55.2061V56.6025C328.216 57.7197 328.271 58.5026 328.381 58.9512C328.491 59.3913 328.673 59.7171 328.927 59.9287C329.181 60.1318 329.541 60.2334 330.006 60.2334ZM336.582 55.6504C336.582 53.5684 337.073 51.9349 338.055 50.75C339.037 49.5651 340.395 48.9727 342.13 48.9727C343.882 48.9727 345.249 49.5651 346.231 50.75C347.213 51.9349 347.703 53.5768 347.703 55.6758V56.5518C347.703 58.6423 347.217 60.2757 346.243 61.4521C345.27 62.6286 343.908 63.2168 342.156 63.2168C340.395 63.2168 339.024 62.6286 338.042 61.4521C337.069 60.2673 336.582 58.6253 336.582 56.5264V55.6504ZM340.188 56.5518C340.188 59.0062 340.844 60.2334 342.156 60.2334C343.366 60.2334 344.018 59.2093 344.111 57.1611L344.123 55.6504C344.123 54.3978 343.95 53.471 343.603 52.8701C343.256 52.2607 342.765 51.9561 342.13 51.9561C341.521 51.9561 341.043 52.2607 340.696 52.8701C340.357 53.471 340.188 54.3978 340.188 55.6504V56.5518ZM353.239 49.2266L353.34 50.585C354.153 49.5101 355.215 48.9727 356.527 48.9727C358.888 48.9727 360.103 50.6273 360.17 53.9365V62.9629H356.565V54.2031C356.565 53.4245 356.446 52.8617 356.209 52.5146C355.981 52.1592 355.575 51.9814 354.991 51.9814C354.339 51.9814 353.831 52.3158 353.467 52.9844V62.9629H349.862V49.2266H353.239ZM363.573 62.9629V51.9307H361.91V49.2266H363.573V47.9951C363.581 46.4801 363.979 45.3037 364.766 44.4658C365.562 43.6195 366.658 43.1963 368.054 43.1963C368.477 43.1963 369.019 43.2809 369.679 43.4502L369.654 46.3193C369.408 46.2432 369.116 46.2051 368.778 46.2051C367.711 46.2051 367.178 46.8398 367.178 48.1094V49.2266H369.324V51.9307H367.178V62.9629H363.573ZM376.522 63.2168C374.677 63.2168 373.238 62.6667 372.205 61.5664C371.173 60.4661 370.657 58.8919 370.657 56.8438V55.752C370.657 53.5853 371.131 51.9137 372.078 50.7373C373.026 49.5609 374.385 48.9727 376.154 48.9727C377.88 48.9727 379.179 49.527 380.051 50.6357C380.923 51.736 381.367 53.3695 381.384 55.5361V57.3008H374.237C374.287 58.3164 374.512 59.0612 374.91 59.5352C375.307 60.0007 375.921 60.2334 376.75 60.2334C377.952 60.2334 378.955 59.8229 379.759 59.002L381.168 61.1729C380.728 61.7822 380.089 62.2773 379.251 62.6582C378.413 63.0306 377.504 63.2168 376.522 63.2168ZM374.262 54.7871H377.855V54.457C377.838 53.6361 377.702 53.014 377.449 52.5908C377.195 52.1676 376.755 51.9561 376.128 51.9561C375.502 51.9561 375.045 52.1803 374.757 52.6289C374.478 53.0775 374.313 53.7969 374.262 54.7871ZM390.195 52.6924L389.001 52.5908C388.02 52.5908 387.355 53.0225 387.008 53.8857V62.9629H383.403V49.2266H386.792L386.894 50.7119C387.461 49.5524 388.244 48.9727 389.243 48.9727C389.649 48.9727 389.979 49.0277 390.233 49.1377L390.195 52.6924ZM397.342 63.2168C395.497 63.2168 394.058 62.6667 393.026 61.5664C391.993 60.4661 391.477 58.8919 391.477 56.8438V55.752C391.477 53.5853 391.951 51.9137 392.899 50.7373C393.847 49.5609 395.205 48.9727 396.974 48.9727C398.701 48.9727 400 49.527 400.871 50.6357C401.743 51.736 402.187 53.3695 402.204 55.5361V57.3008H395.057C395.108 58.3164 395.332 59.0612 395.73 59.5352C396.128 60.0007 396.741 60.2334 397.571 60.2334C398.772 60.2334 399.775 59.8229 400.579 59.002L401.989 61.1729C401.548 61.7822 400.91 62.2773 400.072 62.6582C399.234 63.0306 398.324 63.2168 397.342 63.2168ZM395.082 54.7871H398.675V54.457C398.658 53.6361 398.523 53.014 398.269 52.5908C398.015 52.1676 397.575 51.9561 396.949 51.9561C396.322 51.9561 395.865 52.1803 395.577 52.6289C395.298 53.0775 395.133 53.7969 395.082 54.7871ZM407.524 49.2266L407.625 50.585C408.438 49.5101 409.5 48.9727 410.812 48.9727C413.173 48.9727 414.388 50.6273 414.455 53.9365V62.9629H410.85V54.2031C410.85 53.4245 410.731 52.8617 410.494 52.5146C410.266 52.1592 409.86 51.9814 409.276 51.9814C408.624 51.9814 408.116 52.3158 407.752 52.9844V62.9629H404.147V49.2266H407.524ZM421.996 60.2334C423.037 60.2334 423.566 59.5563 423.583 58.2021H426.96C426.943 59.7002 426.482 60.9105 425.576 61.833C424.671 62.7555 423.503 63.2168 422.073 63.2168C420.304 63.2168 418.954 62.6667 418.023 61.5664C417.092 60.4661 416.618 58.8454 416.601 56.7041V55.6123C416.601 53.4541 417.058 51.8079 417.972 50.6738C418.895 49.5397 420.253 48.9727 422.047 48.9727C423.562 48.9727 424.756 49.4424 425.627 50.3818C426.499 51.3128 426.943 52.6374 426.96 54.3555H423.583C423.575 53.5853 423.448 52.9928 423.202 52.5781C422.957 52.1634 422.551 51.9561 421.984 51.9561C421.357 51.9561 420.909 52.1803 420.638 52.6289C420.367 53.069 420.223 53.9281 420.206 55.2061V56.6025C420.206 57.7197 420.261 58.5026 420.371 58.9512C420.481 59.3913 420.663 59.7171 420.917 59.9287C421.171 60.1318 421.531 60.2334 421.996 60.2334ZM434.539 63.2168C432.694 63.2168 431.256 62.6667 430.223 61.5664C429.19 60.4661 428.674 58.8919 428.674 56.8438V55.752C428.674 53.5853 429.148 51.9137 430.096 50.7373C431.044 49.5609 432.402 48.9727 434.171 48.9727C435.898 48.9727 437.197 49.527 438.069 50.6357C438.94 51.736 439.385 53.3695 439.402 55.5361V57.3008H432.254C432.305 58.3164 432.529 59.0612 432.927 59.5352C433.325 60.0007 433.938 60.2334 434.768 60.2334C435.97 60.2334 436.973 59.8229 437.777 59.002L439.186 61.1729C438.746 61.7822 438.107 62.2773 437.269 62.6582C436.431 63.0306 435.521 63.2168 434.539 63.2168ZM432.28 54.7871H435.872V54.457C435.855 53.6361 435.72 53.014 435.466 52.5908C435.212 52.1676 434.772 51.9561 434.146 51.9561C433.52 51.9561 433.062 52.1803 432.775 52.6289C432.495 53.0775 432.33 53.7969 432.28 54.7871Z" fill="#E84238"/>
<defs>
<filter id="filter0_i" x="13.9697" y="14.8662" width="130.965" height="134.965" filterUnits="userSpaceOnUse" color-interpolation-filters="sRGB">
<feFlood flood-opacity="0" result="BackgroundImageFix"/>
<feBlend mode="normal" in="SourceGraphic" in2="BackgroundImageFix" result="shape"/>
<feColorMatrix in="SourceAlpha" type="matrix" values="0 0 0 0 0 0 0 0 0 0 0 0 0 0 0 0 0 0 127 0" result="hardAlpha"/>
<feOffset dy="4"/>
<feGaussianBlur stdDeviation="2"/>
<feComposite in2="hardAlpha" operator="arithmetic" k2="-1" k3="1"/>
<feColorMatrix type="matrix" values="0 0 0 0 0 0 0 0 0 0 0 0 0 0 0 0 0 0 0.08 0"/>
<feBlend mode="normal" in2="shape" result="effect1_innerShadow"/>
</filter>
<filter id="filter1_i" x="31.4316" y="32.3279" width="96.0407" height="100.041" filterUnits="userSpaceOnUse" color-interpolation-filters="sRGB">
<feFlood flood-opacity="0" result="BackgroundImageFix"/>
<feBlend mode="normal" in="SourceGraphic" in2="BackgroundImageFix" result="shape"/>
<feColorMatrix in="SourceAlpha" type="matrix" values="0 0 0 0 0 0 0 0 0 0 0 0 0 0 0 0 0 0 127 0" result="hardAlpha"/>
<feOffset dy="4"/>
<feGaussianBlur stdDeviation="2"/>
<feComposite in2="hardAlpha" operator="arithmetic" k2="-1" k3="1"/>
<feColorMatrix type="matrix" values="0 0 0 0 0 0 0 0 0 0 0 0 0 0 0 0 0 0 0.08 0"/>
<feBlend mode="normal" in2="shape" result="effect1_innerShadow"/>
</filter>
<filter id="filter2_i" x="48.8936" y="49.7898" width="61.1168" height="65.1168" filterUnits="userSpaceOnUse" color-interpolation-filters="sRGB">
<feFlood flood-opacity="0" result="BackgroundImageFix"/>
<feBlend mode="normal" in="SourceGraphic" in2="BackgroundImageFix" result="shape"/>
<feColorMatrix in="SourceAlpha" type="matrix" values="0 0 0 0 0 0 0 0 0 0 0 0 0 0 0 0 0 0 127 0" result="hardAlpha"/>
<feOffset dy="4"/>
<feGaussianBlur stdDeviation="2"/>
<feComposite in2="hardAlpha" operator="arithmetic" k2="-1" k3="1"/>
<feColorMatrix type="matrix" values="0 0 0 0 0 0 0 0 0 0 0 0 0 0 0 0 0 0 0.08 0"/>
<feBlend mode="normal" in2="shape" result="effect1_innerShadow"/>
</filter>
</defs>
</svg>
