<?xml version="1.0" encoding="utf-8"?>
<!-- Generator: Adobe Illustrator 22.1.0, SVG Export Plug-In . SVG Version: 6.00 Build 0)  -->
<svg version="1.1" id="Layer_1" xmlns="http://www.w3.org/2000/svg" xmlns:xlink="http://www.w3.org/1999/xlink" x="0px" y="0px"
	 viewBox="0 0 633 403" style="enable-background:new 0 0 633 403;" xml:space="preserve">
<style type="text/css">
	.st0{fill:#FFFFFF;stroke:#000000;stroke-miterlimit:10;}
	.st1{fill:#DB7294;stroke:#000000;stroke-miterlimit:10;}
	.st2{fill:#EEDA36;stroke:#000000;stroke-miterlimit:10;}
	.st3{fill:#672ED6;stroke:#000000;stroke-miterlimit:10;}
	.st4{fill:none;stroke:#000000;stroke-miterlimit:10;}
	.st5{fill:#EA7068;}
	.st6{fill:#F5AEAA;}
	.st7{fill:none;stroke:#9E88E5;stroke-miterlimit:10;}
	.st8{fill:#9E88E5;}
	.st9{fill:none;stroke:#EEDA36;stroke-miterlimit:10;}
	.st10{fill:none;stroke:#DB7294;stroke-miterlimit:10;}
	.st11{fill:none;stroke:#DB7294;stroke-miterlimit:10;stroke-dasharray:3.85,3.85;}
	.st12{fill:#63C1C5;stroke:#000000;stroke-miterlimit:10;}
	.st13{fill:#FFFFFF;}
	.st14{fill:#63C1C5;}
	.st15{fill:#FEFEFF;stroke:#000000;stroke-miterlimit:10;}
	.st16{fill:none;stroke:#000000;stroke-width:2;stroke-miterlimit:10;}
	.st17{fill:#E4B0C8;}
	.st18{fill:#141414;}
	.st19{fill:#F7F6F6;}
	.st20{fill:none;stroke:#672ED6;stroke-miterlimit:10;}
	.st21{fill:#D96980;}
	.st22{fill:#090909;}
	.st23{fill:#EEDA36;}
	.st24{fill:none;stroke:#D7D4FC;stroke-miterlimit:10;}
	.st25{fill:none;stroke:#672ED6;stroke-width:0.75;stroke-linecap:round;stroke-linejoin:round;}
	.st26{fill:none;stroke:#D96980;stroke-miterlimit:10;}
</style>
<g>
	<path class="st0" d="M132.5,337.4h252.7c15.2,0,27.5-12.3,27.5-27.5V132.7c0-15.2-12.3-27.5-27.5-27.5H132.5
		c-15.2,0-27.5,12.3-27.5,27.5v177.2C105,325.1,117.3,337.4,132.5,337.4z"/>
	<path class="st1" d="M135,126.3c0,1-0.3,2-0.9,2.9c-0.6,0.8-1.4,1.5-2.3,1.9c-1,0.4-2,0.5-3,0.3c-1-0.2-1.9-0.7-2.6-1.4
		c-0.7-0.7-1.2-1.7-1.4-2.7c-0.2-1-0.1-2,0.3-3c0.4-0.9,1.1-1.8,1.9-2.3c0.9-0.6,1.9-0.9,2.9-0.9c0.7,0,1.4,0.1,2,0.4
		c0.6,0.3,1.2,0.7,1.7,1.1c0.5,0.5,0.9,1.1,1.1,1.7C134.9,125,135,125.7,135,126.3z"/>
	<path class="st2" d="M155.8,126.3c0,1-0.3,2-0.9,2.9c-0.6,0.8-1.4,1.5-2.3,1.9c-1,0.4-2,0.5-3,0.3c-1-0.2-1.9-0.7-2.6-1.4
		c-0.7-0.7-1.2-1.7-1.4-2.7c-0.2-1-0.1-2,0.3-3c0.4-0.9,1.1-1.8,1.9-2.3c0.9-0.6,1.9-0.9,2.9-0.9c1.4,0,2.7,0.6,3.7,1.6
		C155.2,123.6,155.8,125,155.8,126.3z"/>
	<path class="st3" d="M176.5,126.3c0,1-0.3,2-0.9,2.9s-1.4,1.5-2.4,1.9c-1,0.4-2,0.5-3,0.3c-1-0.2-1.9-0.7-2.7-1.4
		c-0.7-0.7-1.2-1.7-1.4-2.7c-0.2-1-0.1-2.1,0.3-3c0.4-1,1.1-1.8,1.9-2.3c0.9-0.6,1.9-0.9,2.9-0.9c1.4,0,2.7,0.6,3.7,1.6
		C175.9,123.6,176.5,125,176.5,126.3z"/>
	<path class="st4" d="M105.7,144.8h307.1"/>
	<path class="st5" d="M270,205.4v-41.9c-8.7,0-17.1,2.7-24.2,7.7c-7.1,5-12.5,12.1-15.4,20.3c-2.9,8.2-3.2,17.1-0.8,25.4
		c2.4,8.3,7.2,15.8,14,21.2c6.7,5.5,15,8.7,23.7,9.2s17.3-1.6,24.7-6.1c7.4-4.5,13.2-11.3,16.6-19.3c3.4-8,4.3-16.8,2.4-25.3
		L270,205.4z"/>
	<path class="st6" d="M316.2,189.3c-2-9.4-7.2-17.8-14.6-23.8c-7.4-6-16.7-9.3-26.3-9.3v41.9L316.2,189.3z"/>
	<path class="st7" d="M391.8,170.1h-50.3c-0.9,0-1.8-0.4-2.5-1c-0.7-0.7-1-1.6-1-2.5l0,0c0-0.5,0.1-0.9,0.3-1.4
		c0.2-0.4,0.4-0.8,0.8-1.1c0.3-0.3,0.7-0.6,1.1-0.8c0.4-0.2,0.9-0.3,1.4-0.3h50.3c0.9,0,1.8,0.4,2.5,1c0.7,0.7,1,1.6,1,2.5l0,0
		c0,0.9-0.4,1.8-1,2.5C393.6,169.7,392.7,170.1,391.8,170.1z"/>
	<path class="st7" d="M341.6,175.3h48.6"/>
	<path class="st7" d="M341.6,181.9h48.6"/>
	<path class="st7" d="M341.6,188.3h48.6"/>
	<path class="st7" d="M341.6,195.1h48.6"/>
	<path class="st7" d="M341.6,201.6h48.6"/>
	<path class="st7" d="M341.6,208.1h48.6"/>
	<path class="st7" d="M300.7,183l17.8-14.6h15.7"/>
	<path class="st7" d="M144.7,222.1v82.4h124.7"/>
	<path class="st8" d="M144.7,222.6h-4.4l2.2-3.9l2.2-3.8l2.2,3.8l2.2,3.9H144.7z"/>
	<path class="st8" d="M268.1,304.5v-4.4l3.8,2.2l3.9,2.2l-3.9,2.2l-3.8,2.2V304.5z"/>
	<path class="st9" d="M134.4,297.7l30.3-27.3l24.9,26.8l31.5-57.6l23,56.2"/>
	<path class="st10" d="M124,257.1c0,0,1.1-1.1,2.9-2.8"/>
	<path class="st11" d="M133,249.1c8.1-6.1,19.7-12.3,27.1-5.2c12.3,11.8,9.4,20.9,34,15.6c23.1-5,51.6,1.9,59.9,41.4"/>
	<path class="st10" d="M254.7,304.9c0.2,1.3,0.4,2.7,0.6,4.1"/>
	<path class="st12" d="M511.9,210.6c0,0,75.7,29.6,115.8,157.6l-51.3,25.4l-37.9-96.9L511.9,210.6z"/>
	<path class="st13" d="M286.2,235.9c0,0-12.9-8.3-11.3-12.3c0.2-0.5,0.5-1,0.9-1.3c0.4-0.4,0.9-0.7,1.4-0.8c0.5-0.2,1.1-0.2,1.6-0.1
		c0.5,0.1,1,0.3,1.5,0.6c0,0-3.8-2.4-2-5c0.4-0.7,1-1.3,1.8-1.6c0.8-0.3,1.6-0.3,2.4-0.1c0,0-2.7-4.1-0.1-5.5
		c2.1-0.9,4.4-1.1,6.6-0.5c-0.7-1.4-1.2-2.9-1.5-4.5c0-1.2,1.8-3.8,7.3-2.5c5.5,1.3,17.3,7.8,21.2,9.8c4,2,8.4,6.7,8.6,5.2
		c0.1-1.5,1.8-11.2,5.6-14c3.8-2.8,5.2-3.3,5.9,2s0.5,20.3,7.7,31.3c7.2,11,9.8,18.4,17.4,27.3c7.7,8.8,11.2,13.4,11.2,13.4
		l-34.6,28.2c0,0-33.6-50.5-33.8-50.9C303.7,254.4,292.8,241.1,286.2,235.9z"/>
	<path class="st4" d="M279.1,221.7c0,0-4.3-7,3.7-6.1c8,0.9,19,8.3,24.2,12.3"/>
	<path class="st4" d="M315.8,243.6c0,0-2.9-9,9.9-12.7c0,0-4.9-19.1,4.4-27.5c9.2-8.5,4.2,13.3,10.4,26.6
		c6.2,13.3,13.2,26.1,19.8,33.1c6.6,7,12.3,14.6,12.3,14.6l-35,28.1c0,0-12-18.2-30.4-46.4c-18.4-28.2-34.8-28.8-32.2-35.8
		c3-8.5,24.8,11.5,24.8,11.5"/>
	<path class="st4" d="M282.8,215.5c0,0-4.1-5.1,1.1-6.4c1.1-0.2,2.2-0.2,3.2,0c6.3,0.8,16.9,6.1,24.6,12.1"/>
	<path class="st4" d="M324.5,218.8c0,0-15.1-14.1-32.3-16.4c-6.1-0.8-6,5.3,0.2,7.9"/>
	<path class="st14" d="M397.5,295.1c-5.2-3.7-10.1-7.8-14.6-12.3c-10.4-10.5-20-21.8-28.7-33.8l-38,32.6c0,0,41.5,64.4,66.4,72.4
		s81.9-56.7,81.9-56.7l4.4-85.1c-6.9,3.8-13.4,8.3-19.3,13.5c-14.1,12.7-38.8,35.5-66.7,57.2"/>
	<path class="st4" d="M397.5,295.1c-5.2-3.7-10.1-7.8-14.6-12.3c-10.4-10.5-20-21.8-28.7-33.8l-38,32.6c0,0,41.5,64.4,66.4,72.4
		s81.9-56.7,81.9-56.7l4.4-85.1c-6.9,3.8-13.4,8.3-19.3,13.5c-14.1,12.7-38.8,35.5-66.7,57.2"/>
	<path class="st0" d="M366.6,265.2c-7.4-8.9-12.4-16-12.4-16l-38,32.6c0,0,4.8,7.5,12.2,17.7L366.6,265.2z"/>
	<path class="st0" d="M357.3,261.5c0,0.5-0.1,1-0.4,1.4c-0.3,0.4-0.7,0.8-1.2,1c-0.5,0.2-1,0.3-1.5,0.2c-0.5-0.1-1-0.3-1.3-0.7
		c-0.4-0.4-0.6-0.8-0.7-1.3c-0.1-0.5-0.1-1,0.1-1.5c0.2-0.5,0.5-0.9,1-1.2c0.4-0.3,0.9-0.4,1.4-0.4c0.3,0,0.7,0.1,1,0.2
		c0.3,0.1,0.6,0.3,0.8,0.6c0.2,0.2,0.4,0.5,0.6,0.8C357.2,260.8,357.3,261.2,357.3,261.5z"/>
	<path class="st14" d="M572.2,374v-15.9c0-83.9-35.7-151.9-79.8-151.9c-44.1,0-79.8,68-79.8,151.9V374H572.2z"/>
	<path class="st4" d="M492.2,244.1v129.8"/>
	<path class="st0" d="M492.5,245.5l30.7-27.7c-9.5-7.6-19.9-11.7-30.7-11.7c-10.5,0-21.5,4.6-30.7,11.7L492.5,245.5z"/>
	<path class="st4" d="M424.2,279.5c-7.8,25.4-11.6,51.9-11.5,78.5v16h159.5v-15.9c0.2-27.2-3.8-54.3-12-80.3"/>
	<path class="st4" d="M523.2,217.7c-9.5-7.5-19.9-11.7-30.7-11.7c-10.8,0-21.2,4.1-30.7,11.6"/>
	<path class="st15" d="M524.1,226l-16.9-25.5c-4.4-3.1-9.6-4.8-14.9-4.8c-5.4,0-10.6,1.7-14.9,4.8l-17,25.5
		c-1.9,2.8-2.5,6.2-1.9,9.5s2.6,6.2,5.4,8.1l2.4,1.6c2.8,1.9,6.2,2.5,9.5,1.9c3.3-0.7,6.2-2.6,8.1-5.4l8.4-12.6l8.4,12.6
		c1.9,2.8,4.8,4.7,8.1,5.4c3.3,0.7,6.7,0,9.5-1.9l2.4-1.6c1.4-0.9,2.6-2.1,3.5-3.5c0.9-1.4,1.6-2.9,1.9-4.6c0.3-1.6,0.3-3.3,0-4.9
		S525,227.4,524.1,226z"/>
	<path class="st15" d="M495,223c0,0.5-0.1,1-0.4,1.4c-0.3,0.4-0.7,0.7-1.1,0.9c-0.4,0.2-0.9,0.2-1.4,0.1c-0.5-0.1-0.9-0.3-1.3-0.7
		c-0.3-0.3-0.6-0.8-0.7-1.3c-0.1-0.5,0-1,0.1-1.4s0.5-0.8,0.9-1.1c0.4-0.3,0.9-0.4,1.4-0.4c0.7,0,1.3,0.3,1.7,0.7
		C494.7,221.7,495,222.3,495,223z"/>
	<path class="st16" d="M525.9,162.8c0,2.6-0.7,5.2-2.2,7.4c-1.4,2.2-3.5,3.9-5.9,4.9c-2.4,1-5.1,1.3-7.6,0.8
		c-2.6-0.5-4.9-1.8-6.8-3.6c-1.9-1.8-3.1-4.2-3.6-6.8c-0.5-2.6-0.3-5.2,0.7-7.7c1-2.4,2.7-4.5,4.9-6c2.2-1.5,4.7-2.2,7.4-2.2
		c1.7,0,3.4,0.3,5,1c1.6,0.7,3.1,1.6,4.3,2.8c1.2,1.2,2.2,2.7,2.9,4.3C525.6,159.3,525.9,161,525.9,162.8L525.9,162.8z"/>
	<path class="st0" d="M468.4,122.1H485c11.1,0,20.1,10.2,20.1,22.9v25.8c0,0.7,0,1.4,0,2c0.2,0.8,0.3,1.6,0.3,2.4v32.3
		c0,2.7-1.1,5.3-3.1,7.2c-1.9,1.9-4.6,3-7.3,3h-6.6c-2.7,0-5.3-1.1-7.3-3c-1.9-1.9-3-4.5-3.1-7.2v-13.9h-9.7
		c-11.1,0-20.1-10.2-20.1-22.9v-25.8C448.2,132.3,457.3,122.1,468.4,122.1z"/>
	<path d="M500.7,162.3l-3.1-20.2c0,0-55.8,7-73.9-20.1c-18.1-27.1,0.9-37.8,10.2-36.3c9.3,1.5,20,14.7,20,14.7s-8.6-11.6,0-13.5
		c8.6-1.8,18,7.1,22.9,16.2c0,0,36.8-3.4,49.1,18.8c12.3,22.2,2.4,38.1-20.5,61l-1.5-12.9L500.7,162.3z"/>
	<path d="M564.7,97.7c0,4.7-1.4,9.2-4,13.1c-2.6,3.9-6.3,6.9-10.6,8.7c-4.3,1.8-9.1,2.2-13.7,1.3c-4.6-0.9-8.8-3.2-12.1-6.5
		c-3.3-3.3-5.5-7.5-6.5-12.1c-0.9-4.6-0.4-9.3,1.4-13.6c1.8-4.3,4.8-8,8.7-10.6c3.9-2.6,8.5-4,13.1-4c3.1,0,6.2,0.6,9.1,1.8
		c2.9,1.2,5.5,2.9,7.7,5.1c2.2,2.2,3.9,4.8,5.1,7.7C564.1,91.5,564.7,94.6,564.7,97.7z"/>
	<path class="st17" d="M495.7,166.3c0,1.9-0.6,3.7-1.6,5.3c-1,1.6-2.5,2.8-4.3,3.5s-3.7,0.9-5.5,0.5c-1.8-0.4-3.5-1.3-4.9-2.6
		c-1.3-1.3-2.2-3-2.6-4.9c-0.4-1.9-0.2-3.8,0.5-5.5c0.7-1.7,1.9-3.2,3.5-4.3c1.6-1,3.4-1.6,5.3-1.6c1.3,0,2.5,0.2,3.7,0.7
		c1.2,0.5,2.2,1.2,3.1,2.1c0.9,0.9,1.6,1.9,2.1,3.1C495.4,163.8,495.7,165,495.7,166.3z"/>
	<path class="st17" d="M450.8,158.7c-0.6,0-1.1,0.1-1.7,0.2v9.9c-0.1,1.4-0.1,2.9,0.1,4.3c0.5,0,1,0,1.5,0c1,0.1,2-0.1,2.9-0.4
		c0.9-0.3,1.8-0.9,2.5-1.5c0.7-0.7,1.3-1.5,1.7-2.4c0.4-0.9,0.6-1.9,0.6-2.9c0-1-0.2-2-0.6-2.9c-0.4-0.9-1-1.7-1.7-2.4
		c-0.7-0.7-1.6-1.2-2.5-1.5s-1.9-0.5-2.9-0.4V158.7z"/>
	<path class="st18" d="M478.4,153c0,0.7-0.2,1.3-0.6,1.9c-0.4,0.6-0.9,1-1.5,1.3c-0.6,0.3-1.3,0.3-2,0.2c-0.7-0.1-1.3-0.5-1.7-0.9
		c-0.5-0.5-0.8-1.1-0.9-1.7c-0.1-0.7-0.1-1.3,0.2-2c0.3-0.6,0.7-1.2,1.3-1.5c0.6-0.4,1.2-0.6,1.9-0.6c0.9,0,1.8,0.4,2.4,1
		C478.1,151.2,478.4,152.1,478.4,153z"/>
	<path class="st18" d="M456.2,152.5c0,0.4,0,0.8-0.1,1.2c-0.1,0.4-0.3,0.7-0.6,1c-0.3,0.3-0.6,0.5-1,0.7c-0.4,0.2-0.8,0.2-1.2,0.2
		c-0.4,0-0.8-0.1-1.2-0.2c-0.4-0.2-0.7-0.4-1-0.7c-0.3-0.3-0.5-0.6-0.6-1c-0.1-0.4-0.2-0.8-0.1-1.2c0.1-0.7,0.4-1.4,0.9-1.9
		c0.5-0.5,1.2-0.8,2-0.8c0.7,0,1.4,0.3,2,0.8C455.8,151.1,456.2,151.8,456.2,152.5z"/>
	<path class="st19" d="M459.5,166.4c0,0,1.7,5,5.3,5.3c3.6,0.3,6.4-3.7,6.6-6.8L459.5,166.4z"/>
	<path class="st18" d="M458.4,166.7c0.6,2,1.8,3.7,3.4,5c0.7,0.5,1.4,0.8,2.2,1c0.8,0.2,1.6,0.2,2.4,0.1c0.8-0.1,1.6-0.4,2.3-0.9
		c0.7-0.4,1.3-1,1.7-1.7c1.2-1.5,1.9-3.3,2-5.2c0-0.3-0.1-0.6-0.3-0.8s-0.5-0.3-0.8-0.3l-10.5,1.3l-1.5,0.2c-0.3,0-0.6,0.1-0.8,0.3
		c-0.2,0.2-0.3,0.5-0.3,0.8c0,0.2,0,0.3,0.1,0.4c0.1,0.1,0.1,0.3,0.2,0.4c0.1,0.1,0.2,0.2,0.4,0.2c0.1,0.1,0.3,0.1,0.4,0.1l10.5-1.3
		l1.5-0.2l-1.1-1.1c-0.1,1.2-0.5,2.4-1.2,3.4c-0.7,1-1.7,1.7-2.8,2.2c-2.2,0.6-3.8-1.1-4.8-2.9c-0.2-0.4-0.4-0.8-0.6-1.2
		c0-0.2,0,0.2,0,0v-0.1c0-0.1,0-0.1,0-0.2C460.2,164.7,457.9,165.2,458.4,166.7z"/>
	<path class="st20" d="M492.2,150.9c0,7.3-5.3,13.2-11.8,13.2c-6.5,0-11.8-5.9-11.8-13.2c0-7.3,5.3-13.2,11.8-13.2
		S492.2,143.7,492.2,150.9z"/>
	<path class="st20" d="M450.9,161.2c5.4,0,9.7-5.3,9.7-11.8s-4.4-11.8-9.7-11.8c-5.4,0-9.7,5.3-9.7,11.8S445.5,161.2,450.9,161.2z"
		/>
	<path class="st21" d="M464.4,149.6v11.5l-6-3.7L464.4,149.6z"/>
	<path class="st20" d="M460.3,153c0,0,4.8-2,8.2,0.9"/>
	<path class="st13" d="M525.9,162.8c0,2.6-0.7,5.2-2.2,7.4c-1.4,2.2-3.5,3.9-5.9,4.9c-2.4,1-5.1,1.3-7.6,0.8
		c-2.6-0.5-4.9-1.8-6.8-3.6c-1.9-1.8-3.1-4.2-3.6-6.8c-0.5-2.6-0.3-5.2,0.7-7.7c1-2.4,2.7-4.5,4.9-6c2.2-1.5,4.7-2.2,7.4-2.2
		c1.7,0,3.4,0.3,5,1c1.6,0.7,3.1,1.6,4.3,2.8c1.2,1.2,2.2,2.7,2.9,4.3C525.6,159.3,525.9,161,525.9,162.8z"/>
	<path class="st22" d="M507,164.5c0-0.3,0-0.6,0-0.9c0-0.3,0-0.3,0-0.4s0-0.1,0-0.2s0,0.4,0,0c0.1-0.4,0.1-0.7,0.2-1.1
		c0-0.2,0.1-0.4,0.2-0.6c0-0.1,0-0.2,0-0.3v-0.1c0-0.2,0,0,0,0c0.2-0.4,0.4-0.8,0.7-1.2v-0.1c0.1-0.2,0.1,0,0,0
		c-0.1,0,0.2-0.2,0.2-0.3c0.2-0.2,0.3-0.4,0.5-0.5c0.1-0.1,0.2,0,0,0c0.1-0.1,0.2-0.1,0.3-0.2c0.2-0.2,0.5-0.3,0.7-0.4
		c0,0,0.3-0.1,0,0h0.1l0.5-0.1c0.2-0.1,0.4-0.1,0.5-0.1h0.2h0.2c0.2,0,0.1,0,0,0c0.2,0,0.4,0,0.6,0h0.6c0.5,0,0.9,0,1.4,0
		c0.4,0,0.7-0.2,1-0.4c0.3-0.3,0.4-0.6,0.4-1c0-0.4-0.2-0.7-0.4-1c-0.3-0.3-0.6-0.4-1-0.4c-1.4-0.2-2.9-0.1-4.3,0.3
		c-1.4,0.5-2.6,1.3-3.6,2.3c-1.2,1.6-1.9,3.5-2,5.5c0,0.4,0,0.8,0,1.2c0,0.4,0.1,0.7,0.4,1c0.3,0.3,0.6,0.4,1,0.4
		c0.4,0,0.7-0.1,1-0.4c0.3-0.3,0.4-0.6,0.4-1L507,164.5z"/>
</g>
<g>
	<path class="st23" d="M393,40.2c-0.5-2.9-1.6-5.6-3.2-8c-1.6-2.4-3.7-4.5-6.2-6c-3.6-2.3-7.8-3.6-12.1-3.6c-4.3,0-8.5,1.2-12.1,3.6
		c-2.5,1.6-4.6,3.6-6.2,6c-1.6,2.4-2.7,5.1-3.2,8C348,52.8,359,59.5,361.1,62c0.8,0.7,1.5,1.6,2.1,2.5c0.3,0.9,0.5,1.9,0.6,2.9h15.8
		c0.1-1,0.3-1.9,0.6-2.8c0.5-1,1.2-1.8,2.1-2.5C384.2,59.5,395.2,52.8,393,40.2z"/>
	<path class="st4" d="M393,40.2c-0.5-2.9-1.6-5.6-3.2-8c-1.6-2.4-3.7-4.5-6.2-6c-3.6-2.3-7.8-3.6-12.1-3.6c-4.3,0-8.5,1.2-12.1,3.6
		c-2.5,1.6-4.6,3.6-6.2,6c-1.6,2.4-2.7,5.1-3.2,8C348,52.8,359,59.5,361.1,62c0.8,0.7,1.5,1.6,2.1,2.5c0.3,0.9,0.5,1.9,0.6,2.9h15.8
		c0.1-1,0.3-1.9,0.6-2.8c0.5-1,1.2-1.8,2.1-2.5C384.2,59.5,395.2,52.8,393,40.2z"/>
</g>
<path class="st13" d="M368.3,68.8c0,0,0-11.9-0.9-13.6c-0.9-1.7-4.9-7.6-5.6-8.9c-0.7-1.3,0.7-2.7,1.8-0.9c0.9,1.6,4.8,7,5.7,9.2
	c0.9,2.2,1.6,14.7,1.6,14.7L368.3,68.8z"/>
<path class="st13" d="M374.9,68.8c0,0,0-11.9,0.9-13.6c0.9-1.7,4.9-7.6,5.6-8.9c0.7-1.3-0.7-2.7-1.8-0.9c-0.9,1.6-4.8,7-5.7,9.2
	c-0.9,2.2-1.6,14.7-1.6,14.7L374.9,68.8z"/>
<path class="st13" d="M380.6,45.9c-2,0.8-4.3,0.8-6.4,0.2c-0.9,0.5-1.9,0.8-2.9,0.7c-1-0.1-2-0.5-2.8-1.2c-1.8,0.6-3.6,0.9-5.5,0.9
	v-1.1c1.5,0,3.1-0.3,4.5-0.7c-1.2-1.3-1.4-2.7-0.6-3.6c0.2-0.2,0.4-0.4,0.6-0.6c0.2-0.2,0.5-0.3,0.8-0.3c0.3,0,0.6,0,0.9,0
	c0.3,0.1,0.5,0.2,0.8,0.4c0.5,0.4,0.9,1,1,1.7c0.1,0.7-0.1,1.4-0.4,1.9c-0.2,0.3-0.5,0.6-0.8,0.8c0.5,0.3,1,0.5,1.6,0.6
	c0.6,0.1,1.2,0,1.7-0.1c-0.3-0.2-0.6-0.4-0.9-0.7c-0.3-0.4-0.4-0.8-0.4-1.3c0-0.5,0.2-0.9,0.5-1.2c0.2-0.4,0.5-0.7,0.9-0.8
	c0.4-0.2,0.8-0.3,1.2-0.2c0.4,0.1,0.7,0.3,1,0.6c0.3,0.3,0.4,0.6,0.5,1c0.1,0.4,0,0.8-0.1,1.2c-0.1,0.4-0.3,0.8-0.5,1.1
	c1.7,0.4,3.4,0.3,5-0.3L380.6,45.9z M373.5,42.5c-0.2,0.1-0.3,0.3-0.4,0.4c-0.4,0.6-0.3,1-0.1,1.2c0.3,0.3,0.7,0.6,1.1,0.7
	c0.2-0.2,0.4-0.5,0.5-0.8c0.1-0.3,0.2-0.6,0.1-0.9c0-0.2-0.1-0.3-0.2-0.5c-0.1-0.1-0.3-0.2-0.4-0.3c-0.1,0-0.2,0-0.3,0
	C373.7,42.4,373.6,42.5,373.5,42.5z M368.7,44.4c0.3-0.2,0.6-0.4,0.8-0.7c0.2-0.3,0.3-0.7,0.3-1.1c-0.1-0.4-0.2-0.7-0.5-1
	c-0.5-0.4-1-0.2-1.5,0.3c-0.5,0.6,0,1.5,0.7,2.1C368.5,44.2,368.6,44.3,368.7,44.4z"/>
<path class="st0" d="M371.6,66.1c-2.9,0-5.9-0.5-8.6-1.5c0.1,0.1,0.1,0.2,0.1,0.3c0.6,1.2,1.3,11,2.9,14.9c0.2,0.5,0.5,1,0.9,1.4
	c1.4,0.8,3.1,1.2,4.7,1.1c1.6,0.1,3.3-0.3,4.7-1.1c0.4-0.4,0.7-0.8,0.9-1.4c1.5-3.8,2.3-13.7,2.9-14.9c0-0.1,0.1-0.2,0.1-0.3
	C377.5,65.7,374.5,66.2,371.6,66.1z"/>
<path d="M371.6,70.6c2.6,0,5.2-0.4,7.7-1.1c0.2-1.2,0.3-2.2,0.5-3c-5.2,2-11,2-16.2,0c0.1,0.8,0.3,1.9,0.5,3
	C366.4,70.2,369,70.6,371.6,70.6z"/>
<path d="M371.6,75.6c2.3,0,4.6-0.3,6.9-0.9c0.2-1,0.3-2,0.5-3c-4.8,1.6-9.9,1.6-14.7,0c0.2,1,0.3,2,0.5,3
	C367,75.3,369.3,75.6,371.6,75.6z"/>
<path d="M365.2,77.1c0.2,0.9,0.5,1.8,0.8,2.7l0.2,0.3c1.8,0.4,3.6,0.5,5.5,0.6c1.8,0,3.7-0.2,5.5-0.6c0-0.1,0.1-0.2,0.1-0.3
	c0.3-0.9,0.6-1.8,0.8-2.7C373.8,78.3,369.4,78.3,365.2,77.1z"/>
<path class="st0" d="M372,1L372,1c-1.3,0-2.3,1-2.3,2.3V14c0,1.3,1,2.3,2.3,2.3h0c1.3,0,2.3-1,2.3-2.3V3.3C374.3,2,373.3,1,372,1z"
	/>
<path class="st0" d="M392.6,6.7l-5.1,9.4c-0.6,1.1-0.2,2.5,0.9,3.1l0,0c1.1,0.6,2.5,0.2,3.1-0.9l5.1-9.4c0.6-1.1,0.2-2.5-0.9-3.1
	l0,0C394.6,5.1,393.2,5.6,392.6,6.7z"/>
<path class="st0" d="M355.5,19.2c0.5-0.3,0.9-0.8,1.1-1.4c0.2-0.6,0.1-1.2-0.2-1.7l-5-9.4c-0.3-0.5-0.8-0.9-1.4-1.1
	c-0.6-0.2-1.2-0.1-1.7,0.2c-0.5,0.3-0.9,0.8-1.1,1.4c-0.2,0.6-0.1,1.2,0.2,1.7l5,9.5c0.1,0.3,0.3,0.5,0.6,0.7
	c0.2,0.2,0.5,0.3,0.8,0.4c0.3,0.1,0.6,0.1,0.9,0.1S355.3,19.4,355.5,19.2z"/>
<path class="st0" d="M343.4,31.9c-0.1,0.3-0.2,0.6-0.4,0.8c-0.2,0.2-0.4,0.5-0.6,0.6s-0.5,0.3-0.8,0.3c-0.3,0.1-0.6,0.1-0.9,0
	l-10.5-2.2c-0.3-0.1-0.6-0.2-0.8-0.4c-0.2-0.2-0.5-0.4-0.6-0.6c-0.2-0.3-0.3-0.5-0.3-0.8c-0.1-0.3-0.1-0.6,0-0.9
	c0.1-0.3,0.2-0.6,0.3-0.9c0.2-0.3,0.4-0.5,0.6-0.7c0.3-0.2,0.6-0.3,0.9-0.4c0.3-0.1,0.6-0.1,0.9,0l10.5,2.2c0.3,0.1,0.6,0.2,0.8,0.4
	c0.3,0.2,0.5,0.4,0.6,0.7c0.2,0.3,0.3,0.6,0.3,0.9C343.5,31.3,343.4,31.6,343.4,31.9z"/>
<path class="st0" d="M342.8,49c-0.1-0.3-0.2-0.6-0.4-0.8c-0.2-0.2-0.4-0.4-0.7-0.6c-0.3-0.1-0.6-0.2-0.9-0.3c-0.3,0-0.6,0-0.9,0.1
	l-10.3,3c-0.3,0.1-0.6,0.2-0.8,0.4c-0.2,0.2-0.4,0.4-0.6,0.7c-0.1,0.3-0.2,0.6-0.3,0.9c0,0.3,0,0.6,0.1,0.9c0.2,0.6,0.6,1.1,1.1,1.4
	c0.5,0.3,1.2,0.4,1.7,0.2l10.3-3c0.3-0.1,0.6-0.2,0.8-0.4c0.2-0.2,0.4-0.4,0.6-0.7c0.1-0.3,0.2-0.6,0.3-0.9
	C342.9,49.5,342.9,49.2,342.8,49z"/>
<path class="st0" d="M400.6,31.9c0.1,0.3,0.2,0.6,0.3,0.8c0.2,0.2,0.4,0.5,0.6,0.6c0.3,0.2,0.5,0.3,0.8,0.3c0.3,0.1,0.6,0.1,0.9,0
	l10.5-2.2c0.6-0.1,1.1-0.5,1.4-1c0.3-0.5,0.4-1.1,0.3-1.7c-0.1-0.3-0.2-0.6-0.3-0.8c-0.2-0.3-0.4-0.5-0.6-0.7
	c-0.3-0.2-0.5-0.3-0.8-0.4c-0.3-0.1-0.6-0.1-0.9,0l-10.5,2.3c-0.3,0.1-0.6,0.2-0.8,0.4c-0.3,0.2-0.5,0.4-0.6,0.7
	c-0.2,0.3-0.3,0.5-0.3,0.8C400.6,31.3,400.6,31.6,400.6,31.9z"/>
<path class="st0" d="M401.2,49c0.1-0.3,0.2-0.6,0.4-0.8c0.2-0.2,0.4-0.4,0.7-0.6c0.3-0.1,0.6-0.2,0.9-0.3c0.3,0,0.6,0,0.9,0.1
	l10.3,3c0.3,0.1,0.6,0.2,0.8,0.4c0.2,0.2,0.4,0.4,0.6,0.7c0.1,0.3,0.2,0.6,0.3,0.9c0,0.3,0,0.6-0.1,0.9c-0.1,0.3-0.2,0.6-0.4,0.8
	c-0.2,0.2-0.4,0.4-0.7,0.6c-0.3,0.1-0.6,0.2-0.8,0.3c-0.3,0-0.6,0-0.9-0.1l-10.3-3c-0.3-0.1-0.6-0.2-0.8-0.4
	c-0.2-0.2-0.4-0.4-0.6-0.7s-0.2-0.6-0.3-0.9C401.1,49.6,401.1,49.2,401.2,49z"/>
<path class="st24" d="M270.4,47c3.8-2.9,4.5-8.3,1.6-12.1s-8.3-4.5-12.1-1.6c-3.8,2.9-4.5,8.3-1.6,12.1
	C261.2,49.1,266.6,49.9,270.4,47z"/>
<path class="st25" d="M163.8,74.7h16.5"/>
<path class="st26" d="M66.4,64l-4.1,15.2l-4.1,15.2L47.1,83.2L36,72l15.2-4L66.4,64z"/>
<path class="st9" d="M62.9,137c0,0-2,13.9-11.5,15.4c-9.5,1.4-18.1,0.8-12.8,24.8"/>
</svg>
