<svg width="24" height="24" viewBox="0 0 24 24" fill="none" xmlns="http://www.w3.org/2000/svg">
<g clip-path="url(#clip0)">
<path d="M8.84302 12.6514C7.45102 12.6514 6.32202 13.7804 6.32202 15.1724V21.4784C6.32202 22.8704 7.45102 23.9994 8.84302 23.9994C10.235 23.9994 11.364 22.8704 11.364 21.4784V15.1724C11.363 13.7804 10.234 12.6514 8.84302 12.6514Z" fill="#E91E63"/>
<path d="M0.019043 15.1718C0.019043 16.5648 1.14904 17.6948 2.54204 17.6948C3.93504 17.6948 5.06504 16.5648 5.06504 15.1718V12.6488H2.54404C2.54304 12.6488 2.54304 12.6488 2.54204 12.6488C1.14904 12.6488 0.019043 13.7788 0.019043 15.1718Z" fill="#E91E63"/>
<path d="M8.84607 -0.00109863C8.84507 -0.00109863 8.84407 -0.00109863 8.84307 -0.00109863C7.45007 -0.00109863 6.32007 1.1289 6.32007 2.5219C6.32007 3.9149 7.45007 5.0449 8.84307 5.0449H11.3641V2.5219C11.3641 2.5209 11.3641 2.5189 11.3641 2.5169C11.3631 1.1259 10.2361 -0.00109863 8.84607 -0.00109863Z" fill="#00BCD4"/>
<path d="M2.52495 11.3701H8.84295C10.236 11.3701 11.366 10.2401 11.366 8.8471C11.366 7.4541 10.236 6.3241 8.84295 6.3241H2.52495C1.13195 6.3241 0.00195312 7.4541 0.00195312 8.8471C0.00195312 10.2401 1.13195 11.3701 2.52495 11.3701Z" fill="#00BCD4"/>
<path d="M21.457 6.32324C20.066 6.32324 18.939 7.45024 18.939 8.84124V8.84624V11.3692H21.46C22.853 11.3692 23.983 10.2392 23.983 8.84624C23.983 7.45324 22.853 6.32324 21.46 6.32324C21.459 6.32324 21.458 6.32324 21.457 6.32324Z" fill="#4CAF50"/>
<path d="M12.6409 2.5221V8.8471C12.6409 10.2391 13.7699 11.3681 15.1619 11.3681C16.5539 11.3681 17.6829 10.2391 17.6829 8.8471V2.5221C17.6829 1.1301 16.5539 0.00109863 15.1619 0.00109863C13.7699 0.00109863 12.6409 1.1301 12.6409 2.5221Z" fill="#4CAF50"/>
<path d="M17.6819 21.4755C17.6819 20.0835 16.5529 18.9545 15.1609 18.9545H12.6399V21.4775C12.6409 22.8685 13.7689 23.9965 15.1609 23.9965C16.5529 23.9965 17.6819 22.8675 17.6819 21.4755Z" fill="#FF9800"/>
<path d="M21.4789 12.6488H15.1609C13.7679 12.6488 12.6379 13.7788 12.6379 15.1718C12.6379 16.5648 13.7679 17.6948 15.1609 17.6948H21.4789C22.872 17.6948 24.002 16.5648 24.002 15.1718C24.002 13.7788 22.872 12.6488 21.4789 12.6488Z" fill="#FF9800"/>
</g>
<defs>
<clipPath id="clip0">
<rect width="24" height="24" fill="white"/>
</clipPath>
</defs>
</svg>
