<svg width="19" height="19" viewBox="0 0 19 19" fill="none" xmlns="http://www.w3.org/2000/svg">
<path d="M15.0599 15.7377C15.0565 15.7377 15.0565 15.741 15.0599 15.7377V15.7377ZM15.0599 15.7377C15.0565 15.7377 15.0565 15.741 15.0599 15.7377V15.7377Z" fill="#E94B43"/>
<path d="M15.0599 15.7377C15.0565 15.7377 15.0565 15.741 15.0599 15.7377V15.7377ZM15.0599 15.7377C15.0565 15.7377 15.0565 15.741 15.0599 15.7377V15.7377ZM15.0599 15.7377C15.0565 15.7377 15.0565 15.741 15.0599 15.7377V15.7377Z" fill="#E94B43"/>
<path d="M18.3185 13.5501L15.9979 11.2318C15.5658 10.7844 15.0458 10.5478 14.4932 10.5478C13.9406 10.5478 13.4189 10.7827 12.9712 11.2268L11.6906 12.4975C11.6403 12.4714 11.5904 12.4457 11.5409 12.4209L11.4314 12.3645C11.2818 12.29 11.1401 12.2192 11.0222 12.1469C9.78005 11.3614 8.65039 10.337 7.56935 9.01365C7.06751 8.38229 6.72675 7.85364 6.47308 7.31151C6.76691 7.04045 7.04299 6.76139 7.31018 6.49117L7.40024 6.40068C7.45985 6.34133 7.51904 6.28114 7.57865 6.22095C7.63826 6.16076 7.6966 6.10142 7.75537 6.04291C8.68929 5.11271 8.68929 3.91103 7.75537 2.98126L6.60119 1.83219C6.47097 1.70255 6.33653 1.56871 6.20927 1.4336C5.9611 1.17853 5.69264 0.904521 5.41445 0.649033C4.98364 0.224341 4.46827 0 3.92373 0C3.37919 0 2.85706 0.223921 2.41188 0.649454L0.965976 2.10157C0.415044 2.64001 0.0782424 3.35861 0.0176847 4.12485C-0.0850503 5.37115 0.281076 6.52989 0.567296 7.29341C1.25896 9.15044 2.29223 10.8669 3.81973 12.6949C5.68291 14.9097 7.92364 16.6564 10.4802 17.8871C11.4665 18.3522 12.7852 18.8973 14.2429 18.9912C14.3418 18.9962 14.4306 19 14.5139 19C15.5226 19 16.3695 18.6372 17.0311 17.9221L17.0413 17.9111V17.9086C17.0464 17.9032 17.051 17.8975 17.0552 17.8913C17.265 17.6494 17.4879 17.4189 17.7228 17.2011L17.782 17.1442C18.0018 16.9338 18.1777 16.7616 18.335 16.5971C18.7713 16.145 19 15.6155 19 15.0683C19 14.5212 18.7641 13.99 18.3185 13.5501ZM16.0253 17.0226C15.6182 17.4553 15.1375 17.6569 14.5143 17.6569C14.4518 17.6569 14.3875 17.6569 14.3266 17.6527C13.087 17.574 11.9341 17.0904 11.0683 16.6783C8.68675 15.5313 6.59865 13.9024 4.86188 11.84C3.43289 10.1236 2.47107 8.52961 1.83732 6.82369C1.45133 5.79542 1.30716 4.99654 1.37015 4.23471C1.40177 3.78568 1.59849 3.36401 1.92272 3.05029L3.36228 1.61922C3.55126 1.44033 3.7487 1.34689 3.93176 1.34689C4.16133 1.34689 4.35454 1.49042 4.47419 1.61038L4.48983 1.62553C4.7342 1.85282 4.96926 2.08852 5.24703 2.37558L5.44827 2.58014C5.51465 2.64748 5.58187 2.71525 5.64993 2.78512L6.80666 3.93418C7.21337 4.33909 7.21337 4.68465 6.80666 5.08998L6.68405 5.21289C6.60584 5.2916 6.52509 5.37325 6.44222 5.4528C6.0651 5.83667 5.74168 6.15782 5.38528 6.47518L5.37978 6.47981C5.36947 6.48787 5.36024 6.4972 5.3523 6.50759C4.96377 6.90029 5.02972 7.29678 5.11427 7.56321L5.12696 7.60109L5.1295 7.60783C5.42882 8.33389 5.85456 9.02417 6.51071 9.84914L6.51959 9.85882C7.69534 11.3004 8.92942 12.4188 10.2958 13.2782C10.4664 13.3835 10.6424 13.4799 10.823 13.567C10.9727 13.6415 11.1143 13.7122 11.2331 13.7854L11.2416 13.7901L11.2581 13.8002C11.2691 13.8072 11.2806 13.8137 11.2923 13.8195C11.4359 13.8945 11.5953 13.9344 11.7574 13.9361C12.1523 13.9361 12.3949 13.6941 12.4761 13.615L13.922 12.1751C14.0526 12.0454 14.2564 11.8905 14.4856 11.8905C14.7299 11.8905 14.9232 12.0614 15.0166 12.1633L17.3584 14.4946C17.7439 14.8735 17.7545 15.2375 17.3905 15.6332H17.3524L17.3376 15.6888C17.2108 15.823 17.081 15.9485 16.944 16.0815L16.8481 16.1745C16.559 16.4425 16.2843 16.7256 16.0253 17.0226ZM17.4357 15.7376C17.4315 15.7418 17.4315 15.7376 17.4357 15.7376V15.7376Z" fill="#E94B43"/>
</svg>
