<svg width="20" height="20" viewBox="0 0 20 20" fill="none" xmlns="http://www.w3.org/2000/svg">
<path d="M15.3378 5.86204C16.0001 5.86204 16.537 5.32516 16.537 4.66289C16.537 4.00062 16.0001 3.46375 15.3378 3.46375C14.6755 3.46375 14.1387 4.00062 14.1387 4.66289C14.1387 5.32516 14.6755 5.86204 15.3378 5.86204Z" fill="#E84238"/>
<path d="M10.0049 4.86475C7.16908 4.86475 4.87329 7.16304 4.87329 9.99632C4.87329 12.8321 7.17158 15.1279 10.0049 15.1279C12.8407 15.1279 15.1364 12.8296 15.1364 9.99632C15.1364 7.16054 12.8382 4.86475 10.0049 4.86475ZM10.0049 13.3271C8.16407 13.3271 6.67409 11.8363 6.67409 9.99632C6.67409 8.15636 8.1649 6.66555 10.0049 6.66555C11.8448 6.66555 13.3356 8.15636 13.3356 9.99632C13.3365 11.8363 11.8457 13.3271 10.0049 13.3271Z" fill="#E84238"/>
<path d="M14.1233 0.0628211C12.2833 -0.0230107 7.72589 -0.0188441 5.88425 0.0628211C4.26595 0.138653 2.83847 0.529479 1.68766 1.68029C-0.23564 3.60359 0.0101892 6.19521 0.0101892 9.99598C0.0101892 13.8859 -0.206474 16.4175 1.68766 18.3117C3.61846 20.2416 6.24758 19.9891 10.0033 19.9891C13.8566 19.9891 15.1866 19.9916 16.5491 19.4641C18.4015 18.745 19.7998 17.0892 19.9365 14.1151C20.0232 12.2743 20.0182 7.71769 19.9365 5.87605C19.7715 2.36528 17.8874 0.236151 14.1233 0.0628211ZM17.0357 17.0392C15.7749 18.3 14.0258 18.1875 9.97918 18.1875C5.81259 18.1875 4.14178 18.2492 2.92264 17.0267C1.5185 15.6292 1.77266 13.3851 1.77266 9.98265C1.77266 5.37856 1.30017 2.06279 5.92092 1.82612C6.98257 1.78862 7.29506 1.77612 9.96752 1.77612L10.005 1.80112C14.4458 1.80112 17.9299 1.33613 18.139 5.95605C18.1865 7.0102 18.1974 7.32686 18.1974 9.99515C18.1965 14.1134 18.2749 15.7942 17.0357 17.0392Z" fill="#E84238"/>
</svg>
