<svg width="20" height="20" viewBox="0 0 20 20" fill="none" xmlns="http://www.w3.org/2000/svg">
<path d="M19.1627 19.1653V19.1645H19.1675V12.1352C19.1675 8.69645 18.4272 6.04749 14.407 6.04749C12.4744 6.04749 11.1775 7.10803 10.648 8.11347H10.5921V6.36852H6.7804V19.1645H10.7494V12.8284C10.7494 11.1601 11.0657 9.54696 13.1317 9.54696C15.1673 9.54696 15.1977 11.4508 15.1977 12.9354V19.1653H19.1627Z" fill="#fff"/>
<path d="M0.317017 6.37097H4.29086V19.167H0.317017V6.37097Z" fill="#fff"/>
<path d="M2.30157 0C1.03099 0 0 1.03099 0 2.30157C0 3.57214 1.03099 4.6247 2.30157 4.6247C3.57215 4.6247 4.60314 3.57214 4.60314 2.30157C4.60234 1.03099 3.57135 0 2.30157 0V0Z" fill="#fff"/>
</svg>
