<svg width="227" height="34" viewBox="0 0 227 34" fill="none" xmlns="http://www.w3.org/2000/svg">
<path d="M53.8553 25.9651C54.5353 25.9651 55.1586 25.8801 55.7253 25.7101C56.292 25.5401 56.7736 25.2851 57.1703 24.9735C57.567 24.6618 57.8503 24.4068 58.0203 24.2368C58.1903 24.0668 58.3886 23.8401 58.6153 23.5568H58.8136V25.5968H61.562V3.40234H58.757V12.9318H58.5303C57.3403 11.2601 55.7536 10.4385 53.742 10.4385C51.7303 10.4385 50.0586 11.1751 48.7553 12.6485C47.452 14.1218 46.8003 15.9635 46.8003 18.2018C46.8003 20.4401 47.4803 22.3101 48.8403 23.7835C50.2003 25.2568 51.9003 25.9935 53.9403 25.9935L53.8553 25.9651ZM54.2803 23.4151C52.9486 23.4151 51.8436 22.9335 50.9653 21.9701C50.087 21.0068 49.6336 19.7601 49.6336 18.2301C49.6336 16.7285 50.0586 15.4818 50.937 14.5185C51.8153 13.5551 52.9203 13.0735 54.252 13.0735C55.5553 13.0735 56.6603 13.5551 57.5386 14.4901C58.417 15.4251 58.8703 16.7001 58.8703 18.2868C58.8703 19.7318 58.4453 20.9501 57.5953 21.9418C56.7453 22.9335 55.6403 23.4435 54.2803 23.4435V23.4151Z" fill="#E84238"/>
<path d="M69.9683 25.9651C71.5833 25.9651 73 25.5685 74.19 24.7468C75.38 23.9251 76.2017 22.7918 76.655 21.3468L74.02 20.6951C73.765 21.5735 73.255 22.2818 72.49 22.7918C71.725 23.3018 70.875 23.5568 69.9117 23.5568C68.5233 23.5568 67.4183 23.1601 66.5967 22.3385C65.775 21.5168 65.35 20.3835 65.3217 18.9385H76.8533V18.0601C76.8533 15.7935 76.2017 13.9518 74.9267 12.5351C73.6517 11.1185 71.895 10.4101 69.685 10.4101C67.645 10.4101 65.9167 11.1468 64.5 12.5918C63.0833 14.0368 62.375 15.9068 62.375 18.2018C62.375 20.4968 63.055 22.3668 64.415 23.8118C65.775 25.2568 67.56 25.9651 69.7983 25.9651H69.9683ZM65.2933 16.8135C65.3783 15.6801 65.8317 14.7451 66.6817 14.0085C67.5317 13.2718 68.5233 12.9035 69.6567 12.9035C70.8183 12.9035 71.81 13.2435 72.6033 13.9235C73.3967 14.6035 73.8217 15.5668 73.9067 16.7851L65.2933 16.8135Z" fill="#E84238"/>
<path d="M83.2463 25.9651C85.0313 25.9651 86.4479 25.5401 87.5246 24.6618C88.6013 23.7835 89.1396 22.6218 89.1396 21.1768C89.1396 20.0718 88.8563 19.1935 88.2613 18.5418C87.6663 17.8901 86.9579 17.4651 86.1079 17.2385C85.2579 17.0118 84.4079 16.8418 83.5579 16.7001C82.7079 16.5585 81.9996 16.3601 81.4046 16.0768C80.8096 15.7935 80.5263 15.3685 80.5263 14.7735C80.5263 14.2351 80.7529 13.7818 81.2346 13.4418C81.7163 13.1018 82.3396 12.9318 83.1329 12.9318C83.9829 12.9318 84.6913 13.1301 85.2296 13.5268C85.7679 13.9235 86.1079 14.4901 86.2496 15.2268L88.7146 14.5185C88.4879 13.2435 87.8646 12.2518 86.8446 11.5151C85.8246 10.7785 84.6063 10.4101 83.2179 10.4101C81.6029 10.4101 80.2996 10.8068 79.3079 11.6001C78.3163 12.3935 77.8063 13.4418 77.8063 14.7168C77.8063 15.8218 78.0896 16.7001 78.6563 17.3518C79.2229 18.0035 79.9313 18.4285 80.7529 18.6551C81.5746 18.8818 82.3963 19.0801 83.2179 19.2218C84.0396 19.3635 84.7479 19.6185 85.3146 19.9585C85.8813 20.2985 86.1646 20.7801 86.1646 21.4318C86.1646 22.0835 85.9096 22.5935 85.3996 22.9618C84.8896 23.3301 84.1813 23.5285 83.2463 23.5285C81.2346 23.5285 80.1013 22.6501 79.8463 20.8935L77.2396 21.4885C77.4379 22.9051 78.0613 24.0101 79.1096 24.8035C80.1579 25.5968 81.4896 25.9935 83.1329 25.9935L83.2463 25.9651Z" fill="#E84238"/>
<path d="M93.972 9.28623C94.5103 9.28623 94.9636 9.11623 95.332 8.7479C95.7003 8.37957 95.8703 7.92623 95.8703 7.3879C95.8703 6.8779 95.7003 6.4529 95.332 6.08457C94.9636 5.71623 94.5103 5.54623 93.972 5.54623C93.4336 5.54623 92.9803 5.71623 92.612 6.08457C92.2436 6.4529 92.0736 6.8779 92.0736 7.3879C92.0736 7.92623 92.2436 8.37957 92.612 8.7479C92.9803 9.11623 93.4336 9.28623 93.972 9.28623ZM92.5553 25.5968H95.3603V10.8068H89.8636V13.2435H92.5553V25.5968Z" fill="#E84238"/>
<path d="M100.709 31.169H107.254C108.699 31.169 109.832 30.829 110.654 30.1207C111.476 29.4123 111.872 28.3357 111.872 26.8623V10.8351H109.124V12.8751H108.926C108.699 12.5918 108.501 12.3651 108.331 12.1951C108.161 12.0251 107.877 11.7701 107.481 11.4585C107.084 11.1468 106.602 10.8918 106.036 10.7218C105.469 10.5518 104.846 10.4668 104.166 10.4668C102.126 10.4668 100.426 11.2035 99.0656 12.6768C97.7056 14.1501 97.0256 15.9918 97.0256 18.2301C97.0256 20.4968 97.6772 22.3668 98.9806 23.8401C100.284 25.3135 101.956 26.0501 103.996 26.0501C106.206 26.0501 107.792 25.2285 108.784 23.5568H109.011V26.8907C109.011 27.5423 108.869 28.024 108.586 28.3357C108.302 28.6473 107.821 28.8173 107.169 28.8173H100.652L100.709 31.169ZM104.477 23.4435C103.146 23.4435 102.041 22.9618 101.191 21.9985C100.341 21.0351 99.9156 19.7885 99.9156 18.2585C99.9156 16.7285 100.341 15.4818 101.219 14.5468C102.097 13.6118 103.174 13.1301 104.477 13.1301C105.837 13.1301 106.942 13.6401 107.792 14.6318C108.642 15.6235 109.067 16.8418 109.067 18.2868C109.067 19.8735 108.614 21.1485 107.736 22.0835C106.857 23.0185 105.752 23.5001 104.449 23.5001L104.477 23.4435Z" fill="#E84238"/>
<path d="M114.099 25.5968H116.904V16.8418C116.904 15.7651 117.244 14.8585 117.952 14.1501C118.66 13.4418 119.539 13.0735 120.587 13.0735C121.55 13.0735 122.344 13.4135 122.995 14.0651C123.647 14.7168 123.959 15.5668 123.959 16.5868V25.5968H126.764V16.1051C126.764 14.4901 126.282 13.1301 125.29 12.0535C124.299 10.9768 122.995 10.4385 121.352 10.4385C120.332 10.4385 119.454 10.6651 118.717 11.0901C117.98 11.5151 117.442 12.0535 117.102 12.7051H116.875V10.7785H114.07L114.099 25.5968Z" fill="#E84238"/>
<path d="M134.246 31.169H137.051V23.4718H137.278C137.646 24.1235 138.213 24.6901 139.006 25.2001C139.8 25.7101 140.82 25.9651 142.095 25.9651C144.106 25.9651 145.778 25.2285 147.081 23.7551C148.385 22.2818 149.036 20.4118 149.036 18.1451C149.036 15.9068 148.356 14.0651 146.996 12.5918C145.636 11.1185 143.936 10.3818 141.896 10.3818C139.97 10.3818 138.411 11.1751 137.221 12.7901H136.995V10.7501H134.246V31.169ZM141.585 23.3018C140.281 23.3018 139.176 22.8485 138.298 21.9135C137.42 20.9785 136.966 19.7318 136.966 18.1451C136.966 16.7001 137.391 15.4818 138.213 14.4901C139.035 13.4985 140.14 13.0168 141.5 13.0168C142.831 13.0168 143.936 13.4985 144.815 14.4335C145.693 15.3685 146.118 16.6151 146.118 18.1451C146.118 19.6751 145.693 20.9218 144.843 21.8851C143.993 22.8485 142.888 23.3301 141.556 23.3301L141.585 23.3018Z" fill="#E84238"/>
<path d="M156.443 25.9651C158.426 25.9651 159.985 25.1718 161.146 23.5568H161.345C161.345 24.1801 161.543 24.6901 161.94 25.0585C162.336 25.4268 162.846 25.6251 163.47 25.6251H165.481V23.0751H164.801C164.32 23.0751 164.065 22.8485 164.065 22.3951V10.8351H161.26V12.9601H161.033C159.843 11.2885 158.256 10.4668 156.245 10.4668C154.233 10.4668 152.561 11.2035 151.258 12.6768C149.955 14.1501 149.303 15.9918 149.303 18.2301C149.303 20.4685 149.983 22.3385 151.315 23.8118C152.646 25.2851 154.346 26.0218 156.415 26.0218L156.443 25.9651ZM156.755 23.4435C155.423 23.4435 154.318 22.9618 153.44 21.9985C152.561 21.0351 152.108 19.7885 152.108 18.2585C152.108 16.7568 152.533 15.5101 153.411 14.5468C154.29 13.5835 155.395 13.1018 156.726 13.1018C158.03 13.1018 159.135 13.5835 160.013 14.5185C160.891 15.4535 161.345 16.7285 161.345 18.3151C161.345 19.7601 160.92 20.9785 160.07 21.9701C159.22 22.9618 158.115 23.4718 156.755 23.4718V23.4435Z" fill="#E84238"/>
<path d="M173.018 25.5968H175.398V23.1318H173.047C172.395 23.1318 171.913 22.9901 171.63 22.6785C171.347 22.3668 171.205 21.8851 171.205 21.2335V13.2435H175.568V10.8068H171.205V6.58512H168.57V10.8068H165.708V13.2435H168.4V21.2618C168.4 22.7351 168.797 23.8401 169.618 24.5485C170.44 25.2568 171.573 25.6251 173.018 25.6251V25.5968Z" fill="#E84238"/>
<path d="M177.03 25.5968H179.835V18.0035C179.835 16.5585 180.146 15.3968 180.798 14.5468C181.45 13.6968 182.385 13.2718 183.603 13.2718H185.02V10.4668H183.971C183.036 10.4668 182.215 10.7501 181.506 11.2885C180.798 11.8268 180.288 12.4501 180.005 13.1585H179.806V10.8351H177.03V25.5968Z" fill="#E84238"/>
<path d="M192.213 25.9651C194.451 25.9651 196.321 25.2285 197.795 23.7551C199.268 22.2818 200.005 20.4401 200.005 18.2301C200.005 15.9918 199.268 14.1501 197.795 12.6768C196.321 11.2035 194.451 10.4668 192.213 10.4668C189.975 10.4668 188.133 11.2035 186.66 12.6768C185.186 14.1501 184.45 15.9918 184.45 18.2301C184.45 20.4685 185.186 22.3101 186.66 23.7835C188.133 25.2568 189.975 25.9935 192.213 25.9935V25.9651ZM192.213 23.3585C190.796 23.3585 189.635 22.8768 188.728 21.9135C187.821 20.9501 187.368 19.7318 187.368 18.2301C187.368 16.7568 187.821 15.5385 188.728 14.5468C189.635 13.5551 190.796 13.0735 192.213 13.0735C193.658 13.0735 194.848 13.5551 195.783 14.5468C196.718 15.5385 197.171 16.7568 197.171 18.2301C197.171 19.7318 196.718 20.9501 195.783 21.9135C194.848 22.8768 193.658 23.3585 192.213 23.3585Z" fill="#E84238"/>
<path d="M201.328 25.5968H204.133V16.8418C204.133 15.7651 204.473 14.8585 205.181 14.1501C205.889 13.4418 206.768 13.0735 207.816 13.0735C208.779 13.0735 209.573 13.4135 210.224 14.0651C210.876 14.7168 211.188 15.5668 211.188 16.5868V25.5968H213.993V16.1051C213.993 14.4901 213.511 13.1301 212.519 12.0535C211.528 10.9768 210.224 10.4385 208.581 10.4385C207.561 10.4385 206.683 10.6651 205.946 11.0901C205.209 11.5151 204.671 12.0535 204.331 12.7051H204.104V10.7785H201.299L201.328 25.5968Z" fill="#E84238"/>
<path d="M221.064 25.9651C222.849 25.9651 224.265 25.5401 225.342 24.6618C226.419 23.7835 226.957 22.6218 226.957 21.1768C226.957 20.0718 226.674 19.1935 226.079 18.5418C225.484 17.8901 224.775 17.4651 223.925 17.2385C223.075 17.0118 222.225 16.8418 221.375 16.7001C220.525 16.5585 219.817 16.3601 219.222 16.0768C218.627 15.7935 218.344 15.3685 218.344 14.7735C218.344 14.2351 218.57 13.7818 219.052 13.4418C219.534 13.1018 220.157 12.9318 220.95 12.9318C221.8 12.9318 222.509 13.1301 223.047 13.5268C223.585 13.9235 223.925 14.4901 224.067 15.2268L226.532 14.5185C226.305 13.2435 225.682 12.2518 224.662 11.5151C223.642 10.7785 222.424 10.4101 221.035 10.4101C219.42 10.4101 218.117 10.8068 217.125 11.6001C216.134 12.3935 215.624 13.4418 215.624 14.7168C215.624 15.8218 215.907 16.7001 216.474 17.3518C217.04 18.0035 217.749 18.4285 218.57 18.6551C219.392 18.8818 220.214 19.0801 221.035 19.2218C221.857 19.3635 222.565 19.6185 223.132 19.9585C223.699 20.2985 223.982 20.7801 223.982 21.4318C223.982 22.0835 223.727 22.5935 223.217 22.9618C222.707 23.3301 221.999 23.5285 221.064 23.5285C219.052 23.5285 217.919 22.6501 217.664 20.8935L215.057 21.4885C215.255 22.9051 215.879 24.0101 216.927 24.8035C217.975 25.5968 219.307 25.9935 220.95 25.9935L221.064 25.9651Z" fill="#E84238"/>
<path d="M0 3.4C0 1.52223 1.52223 0 3.4 0H30.6C32.4778 0 34 1.52223 34 3.4V30.6C34 32.4778 32.4778 34 30.6 34H3.4C1.52223 34 0 32.4778 0 30.6V3.4Z" fill="#E84238"/>
<path d="M19.535 26.1161C19.535 25.5351 19.6052 24.914 19.6552 24.2728C19.9225 24.6508 20.2632 24.9711 20.657 25.2145C22.7106 26.4066 25.6659 25.5351 27.3689 24.0625C27.8861 23.5985 28.2904 23.0225 28.5509 22.3784C28.8114 21.7342 28.9212 21.0391 28.8719 20.346C28.8226 19.653 28.6155 18.9804 28.2664 18.3796C27.9174 17.7789 27.4356 17.2659 26.858 16.8798C24.8544 15.4873 21.9593 16.1084 20.2463 17.7113C20.0315 17.9122 19.8369 18.1336 19.6653 18.3724C19.3347 17 19.0141 15.6176 18.7236 14.2351C18.6635 13.9346 18.6034 13.624 18.5333 13.3235C18.6435 11.2298 18.403 9.11609 18.363 7.01237C18.363 5.3294 18.3129 1.63288 18.3029 0H16.5598C16.5598 2.44431 16.6299 6.89216 16.71 9.32646C14.7666 7.45315 11.4207 7.72363 9.15672 8.79552C2.90569 11.7908 6.60221 21.9788 13.3141 20.5763C14.2229 20.3912 15.0766 19.9982 15.8082 19.4281C16.5399 18.8581 17.1297 18.1265 17.5315 17.2905C17.822 18.5728 18.1225 19.855 18.4431 21.1273C18.1388 22.5261 17.9412 23.946 17.8521 25.3748C17.6281 27.5745 17.5445 31.7897 17.6016 34H19.4349C19.3529 32.0396 19.3863 28.0725 19.535 26.1161ZM21.198 18.4025C23.8527 14.5056 28.3706 19.4042 26.8079 22.8002C26.6403 23.2466 26.3763 23.6504 26.0345 23.9828C25.6927 24.3151 25.2818 24.5679 24.8309 24.723C24.3801 24.878 23.9006 24.9315 23.4267 24.8797C22.9528 24.8279 22.4962 24.672 22.0895 24.4231C20.8774 23.5716 20.5368 22.0088 20.2263 20.6264C20.4278 19.8374 20.756 19.0864 21.198 18.4025ZM15.6782 17.9717C15.4429 18.4402 15.1087 18.852 14.6989 19.1789C14.289 19.5057 13.8131 19.7398 13.304 19.8651C12.7103 19.9416 12.107 19.8842 11.5384 19.6969C10.9698 19.5097 10.4503 19.1975 10.0182 18.7831C7.41364 16.5692 6.41188 11.0395 10.0182 9.19623C11.0475 8.68291 12.2358 8.58924 13.3328 8.93496C14.4298 9.28069 15.3497 10.0388 15.8986 11.0495C16.3101 11.8848 16.6099 12.7706 16.7902 13.6841C16.7818 15.1836 16.3997 16.6572 15.6782 17.9717Z" fill="white"/>
</svg>
