<svg width="18" height="12" viewBox="0 0 18 12" fill="none" xmlns="http://www.w3.org/2000/svg">
<path d="M16.1435 1.41032L17.5 0.253263V0H12.8009L9.45192 7.43242L5.64179 0H0.714625V0.253263L2.29917 1.95411C2.45358 2.07979 2.53433 2.26358 2.51379 2.44863V9.13263C2.56267 9.37326 2.47483 9.62084 2.285 9.79579L0.5 11.7246V11.9747H5.56104V11.7215L3.77604 9.79579C3.58267 9.62021 3.49129 9.37705 3.53025 9.13263V3.35116L7.97292 11.9779H8.48929L12.3093 3.35116V10.2234C12.3093 10.4046 12.3093 10.4419 12.1762 10.5606L10.802 11.7461V12H17.4688V11.7467L16.1442 10.5903C16.0281 10.512 15.9679 10.3806 15.9927 10.2531V1.74758C15.9679 1.61937 16.0274 1.488 16.1435 1.41032Z" fill="#D6D7D9"/>
</svg>
