<svg width="23" height="20" viewBox="0 0 23 20" fill="none" xmlns="http://www.w3.org/2000/svg">
<path d="M22.668 3.00242C21.8312 3.37049 20.9397 3.61447 20.0102 3.73293C20.9664 3.16036 21.6963 2.26062 22.0394 1.17613C21.1478 1.70921 20.1634 2.08575 19.1144 2.29588C18.2678 1.3919 17.0612 0.832031 15.745 0.832031C13.1912 0.832031 11.1353 2.91075 11.1353 5.45908C11.1353 5.82575 11.1663 6.17831 11.2422 6.51395C7.40734 6.32639 4.01406 4.48318 1.73453 1.67536C1.33656 2.3678 1.10313 3.16036 1.10313 4.01357C1.10313 5.61562 1.92578 7.03575 3.15203 7.85793C2.41094 7.84382 1.68391 7.62806 1.06797 7.28818C1.06797 7.30229 1.06797 7.32062 1.06797 7.33895C1.06797 9.5869 2.66687 11.4541 4.76359 11.8842C4.38812 11.9872 3.97891 12.0365 3.55422 12.0365C3.25891 12.0365 2.96078 12.0196 2.68094 11.9575C3.27859 13.7895 4.97453 15.1363 6.99109 15.18C5.42172 16.4111 3.42906 17.1529 1.27188 17.1529C0.893594 17.1529 0.530781 17.136 0.167969 17.0895C2.21125 18.4109 4.63281 19.1654 7.24422 19.1654C15.7323 19.1654 20.373 12.1141 20.373 6.00203C20.373 5.79754 20.3659 5.60011 20.3561 5.40408C21.2716 4.75254 22.0408 3.93883 22.668 3.00242Z" fill="#fff"/>
</svg>
