<svg width="634" height="387" viewBox="0 0 634 387" fill="none" xmlns="http://www.w3.org/2000/svg">
<path d="M150.807 116.035L146.683 131.214L142.577 146.392L131.486 135.247L120.396 124.083L135.611 120.068L150.807 116.035Z" stroke="#D96980" stroke-miterlimit="10"/>
<path d="M465.224 234.714L272.439 208.864L185.107 224.181L127.396 257.011L465.224 234.714Z" fill="#65C1C5"/>
<path d="M465.224 234.716L138.328 273.938L127.396 257.013" fill="#B0D9C8"/>
<path d="M150.73 328.435L458.507 237.317L180.889 369.368L150.73 328.435Z" stroke="black"/>
<path d="M240.012 159.858C240.012 159.858 263.989 155.495 293.992 172.41C323.994 189.324 337.87 248.571 337.87 248.571L264.65 264.601L240.012 159.858Z" fill="white" stroke="black" stroke-miterlimit="10"/>
<path d="M269.786 173.274C289.092 181.47 340.056 245.708 329.587 248.596C319.117 251.484 193.113 281.329 188.18 278.355C183.246 275.381 191.909 236.676 191.909 236.676C191.909 236.676 205.013 175.816 245.83 165.422C259.534 161.972 249.167 164.536 269.786 173.274Z" fill="white"/>
<path d="M213.91 234.276C213.91 234.276 210.313 269.395 213.896 272.485C217.479 275.575 302.359 255.618 309.382 253.643C316.405 251.668 291.896 203.704 282.251 190.542" stroke="#1C191B" stroke-miterlimit="10"/>
<path d="M262.346 240.284C262.346 240.284 270.28 231.607 296.31 231.607C296.31 231.607 301.537 232.599 298.192 234.467C294.847 236.335 285.301 237.102 285.301 237.102C285.301 237.102 299.716 234.923 300.68 237.294C301.645 239.665 287.349 240.569 287.349 240.569C287.349 240.569 302.629 239.274 303.053 241.811C303.477 244.348 294.63 243.565 286.83 246.096C279.03 248.626 265.999 257.991 263.362 256.928C260.725 255.865 253.24 246.491 262.346 240.284Z" fill="white" stroke="#1C191B" stroke-miterlimit="10"/>
<path d="M234.498 161.214C219.866 164.942 204.917 173.465 192.463 189.98C175.477 212.525 152.814 275.85 175.45 300.105C175.783 300.462 176.118 300.809 176.456 301.146C188.056 312.757 198.424 302.582 211.059 299.202C223.054 295.993 237.478 299.967 242.829 295.727C253.98 286.891 273.924 262.124 274.713 253.774C275.63 243.981 272.704 237.956 260.681 237.903C248.659 237.85 208.195 252.459 201.374 259.783" fill="white"/>
<path d="M234.498 161.214C219.866 164.942 204.917 173.465 192.463 189.98C175.477 212.525 152.814 275.85 175.45 300.105M175.45 300.105C175.783 300.462 176.118 300.809 176.456 301.146M175.45 300.105L176.456 301.146M201.374 259.783C208.195 252.459 248.659 237.85 260.681 237.903C272.704 237.956 275.63 243.981 274.713 253.774C273.924 262.124 253.98 286.891 242.829 295.727C237.478 299.967 223.054 295.993 211.059 299.202C198.424 302.582 188.056 312.757 176.456 301.146" stroke="black" stroke-miterlimit="10"/>
<path d="M274.713 253.773C275.679 244.184 272.808 238.245 261.467 237.925C261.667 241.311 262.38 244.648 263.583 247.82C265.77 253.678 269.073 258.265 272.245 260.359C273.444 258.324 274.279 256.095 274.713 253.773Z" fill="#EEDA36" stroke="black" stroke-miterlimit="10"/>
<path d="M227.628 209.246C227.628 209.246 213.008 203.22 216.743 197.867C220.477 192.514 226.737 200.146 226.737 200.146C226.737 200.146 227.745 191.875 232.469 193.389C237.193 194.902 227.628 209.246 227.628 209.246Z" fill="#EEDA36" stroke="#1C191B" stroke-miterlimit="10"/>
<path d="M207.558 133.846C207.558 133.846 205.096 170.68 229.118 172.785C253.139 174.889 254.091 168.011 261.912 178.614C269.733 189.217 288.216 179.261 285.651 160.639C283.086 142.017 270.023 146.722 262.805 147.498C255.587 148.275 247.802 136.6 246.256 129.97C244.71 123.34 206.643 119.304 207.558 133.846Z" fill="black"/>
<path d="M249.029 162.958C250.079 167.235 244.977 172.159 237.63 173.965C230.283 175.77 223.479 173.77 222.429 169.493C221.378 165.217 226.457 160.198 233.804 158.393C241.151 156.588 247.974 158.666 249.029 162.958Z" fill="#EEDA36" stroke="#1C191B" stroke-miterlimit="10"/>
<path d="M201.856 135.248C202.322 137.21 203.36 138.989 204.838 140.361C206.317 141.732 208.169 142.633 210.161 142.95C212.153 143.267 214.193 142.985 216.024 142.14C217.856 141.295 219.394 139.925 220.446 138.204C221.497 136.484 222.014 134.489 221.93 132.474C221.846 130.46 221.166 128.515 219.975 126.887C218.784 125.26 217.137 124.023 215.242 123.333C213.347 122.643 211.29 122.531 209.332 123.013C208.037 123.324 206.816 123.888 205.74 124.672C204.663 125.455 203.751 126.444 203.057 127.58C202.363 128.717 201.899 129.979 201.693 131.294C201.487 132.61 201.542 133.953 201.856 135.248Z" fill="white" stroke="black" stroke-miterlimit="10"/>
<path d="M235.953 96.5546L224.267 99.4258C216.434 101.35 211.946 110.127 214.121 118.978L218.559 137.04C218.682 137.542 218.809 138.059 218.943 138.607C218.946 139.183 219.014 139.757 219.148 140.317L224.706 162.938C225.187 164.864 226.412 166.521 228.111 167.548C229.81 168.574 231.847 168.887 233.776 168.417L238.475 167.263C240.399 166.781 242.054 165.56 243.081 163.864C244.108 162.168 244.423 160.135 243.958 158.208L241.561 148.449L248.328 146.786C256.161 144.861 260.649 136.085 258.474 127.234L254.021 109.109C251.846 100.258 243.723 94.6456 235.953 96.5546Z" fill="white" stroke="black" stroke-miterlimit="10"/>
<path d="M215.088 127.311C215.088 127.311 225.604 120.69 227.265 112.442C228.927 104.193 227.672 102.807 227.672 102.807C227.672 102.807 236.301 110.072 247.035 109.678C255.901 109.393 255.253 108.24 255.598 106.062C255.943 103.884 253.361 91.4794 238.68 86.9635C223.999 82.4476 210.351 86.5981 203.3 98.4633C196.248 110.328 201.024 125.168 205.143 128.143C209.263 131.117 213.988 132.232 215.088 127.311Z" fill="black"/>
<path d="M210.881 81.3224C210.821 74.8191 205.501 69.5952 198.998 69.6547C192.494 69.7141 187.271 75.0343 187.33 81.5376C187.389 88.041 192.71 93.2648 199.213 93.2054C205.716 93.1459 210.94 87.8258 210.881 81.3224Z" fill="black"/>
<path d="M202.435 135.104C202.876 136.95 203.854 138.624 205.247 139.913C206.64 141.202 208.384 142.049 210.259 142.345C212.133 142.641 214.054 142.375 215.777 141.578C217.499 140.782 218.947 139.492 219.935 137.872C220.924 136.251 221.409 134.374 221.329 132.478C221.249 130.582 220.608 128.752 219.487 127.221C218.366 125.689 216.816 124.525 215.032 123.876C213.249 123.227 211.313 123.123 209.47 123.575C208.251 123.87 207.102 124.403 206.089 125.142C205.075 125.881 204.218 126.812 203.565 127.883C202.911 128.953 202.475 130.142 202.282 131.381C202.088 132.62 202.14 133.885 202.435 135.104Z" fill="white"/>
<path d="M217.058 132.758C217.058 132.758 215.926 126.392 209.66 128.678" stroke="#020202" stroke-miterlimit="10"/>
<path d="M235.366 122.762C236.819 122.404 237.708 120.937 237.351 119.483C236.994 118.03 235.526 117.141 234.072 117.498C232.619 117.855 231.73 119.323 232.087 120.776C232.444 122.23 233.912 123.119 235.366 122.762Z" fill="black"/>
<path d="M249.239 116.147C249.346 116.595 249.583 117.002 249.922 117.315C250.26 117.627 250.684 117.832 251.139 117.904C251.594 117.975 252.061 117.909 252.478 117.715C252.896 117.52 253.247 117.206 253.485 116.812C253.724 116.418 253.84 115.961 253.819 115.501C253.797 115.041 253.64 114.597 253.366 114.227C253.091 113.856 252.713 113.576 252.279 113.421C251.845 113.266 251.375 113.244 250.928 113.357C250.334 113.503 249.823 113.879 249.506 114.402C249.189 114.925 249.093 115.553 249.239 116.147Z" fill="black"/>
<path d="M249.368 127.56C249.368 127.56 248.999 131.737 246.26 132.692C243.522 133.647 240.567 131.084 239.813 128.695" stroke="#0C0C0C" stroke-miterlimit="10"/>
<path d="M225.301 132.709C225.62 134.004 226.315 135.175 227.299 136.075C228.283 136.976 229.512 137.564 230.83 137.765C232.148 137.967 233.497 137.773 234.705 137.208C235.913 136.644 236.927 135.733 237.617 134.592C238.308 133.452 238.645 132.132 238.586 130.799C238.526 129.467 238.073 128.182 237.284 127.108C236.494 126.033 235.403 125.216 234.15 124.761C232.896 124.307 231.536 124.234 230.241 124.552C228.506 124.982 227.013 126.082 226.087 127.611C225.162 129.139 224.879 130.972 225.301 132.709Z" fill="#E4B0C8"/>
<path d="M255.01 120.71C255.397 120.622 255.792 120.575 256.189 120.57L257.859 127.369C258.127 128.35 258.29 129.356 258.348 130.372C258.061 130.5 257.765 130.606 257.462 130.689C256.793 130.894 256.089 130.96 255.393 130.883C254.697 130.806 254.024 130.588 253.415 130.243C252.807 129.897 252.275 129.431 251.853 128.872C251.43 128.314 251.126 127.676 250.959 126.996C250.792 126.316 250.766 125.609 250.881 124.919C250.997 124.228 251.252 123.569 251.631 122.98C252.01 122.392 252.506 121.887 253.087 121.497C253.668 121.106 254.322 120.839 255.01 120.71Z" fill="#E4B0C8"/>
<path d="M243.205 115.254L244.878 124.361L248.512 120.694L243.205 115.254Z" fill="#DB7294"/>
<path d="M272.896 202.094C273.166 203.185 273.093 204.333 272.687 205.381C272.281 206.429 271.562 207.327 270.627 207.952C269.693 208.577 268.589 208.898 267.465 208.873C266.341 208.848 265.252 208.477 264.347 207.811C263.442 207.145 262.763 206.216 262.405 205.151C262.046 204.085 262.025 202.935 262.343 201.857C262.661 200.779 263.304 199.826 264.184 199.126C265.064 198.426 266.138 198.015 267.26 197.947C268.534 197.88 269.792 198.257 270.82 199.013C271.847 199.769 272.581 200.858 272.896 202.094C272.985 202.325 273.155 202.515 273.374 202.63C273.594 202.745 273.847 202.775 274.087 202.716C274.328 202.657 274.538 202.513 274.679 202.309C274.821 202.106 274.883 201.859 274.855 201.613C274.488 200.115 273.667 198.767 272.505 197.753C271.343 196.739 269.896 196.109 268.362 195.948C266.829 195.788 265.283 196.105 263.936 196.857C262.589 197.609 261.508 198.758 260.839 200.148C260.171 201.538 259.948 203.1 260.201 204.621C260.454 206.143 261.171 207.549 262.253 208.647C263.336 209.745 264.732 210.482 266.249 210.758C267.766 211.033 269.332 210.832 270.731 210.184C272.295 209.442 273.558 208.187 274.308 206.627C275.059 205.068 275.251 203.298 274.855 201.613C274.766 201.382 274.596 201.191 274.377 201.077C274.157 200.962 273.904 200.932 273.663 200.991C273.423 201.05 273.213 201.194 273.071 201.397C272.93 201.601 272.868 201.848 272.896 202.094Z" fill="black"/>
<path d="M83.2253 322.847L111.735 272.838L458.956 235.906L186.066 332.861L83.2253 322.847Z" fill="url(#paint0_linear)" stroke="black"/>
<path d="M67.6833 310.548C67.6833 310.548 59.8788 322.264 50.7146 319.509C41.5504 316.754 33.9877 312.467 28.4819 336.38" stroke="#EEDA36" stroke-miterlimit="10"/>
<path d="M347.186 105.628C347.186 105.628 339.019 106.023 337.145 100.79C335.271 95.5576 334.666 90.545 321.593 96.2207" stroke="#EEDA36" stroke-miterlimit="10"/>
<path d="M71.0522 261.167C71.0522 261.167 57.6048 281.353 41.8148 276.606C26.0248 271.86 12.9942 264.474 3.50759 305.675" stroke="#EA7068" stroke-miterlimit="10"/>
<path d="M103.395 354.035C103.395 354.035 96.7847 364.589 90.1439 362.855C83.503 361.12 78.1595 357.966 72.4329 378.8" stroke="#EA7068" stroke-miterlimit="10"/>
<path d="M332.759 120.33C332.759 120.33 327.193 122.056 325.367 119.413C323.54 116.771 322.608 114.021 314.217 119.663" stroke="#EA7068" stroke-miterlimit="10"/>
<path d="M46.3955 353.97C46.3955 353.97 39.7847 364.524 33.1439 362.789C26.503 361.055 21.1595 357.901 15.4329 378.734" stroke="#EEDA36" stroke-miterlimit="10"/>
<path d="M144.396 336.969C144.396 336.969 141.179 341.735 137.29 340.541C133.401 339.346 130.179 337.531 128.015 347.33" stroke="#EEDA36" stroke-miterlimit="10"/>
<path d="M496.157 114.545C479.307 85.3602 489.306 48.0419 518.491 31.1922C547.676 14.3425 584.994 24.3419 601.843 53.5265C618.693 82.7111 608.694 120.029 579.509 136.879C550.325 153.729 513.006 143.729 496.157 114.545Z" fill="#FFF1F2" stroke="#F3E0E1"/>
<path d="M498.768 70.5762C506.202 42.8341 534.717 26.3707 562.459 33.8042C590.202 41.2376 606.665 69.7531 599.231 97.4951C591.798 125.237 563.283 141.701 535.54 134.267C507.798 126.834 491.335 98.3182 498.768 70.5762Z" stroke="black"/>
<path d="M563.271 30.7779C592.63 38.6447 610.124 68.9377 602.256 98.3021C594.388 127.666 564.099 145.159 534.731 137.29C505.362 129.421 487.877 99.1314 495.746 69.766C503.614 40.4006 533.906 22.9097 563.271 30.7779ZM535.412 134.747C563.376 142.24 592.222 125.586 599.716 97.6214C607.209 69.6566 590.554 40.812 562.59 33.3191C534.626 25.8262 505.78 42.482 498.287 70.4469C490.794 98.4117 507.449 127.258 535.411 134.75L535.412 134.747Z" fill="white"/>
<path d="M532.996 56.3152C517.686 65.1541 512.441 84.7301 521.28 100.039C530.119 115.349 549.695 120.594 565.004 111.755C580.313 102.916 585.559 83.3404 576.72 68.0311C567.881 52.7217 548.305 47.4764 532.996 56.3152Z" fill="#63C1C5"/>
<path d="M540.786 112.758L540.784 112.766L541.267 112.896C557.183 117.156 573.595 107.683 577.86 91.7681C582.124 75.8536 572.646 59.4386 556.731 55.1743C540.817 50.91 524.402 60.3881 520.138 76.3016C515.917 92.054 525.164 108.295 540.786 112.758ZM557.836 51.0604C576.018 55.9323 586.847 74.6888 581.975 92.8709C577.103 111.053 558.347 121.882 540.165 117.01C521.983 112.138 511.154 93.3818 516.025 75.1997C520.897 57.0176 539.654 46.1885 557.836 51.0604Z" fill="white" stroke="black"/>
<path d="M538.312 77.7484C534.838 83.651 536.807 91.2524 542.709 94.7265C548.612 98.2006 556.213 96.2319 559.688 90.3293C563.162 84.4267 561.193 76.8254 555.29 73.3513C549.388 69.8771 541.786 71.8458 538.312 77.7484Z" fill="#EA7068"/>
<path d="M552.89 69.517C560.896 71.6621 565.664 79.92 563.519 87.9254C561.374 95.9308 553.115 100.699 545.11 98.5541C537.104 96.4091 532.337 88.1514 534.482 80.145C536.628 72.1386 544.885 67.372 552.89 69.517ZM546.471 93.4737C548.338 93.9739 550.311 93.9093 552.141 93.2881C553.971 92.6669 555.576 91.5169 556.753 89.9836C557.929 88.4504 558.625 86.6027 558.751 84.6742C558.877 82.7456 558.429 80.823 557.463 79.1493C556.496 77.4755 555.055 76.1259 553.322 75.2712C551.589 74.4164 549.641 74.0948 547.725 74.347C545.809 74.5993 544.01 75.4141 542.557 76.6884C541.104 77.9626 540.062 79.6392 539.562 81.506C538.894 84.0092 539.246 86.6751 540.541 88.9187C541.837 91.1624 543.969 92.8006 546.471 93.4737Z" fill="white"/>
<path d="M535.656 95.5579L508.972 106.536L498.889 114.981L493.91 123.479L535.656 95.5579Z" fill="#65C1C5"/>
<path d="M535.657 95.558L496.57 124.843L493.91 123.479" fill="#B0D9C8"/>
<path d="M502.932 130.777L531.548 100.631L508.965 133.415L502.932 130.777Z" fill="white" stroke="black"/>
<path d="M493.541 134.554L493.499 126.89L532.28 98.6403L506.811 128.524L493.541 134.554Z" fill="url(#paint1_linear)" stroke="black"/>
<path d="M457.414 138.044L408.991 111.44L384.286 106.549L365.633 109.332L457.414 138.044Z" fill="#65C1C5"/>
<path d="M457.414 138.045L366.795 114.938L365.634 109.334" fill="#B0D9C8"/>
<path d="M364.975 131.042L450.778 138.029L368.559 144.199L364.975 131.042Z" stroke="black"/>
<path d="M347.84 122.175L359.947 112.313L452.616 137.275L373.493 135.082L347.84 122.175Z" fill="url(#paint2_linear)" stroke="black"/>
<defs>
<linearGradient id="paint0_linear" x1="110822" y1="-5899.36" x2="195850" y2="-29407.5" gradientUnits="userSpaceOnUse">
<stop stop-color="#F1F8F8"/>
<stop offset="1" stop-color="#C0E4EF"/>
</linearGradient>
<linearGradient id="paint1_linear" x1="14257.9" y1="-8877.72" x2="23437.7" y2="-18204.4" gradientUnits="userSpaceOnUse">
<stop stop-color="#F1F8F8"/>
<stop offset="1" stop-color="#C0E4EF"/>
</linearGradient>
<linearGradient id="paint2_linear" x1="30321.1" y1="9821.53" x2="55255.3" y2="12306.9" gradientUnits="userSpaceOnUse">
<stop stop-color="#F1F8F8"/>
<stop offset="1" stop-color="#C0E4EF"/>
</linearGradient>
</defs>
</svg>
