<svg width="641" height="486" viewBox="0 0 641 486" fill="none" xmlns="http://www.w3.org/2000/svg">
<path d="M120.063 29.457V45.937" stroke="#672ED6" stroke-width="0.75" stroke-linecap="round" stroke-linejoin="round"/>
<path d="M111.814 37.707H128.294" stroke="#672ED6" stroke-width="0.75" stroke-linecap="round" stroke-linejoin="round"/>
<path d="M204.938 310.387V326.867" stroke="#EEDA36" stroke-width="0.75" stroke-linecap="round" stroke-linejoin="round"/>
<path d="M196.688 318.619H213.187" stroke="#EEDA36" stroke-width="0.75" stroke-linecap="round" stroke-linejoin="round"/>
<path d="M384.403 104.524C387.531 104.524 390.067 101.988 390.067 98.8597C390.067 95.7314 387.531 93.1953 384.403 93.1953C381.275 93.1953 378.739 95.7314 378.739 98.8597C378.739 101.988 381.275 104.524 384.403 104.524Z" stroke="#EEDA36" stroke-width="0.75" stroke-linecap="round" stroke-linejoin="round"/>
<path d="M244.149 251.048L249.318 260.03L254.506 268.994H244.149H233.791L238.979 260.03L244.149 251.048Z" fill="#D96980"/>
<path d="M31.4119 29.8418L27.2873 45.0203L23.1811 60.1987L12.0905 49.0532L1 37.8893L16.2151 33.8747L31.4119 29.8418Z" stroke="#D96980" stroke-miterlimit="10"/>
<path d="M50.77 133.598C50.77 133.598 48.7535 147.53 39.2945 148.978C29.8355 150.426 21.1647 149.803 26.4625 173.762" stroke="#EEDA36" stroke-miterlimit="10"/>
<path d="M222.879 19.9553C226.662 17.0518 227.374 11.6316 224.471 7.84901C221.567 4.06642 216.147 3.3538 212.364 6.25733C208.582 9.16087 207.869 14.581 210.773 18.3636C213.676 22.1462 219.096 22.8589 222.879 19.9553Z" stroke="#D7D4FC" stroke-miterlimit="10"/>
<path d="M394.669 226.08C394.669 171.309 349.258 126.907 293.241 126.907C237.223 126.907 191.812 171.309 191.812 226.08" stroke="#C1C0FF" stroke-miterlimit="10" stroke-dasharray="4 4"/>
<path d="M195.587 180C168.201 227.434 146.5 299.499 195.587 335.999C195.587 335.999 239.5 369 319.5 340.5" stroke="#C1C0FF" stroke-miterlimit="10" stroke-dasharray="4 4"/>
<path d="M545.592 129.913H347.74C339.782 129.913 333.332 136.364 333.332 144.322V271.652C333.332 279.61 339.782 286.061 347.74 286.061H545.592C553.549 286.061 560 279.61 560 271.652V144.322C560 136.364 553.549 129.913 545.592 129.913Z" fill="#63C1C5"/>
<path d="M530.578 139.005H362.735C354.777 139.005 348.326 145.456 348.326 153.413V243.623C348.326 251.58 354.777 258.031 362.735 258.031H530.578C538.535 258.031 544.986 251.58 544.986 243.623V153.413C544.986 145.456 538.535 139.005 530.578 139.005Z" fill="white" stroke="black" stroke-miterlimit="10"/>
<path d="M399.984 258.034H491.165C481.999 245.568 465.006 237.209 445.575 237.209C426.143 237.209 409.187 245.568 399.984 258.034Z" fill="#DB7294" stroke="black" stroke-miterlimit="10"/>
<path d="M446.73 248.39C454.981 248.39 461.67 244.491 461.67 239.682C461.67 234.873 454.981 230.975 446.73 230.975C438.478 230.975 431.79 234.873 431.79 239.682C431.79 244.491 438.478 248.39 446.73 248.39Z" fill="black" stroke="#1C191B" stroke-miterlimit="10"/>
<path d="M418.903 198.015C418.881 200.221 419.517 202.384 420.729 204.228C421.941 206.071 423.675 207.512 425.709 208.367C427.744 209.221 429.986 209.45 432.151 209.025C434.316 208.6 436.306 207.54 437.866 205.98C439.426 204.419 440.487 202.43 440.912 200.265C441.337 198.1 441.108 195.857 440.253 193.823C439.399 191.789 437.958 190.055 436.114 188.842C434.271 187.63 432.108 186.994 429.902 187.016C426.984 187.016 424.187 188.175 422.124 190.238C420.061 192.3 418.903 195.098 418.903 198.015Z" fill="white" stroke="black" stroke-miterlimit="10"/>
<path d="M465.116 165.824H452.028C443.302 165.824 436.153 173.963 436.153 183.899V204.265C436.153 204.852 436.153 205.42 436.153 205.97C436.008 206.57 435.934 207.186 435.933 207.803V233.284C435.933 235.452 436.794 237.532 438.327 239.065C439.861 240.598 441.94 241.46 444.108 241.46H449.315C451.483 241.46 453.563 240.598 455.096 239.065C456.629 237.532 457.49 235.452 457.49 233.284V222.285H465.098C473.824 222.285 480.973 214.146 480.973 204.192V183.899C480.991 173.963 473.842 165.824 465.116 165.824Z" fill="white" stroke="black" stroke-miterlimit="10"/>
<path d="M434.98 193.066C434.98 193.066 447.812 188.776 451.771 180.472C455.731 172.168 454.704 170.372 454.704 170.372C454.704 170.372 462.037 180.307 473.439 182.764C482.916 184.78 482.605 183.369 483.466 181.169C484.328 178.969 484.896 165.111 470.506 156.476C456.116 147.842 440.662 148.704 430.03 159.446C419.398 170.188 420.681 187.163 424.256 191.398C427.83 195.632 432.541 197.997 434.98 193.066Z" fill="black"/>
<path d="M430.708 153.908C433.827 153.908 436.354 151.381 436.354 148.262C436.354 145.144 433.827 142.616 430.708 142.616C427.59 142.616 425.062 145.144 425.062 148.262C425.062 151.381 427.59 153.908 430.708 153.908Z" fill="#DB7294" stroke="black" stroke-miterlimit="10"/>
<path d="M419.544 198.015C419.526 200.09 420.125 202.124 421.265 203.857C422.405 205.591 424.034 206.947 425.946 207.753C427.858 208.558 429.966 208.778 432.003 208.383C434.04 207.988 435.914 206.996 437.386 205.534C438.859 204.072 439.863 202.206 440.273 200.172C440.682 198.138 440.477 196.028 439.685 194.11C438.893 192.192 437.548 190.553 435.823 189.401C434.097 188.249 432.068 187.636 429.993 187.64C428.626 187.635 427.271 187.899 426.006 188.418C424.741 188.937 423.59 189.7 422.62 190.663C421.649 191.627 420.878 192.772 420.351 194.034C419.823 195.295 419.549 196.648 419.544 198.015Z" fill="white"/>
<path d="M435.658 199.388C435.658 199.388 436.116 192.331 428.875 193.119" stroke="#020202" stroke-miterlimit="10"/>
<path d="M454.704 190.553C454.7 191.142 454.872 191.719 455.197 192.21C455.522 192.701 455.985 193.084 456.529 193.311C457.072 193.538 457.671 193.599 458.248 193.485C458.826 193.371 459.357 193.088 459.773 192.671C460.19 192.255 460.473 191.724 460.587 191.146C460.701 190.568 460.641 189.97 460.414 189.426C460.187 188.883 459.803 188.419 459.312 188.094C458.821 187.77 458.244 187.598 457.655 187.602C456.873 187.602 456.122 187.913 455.568 188.466C455.015 189.02 454.704 189.77 454.704 190.553Z" fill="#0C0C0C"/>
<path d="M474.025 190.131C474.025 190.632 474.174 191.122 474.453 191.539C474.732 191.955 475.128 192.279 475.591 192.47C476.055 192.661 476.564 192.71 477.056 192.611C477.547 192.512 477.997 192.269 478.35 191.914C478.704 191.558 478.943 191.105 479.039 190.614C479.134 190.122 479.081 189.612 478.887 189.151C478.693 188.689 478.366 188.295 477.947 188.019C477.529 187.743 477.038 187.598 476.537 187.602C476.206 187.602 475.877 187.667 475.572 187.795C475.266 187.922 474.988 188.109 474.755 188.344C474.521 188.579 474.336 188.858 474.211 189.165C474.086 189.471 474.023 189.8 474.025 190.131Z" fill="#0C0C0C"/>
<path d="M471.257 202.249C471.257 202.249 469.772 206.575 466.619 206.887C463.466 207.199 461.01 203.697 460.845 200.966L471.257 202.249Z" fill="#FFF7F7" stroke="#0C0C0C" stroke-miterlimit="10"/>
<path d="M444.401 201.442C444.401 202.892 444.831 204.31 445.637 205.516C446.443 206.722 447.588 207.661 448.928 208.216C450.268 208.771 451.742 208.917 453.164 208.634C454.587 208.351 455.893 207.652 456.919 206.627C457.944 205.601 458.643 204.295 458.926 202.872C459.209 201.45 459.063 199.976 458.508 198.636C457.953 197.296 457.014 196.151 455.808 195.345C454.602 194.539 453.184 194.109 451.734 194.109C449.789 194.109 447.924 194.882 446.549 196.257C445.174 197.632 444.401 199.497 444.401 201.442Z" fill="#E4B0C8"/>
<path d="M479.011 196.529C479.45 196.528 479.888 196.583 480.313 196.694V204.32C480.344 205.433 480.251 206.546 480.038 207.638C479.699 207.704 479.356 207.741 479.011 207.748C477.524 207.748 476.097 207.157 475.045 206.105C473.993 205.053 473.402 203.626 473.402 202.139C473.402 200.651 473.993 199.224 475.045 198.172C476.097 197.12 477.524 196.529 479.011 196.529Z" fill="#E4B0C8"/>
<path d="M467.939 187.602L467.334 197.684L472.137 194.751L467.939 187.602Z" fill="#DB7294"/>
<path d="M452.028 271.69C452.029 272.714 451.717 273.714 451.134 274.556C450.551 275.398 449.724 276.042 448.765 276.401C447.759 276.78 446.658 276.828 445.623 276.537C444.589 276.247 443.674 275.633 443.013 274.786C442.351 273.938 441.978 272.902 441.947 271.828C441.917 270.753 442.23 269.697 442.842 268.814C443.454 267.93 444.333 267.265 445.349 266.916C446.366 266.567 447.467 266.552 448.493 266.873C449.519 267.194 450.415 267.835 451.051 268.701C451.687 269.568 452.029 270.615 452.028 271.69C452.063 271.969 452.199 272.225 452.41 272.411C452.621 272.597 452.892 272.699 453.173 272.699C453.454 272.699 453.726 272.597 453.937 272.411C454.148 272.225 454.284 271.969 454.319 271.69C454.321 270.179 453.856 268.704 452.988 267.467C452.119 266.23 450.89 265.292 449.468 264.78C448.046 264.269 446.501 264.209 445.043 264.61C443.586 265.01 442.288 265.851 441.327 267.017C440.366 268.184 439.789 269.618 439.675 271.125C439.56 272.632 439.914 274.137 440.688 275.435C441.462 276.733 442.618 277.761 443.998 278.376C445.378 278.992 446.915 279.167 448.398 278.876C450.064 278.549 451.566 277.654 452.645 276.343C453.725 275.033 454.317 273.388 454.319 271.69C454.284 271.411 454.148 271.154 453.937 270.969C453.726 270.783 453.454 270.68 453.173 270.68C452.892 270.68 452.621 270.783 452.41 270.969C452.199 271.154 452.063 271.411 452.028 271.69Z" fill="black"/>
<path d="M288.034 60.9326H90.1827C82.2251 60.9326 75.7742 67.3835 75.7742 75.3412V202.672C75.7742 210.629 82.2251 217.08 90.1827 217.08H288.034C295.992 217.08 302.443 210.629 302.443 202.672V75.3412C302.443 67.3835 295.992 60.9326 288.034 60.9326Z" fill="#63C1C5"/>
<path d="M194.471 202.634C194.47 203.668 194.151 204.678 193.557 205.524C192.962 206.371 192.122 207.015 191.15 207.368C190.177 207.721 189.12 207.767 188.121 207.498C187.122 207.229 186.229 206.66 185.565 205.867C184.901 205.074 184.496 204.095 184.407 203.065C184.318 202.034 184.548 201.001 185.066 200.105C185.584 199.21 186.365 198.495 187.303 198.059C188.241 197.622 189.291 197.485 190.309 197.666C191.472 197.883 192.522 198.497 193.281 199.403C194.04 200.309 194.461 201.451 194.471 202.634C194.506 202.913 194.642 203.169 194.853 203.355C195.064 203.541 195.335 203.643 195.616 203.643C195.897 203.643 196.169 203.541 196.38 203.355C196.591 203.169 196.727 202.913 196.762 202.634C196.744 201.136 196.274 199.678 195.413 198.452C194.553 197.225 193.343 196.287 191.941 195.759C190.527 195.246 188.989 195.18 187.537 195.57C186.084 195.961 184.786 196.788 183.82 197.941C183.06 198.844 182.529 199.917 182.272 201.07C182.016 202.222 182.041 203.419 182.346 204.56C182.652 205.7 183.228 206.75 184.026 207.62C184.824 208.49 185.82 209.154 186.93 209.557C188.04 209.959 189.23 210.088 190.4 209.931C191.571 209.775 192.686 209.338 193.651 208.659C194.616 207.979 195.403 207.076 195.945 206.027C196.486 204.978 196.767 203.814 196.762 202.634C196.727 202.355 196.591 202.098 196.38 201.912C196.169 201.727 195.897 201.624 195.616 201.624C195.335 201.624 195.064 201.727 194.853 201.912C194.642 202.098 194.506 202.355 194.471 202.634Z" fill="black"/>
<path d="M273.021 70.0068H105.178C97.22 70.0068 90.769 76.4578 90.769 84.4154V174.625C90.769 182.582 97.22 189.033 105.178 189.033H273.021C280.978 189.033 287.429 182.582 287.429 174.625V84.4154C287.429 76.4578 280.978 70.0068 273.021 70.0068Z" fill="white"/>
<path d="M273.021 70.0068H105.178C97.22 70.0068 90.769 76.4578 90.769 84.4154V174.625C90.769 182.582 97.22 189.033 105.178 189.033H273.021C280.978 189.033 287.429 182.582 287.429 174.625V84.4154C287.429 76.4578 280.978 70.0068 273.021 70.0068Z" stroke="black" stroke-miterlimit="10"/>
<path d="M184.865 123.973C184.865 123.973 183.435 128.153 180.392 128.446C177.349 128.74 174.984 125.367 174.892 122.745L184.865 123.973Z" fill="#F7F6F6"/>
<path d="M134.893 119.886C134.875 121.888 135.452 123.849 136.551 125.522C137.65 127.195 139.221 128.504 141.065 129.283C142.909 130.061 144.942 130.275 146.908 129.895C148.873 129.516 150.681 128.561 152.103 127.152C153.525 125.743 154.496 123.944 154.893 121.982C155.29 120.02 155.096 117.985 154.334 116.134C153.572 114.283 152.278 112.7 150.615 111.586C148.952 110.472 146.995 109.877 144.994 109.877C142.328 109.867 139.767 110.916 137.873 112.792C135.98 114.669 134.908 117.22 134.893 119.886V119.886Z" stroke="black" stroke-width="2" stroke-miterlimit="10"/>
<path d="M161.199 157.446C124.353 157.446 94.564 195.008 94.564 241.35H227.944C227.889 195.008 198.027 157.446 161.199 157.446Z" fill="white" stroke="black" stroke-miterlimit="10"/>
<path d="M140.393 177.647C140.396 178.591 140.12 179.514 139.598 180.3C139.077 181.086 138.334 181.7 137.463 182.064C136.593 182.427 135.634 182.524 134.708 182.342C133.782 182.161 132.931 181.708 132.263 181.042C131.594 180.376 131.139 179.527 130.953 178.602C130.768 177.677 130.861 176.718 131.221 175.846C131.582 174.974 132.192 174.229 132.977 173.704C133.761 173.179 134.683 172.899 135.627 172.899C136.252 172.897 136.871 173.018 137.449 173.256C138.027 173.493 138.553 173.842 138.996 174.284C139.438 174.725 139.79 175.249 140.03 175.826C140.269 176.403 140.393 177.022 140.393 177.647Z" fill="#EEDA36"/>
<path d="M159.256 200.727C162.182 200.727 164.554 198.355 164.554 195.43C164.554 192.504 162.182 190.132 159.256 190.132C156.33 190.132 153.958 192.504 153.958 195.43C153.958 198.355 156.33 200.727 159.256 200.727Z" fill="#EEDA36"/>
<path d="M184.388 177.647C184.392 178.591 184.115 179.514 183.594 180.3C183.072 181.086 182.329 181.7 181.459 182.064C180.588 182.427 179.629 182.524 178.703 182.342C177.778 182.161 176.927 181.708 176.258 181.042C175.59 180.376 175.134 179.527 174.949 178.602C174.763 177.677 174.857 176.718 175.217 175.846C175.577 174.974 176.188 174.229 176.972 173.704C177.756 173.179 178.678 172.899 179.622 172.899C180.247 172.897 180.866 173.018 181.444 173.256C182.023 173.493 182.548 173.842 182.991 174.284C183.434 174.725 183.785 175.249 184.025 175.826C184.265 176.403 184.388 177.022 184.388 177.647Z" fill="#EEDA36"/>
<path d="M202.756 194.055C205.024 194.055 206.863 192.217 206.863 189.949C206.863 187.681 205.024 185.843 202.756 185.843C200.489 185.843 198.65 187.681 198.65 189.949C198.65 192.217 200.489 194.055 202.756 194.055Z" fill="#EEDA36"/>
<path d="M123.894 198.216C123.898 199.2 123.609 200.163 123.065 200.983C122.52 201.802 121.745 202.442 120.836 202.82C119.928 203.198 118.927 203.298 117.962 203.107C116.997 202.916 116.11 202.443 115.414 201.747C114.718 201.051 114.244 200.164 114.053 199.199C113.862 198.233 113.962 197.233 114.34 196.325C114.719 195.416 115.358 194.64 116.178 194.096C116.998 193.551 117.961 193.263 118.945 193.266C120.258 193.266 121.516 193.788 122.445 194.716C123.373 195.644 123.894 196.903 123.894 198.216Z" fill="#EEDA36"/>
<path d="M140.228 217.869C143.154 217.869 145.526 215.497 145.526 212.571C145.526 209.645 143.154 207.273 140.228 207.273C137.302 207.273 134.93 209.645 134.93 212.571C134.93 215.497 137.302 217.869 140.228 217.869Z" fill="#EEDA36"/>
<path d="M189.228 216.016C191.637 216.016 193.591 214.063 193.591 211.653C193.591 209.244 191.637 207.29 189.228 207.29C186.818 207.29 184.865 209.244 184.865 211.653C184.865 214.063 186.818 216.016 189.228 216.016Z" fill="#EEDA36"/>
<path d="M215.332 220.25C215.332 221.087 215.084 221.906 214.618 222.603C214.153 223.299 213.492 223.842 212.718 224.162C211.944 224.483 211.093 224.567 210.271 224.403C209.45 224.24 208.695 223.836 208.103 223.244C207.511 222.652 207.108 221.897 206.944 221.076C206.781 220.255 206.865 219.403 207.185 218.629C207.506 217.856 208.048 217.194 208.745 216.729C209.441 216.264 210.26 216.015 211.097 216.015C211.653 216.015 212.204 216.125 212.718 216.338C213.232 216.551 213.698 216.862 214.092 217.256C214.485 217.649 214.797 218.116 215.01 218.629C215.222 219.143 215.332 219.694 215.332 220.25Z" fill="#EEDA36"/>
<path d="M118.248 222.358C118.248 223.247 117.985 224.115 117.491 224.853C116.998 225.592 116.296 226.168 115.476 226.508C114.655 226.848 113.752 226.936 112.881 226.763C112.01 226.59 111.209 226.162 110.581 225.534C109.953 224.906 109.525 224.106 109.352 223.234C109.179 222.363 109.268 221.46 109.608 220.64C109.948 219.819 110.523 219.117 111.262 218.624C112 218.13 112.869 217.867 113.757 217.867C114.948 217.867 116.091 218.34 116.933 219.183C117.775 220.025 118.248 221.167 118.248 222.358Z" fill="#EEDA36"/>
<path d="M170.181 226.849C170.181 227.738 169.918 228.606 169.424 229.344C168.931 230.083 168.229 230.659 167.409 230.999C166.588 231.339 165.685 231.427 164.814 231.254C163.943 231.081 163.142 230.653 162.514 230.025C161.886 229.397 161.458 228.597 161.285 227.725C161.112 226.854 161.201 225.951 161.541 225.131C161.881 224.31 162.456 223.608 163.195 223.115C163.933 222.621 164.802 222.358 165.69 222.358C166.88 222.363 168.019 222.838 168.86 223.679C169.702 224.52 170.176 225.66 170.181 226.849Z" fill="#EEDA36"/>
<path d="M233.04 197.795L234.36 193.322C234.36 193.322 234.506 192.131 232.783 191.489L204.828 180.71C204.828 180.71 202.573 179.409 201.968 181.022C201.363 182.635 197 189.766 197 189.766C197 189.766 195.754 191.599 197.275 192.406C198.797 193.212 222.554 202.195 222.554 202.195L228.64 204.724C228.64 204.724 230.474 205.403 230.858 204.486C231.243 203.57 233.04 197.795 233.04 197.795Z" fill="#EA7068"/>
<path d="M240.354 166.374C240.354 166.374 242.719 154.165 240.776 151.892C238.833 149.619 236.981 152.057 236.01 155.137C235.038 158.217 233.535 164.046 233.535 164.046L227.412 151.746C227.412 151.746 241.032 141.828 241.527 140.014C242.022 138.199 242.169 136.989 241.216 136.989C239.915 137.139 238.628 137.391 237.366 137.74C237.366 137.74 241.967 133.323 240.537 131.746C239.108 130.17 234.14 133.781 234.14 133.781C234.14 133.781 235.973 127.053 235.093 125.752C234.213 124.45 228.714 132.131 227.174 134.917C225.634 137.704 222.884 142.562 222.884 142.562C222.884 142.562 221.051 143.992 221.143 144.761C221.234 145.531 218.888 147.236 218.54 147.548C218.191 147.859 215.405 153.671 212.784 159.592C210.162 165.513 206.276 173.524 206.276 173.524L204.443 177.19C204.443 177.19 202.408 180.16 206.643 181.369C210.877 182.579 227.577 189.417 227.577 189.417L232.875 191.47C232.875 191.47 234.47 193.688 235.771 188.574C237.073 183.459 240.354 166.374 240.354 166.374Z" fill="white"/>
<path d="M229.905 207.235C239.071 181.571 242.957 154.66 240.776 151.892C237.751 148.024 235.863 154.605 233.535 164.046L227.412 151.745C227.412 151.745 242.077 141.755 242.077 137.777C242.077 133.799 219.053 145.109 217.037 149.252C215.735 151.947 207.871 173.945 194.764 193.065" stroke="black" stroke-miterlimit="10"/>
<path d="M235.9 138.108C235.9 138.108 241.949 134.442 240.538 131.747C239.126 129.053 220.74 142.105 221.198 145.533" stroke="black" stroke-miterlimit="10"/>
<path d="M233.498 134.203C233.498 134.203 237.164 126.723 235.093 125.788C233.021 124.854 225.212 137.319 224.314 141.132" stroke="black" stroke-miterlimit="10"/>
<path d="M234.69 192.186L202.848 179.941" stroke="black" stroke-miterlimit="10"/>
<path d="M230.51 205.475L196.047 191.195" stroke="black" stroke-miterlimit="10"/>
<path d="M230.565 190.607L225.652 203.458" stroke="black" stroke-miterlimit="10"/>
<path d="M224.461 188.262L219.53 200.93" stroke="black" stroke-miterlimit="10"/>
<path d="M218.741 185.824L213.938 198.326" stroke="black" stroke-miterlimit="10"/>
<path d="M212.417 183.477L208.054 195.961" stroke="black" stroke-miterlimit="10"/>
<path d="M207.083 181.535L201.876 193.543" stroke="black" stroke-miterlimit="10"/>
<path d="M175.626 160.105C175.626 164.761 169.155 168.519 161.199 168.519C153.243 168.519 146.772 164.853 146.772 160.105C146.772 155.357 153.225 151.709 161.199 151.709C169.173 151.709 175.626 155.467 175.626 160.105Z" fill="#672ED6" stroke="#211F21" stroke-miterlimit="10"/>
<path d="M178.889 88.8145H166.24C157.807 88.8145 150.915 96.6787 150.915 106.266V125.936C150.915 126.486 150.915 127.036 150.915 127.567C150.775 128.168 150.701 128.783 150.695 129.4V153.983C150.697 155.031 150.907 156.067 151.313 157.033C151.719 157.999 152.313 158.875 153.06 159.61C153.806 160.345 154.692 160.924 155.664 161.314C156.636 161.705 157.676 161.898 158.724 161.884H163.765C165.84 161.85 167.819 161.003 169.276 159.526C170.733 158.048 171.552 156.058 171.556 153.983V143.369H178.889C187.321 143.369 194.232 135.523 194.232 125.917V106.266C194.269 96.6787 187.358 88.8145 178.889 88.8145Z" fill="white" stroke="black" stroke-miterlimit="10"/>
<path d="M168.88 112.7C168.88 113.265 169.048 113.818 169.362 114.288C169.676 114.759 170.123 115.125 170.645 115.342C171.168 115.558 171.743 115.615 172.297 115.504C172.852 115.394 173.362 115.122 173.762 114.722C174.162 114.322 174.434 113.812 174.544 113.257C174.655 112.703 174.598 112.128 174.382 111.605C174.165 111.083 173.799 110.636 173.328 110.322C172.858 110.008 172.305 109.84 171.74 109.84C171.364 109.84 170.992 109.914 170.645 110.058C170.298 110.201 169.983 110.412 169.717 110.677C169.452 110.943 169.241 111.258 169.098 111.605C168.954 111.952 168.88 112.324 168.88 112.7Z" fill="#141414"/>
<path d="M187.596 112.205C187.596 112.687 187.739 113.158 188.007 113.559C188.275 113.96 188.656 114.273 189.101 114.457C189.547 114.642 190.037 114.69 190.51 114.596C190.983 114.502 191.417 114.27 191.758 113.929C192.099 113.588 192.331 113.153 192.425 112.68C192.519 112.207 192.471 111.717 192.287 111.272C192.102 110.826 191.79 110.445 191.389 110.177C190.988 109.91 190.516 109.767 190.034 109.767C189.389 109.771 188.772 110.03 188.315 110.486C187.859 110.942 187.601 111.56 187.596 112.205Z" fill="#141414"/>
<path d="M183.875 123.7L183.765 124.011C183.875 123.7 183.765 124.011 183.765 124.176L183.508 124.671C183.149 125.408 182.658 126.073 182.06 126.633C181.751 126.939 181.374 127.17 180.961 127.306C180.548 127.443 180.108 127.482 179.677 127.421C178.708 127.201 177.846 126.65 177.239 125.863C176.875 125.416 176.573 124.923 176.341 124.396C176.109 123.873 175.961 123.316 175.901 122.746L174.892 123.773L183.692 124.836L184.938 125.001C185.209 124.997 185.467 124.887 185.659 124.695C185.85 124.504 185.96 124.245 185.965 123.975C185.956 123.705 185.844 123.449 185.654 123.259C185.463 123.068 185.207 122.957 184.938 122.948L176.139 121.867L174.892 121.72C174.757 121.717 174.622 121.742 174.497 121.793C174.371 121.844 174.257 121.919 174.161 122.015C174.065 122.111 173.99 122.225 173.939 122.351C173.888 122.476 173.863 122.611 173.866 122.746C173.953 124.179 174.451 125.555 175.299 126.712C176.148 127.869 177.311 128.758 178.65 129.272C179.899 129.585 181.217 129.45 182.376 128.89C183.535 128.331 184.461 127.383 184.993 126.211C185.367 125.589 185.68 124.932 185.928 124.25C185.964 124.12 185.974 123.984 185.958 123.85C185.942 123.716 185.899 123.586 185.833 123.469C185.766 123.351 185.677 123.248 185.571 123.165C185.465 123.082 185.343 123.021 185.213 122.985C185.078 122.943 184.936 122.928 184.796 122.941C184.655 122.954 184.519 122.995 184.394 123.062C184.269 123.128 184.159 123.219 184.07 123.328C183.981 123.438 183.915 123.564 183.875 123.7Z" fill="#141414"/>
<path d="M166.057 130.317C169.985 130.317 173.169 127.133 173.169 123.204C173.169 119.276 169.985 116.092 166.057 116.092C162.129 116.092 158.944 119.276 158.944 123.204C158.944 127.133 162.129 130.317 166.057 130.317Z" fill="#E4B0C8"/>
<path d="M192.362 118.382C192.783 118.391 193.201 118.446 193.609 118.547V125.88C193.635 126.955 193.549 128.03 193.352 129.088C193.022 129.107 192.692 129.107 192.362 129.088C191.088 128.865 189.933 128.199 189.1 127.208C188.268 126.217 187.812 124.965 187.812 123.671C187.812 122.377 188.268 121.124 189.1 120.134C189.933 119.143 191.088 118.477 192.362 118.254V118.382Z" fill="#E4B0C8"/>
<path d="M181.656 109.84L181.07 119.574L185.726 116.732L181.656 109.84Z" fill="#D96980"/>
<path d="M154.379 116.109L156.579 104.175C156.579 104.175 168.935 108.116 178.375 100.509C187.816 92.9012 172.308 89.9132 174.819 95.5409C177.33 101.169 185.964 103.497 196.688 102.305C212.637 100.472 213.022 81.279 203.874 75.6329C194.727 69.9869 184.333 76.6228 184.333 76.6228C184.333 76.6228 189.099 67.0722 177.184 63.7908C167.358 61.1694 160.025 69.4736 158.944 73.1582C158.944 73.1582 142.776 74.7347 135.59 84.8903C131.972 89.6928 129.958 95.5123 129.833 101.524C129.708 107.535 131.478 113.433 134.893 118.382C139.053 124.93 144.326 130.7 150.475 135.43C150.475 135.43 151.886 121.095 154.379 116.109Z" fill="black"/>
<path d="M134.893 119.886C134.875 121.888 135.452 123.849 136.551 125.522C137.65 127.195 139.221 128.504 141.065 129.283C142.909 130.061 144.942 130.275 146.908 129.895C148.873 129.516 150.681 128.561 152.103 127.152C153.525 125.743 154.496 123.944 154.893 121.982C155.29 120.02 155.096 117.985 154.334 116.134C153.572 114.283 152.278 112.7 150.615 111.586C148.952 110.472 146.995 109.877 144.994 109.877C142.328 109.867 139.767 110.916 137.873 112.792C135.98 114.669 134.908 117.22 134.893 119.886Z" fill="white"/>
<path d="M151.758 121.224C151.784 120.324 151.66 119.426 151.392 118.566C151.178 117.698 150.779 116.887 150.222 116.187C149.665 115.488 148.963 114.918 148.165 114.515C146.826 113.941 145.358 113.733 143.912 113.91C143.582 113.919 143.267 114.056 143.035 114.292C142.803 114.528 142.67 114.844 142.666 115.175C142.666 115.339 142.698 115.501 142.761 115.652C142.823 115.803 142.915 115.941 143.031 116.056C143.147 116.172 143.284 116.264 143.435 116.327C143.587 116.389 143.749 116.421 143.912 116.421C144.522 116.365 145.136 116.365 145.745 116.421H145.892H146.24C146.472 116.478 146.698 116.552 146.919 116.641C147.23 116.733 146.662 116.495 146.919 116.641L147.175 116.788C147.359 116.788 147.524 117.026 147.707 117.118C147.45 117.008 147.505 116.953 147.597 117.118H147.707L147.909 117.301C148.037 117.43 148.147 117.595 148.275 117.723C147.982 117.43 148.275 117.613 148.275 117.723L148.422 117.943C148.518 118.089 148.604 118.243 148.678 118.401L148.788 118.64C148.788 118.768 148.66 118.31 148.788 118.493V118.603L148.953 119.098C149.04 119.374 149.107 119.656 149.155 119.941C149.155 119.941 149.155 120.069 149.155 120.124C149.155 120.179 149.155 119.758 149.155 120.014C149.146 120.13 149.146 120.247 149.155 120.363C149.173 120.631 149.173 120.901 149.155 121.169C149.155 121.505 149.288 121.827 149.526 122.064C149.763 122.301 150.085 122.434 150.42 122.434C150.755 122.434 151.077 122.301 151.314 122.064C151.552 121.827 151.685 121.505 151.685 121.169L151.758 121.224Z" fill="#090909"/>
<path d="M355.017 10.668H276.944C272.155 10.668 267.562 12.5703 264.176 15.9566C260.79 19.3428 258.887 23.9356 258.887 28.7245V106.707L277.219 89.8599H354.981C359.771 89.8551 364.364 87.9486 367.75 84.5595C371.135 81.1703 373.037 76.5757 373.037 71.7851V28.7245C373.037 23.9419 371.14 19.3547 367.762 15.9695C364.383 12.5843 359.8 10.6777 355.017 10.668Z" fill="white" stroke="black" stroke-miterlimit="10"/>
<path d="M298.043 51.7111C298.043 53.2629 297.583 54.7798 296.721 56.07C295.859 57.3603 294.634 58.3659 293.2 58.9597C291.766 59.5536 290.189 59.709 288.667 59.4062C287.145 59.1035 285.747 58.3562 284.65 57.259C283.552 56.1617 282.805 54.7637 282.502 53.2418C282.2 51.7198 282.355 50.1423 282.949 48.7086C283.543 47.275 284.548 46.0496 285.839 45.1875C287.129 44.3254 288.646 43.8652 290.197 43.8652C292.277 43.8701 294.27 44.6982 295.74 46.1686C297.21 47.6389 298.038 49.6317 298.043 51.7111Z" fill="white" stroke="black" stroke-miterlimit="10"/>
<path d="M325.431 51.7111C325.431 53.2629 324.97 54.7798 324.108 56.07C323.246 57.3603 322.021 58.3659 320.587 58.9597C319.153 59.5536 317.576 59.709 316.054 59.4062C314.532 59.1035 313.134 58.3562 312.037 57.259C310.94 56.1617 310.192 54.7637 309.89 53.2418C309.587 51.7198 309.742 50.1423 310.336 48.7086C310.93 47.275 311.935 46.0496 313.226 45.1875C314.516 44.3254 316.033 43.8652 317.585 43.8652C319.664 43.8701 321.657 44.6982 323.127 46.1686C324.598 47.6389 325.426 49.6317 325.431 51.7111Z" fill="white" stroke="black" stroke-miterlimit="10"/>
<path d="M352.744 51.7111C352.744 53.2629 352.284 54.7798 351.422 56.07C350.56 57.3603 349.335 58.3659 347.901 58.9597C346.467 59.5536 344.89 59.709 343.368 59.4062C341.846 59.1035 340.448 58.3562 339.351 57.259C338.253 56.1617 337.506 54.7637 337.203 53.2418C336.901 51.7198 337.056 50.1423 337.65 48.7086C338.244 47.275 339.249 46.0496 340.54 45.1875C341.83 44.3254 343.347 43.8652 344.899 43.8652C346.978 43.8701 348.971 44.6982 350.441 46.1686C351.911 47.6389 352.74 49.6317 352.744 51.7111Z" fill="white" stroke="black" stroke-miterlimit="10"/>
<path d="M85.3982 349.965C85.3982 349.965 85.3982 332.623 84.1333 330.149C82.8684 327.674 77.0207 319.003 76.0308 317.188C75.0409 315.374 77.0757 313.229 78.6339 315.942C79.9537 318.252 85.6365 326.152 86.9014 329.379C88.1662 332.605 89.2478 350.827 89.2478 350.827L85.3982 349.965Z" fill="white"/>
<path d="M95.0037 349.965C95.0037 349.965 95.0037 332.623 96.2869 330.149C97.5701 327.674 103.381 319.003 104.371 317.188C105.361 315.374 103.344 313.229 101.786 315.942C100.448 318.252 94.7654 326.152 93.5005 329.379C92.2356 332.605 91.1541 350.827 91.1541 350.827L95.0037 349.965Z" fill="white"/>
<path d="M103.4 316.583C100.42 317.698 97.1601 317.82 94.1056 316.931C92.8202 317.705 91.3231 318.053 89.8283 317.924C88.3335 317.796 86.9176 317.198 85.7831 316.216C83.1956 317.069 80.4959 317.532 77.7722 317.591V315.941C80.0097 315.892 82.2325 315.565 84.3899 314.97C82.6851 313.137 82.3184 311.084 83.455 309.709C83.6911 309.361 83.9951 309.065 84.3487 308.837C84.7024 308.61 85.0983 308.457 85.5127 308.387C85.9272 308.316 86.3515 308.331 86.7603 308.429C87.169 308.527 87.5537 308.707 87.8912 308.957C88.6678 309.569 89.1803 310.456 89.3235 311.434C89.4667 312.413 89.2297 313.409 88.6611 314.218C88.3354 314.659 87.939 315.043 87.4879 315.355C88.1989 315.831 89.0066 316.144 89.8529 316.27C90.6992 316.397 91.5631 316.335 92.3824 316.088C91.8967 315.826 91.467 315.471 91.1175 315.043C90.7032 314.516 90.4872 313.86 90.5073 313.19C90.5274 312.52 90.7823 311.878 91.2275 311.377C91.5378 310.853 91.9949 310.431 92.5422 310.164C93.0895 309.897 93.7031 309.796 94.3072 309.874C94.8562 310.019 95.3505 310.322 95.7286 310.746C96.1067 311.169 96.3519 311.695 96.4337 312.257C96.5216 312.848 96.4872 313.45 96.3327 314.027C96.1782 314.604 95.9068 315.144 95.5354 315.611C97.9703 316.183 100.519 316.03 102.868 315.172L103.4 316.583ZM93.0057 311.707C92.7835 311.881 92.5861 312.084 92.4191 312.312C91.7775 313.192 92.0158 313.705 92.2907 314.145C92.7052 314.612 93.2275 314.971 93.8123 315.19C94.1597 314.877 94.4275 314.487 94.5933 314.05C94.7591 313.613 94.8181 313.143 94.7655 312.678C94.7381 312.423 94.6368 312.181 94.4739 311.983C94.3111 311.784 94.0939 311.637 93.8489 311.56C93.706 311.524 93.5569 311.518 93.4116 311.543C93.2663 311.569 93.1279 311.624 93.0057 311.707ZM86.0031 314.365C86.4814 314.139 86.8969 313.799 87.2129 313.375C87.5499 312.917 87.6962 312.345 87.621 311.781C87.5458 311.217 87.255 310.704 86.8096 310.35C86.113 309.837 85.3248 310.002 84.6282 310.827C83.9316 311.652 84.7198 313.027 85.5814 313.962L86.0031 314.365Z" fill="white"/>
<g filter="url(#filter0_d)">
<path d="M265 323.763C265 312.423 274.417 303.352 285.748 303.776L579.748 314.779C590.495 315.182 599 324.011 599 334.765V402.025C599 412.554 590.836 421.28 580.33 421.98L286.33 441.578C274.787 442.348 265 433.192 265 421.622V323.763Z" fill="white"/>
</g>
<g clip-path="url(#clip0)">
<path d="M313 344L313 335L307 335C307 331.692 309.689 329 313 329L313 326C308.037 326 304 330.037 304 335L304 344L313 344Z" fill="#EA7068"/>
<path d="M298 344L298 335L292 335C292 331.693 294.689 329 298 329L298 326C293.037 326 289 330.037 289 335L289 344L298 344Z" fill="#EA7068"/>
</g>
<g clip-path="url(#clip1)">
<path d="M552 386L552 395L558 395C558 398.308 555.31 401 552 401L552 404C556.963 404 561 399.963 561 395L561 386L552 386Z" fill="#EA7068"/>
<path d="M567 386L567 395L573 395C573 398.307 570.311 401 567 401L567 404C571.963 404 576 399.963 576 395L576 386L567 386Z" fill="#EA7068"/>
</g>
<path d="M338.634 348.436H334.242V361H338.634C342.648 361 345.258 358.534 345.258 354.736C345.258 350.92 342.648 348.436 338.634 348.436ZM336.762 358.858V350.56H338.544C341.19 350.56 342.684 352.126 342.684 354.736C342.684 357.346 341.19 358.858 338.544 358.858H336.762ZM356.774 356.014C356.774 352.864 354.524 350.866 351.644 350.866C348.764 350.866 346.514 352.864 346.514 356.014C346.514 359.146 348.692 361.162 351.572 361.162C354.47 361.162 356.774 359.146 356.774 356.014ZM349.07 356.014C349.07 354.016 350.276 353.062 351.608 353.062C352.94 353.062 354.182 354.016 354.182 356.014C354.182 357.994 352.904 358.966 351.572 358.966C350.222 358.966 349.07 357.994 349.07 356.014ZM365.607 361H368.127V355.15C368.127 352.396 366.471 350.884 364.149 350.884C362.871 350.884 361.791 351.424 361.143 352.27V351.028H358.623V361H361.143V355.492C361.143 353.89 362.025 353.026 363.393 353.026C364.725 353.026 365.607 353.89 365.607 355.492V361ZM371.729 352.972L373.673 348.436H371.027L370.001 352.972H371.729ZM375.876 357.904C375.876 360.19 377.154 361 379.062 361H380.646V358.876H379.476C378.684 358.876 378.414 358.588 378.414 357.922V353.098H380.646V351.028H378.414V348.562H375.876V351.028H374.688V353.098H375.876V357.904ZM387.018 361H389.574V353.098H391.32V351.028H389.574V350.614C389.574 349.498 389.988 349.102 391.212 349.138V347.014C388.404 346.942 387.018 348.076 387.018 350.524V351.028H385.884V353.098H387.018V361ZM397.237 352.936C398.533 352.936 399.577 353.764 399.613 355.078H394.879C395.077 353.71 396.031 352.936 397.237 352.936ZM401.971 357.868H399.253C398.929 358.534 398.335 359.074 397.255 359.074C395.995 359.074 394.987 358.246 394.861 356.77H402.151C402.205 356.446 402.223 356.122 402.223 355.798C402.223 352.828 400.189 350.866 397.309 350.866C394.357 350.866 392.305 352.864 392.305 356.014C392.305 359.146 394.411 361.162 397.309 361.162C399.775 361.162 401.431 359.704 401.971 357.868ZM408.346 352.936C409.642 352.936 410.686 353.764 410.722 355.078H405.988C406.186 353.71 407.14 352.936 408.346 352.936ZM413.08 357.868H410.362C410.038 358.534 409.444 359.074 408.364 359.074C407.104 359.074 406.096 358.246 405.97 356.77H413.26C413.314 356.446 413.332 356.122 413.332 355.798C413.332 352.828 411.298 350.866 408.418 350.866C405.466 350.866 403.414 352.864 403.414 356.014C403.414 359.146 405.52 361.162 408.418 361.162C410.884 361.162 412.54 359.704 413.08 357.868ZM414.524 355.978C414.524 359.092 416.54 361.162 419.078 361.162C420.644 361.162 421.76 360.442 422.354 359.524V361H424.91V347.68H422.354V352.414C421.67 351.478 420.41 350.866 419.096 350.866C416.54 350.866 414.524 352.864 414.524 355.978ZM422.372 356.014C422.372 357.904 421.112 358.948 419.726 358.948C418.376 358.948 417.098 357.868 417.098 355.978C417.098 354.088 418.376 353.08 419.726 353.08C421.112 353.08 422.372 354.124 422.372 356.014ZM432.056 357.904C432.056 360.19 433.334 361 435.242 361H436.826V358.876H435.656C434.864 358.876 434.594 358.588 434.594 357.922V353.098H436.826V351.028H434.594V348.562H432.056V351.028H430.868V353.098H432.056V357.904ZM438.638 361H441.158V355.492C441.158 353.89 442.04 353.026 443.408 353.026C444.74 353.026 445.622 353.89 445.622 355.492V361H448.142V355.15C448.142 352.396 446.504 350.884 444.254 350.884C442.922 350.884 441.806 351.424 441.158 352.27V347.68H438.638V361ZM454.823 352.936C456.119 352.936 457.163 353.764 457.199 355.078H452.465C452.663 353.71 453.617 352.936 454.823 352.936ZM459.557 357.868H456.839C456.515 358.534 455.921 359.074 454.841 359.074C453.581 359.074 452.573 358.246 452.447 356.77H459.737C459.791 356.446 459.809 356.122 459.809 355.798C459.809 352.828 457.775 350.866 454.895 350.866C451.943 350.866 449.891 352.864 449.891 356.014C449.891 359.146 451.997 361.162 454.895 361.162C457.361 361.162 459.017 359.704 459.557 357.868ZM466.207 361H468.763V353.098H470.509V351.028H468.763V350.614C468.763 349.498 469.177 349.102 470.401 349.138V347.014C467.593 346.942 466.207 348.076 466.207 350.524V351.028H465.073V353.098H466.207V361ZM472.142 361H474.662V351.028H472.142V361ZM473.42 349.84C474.302 349.84 474.968 349.192 474.968 348.364C474.968 347.536 474.302 346.888 473.42 346.888C472.52 346.888 471.872 347.536 471.872 348.364C471.872 349.192 472.52 349.84 473.42 349.84ZM484.892 358.156C484.82 354.502 479.294 355.636 479.294 353.818C479.294 353.242 479.78 352.864 480.716 352.864C481.706 352.864 482.318 353.386 482.39 354.16H484.802C484.658 352.18 483.2 350.866 480.788 350.866C478.322 350.866 476.846 352.198 476.846 353.854C476.846 357.508 482.48 356.374 482.48 358.156C482.48 358.732 481.94 359.182 480.95 359.182C479.942 359.182 479.24 358.606 479.15 357.85H476.612C476.72 359.704 478.466 361.162 480.968 361.162C483.398 361.162 484.892 359.866 484.892 358.156ZM486.961 361H489.481V355.492C489.481 353.89 490.363 353.026 491.731 353.026C493.063 353.026 493.945 353.89 493.945 355.492V361H496.465V355.15C496.465 352.396 494.827 350.884 492.577 350.884C491.245 350.884 490.129 351.424 489.481 352.27V347.68H486.961V361ZM501.507 359.65C501.507 358.822 500.859 358.174 499.977 358.174C499.059 358.174 498.411 358.822 498.411 359.65C498.411 360.478 499.059 361.126 499.977 361.126C500.859 361.126 501.507 360.478 501.507 359.65ZM501.507 352.198C501.507 351.37 500.859 350.722 499.977 350.722C499.059 350.722 498.411 351.37 498.411 352.198C498.411 353.026 499.059 353.674 499.977 353.674C500.859 353.674 501.507 353.026 501.507 352.198ZM333.576 375.47H336.924V386H339.444V375.47H342.792V373.436H333.576V375.47ZM348.915 377.936C350.211 377.936 351.255 378.764 351.291 380.078H346.557C346.755 378.71 347.709 377.936 348.915 377.936ZM353.649 382.868H350.931C350.607 383.534 350.013 384.074 348.933 384.074C347.673 384.074 346.665 383.246 346.539 381.77H353.829C353.883 381.446 353.901 381.122 353.901 380.798C353.901 377.828 351.867 375.866 348.987 375.866C346.035 375.866 343.983 377.864 343.983 381.014C343.983 384.146 346.089 386.162 348.987 386.162C351.453 386.162 353.109 384.704 353.649 382.868ZM355.092 380.978C355.092 384.092 357.108 386.162 359.628 386.162C361.212 386.162 362.346 385.406 362.94 384.542V386H365.478V376.028H362.94V377.45C362.346 376.622 361.248 375.866 359.646 375.866C357.108 375.866 355.092 377.864 355.092 380.978ZM362.94 381.014C362.94 382.904 361.68 383.948 360.294 383.948C358.944 383.948 357.666 382.868 357.666 380.978C357.666 379.088 358.944 378.08 360.294 378.08C361.68 378.08 362.94 379.124 362.94 381.014ZM367.291 381.014C367.291 384.146 369.343 386.162 372.223 386.162C374.707 386.162 376.381 384.758 376.921 382.634H374.203C373.897 383.534 373.249 384.002 372.205 384.002C370.801 384.002 369.865 382.958 369.865 381.014C369.865 379.07 370.801 378.008 372.205 378.008C373.249 378.008 373.915 378.548 374.203 379.394H376.921C376.381 377.162 374.707 375.866 372.223 375.866C369.343 375.866 367.291 377.882 367.291 381.014ZM378.767 386H381.287V380.492C381.287 378.89 382.169 378.026 383.537 378.026C384.869 378.026 385.751 378.89 385.751 380.492V386H388.271V380.15C388.271 377.396 386.633 375.884 384.383 375.884C383.051 375.884 381.935 376.424 381.287 377.27V372.68H378.767V386ZM394.957 386H397.477V380.492C397.477 378.89 398.359 378.026 399.727 378.026C401.059 378.026 401.941 378.89 401.941 380.492V386H404.461V380.15C404.461 377.396 402.823 375.884 400.573 375.884C399.241 375.884 398.125 376.424 397.477 377.27V372.68H394.957V386ZM416.487 381.014C416.487 377.864 414.237 375.866 411.357 375.866C408.477 375.866 406.227 377.864 406.227 381.014C406.227 384.146 408.405 386.162 411.285 386.162C414.183 386.162 416.487 384.146 416.487 381.014ZM408.783 381.014C408.783 379.016 409.989 378.062 411.321 378.062C412.653 378.062 413.895 379.016 413.895 381.014C413.895 382.994 412.617 383.966 411.285 383.966C409.935 383.966 408.783 382.994 408.783 381.014ZM420.154 386H422.89L424.708 379.034L426.526 386H429.244L432.16 376.028H429.748L427.984 383.606L426.112 376.028H423.448L421.54 383.624L419.776 376.028H417.22L420.154 386ZM438.208 382.904C438.208 385.19 439.486 386 441.394 386H442.978V383.876H441.808C441.016 383.876 440.746 383.588 440.746 382.922V378.098H442.978V376.028H440.746V373.562H438.208V376.028H437.02V378.098H438.208V382.904ZM454.421 381.014C454.421 377.864 452.171 375.866 449.291 375.866C446.411 375.866 444.161 377.864 444.161 381.014C444.161 384.146 446.339 386.162 449.219 386.162C452.117 386.162 454.421 384.146 454.421 381.014ZM446.717 381.014C446.717 379.016 447.923 378.062 449.255 378.062C450.587 378.062 451.829 379.016 451.829 381.014C451.829 382.994 450.551 383.966 449.219 383.966C447.869 383.966 446.717 382.994 446.717 381.014ZM459.91 381.014C459.91 384.146 461.962 386.162 464.842 386.162C467.326 386.162 469 384.758 469.54 382.634H466.822C466.516 383.534 465.868 384.002 464.824 384.002C463.42 384.002 462.484 382.958 462.484 381.014C462.484 379.07 463.42 378.008 464.824 378.008C465.868 378.008 466.534 378.548 466.822 379.394H469.54C469 377.162 467.326 375.866 464.842 375.866C461.962 375.866 459.91 377.882 459.91 381.014ZM470.739 380.978C470.739 384.092 472.755 386.162 475.275 386.162C476.859 386.162 477.993 385.406 478.587 384.542V386H481.125V376.028H478.587V377.45C477.993 376.622 476.895 375.866 475.293 375.866C472.755 375.866 470.739 377.864 470.739 380.978ZM478.587 381.014C478.587 382.904 477.327 383.948 475.941 383.948C474.591 383.948 473.313 382.868 473.313 380.978C473.313 379.088 474.591 378.08 475.941 378.08C477.327 378.08 478.587 379.124 478.587 381.014ZM483.982 382.904C483.982 385.19 485.26 386 487.168 386H488.752V383.876H487.582C486.79 383.876 486.52 383.588 486.52 382.922V378.098H488.752V376.028H486.52V373.562H483.982V376.028H482.794V378.098H483.982V382.904ZM489.916 381.014C489.916 384.146 491.968 386.162 494.848 386.162C497.332 386.162 499.006 384.758 499.546 382.634H496.828C496.522 383.534 495.874 384.002 494.83 384.002C493.426 384.002 492.49 382.958 492.49 381.014C492.49 379.07 493.426 378.008 494.83 378.008C495.874 378.008 496.54 378.548 496.828 379.394H499.546C499.006 377.162 497.332 375.866 494.848 375.866C491.968 375.866 489.916 377.882 489.916 381.014ZM501.392 386H503.912V380.492C503.912 378.89 504.794 378.026 506.162 378.026C507.494 378.026 508.376 378.89 508.376 380.492V386H510.896V380.15C510.896 377.396 509.258 375.884 507.008 375.884C505.676 375.884 504.56 376.424 503.912 377.27V372.68H501.392V386ZM517.582 386H520.102V376.028H517.582V386ZM518.86 374.84C519.742 374.84 520.408 374.192 520.408 373.364C520.408 372.536 519.742 371.888 518.86 371.888C517.96 371.888 517.312 372.536 517.312 373.364C517.312 374.192 517.96 374.84 518.86 374.84ZM522.988 382.904C522.988 385.19 524.266 386 526.174 386H527.758V383.876H526.588C525.796 383.876 525.526 383.588 525.526 382.922V378.098H527.758V376.028H525.526V373.562H522.988V376.028H521.8V378.098H522.988V382.904ZM530.416 381.914H532.54L532.828 373.22H530.11L530.416 381.914ZM533.062 384.65C533.062 383.822 532.414 383.174 531.532 383.174C530.614 383.174 529.966 383.822 529.966 384.65C529.966 385.478 530.614 386.126 531.532 386.126C532.414 386.126 533.062 385.478 533.062 384.65Z" fill="#252729"/>
<defs>
<filter id="filter0_d" x="227" y="267.762" width="414" height="217.861" filterUnits="userSpaceOnUse" color-interpolation-filters="sRGB">
<feFlood flood-opacity="0" result="BackgroundImageFix"/>
<feColorMatrix in="SourceAlpha" type="matrix" values="0 0 0 0 0 0 0 0 0 0 0 0 0 0 0 0 0 0 127 0"/>
<feOffset dx="2" dy="4"/>
<feGaussianBlur stdDeviation="20"/>
<feColorMatrix type="matrix" values="0 0 0 0 0.679167 0 0 0 0 0.649067 0 0 0 0 0.649067 0 0 0 0.18 0"/>
<feBlend mode="normal" in2="BackgroundImageFix" result="effect1_dropShadow"/>
<feBlend mode="normal" in="SourceGraphic" in2="effect1_dropShadow" result="shape"/>
</filter>
<clipPath id="clip0">
<rect width="24" height="24" fill="white" transform="translate(313 347) rotate(180)"/>
</clipPath>
<clipPath id="clip1">
<rect width="24" height="24" fill="white" transform="translate(552 383)"/>
</clipPath>
</defs>
</svg>
