<svg width="935" height="346" viewBox="0 0 935 346" fill="none" xmlns="http://www.w3.org/2000/svg">
<path d="M395.051 329.78C393.945 329.78 392.864 330.108 391.945 330.723C391.025 331.337 390.309 332.211 389.887 333.233C389.464 334.255 389.354 335.38 389.571 336.464C389.788 337.548 390.322 338.544 391.105 339.325C391.888 340.106 392.886 340.637 393.971 340.851C395.056 341.065 396.18 340.952 397.201 340.526C398.222 340.101 399.093 339.382 399.705 338.461C400.317 337.54 400.643 336.458 400.639 335.352C400.639 334.619 400.495 333.893 400.214 333.216C399.933 332.539 399.521 331.924 399.002 331.406C398.483 330.888 397.866 330.478 397.188 330.199C396.51 329.92 395.784 329.777 395.051 329.78Z" fill="#672ED6"/>
<path d="M584.609 85.7708V100.1" stroke="#672ED6" stroke-width="0.75" stroke-linecap="round" stroke-linejoin="round"/>
<path d="M577.461 92.9351H591.774" stroke="#672ED6" stroke-width="0.75" stroke-linecap="round" stroke-linejoin="round"/>
<path d="M68.7446 223.521V237.85" stroke="#DB7294" stroke-width="0.75" stroke-linecap="round" stroke-linejoin="round"/>
<path d="M61.5804 230.686H75.8936" stroke="#DB7294" stroke-width="0.75" stroke-linecap="round" stroke-linejoin="round"/>
<path d="M189.906 317.425V331.738" stroke="#DB7294" stroke-width="0.75" stroke-linecap="round" stroke-linejoin="round"/>
<path d="M182.742 324.573H197.071" stroke="#DB7294" stroke-width="0.75" stroke-linecap="round" stroke-linejoin="round"/>
<path d="M155.849 73.5271V87.8403" stroke="#EEDA36" stroke-width="0.75" stroke-linecap="round" stroke-linejoin="round"/>
<path d="M148.685 80.6758H163.014" stroke="#EEDA36" stroke-width="0.75" stroke-linecap="round" stroke-linejoin="round"/>
<path d="M189.906 21.99L194.395 29.7914L198.901 37.5769H189.906H180.91L185.416 29.7914L189.906 21.99Z" fill="#D96980"/>
<path d="M578.094 250.014L588.348 259.026L598.617 268.037L585.689 272.415L572.745 276.81L575.42 263.42L578.094 250.014Z" stroke="#D96980" stroke-miterlimit="10"/>
<path d="M292.118 290.326C292.118 291.781 291.687 293.203 290.879 294.413C290.07 295.622 288.922 296.565 287.577 297.122C286.233 297.679 284.754 297.824 283.328 297.54C281.901 297.257 280.59 296.556 279.561 295.527C278.533 294.499 277.832 293.188 277.548 291.761C277.265 290.334 277.41 288.855 277.967 287.511C278.524 286.167 279.466 285.018 280.676 284.21C281.886 283.402 283.308 282.971 284.763 282.971C285.729 282.971 286.685 283.161 287.577 283.531C288.47 283.9 289.281 284.442 289.964 285.125C290.647 285.808 291.189 286.619 291.558 287.511C291.928 288.404 292.118 289.36 292.118 290.326V290.326Z" stroke="#D96980" stroke-miterlimit="10"/>
<path d="M350.342 92.107C350.345 93.4145 349.961 94.6935 349.237 95.7822C348.512 96.8708 347.482 97.7202 346.275 98.2227C345.068 98.7252 343.739 98.8584 342.456 98.6052C341.173 98.3521 339.994 97.724 339.069 96.8006C338.143 95.8772 337.512 94.7 337.256 93.4178C337 92.1357 337.13 90.8064 337.629 89.5981C338.129 88.3899 338.976 87.357 340.063 86.6303C341.149 85.9035 342.428 85.5156 343.735 85.5156C345.485 85.5156 347.163 86.2096 348.402 87.4452C349.64 88.6809 350.338 90.3574 350.342 92.107Z" fill="#D96980"/>
<path d="M562.653 323.682C562.656 324.989 562.271 326.268 561.547 327.357C560.823 328.445 559.792 329.295 558.585 329.797C557.378 330.3 556.049 330.433 554.766 330.18C553.483 329.927 552.305 329.299 551.379 328.375C550.453 327.452 549.823 326.275 549.566 324.992C549.31 323.71 549.44 322.381 549.94 321.173C550.439 319.964 551.286 318.932 552.373 318.205C553.46 317.478 554.738 317.09 556.045 317.09C556.912 317.088 557.771 317.257 558.573 317.587C559.374 317.918 560.103 318.403 560.717 319.015C561.33 319.627 561.817 320.355 562.149 321.156C562.482 321.956 562.653 322.815 562.653 323.682Z" fill="#D96980"/>
<path d="M364.337 226.275C364.337 227.053 364.106 227.813 363.674 228.46C363.242 229.107 362.628 229.611 361.909 229.909C361.19 230.206 360.4 230.284 359.637 230.132C358.874 229.981 358.173 229.606 357.623 229.056C357.073 228.506 356.699 227.805 356.547 227.043C356.395 226.28 356.473 225.489 356.771 224.77C357.069 224.052 357.573 223.438 358.219 223.006C358.866 222.573 359.626 222.343 360.404 222.343C360.921 222.341 361.434 222.441 361.912 222.638C362.39 222.835 362.824 223.124 363.19 223.49C363.555 223.856 363.845 224.29 364.042 224.768C364.239 225.246 364.339 225.758 364.337 226.275Z" fill="#E4B0C8"/>
<path d="M879.513 334.395C885.463 331.917 888.277 325.085 885.799 319.135C883.321 313.185 876.489 310.371 870.539 312.849C864.589 315.327 861.775 322.159 864.253 328.109C866.731 334.059 873.563 336.873 879.513 334.395Z" stroke="#D96980" stroke-miterlimit="10"/>
<path d="M687.124 126.657C692.778 126.657 697.361 122.073 697.361 116.419C697.361 110.765 692.778 106.182 687.124 106.182C681.47 106.182 676.886 110.765 676.886 116.419C676.886 122.073 681.47 126.657 687.124 126.657Z" stroke="#672ED6" stroke-miterlimit="10"/>
<path d="M10.6168 197.761C15.7079 197.761 19.8352 193.633 19.8352 188.542C19.8352 183.451 15.7079 179.324 10.6168 179.324C5.52559 179.324 1.39838 183.451 1.39838 188.542C1.39838 193.633 5.52559 197.761 10.6168 197.761Z" stroke="#672ED6" stroke-miterlimit="10"/>
<path d="M518.518 300.564C518.518 302.138 518.051 303.677 517.177 304.986C516.302 306.295 515.059 307.316 513.604 307.918C512.149 308.521 510.549 308.678 509.005 308.371C507.46 308.064 506.042 307.306 504.929 306.193C503.815 305.079 503.057 303.661 502.75 302.117C502.443 300.572 502.601 298.972 503.203 297.517C503.806 296.063 504.826 294.819 506.135 293.945C507.444 293.07 508.983 292.603 510.558 292.603C512.669 292.603 514.694 293.442 516.187 294.935C517.68 296.428 518.518 298.452 518.518 300.564V300.564Z" stroke="#672ED6" stroke-miterlimit="10"/>
<path d="M891.73 269.756C891.73 269.756 904.944 268.467 908.399 276.809C911.854 285.152 913.176 293.224 934.001 282.971" stroke="#EEDA36" stroke-miterlimit="10"/>
<path d="M488.078 5.97048C488.078 7.152 487.727 8.30696 487.07 9.28914C486.414 10.2713 485.48 11.0365 484.388 11.488C483.296 11.9394 482.095 12.0567 480.937 11.825C479.778 11.5934 478.714 11.0231 477.88 10.1866C477.045 9.34998 476.478 8.28466 476.25 7.12546C476.021 5.96626 476.141 4.76531 476.596 3.67464C477.05 2.58396 477.818 1.6526 478.802 0.998475C479.786 0.344351 480.942 -0.00312915 482.123 2.15744e-05C482.907 -0.00209131 483.684 0.15101 484.408 0.450503C485.132 0.749995 485.79 1.18994 486.344 1.74498C486.897 2.30002 487.336 2.95918 487.633 3.6844C487.931 4.40963 488.082 5.18659 488.078 5.97048Z" fill="#EEDA36"/>
<path d="M636.033 205.848C683.736 205.848 722.406 170.108 722.406 126.019C722.406 81.9311 683.736 46.1904 636.033 46.1904C588.331 46.1904 549.661 81.9311 549.661 126.019C549.661 170.108 588.331 205.848 636.033 205.848Z" stroke="#C1C0FF" stroke-miterlimit="10" stroke-dasharray="4 4"/>
<path d="M112.886 109.5H317.203C325.149 109.5 331.59 115.941 331.59 123.886V255.38C331.59 263.325 325.149 269.766 317.203 269.766H112.886C104.941 269.766 98.5 263.325 98.5 255.38V123.886C98.5 115.941 104.941 109.5 112.886 109.5Z" fill="white" stroke="black"/>
<path d="M174.238 174.054C174.238 174.054 163.205 208.778 185.733 216.452C208.262 224.126 210.793 217.758 215.793 229.762C220.792 241.767 240.853 236.576 242.779 218.124C244.706 199.671 231.077 201.104 223.976 200.149C216.875 199.193 212.163 186.17 212.242 179.451C212.322 172.732 176.786 159.9 174.238 174.054Z" fill="black"/>
<path d="M301.767 117.868H128.432C120.211 117.868 113.546 124.533 113.546 132.754V225.909C113.546 234.131 120.211 240.795 128.432 240.795H301.767C309.988 240.795 316.653 234.131 316.653 225.909V132.754C316.653 124.533 309.988 117.868 301.767 117.868Z" fill="white"/>
<path d="M207.133 211.723C207.133 216.07 201.082 219.588 193.615 219.588C186.148 219.588 180.098 216.07 180.098 211.723C180.098 207.377 186.148 203.762 193.615 203.762C201.082 203.762 207.133 207.361 207.133 211.723Z" fill="#EEDA36" stroke="#1C191B" stroke-miterlimit="10"/>
<path d="M168.443 174.054C168.427 176.044 169.003 177.994 170.098 179.657C171.192 181.319 172.755 182.619 174.59 183.392C176.424 184.165 178.446 184.375 180.4 183.996C182.354 183.618 184.152 182.667 185.565 181.266C186.978 179.864 187.942 178.074 188.337 176.123C188.731 174.172 188.536 172.148 187.778 170.308C187.02 168.467 185.733 166.894 184.079 165.786C182.425 164.679 180.48 164.087 178.49 164.087C177.175 164.081 175.872 164.334 174.656 164.832C173.439 165.329 172.333 166.062 171.4 166.988C170.467 167.913 169.725 169.014 169.218 170.226C168.711 171.439 168.447 172.74 168.443 174.054Z" fill="white" stroke="black" stroke-miterlimit="10"/>
<path d="M210.236 144.998H198.359C190.398 144.998 184.03 152.353 184.03 161.349V179.706C184.03 180.215 184.03 180.741 184.03 181.298C183.897 181.851 183.827 182.417 183.823 182.986V205.976C183.831 207.935 184.615 209.812 186.002 211.196C187.389 212.58 189.267 213.359 191.226 213.363H196.003C197.959 213.355 199.834 212.574 201.217 211.19C202.601 209.807 203.382 207.933 203.39 205.976V196.057H210.268C218.229 196.057 224.597 188.701 224.597 179.706V161.285C224.597 152.289 218.133 144.998 210.236 144.998Z" fill="white" stroke="black" stroke-miterlimit="10"/>
<path d="M182.995 169.564C182.995 169.564 194.634 165.695 198.168 158.18C201.703 150.665 200.827 149.041 200.827 149.041C200.827 149.041 207.387 158.037 217.767 160.186C226.333 162.001 225.983 160.743 226.827 158.737C227.67 156.731 228.116 144.233 215.108 136.448C202.101 128.662 188.042 129.426 178.49 139.138C168.937 148.85 170.02 164.198 173.268 168.019C176.515 171.841 180.782 174.022 182.995 169.564Z" fill="black"/>
<path d="M189.791 124.495C191.266 118.248 187.397 111.988 181.15 110.513C174.902 109.039 168.643 112.908 167.168 119.155C165.694 125.403 169.563 131.662 175.81 133.137C182.057 134.611 188.317 130.742 189.791 124.495Z" fill="black"/>
<path d="M169.032 174.054C169.019 175.927 169.563 177.762 170.595 179.325C171.626 180.889 173.099 182.111 174.826 182.837C176.553 183.562 178.456 183.759 180.295 183.401C182.133 183.043 183.824 182.147 185.153 180.827C186.482 179.507 187.389 177.822 187.76 175.986C188.13 174.15 187.946 172.245 187.232 170.513C186.518 168.782 185.306 167.301 183.75 166.259C182.193 165.217 180.362 164.66 178.489 164.66C177.251 164.656 176.025 164.896 174.88 165.366C173.735 165.836 172.693 166.526 171.815 167.399C170.937 168.271 170.239 169.308 169.761 170.449C169.284 171.591 169.036 172.816 169.032 174.054Z" fill="white"/>
<path d="M183.6 175.248C183.6 175.248 184.014 168.88 177.47 169.596" stroke="#020202" stroke-miterlimit="10"/>
<path d="M203.502 169.978C204.979 169.978 206.177 168.78 206.177 167.303C206.177 165.826 204.979 164.628 203.502 164.628C202.025 164.628 200.827 165.826 200.827 167.303C200.827 168.78 202.025 169.978 203.502 169.978Z" fill="black"/>
<path d="M218.356 166.905C218.353 167.36 218.485 167.805 218.736 168.185C218.987 168.564 219.344 168.861 219.764 169.036C220.184 169.212 220.646 169.258 221.092 169.17C221.538 169.082 221.948 168.864 222.27 168.542C222.591 168.221 222.81 167.811 222.898 167.364C222.986 166.918 222.939 166.456 222.764 166.036C222.588 165.617 222.292 165.259 221.912 165.008C221.533 164.758 221.088 164.625 220.633 164.628C220.029 164.628 219.45 164.868 219.023 165.295C218.596 165.722 218.356 166.301 218.356 166.905Z" fill="black"/>
<path d="M215.794 177.875C215.794 177.875 214.457 181.791 211.607 182.062C208.757 182.333 206.528 179.18 206.369 176.712" stroke="#0C0C0C" stroke-miterlimit="10"/>
<path d="M191.513 177.142C191.513 178.459 191.903 179.745 192.635 180.84C193.366 181.934 194.405 182.787 195.621 183.291C196.837 183.795 198.175 183.926 199.466 183.67C200.757 183.413 201.943 182.779 202.874 181.848C203.805 180.918 204.438 179.732 204.695 178.441C204.952 177.15 204.82 175.812 204.317 174.596C203.813 173.38 202.96 172.34 201.865 171.609C200.771 170.878 199.484 170.487 198.168 170.487C196.404 170.492 194.714 171.194 193.467 172.441C192.22 173.688 191.517 175.379 191.513 177.142Z" fill="#E4B0C8"/>
<path d="M222.813 172.637C223.205 172.643 223.594 172.691 223.975 172.78V179.69C224.001 180.693 223.921 181.696 223.737 182.683C223.432 182.738 223.123 182.77 222.813 182.778C222.123 182.817 221.433 182.715 220.784 182.477C220.135 182.24 219.542 181.873 219.04 181.398C218.538 180.923 218.138 180.351 217.864 179.717C217.591 179.082 217.45 178.398 217.45 177.708C217.45 177.017 217.591 176.333 217.864 175.698C218.138 175.064 218.538 174.492 219.04 174.017C219.542 173.542 220.135 173.175 220.784 172.938C221.433 172.7 222.123 172.598 222.813 172.637Z" fill="#E4B0C8"/>
<path d="M212.784 164.628L212.242 173.751L216.589 171.092L212.784 164.628Z" fill="#DB7294"/>
<path d="M298.186 144.997H250.31C248.029 144.997 245.84 144.092 244.225 142.48C242.611 140.868 241.701 138.682 241.697 136.4V136.4C241.697 134.116 242.604 131.925 244.22 130.309C245.835 128.694 248.026 127.787 250.31 127.787H298.186C300.47 127.787 302.661 128.694 304.276 130.309C305.891 131.925 306.799 134.116 306.799 136.4V136.4C306.795 138.682 305.885 140.868 304.27 142.48C302.656 144.092 300.467 144.997 298.186 144.997V144.997Z" stroke="black" stroke-miterlimit="10"/>
<path d="M301.767 117.868H128.432C120.211 117.868 113.546 124.533 113.546 132.754V225.909C113.546 234.131 120.211 240.795 128.432 240.795H301.767C309.988 240.795 316.653 234.131 316.653 225.909V132.754C316.653 124.533 309.988 117.868 301.767 117.868Z" stroke="black" stroke-miterlimit="10"/>
<path d="M220.792 254.854C220.793 255.963 220.453 257.046 219.817 257.955C219.181 258.864 218.28 259.555 217.238 259.934C216.195 260.313 215.061 260.361 213.989 260.073C212.918 259.784 211.962 259.172 211.251 258.32C210.54 257.469 210.109 256.419 210.016 255.313C209.923 254.208 210.173 253.1 210.732 252.142C211.291 251.184 212.132 250.421 213.14 249.958C214.148 249.494 215.274 249.353 216.366 249.552C217.603 249.788 218.72 250.445 219.527 251.412C220.334 252.378 220.781 253.595 220.792 254.854C220.822 255.096 220.94 255.319 221.124 255.48C221.307 255.642 221.543 255.731 221.787 255.731C222.031 255.731 222.267 255.642 222.45 255.48C222.633 255.319 222.751 255.096 222.782 254.854C222.783 253.332 222.314 251.847 221.439 250.601C220.564 249.356 219.326 248.411 217.893 247.896C216.461 247.381 214.904 247.321 213.437 247.725C211.969 248.128 210.662 248.975 209.694 250.149C208.726 251.324 208.144 252.769 208.028 254.287C207.913 255.805 208.269 257.321 209.048 258.629C209.827 259.936 210.991 260.971 212.38 261.592C213.77 262.214 215.318 262.39 216.811 262.098C218.485 261.756 219.991 260.85 221.077 259.532C222.164 258.213 222.765 256.562 222.782 254.854C222.751 254.612 222.633 254.389 222.45 254.228C222.267 254.066 222.031 253.977 221.787 253.977C221.543 253.977 221.307 254.066 221.124 254.228C220.94 254.389 220.822 254.612 220.792 254.854Z" fill="black"/>
<path d="M390.64 99.8677H564.086C570.782 99.8677 576.211 105.296 576.211 111.993V223.617C576.211 230.314 570.782 235.742 564.086 235.742H390.64C383.943 235.742 378.514 230.314 378.514 223.617V111.993C378.514 105.296 383.943 99.8677 390.64 99.8677Z" fill="white" stroke="black"/>
<mask id="mask0" mask-type="alpha" maskUnits="userSpaceOnUse" x="392" y="107" width="173" height="105">
<path d="M551.778 107.583H404.634C397.662 107.583 392.009 113.235 392.009 120.208V199.305C392.009 206.278 397.662 211.93 404.634 211.93H551.778C558.751 211.93 564.404 206.278 564.404 199.305V120.208C564.404 113.235 558.751 107.583 551.778 107.583Z" fill="#D9D9D9"/>
</mask>
<g mask="url(#mask0)">
<rect x="354.658" y="90.8655" width="248.371" height="136.923" fill="white"/>
</g>
<path d="M550.937 107.328H403.793C396.82 107.328 391.167 112.981 391.167 119.954V199.05C391.167 206.023 396.82 211.676 403.793 211.676H550.937C557.91 211.676 563.562 206.023 563.562 199.05V119.954C563.562 112.981 557.91 107.328 550.937 107.328Z" stroke="black" stroke-miterlimit="10"/>
<path d="M199.218 206.628C199.218 206.628 223.228 208.093 248.001 231.37C272.774 254.647 272.122 314.702 272.122 314.702L198.168 312.823L199.218 206.628Z" fill="white" stroke="black" stroke-miterlimit="10"/>
<path d="M224.597 226.498C241.171 238.901 274.892 312.473 264.177 312.775C253.462 313.078 125.662 312.011 121.634 307.999C117.606 303.987 135.024 268.928 135.024 268.928C135.024 268.928 161.915 213.681 203.485 213.331C217.432 213.252 206.892 213.267 224.597 226.498Z" fill="white"/>
<path d="M156.677 271.81C156.677 271.81 144.959 304.623 147.665 308.429C150.372 312.234 236.426 313.094 243.623 312.855C250.819 312.616 238.623 260.872 232.478 245.986" stroke="#1C191B" stroke-miterlimit="10"/>
<path d="M201.686 288.973C201.686 288.973 211.335 282.525 236.283 288.654C236.283 288.654 241.059 290.836 237.413 291.839C233.768 292.842 224.438 291.329 224.438 291.329C224.438 291.329 238.767 292.635 239.133 295.134C239.499 297.634 225.584 295.134 225.584 295.134C225.584 295.134 240.534 297.491 240.343 300.022C240.152 302.554 231.857 299.72 223.785 300.309C215.713 300.898 201.018 306.805 198.741 305.165C196.464 303.525 191.497 292.778 201.686 288.973Z" fill="white" stroke="#1C191B" stroke-miterlimit="10"/>
<path d="M193.614 206.629C178.712 206.756 162.377 211.405 146.551 224.301C124.962 241.91 88.3269 297.268 104.312 325.847C120.297 354.425 157.154 343.36 169.923 337.517C182.692 331.674 207.641 312.632 210.363 304.815C213.547 295.644 212.162 289.18 200.651 286.298C189.14 283.417 146.917 287.891 138.654 293.304" fill="white"/>
<path d="M193.614 206.629C178.712 206.756 162.377 211.405 146.551 224.301C124.962 241.91 88.3269 297.268 104.312 325.847C120.297 354.425 157.154 343.36 169.923 337.517C182.692 331.674 207.641 312.632 210.363 304.815C213.547 295.644 212.162 289.18 200.651 286.298C189.14 283.417 146.917 287.891 138.654 293.304" stroke="black" stroke-miterlimit="10"/>
<path d="M210.364 304.815C213.548 295.851 212.195 289.482 201.4 286.505C200.794 289.798 200.692 293.164 201.098 296.488C201.814 302.617 203.9 307.792 206.447 310.546C208.075 308.877 209.401 306.938 210.364 304.815Z" fill="#EEDA36" stroke="black" stroke-miterlimit="10"/>
<path d="M175.719 251.049C175.719 251.049 163.125 241.83 167.965 237.579C172.805 233.328 177.008 242.117 177.008 242.117C177.008 242.117 179.922 234.427 184.093 236.99C188.265 239.554 175.719 251.049 175.719 251.049Z" fill="#EEDA36" stroke="#1C191B" stroke-miterlimit="10"/>
<mask id="mask1" mask-type="alpha" maskUnits="userSpaceOnUse" x="392" y="107" width="173" height="105">
<path d="M551.778 107.583H404.634C397.662 107.583 392.009 113.235 392.009 120.208V199.305C392.009 206.278 397.662 211.93 404.634 211.93H551.778C558.751 211.93 564.404 206.278 564.404 199.305V120.208C564.404 113.235 558.751 107.583 551.778 107.583Z" fill="white"/>
</mask>
<g mask="url(#mask1)">
<path d="M392.37 212.347C392.37 212.347 415.164 190.585 439.421 186.082C463.679 181.579 512.263 182.039 538.556 216.752C564.848 251.465 500.232 282.275 498.447 282.484C496.663 282.693 391.701 265.141 387.7 262.116C383.699 259.091 368.531 241.093 392.37 212.347Z" fill="#63C1C5" stroke="black" stroke-width="0.91" stroke-miterlimit="10"/>
<path d="M491.365 194.418C491.365 194.418 530.664 273.38 521.868 288.464C513.071 303.548 447.98 317.936 415.442 301.457C377.439 282.177 427.445 202.17 439.253 183.726L491.365 194.418Z" fill="#63C1C5" stroke="black" stroke-width="0.91" stroke-miterlimit="10"/>
<path d="M430.43 212.347C430.427 214.129 430.954 215.872 431.942 217.355C432.931 218.838 434.337 219.995 435.983 220.678C437.629 221.362 439.441 221.541 441.19 221.194C442.938 220.847 444.544 219.989 445.804 218.729C447.065 217.468 447.923 215.862 448.27 214.114C448.617 212.366 448.437 210.554 447.754 208.908C447.07 207.262 445.914 205.855 444.431 204.867C442.948 203.878 441.205 203.352 439.422 203.355C437.037 203.355 434.75 204.302 433.064 205.988C431.378 207.675 430.43 209.962 430.43 212.347Z" fill="#63C1C5"/>
<path d="M496.861 189.944C498.016 178.67 484.821 168.082 467.388 166.296C449.956 164.51 434.887 172.202 433.732 183.476C432.577 194.751 445.772 205.338 463.205 207.124C480.638 208.911 495.706 201.219 496.861 189.944Z" fill="#63C1C5" stroke="black" stroke-width="0.97" stroke-miterlimit="10"/>
<path d="M448.567 155.495C448.542 157.154 449.012 158.784 449.915 160.176C450.819 161.568 452.117 162.659 453.643 163.312C455.169 163.964 456.855 164.148 458.485 163.839C460.116 163.531 461.618 162.744 462.801 161.579C463.983 160.415 464.792 158.925 465.125 157.299C465.458 155.673 465.3 153.985 464.671 152.449C464.042 150.913 462.97 149.599 461.592 148.675C460.213 147.75 458.591 147.256 456.932 147.256C455.84 147.243 454.757 147.446 453.745 147.854C452.732 148.262 451.81 148.866 451.033 149.632C450.255 150.398 449.637 151.311 449.214 152.317C448.79 153.323 448.571 154.403 448.567 155.495Z" stroke="black" stroke-width="1.88" stroke-miterlimit="10"/>
<path d="M484.757 129.927H474.274C467.303 129.927 461.657 136.382 461.657 144.286V160.458C461.657 160.918 461.657 161.364 461.657 161.852C461.54 162.341 461.48 162.841 461.476 163.344V183.586C461.483 185.309 462.172 186.959 463.392 188.176C464.612 189.394 466.263 190.079 467.986 190.082H472.169C473.892 190.079 475.544 189.394 476.763 188.176C477.983 186.959 478.672 185.309 478.679 183.586V174.873H484.702C491.672 174.873 497.318 168.404 497.318 160.5V144.286C497.374 136.382 491.7 129.927 484.757 129.927Z" fill="white" stroke="black" stroke-width="0.94" stroke-miterlimit="10"/>
<path d="M476.491 149.57C476.491 150.036 476.629 150.491 476.888 150.879C477.147 151.266 477.515 151.568 477.945 151.747C478.376 151.925 478.85 151.972 479.307 151.881C479.764 151.79 480.183 151.565 480.513 151.236C480.842 150.906 481.067 150.487 481.158 150.03C481.249 149.573 481.202 149.099 481.024 148.668C480.845 148.238 480.543 147.87 480.156 147.611C479.768 147.352 479.313 147.214 478.847 147.214C478.222 147.214 477.623 147.462 477.181 147.904C476.739 148.346 476.491 148.945 476.491 149.57Z" fill="#0C0C0C"/>
<path d="M491.895 149.166C491.895 149.563 492.013 149.951 492.233 150.281C492.454 150.611 492.767 150.869 493.134 151.02C493.501 151.172 493.905 151.212 494.294 151.135C494.683 151.057 495.041 150.866 495.322 150.585C495.603 150.305 495.794 149.947 495.871 149.557C495.949 149.168 495.909 148.764 495.757 148.398C495.605 148.031 495.348 147.717 495.018 147.497C494.688 147.276 494.299 147.158 493.902 147.158C493.638 147.156 493.376 147.207 493.132 147.307C492.888 147.408 492.666 147.555 492.479 147.742C492.292 147.929 492.144 148.151 492.044 148.395C491.944 148.64 491.893 148.902 491.895 149.166Z" fill="#0C0C0C"/>
<path d="M489.607 158.924C489.607 158.924 488.422 162.367 485.927 162.604C483.431 162.841 481.466 160.067 481.326 157.906L489.607 158.924Z" fill="#FFF7F7"/>
<path d="M488.939 158.659C488.913 158.745 488.88 158.829 488.841 158.91L488.772 159.078L488.577 159.482C488.266 160.093 487.85 160.645 487.35 161.113C487.084 161.373 486.763 161.569 486.41 161.688C486.058 161.806 485.683 161.843 485.314 161.796C484.483 161.624 483.741 161.159 483.223 160.486C482.595 159.734 482.206 158.812 482.108 157.837L481.369 158.576L488.618 159.454L489.65 159.58C490.04 159.58 490.375 159.217 490.375 158.855C490.368 158.663 490.29 158.481 490.156 158.344C490.022 158.208 489.841 158.126 489.65 158.116L482.401 157.237L481.369 157.112C481.273 157.11 481.178 157.128 481.089 157.163C481.001 157.199 480.92 157.252 480.852 157.32C480.785 157.388 480.731 157.468 480.695 157.557C480.66 157.646 480.642 157.741 480.644 157.837C480.718 158.992 481.12 160.102 481.805 161.036C482.489 161.97 483.426 162.688 484.506 163.107C485.508 163.339 486.56 163.22 487.486 162.771C488.412 162.322 489.156 161.57 489.594 160.639C489.904 160.139 490.156 159.606 490.347 159.05C490.668 158.158 489.246 157.767 488.939 158.659Z" fill="#0C0C0C"/>
<path d="M468.319 158.227C468.319 159.386 468.663 160.519 469.307 161.482C469.951 162.445 470.866 163.195 471.937 163.638C473.007 164.081 474.185 164.196 475.321 163.969C476.458 163.742 477.501 163.183 478.319 162.363C479.137 161.542 479.694 160.498 479.918 159.361C480.143 158.224 480.025 157.047 479.579 155.977C479.134 154.907 478.382 153.994 477.417 153.352C476.452 152.71 475.319 152.369 474.16 152.372C472.61 152.376 471.124 152.994 470.029 154.092C468.934 155.19 468.319 156.677 468.319 158.227Z" fill="#E4B0C8"/>
<path d="M495.812 154.254C496.159 154.26 496.504 154.302 496.843 154.379V160.444C496.848 161.338 496.759 162.23 496.578 163.106C496.309 163.121 496.039 163.121 495.77 163.106C494.632 163.043 493.561 162.546 492.778 161.717C491.994 160.889 491.558 159.792 491.558 158.652C491.558 157.512 491.994 156.415 492.778 155.587C493.561 154.759 494.632 154.262 495.77 154.198L495.812 154.254Z" fill="#E4B0C8"/>
<path d="M487.002 147.214L486.528 155.23L490.348 152.902L487.002 147.214Z" fill="#DB7294"/>
<path d="M464.515 155.23L466.439 142.558C466.439 142.558 501.5 146.949 512.862 129.927C524.224 112.905 512.291 106.227 506.505 107.12C500.72 108.012 493.958 116.362 493.958 116.362C493.958 116.362 499.34 109.043 493.958 107.886C488.577 106.729 482.638 112.32 479.543 118.091C479.543 118.091 456.429 115.944 448.622 129.927C440.815 143.91 447.144 153.822 461.434 168.279L462.382 160.193L464.515 155.23Z" fill="black"/>
<path d="M448.567 155.495C448.542 157.154 449.012 158.784 449.915 160.176C450.819 161.568 452.117 162.659 453.643 163.312C455.169 163.964 456.855 164.148 458.485 163.839C460.116 163.531 461.618 162.744 462.801 161.579C463.983 160.415 464.792 158.925 465.125 157.299C465.458 155.673 465.3 153.985 464.671 152.449C464.042 150.913 462.97 149.599 461.592 148.675C460.213 147.75 458.591 147.256 456.932 147.256C455.84 147.243 454.757 147.446 453.745 147.854C452.732 148.262 451.81 148.866 451.033 149.632C450.255 150.398 449.637 151.311 449.214 152.317C448.79 153.323 448.571 154.403 448.567 155.495Z" fill="white"/>
<path d="M462.269 156.582C462.299 155.857 462.21 155.131 462.004 154.435C461.83 153.738 461.506 153.086 461.056 152.525C460.606 151.964 460.04 151.508 459.397 151.187C458.322 150.724 457.142 150.56 455.981 150.713C455.745 150.72 455.521 150.815 455.353 150.981C455.185 151.146 455.086 151.369 455.075 151.605C455.075 152.051 455.479 152.567 455.981 152.511C456.477 152.456 456.977 152.456 457.473 152.511H457.626C457.626 152.511 457.431 152.511 457.626 152.511H457.905C458.1 152.511 458.282 152.623 458.477 152.679C458.672 152.734 458.323 152.609 458.477 152.679L458.7 152.79C458.836 152.895 458.981 152.988 459.132 153.069C459.132 153.069 458.951 152.916 459.062 153.069H459.16L459.313 153.222C459.408 153.345 459.51 153.461 459.62 153.571C459.48 153.473 459.522 153.417 459.62 153.571V153.641C459.662 153.693 459.699 153.749 459.731 153.808C459.812 153.927 459.882 154.053 459.941 154.184C459.941 154.254 460.01 154.324 460.038 154.379C460.066 154.435 459.941 154.156 460.038 154.296V154.379C460.038 154.519 460.136 154.658 460.178 154.784C460.242 155.018 460.293 155.255 460.331 155.495C460.339 155.545 460.339 155.597 460.331 155.648C460.331 155.843 460.331 155.383 460.331 155.578C460.324 155.676 460.324 155.774 460.331 155.871C460.345 156.089 460.345 156.308 460.331 156.526C460.331 156.764 460.424 156.993 460.591 157.162C460.758 157.332 460.985 157.429 461.223 157.432C461.461 157.425 461.688 157.328 461.856 157.159C462.025 156.991 462.122 156.764 462.129 156.526L462.269 156.582Z" fill="#020202"/>
<path d="M479.488 118.091C479.488 118.091 456.388 141.958 446.81 149.166C446.81 149.166 434.347 121.604 441.429 113.909C447.089 107.803 474.748 111.413 479.488 118.091Z" fill="#EEDA36" stroke="black" stroke-width="0.94" stroke-miterlimit="10"/>
<path d="M471.848 113.602L443.687 141.359" stroke="black" stroke-width="0.94" stroke-miterlimit="10"/>
<path d="M485.914 177.423L489.678 191.364L461.169 200.398L459.691 194.557L449.18 188.339L453.543 176.545L466.021 186.304L466.843 186.987C466.843 186.987 467.303 187.768 469.631 186.485L485.914 177.423Z" fill="#63C1C5"/>
<path d="M487.017 176.824L459.818 191.797L459.651 195.352" stroke="black" stroke-width="0.94" stroke-miterlimit="10"/>
<path d="M452.846 176.518L467.665 187.476" stroke="black" stroke-width="0.94" stroke-miterlimit="10"/>
<path d="M452.847 192.801C452.847 192.801 433.608 205.557 420.476 200.44" stroke="black" stroke-width="0.94" stroke-miterlimit="10"/>
<path d="M452.372 194.822C453.558 194.822 454.519 193.861 454.519 192.675C454.519 191.489 453.558 190.528 452.372 190.528C451.186 190.528 450.225 191.489 450.225 192.675C450.225 193.861 451.186 194.822 452.372 194.822Z" stroke="black" stroke-width="0.94" stroke-miterlimit="10"/>
<path d="M476.951 197.555C476.948 197.994 477.076 198.424 477.317 198.79C477.559 199.156 477.905 199.443 478.309 199.613C478.714 199.782 479.16 199.828 479.591 199.744C480.022 199.66 480.418 199.45 480.73 199.141C481.041 198.832 481.254 198.437 481.34 198.006C481.427 197.576 481.384 197.129 481.216 196.724C481.049 196.318 480.765 195.971 480.4 195.727C480.035 195.482 479.606 195.352 479.167 195.352C478.582 195.352 478.02 195.584 477.605 195.996C477.189 196.409 476.954 196.969 476.951 197.555Z" stroke="black" stroke-width="0.94" stroke-miterlimit="10"/>
<path d="M479.166 197.555C479.166 197.555 487.015 220.209 500.719 226.831" stroke="black" stroke-width="0.94" stroke-miterlimit="10"/>
</g>
<path d="M626.114 159.779H830.431C838.376 159.779 844.817 166.22 844.817 174.165V305.659C844.817 313.604 838.376 320.045 830.431 320.045H626.114C618.169 320.045 611.728 313.604 611.728 305.659V174.165C611.728 166.22 618.169 159.779 626.114 159.779Z" fill="white" stroke="black"/>
<mask id="mask2" mask-type="alpha" maskUnits="userSpaceOnUse" x="626" y="169" width="204" height="124">
<path d="M814.918 169.675H640.976C632.733 169.675 626.051 176.316 626.051 184.508V277.436C626.051 285.628 632.733 292.269 640.976 292.269H814.918C823.161 292.269 829.843 285.628 829.843 277.436V184.508C829.843 176.316 823.161 169.675 814.918 169.675Z" fill="#D9D9D9"/>
</mask>
<g mask="url(#mask2)">
<rect x="581.896" y="150.035" width="293.604" height="160.864" fill="white"/>
</g>
<path d="M733.98 305.627C733.979 306.732 733.638 307.81 733.002 308.714C732.367 309.618 731.469 310.305 730.43 310.681C729.391 311.057 728.262 311.104 727.195 310.816C726.128 310.528 725.176 309.918 724.468 309.07C723.76 308.221 723.33 307.176 723.237 306.075C723.143 304.973 723.391 303.87 723.947 302.915C724.503 301.96 725.339 301.199 726.342 300.736C727.345 300.272 728.467 300.129 729.554 300.325C730.795 300.552 731.918 301.207 732.726 302.175C733.535 303.144 733.978 304.365 733.98 305.627C734.011 305.869 734.129 306.092 734.312 306.253C734.495 306.415 734.731 306.504 734.975 306.504C735.219 306.504 735.455 306.415 735.638 306.253C735.822 306.092 735.94 305.869 735.97 305.627C735.969 304.109 735.499 302.629 734.625 301.388C733.751 300.147 732.515 299.207 731.086 298.695C729.657 298.182 728.105 298.124 726.642 298.527C725.179 298.929 723.876 299.774 722.91 300.945C721.945 302.117 721.365 303.557 721.249 305.071C721.133 306.584 721.487 308.096 722.262 309.401C723.038 310.705 724.197 311.739 725.582 312.36C726.967 312.981 728.51 313.159 730 312.871C731.674 312.529 733.179 311.623 734.266 310.304C735.352 308.986 735.954 307.335 735.97 305.627C735.94 305.385 735.822 305.162 735.638 305C735.455 304.839 735.219 304.75 734.975 304.75C734.731 304.75 734.495 304.839 734.312 305C734.129 305.162 734.011 305.385 733.98 305.627Z" fill="black"/>
<mask id="mask3" mask-type="alpha" maskUnits="userSpaceOnUse" x="626" y="168" width="205" height="125">
<path d="M814.94 168.657H641.605C633.384 168.657 626.719 175.322 626.719 183.543V276.698C626.719 284.92 633.384 291.584 641.605 291.584H814.94C823.161 291.584 829.826 284.92 829.826 276.698V183.543C829.826 175.322 823.161 168.657 814.94 168.657Z" fill="white" stroke="black" stroke-miterlimit="10"/>
</mask>
<g mask="url(#mask3)">
<path d="M728.329 251.264C728.329 251.264 758.85 265.896 770.298 244.482C781.745 223.068 763.499 196.718 748.677 192.977C733.854 189.235 722.216 231.124 728.329 251.264Z" fill="black"/>
<path d="M715.21 252.968C715.21 252.968 701.9 262.919 681.553 255.293C661.205 247.667 673.704 210.363 681.553 198.916C689.402 187.469 707.027 180.479 714.828 184.077C722.629 187.676 729.125 229.58 715.21 252.968Z" fill="black"/>
<path d="M686.778 189.249C691.574 182.757 690.2 173.605 683.708 168.808C677.216 164.011 668.065 165.385 663.268 171.878C658.471 178.37 659.845 187.521 666.337 192.318C672.829 197.115 681.981 195.741 686.778 189.249Z" fill="black"/>
<path d="M760.664 222.161C760.664 222.161 755.76 211.016 751.621 211.653C747.481 212.289 748.644 219.613 749.217 223.577C749.79 227.542 751.716 232.541 747.354 237.174C742.992 241.807 764.485 234.882 760.664 222.161Z" fill="white" stroke="black" stroke-miterlimit="10"/>
<path d="M738.279 190.891H725.781C717.47 190.891 710.672 198.629 710.672 208.086V227.462C710.672 228.004 710.672 228.545 710.672 229.054C710.538 229.634 710.469 230.227 710.465 230.822V255.07C710.469 257.133 711.291 259.111 712.75 260.57C714.209 262.029 716.187 262.851 718.25 262.855H723.202C725.265 262.851 727.243 262.029 728.702 260.57C730.162 259.111 730.983 257.133 730.987 255.07V244.625H738.216C746.526 244.625 753.325 236.888 753.325 227.431V208.086C753.389 198.629 746.59 190.891 738.279 190.891Z" fill="white" stroke="black" stroke-miterlimit="10"/>
<path d="M718.585 224.788C718.585 226.173 718.996 227.528 719.766 228.68C720.535 229.832 721.629 230.729 722.909 231.26C724.19 231.79 725.598 231.929 726.957 231.658C728.316 231.388 729.564 230.721 730.544 229.741C731.524 228.761 732.191 227.513 732.461 226.154C732.731 224.795 732.593 223.387 732.062 222.107C731.532 220.827 730.634 219.733 729.482 218.963C728.33 218.193 726.976 217.782 725.59 217.782C723.732 217.782 721.951 218.52 720.637 219.834C719.323 221.148 718.585 222.93 718.585 224.788Z" fill="#E4B0C8"/>
<path d="M751.509 220.027C751.923 220.032 752.334 220.085 752.735 220.186V227.383C752.766 228.45 752.681 229.518 752.481 230.567C752.16 230.623 751.835 230.655 751.509 230.662C750.095 230.662 748.738 230.1 747.738 229.1C746.738 228.1 746.176 226.743 746.176 225.329C746.176 223.914 746.738 222.558 747.738 221.557C748.738 220.557 750.095 219.995 751.509 219.995V220.027Z" fill="#E4B0C8"/>
<path d="M728.331 214.423C728.331 214.981 728.496 215.525 728.806 215.989C729.115 216.452 729.555 216.814 730.07 217.027C730.585 217.24 731.152 217.296 731.699 217.187C732.245 217.078 732.747 216.81 733.141 216.416C733.536 216.022 733.804 215.52 733.913 214.973C734.021 214.426 733.966 213.86 733.752 213.345C733.539 212.83 733.178 212.39 732.714 212.08C732.251 211.771 731.706 211.605 731.149 211.605C730.401 211.605 729.685 211.902 729.156 212.431C728.628 212.959 728.331 213.676 728.331 214.423Z" fill="#0C0C0C"/>
<path d="M746.814 214.009C746.814 214.485 746.955 214.95 747.22 215.345C747.484 215.74 747.859 216.048 748.299 216.23C748.738 216.412 749.221 216.46 749.688 216.367C750.154 216.274 750.582 216.046 750.919 215.709C751.255 215.373 751.484 214.945 751.577 214.478C751.669 214.012 751.622 213.529 751.44 213.089C751.258 212.65 750.95 212.275 750.554 212.01C750.159 211.746 749.694 211.605 749.219 211.605C748.582 211.609 747.973 211.864 747.523 212.314C747.073 212.764 746.819 213.373 746.814 214.009Z" fill="#0C0C0C"/>
<path d="M744.552 226.953C744.552 226.953 743.135 231.077 740.142 231.363C737.148 231.65 734.792 228.338 734.633 225.743L744.552 226.953Z" fill="#FFF7F7"/>
<path d="M743.693 226.714C743.658 226.823 743.615 226.929 743.566 227.032C743.677 226.762 743.566 227.128 743.486 227.223L743.247 227.701C742.882 228.437 742.386 229.101 741.783 229.659C741.467 229.969 741.085 230.202 740.666 230.343C740.247 230.483 739.801 230.527 739.363 230.471C738.367 230.254 737.481 229.69 736.863 228.879C736.108 227.976 735.642 226.866 735.526 225.695L734.634 226.587L743.311 227.653L744.553 227.797C745.031 227.797 745.429 227.351 745.429 226.905C745.425 226.673 745.332 226.45 745.169 226.285C745.006 226.119 744.785 226.022 744.553 226.013L735.876 224.963L734.634 224.803C734.399 224.808 734.174 224.903 734.008 225.069C733.842 225.235 733.747 225.46 733.742 225.695C733.825 227.091 734.308 228.433 735.132 229.562C735.956 230.691 737.088 231.559 738.391 232.064C740.971 232.876 743.168 231.22 744.489 229.102C744.862 228.501 745.166 227.86 745.397 227.192C745.843 226.109 744.059 225.647 743.693 226.714Z" fill="#0C0C0C"/>
<path d="M740.972 211.605L740.382 221.19L744.968 218.404L740.972 211.605Z" fill="#DB7294"/>
<path d="M707.043 188.328C707.536 181.116 711.66 174.445 716.946 174.349C728.6 174.142 728.377 182.819 728.377 182.819C748.279 158.237 773.96 172.868 765.681 190.907C757.401 208.946 725.479 206.144 725.479 206.144C723.975 205.947 722.459 205.862 720.942 205.889C717.153 206.653 714.573 211.318 713.363 217.257C710.529 231.984 699.464 199.775 707.043 188.328Z" fill="black"/>
<path d="M704.876 210.347C706.676 210.348 708.451 210.779 710.05 211.605V214.646C708.776 213.686 707.26 213.1 705.671 212.954C704.083 212.809 702.485 213.108 701.057 213.82C699.629 214.532 698.429 215.628 697.589 216.985C696.75 218.341 696.305 219.905 696.305 221.5C696.305 223.095 696.75 224.659 697.589 226.016C698.429 227.372 699.629 228.468 701.057 229.18C702.485 229.892 704.083 230.191 705.671 230.046C707.26 229.9 708.776 229.314 710.05 228.354V231.411C708.553 232.172 706.904 232.584 705.225 232.618C703.547 232.652 701.882 232.306 700.356 231.606C698.83 230.906 697.481 229.87 696.411 228.576C695.342 227.282 694.578 225.763 694.178 224.132C693.778 222.502 693.751 220.802 694.1 219.159C694.449 217.517 695.164 215.974 696.193 214.647C697.222 213.32 698.537 212.243 700.04 211.496C701.544 210.748 703.197 210.35 704.876 210.331V210.347Z" fill="black"/>
<path d="M694.895 221.508C694.876 223.48 695.443 225.413 696.525 227.062C697.607 228.711 699.155 230.001 700.971 230.769C702.788 231.537 704.791 231.747 706.728 231.374C708.664 231.001 710.446 230.061 711.847 228.673C713.249 227.286 714.206 225.513 714.598 223.58C714.989 221.647 714.798 219.641 714.048 217.818C713.298 215.994 712.022 214.434 710.384 213.336C708.745 212.239 706.818 211.653 704.846 211.652C703.545 211.646 702.256 211.896 701.052 212.388C699.848 212.88 698.753 213.604 697.829 214.519C696.905 215.434 696.17 216.523 695.667 217.722C695.164 218.921 694.901 220.207 694.895 221.508Z" fill="white"/>
<path d="M711.356 222.813C711.385 221.942 711.278 221.072 711.038 220.234C710.82 219.395 710.423 218.612 709.873 217.942C709.323 217.271 708.634 216.728 707.854 216.349C706.561 215.793 705.143 215.59 703.746 215.76C703.458 215.772 703.186 215.892 702.982 216.095C702.779 216.299 702.659 216.571 702.647 216.859C702.647 217.4 703.141 218.021 703.746 217.957C704.339 217.894 704.936 217.894 705.529 217.957C705.529 217.957 705.704 217.957 705.72 217.957C705.736 217.957 705.465 217.957 705.72 217.957H706.07L706.739 218.164C707.026 218.26 706.548 218.069 706.739 218.164L706.994 218.292L707.233 218.435C707.233 218.435 707.472 218.642 707.503 218.626C707.535 218.61 707.296 218.451 707.503 218.626L707.599 218.706L707.79 218.881C707.905 219.03 708.033 219.168 708.172 219.295C707.981 219.167 708.045 219.12 708.172 219.295L708.315 219.502C708.41 219.65 708.495 219.805 708.57 219.964C708.601 220.046 708.638 220.126 708.682 220.202C708.682 220.314 708.57 219.916 708.682 220.091C708.675 220.122 708.675 220.155 708.682 220.186C708.749 220.347 708.808 220.512 708.857 220.68C708.935 220.952 708.999 221.229 709.048 221.508C709.048 221.508 709.048 221.635 709.048 221.699C709.048 221.763 709.048 221.381 709.048 221.619C709.056 221.736 709.056 221.853 709.048 221.97C709.064 222.229 709.064 222.49 709.048 222.75C709.052 223.04 709.169 223.317 709.374 223.522C709.579 223.727 709.856 223.844 710.146 223.848C710.435 223.84 710.71 223.722 710.914 223.518C711.119 223.313 711.237 223.039 711.245 222.75L711.356 222.813Z" fill="#020202"/>
<path d="M638.789 354.896C646.448 294.905 698.685 250.898 733.935 263.667C761.988 273.825 774.279 330.059 778.403 354.896H638.789Z" fill="#E4B0C8" stroke="#020106" stroke-miterlimit="10"/>
<path d="M710.371 268.237H729.811C733.988 268.237 737.374 264.851 737.374 260.674V258.668C737.374 254.491 733.988 251.105 729.811 251.105H710.371C706.195 251.105 702.809 254.491 702.809 258.668V260.674C702.809 264.851 706.195 268.237 710.371 268.237Z" fill="#DB7294" stroke="#020106" stroke-miterlimit="10"/>
<path d="M733.934 251.965V267.377" stroke="#020106" stroke-miterlimit="10"/>
<path d="M730.05 251.105V268.237" stroke="#020106" stroke-miterlimit="10"/>
<path d="M725.958 251.105V268.237" stroke="#020106" stroke-miterlimit="10"/>
<path d="M721.866 251.105V268.237" stroke="#020106" stroke-miterlimit="10"/>
<path d="M717.775 251.105V268.237" stroke="#020106" stroke-miterlimit="10"/>
<path d="M713.683 251.105V268.237" stroke="#020106" stroke-miterlimit="10"/>
<path d="M709.59 251.105V268.237" stroke="#020106" stroke-miterlimit="10"/>
<path d="M705.516 252.459V266.883" stroke="#020106" stroke-miterlimit="10"/>
<path d="M664.104 215.362C665.935 214.152 667.798 221.731 668.721 226.809C668.387 222.638 668.037 215.887 669.597 215.41C671.157 214.932 672.956 222.208 673.768 226.714C673.418 222.542 673.02 215.569 674.501 215.41C676.411 215.251 677.812 221.699 678.624 226.714C678.163 222.336 677.908 217.002 679.404 216.699C682 216.19 682.764 219.279 684.053 226.507C685.343 233.735 687.413 238.655 697.22 242.778C705.818 246.393 715.975 251.583 725.48 283.107L697.746 284.412C697.746 283.616 697.746 282.82 697.618 282.024C695.692 252.586 679.15 253.621 671.301 247.682C663.451 241.743 660.57 217.734 664.104 215.362Z" fill="white" stroke="#020106" stroke-miterlimit="10"/>
<path d="M678.243 354.896C690.661 338.847 698.94 309.743 697.714 283.68L725.147 281.977C726.611 286.753 728.076 292.166 729.525 298.296C735.639 324.423 731.658 343.48 727.201 354.896H678.243Z" fill="#E4B0C8" stroke="#020106" stroke-miterlimit="10"/>
<path d="M727.439 290.033H697.842C697.842 287.342 697.842 284.667 697.619 282.072C697.492 280.114 697.301 278.299 697.046 276.595L722.918 275.338C724.446 279.573 725.943 284.445 727.439 290.033Z" fill="#DB7294" stroke="#020106" stroke-miterlimit="10"/>
<path d="M718.779 275.497L722.17 290.033" stroke="#020106" stroke-miterlimit="10"/>
<path d="M713.364 275.751L715.211 290.033" stroke="#020106" stroke-miterlimit="10"/>
<path d="M707.84 275.751L708.716 290.033" stroke="#020106" stroke-miterlimit="10"/>
<path d="M702.808 276.261L703.286 289.65" stroke="#020106" stroke-miterlimit="10"/>
<path d="M757.116 226.889C758.247 220.33 751.878 213.277 753.932 211.605C755.986 209.933 767.799 220.616 764.472 231.379C761.144 242.142 749.044 244.116 753.327 260.165C755.64 267.729 758.613 275.076 762.211 282.12L734.62 282.836C732.821 263.492 734.731 249.306 736.944 244.625C739.587 239.18 755.986 233.449 757.116 226.889Z" fill="white" stroke="black" stroke-miterlimit="10"/>
<path d="M753.534 354.896C748.248 339.867 738.695 311.304 736.02 293.647C735.383 289.487 734.906 285.512 734.587 281.722L760.921 279.302C768.663 295.33 777.355 310.881 786.952 325.872C792.488 334.579 795.639 344.588 796.091 354.896H753.534Z" fill="#E4B0C8" stroke="#020106" stroke-miterlimit="10"/>
<path d="M735.415 289.587C734.746 284.588 734.348 279.875 734.126 275.497H759.138C761.048 279.732 763.245 284.269 765.618 288.87L735.415 289.587Z" fill="#DB7294" stroke="black" stroke-miterlimit="10"/>
<path d="M755.588 275.751L759.298 289.587" stroke="black" stroke-miterlimit="10"/>
<path d="M750.286 275.751L752.085 289.189" stroke="black" stroke-miterlimit="10"/>
<path d="M745.477 275.497L746.162 289.332" stroke="black" stroke-miterlimit="10"/>
<path d="M739.697 275.497L740.748 289.459" stroke="black" stroke-miterlimit="10"/>
</g>
<path d="M814.94 168.657H641.605C633.384 168.657 626.719 175.322 626.719 183.543V276.698C626.719 284.92 633.384 291.584 641.605 291.584H814.94C823.161 291.584 829.826 284.92 829.826 276.698V183.543C829.826 175.322 823.161 168.657 814.94 168.657Z" stroke="black" stroke-miterlimit="10"/>
<path d="M895.85 126.975H828.041C823.882 126.975 819.893 128.627 816.952 131.568C814.011 134.509 812.359 138.498 812.359 142.657V210.274L828.28 195.643H895.85C900.009 195.643 903.998 193.991 906.939 191.05C909.88 188.109 911.532 184.12 911.532 179.96V142.657C911.532 138.498 909.88 134.509 906.939 131.568C903.998 128.627 900.009 126.975 895.85 126.975Z" fill="white" stroke="black" stroke-miterlimit="10"/>
<path d="M846.496 162.59C846.496 163.942 846.095 165.263 845.344 166.387C844.593 167.51 843.525 168.386 842.276 168.902C841.027 169.419 839.653 169.553 838.328 169.288C837.002 169.023 835.785 168.371 834.831 167.415C833.876 166.458 833.227 165.239 832.965 163.913C832.703 162.587 832.841 161.213 833.36 159.966C833.88 158.718 834.757 157.652 835.883 156.904C837.008 156.155 838.33 155.757 839.682 155.76C840.578 155.76 841.465 155.937 842.293 156.281C843.121 156.624 843.873 157.127 844.506 157.762C845.139 158.396 845.64 159.149 845.982 159.978C846.323 160.806 846.498 161.694 846.496 162.59Z" fill="white" stroke="black" stroke-miterlimit="10"/>
<path d="M863.34 169.405C867.104 169.405 870.155 166.354 870.155 162.59C870.155 158.827 867.104 155.776 863.34 155.776C859.577 155.776 856.526 158.827 856.526 162.59C856.526 166.354 859.577 169.405 863.34 169.405Z" fill="white" stroke="black" stroke-miterlimit="10"/>
<path d="M893.878 162.59C893.878 163.942 893.477 165.263 892.726 166.387C891.975 167.51 890.907 168.386 889.658 168.902C888.409 169.419 887.035 169.553 885.71 169.288C884.384 169.023 883.167 168.371 882.213 167.415C881.258 166.458 880.609 165.239 880.347 163.913C880.085 162.587 880.223 161.213 880.742 159.966C881.262 158.718 882.14 157.652 883.265 156.904C884.39 156.155 885.712 155.757 887.064 155.76C887.96 155.76 888.847 155.937 889.675 156.281C890.503 156.624 891.255 157.127 891.888 157.762C892.521 158.396 893.023 159.149 893.364 159.978C893.706 160.806 893.88 161.694 893.878 162.59Z" fill="white" stroke="black" stroke-miterlimit="10"/>
<path d="M83.3747 71.7599C82.7602 68.1318 81.3895 64.6736 79.3515 61.6097C77.3135 58.5459 74.6539 55.945 71.5453 53.9759C66.9806 51.0366 61.6662 49.4736 56.237 49.4736C50.8078 49.4736 45.4935 51.0366 40.9288 53.9759C37.8198 55.9428 35.1607 58.5434 33.125 61.6078C31.0894 64.6722 29.7231 68.1316 29.1152 71.7599C26.2653 87.6811 40.2601 96.1831 42.8711 99.3832C43.9296 100.28 44.8192 101.358 45.4982 102.567C45.8369 103.76 46.0713 104.98 46.1987 106.213H66.3549C66.4823 104.98 66.7167 103.76 67.0555 102.567C67.7399 101.362 68.6288 100.284 69.6825 99.3832C72.2299 96.1512 86.2087 87.6811 83.3747 71.7599Z" fill="#EEDA36" stroke="black" stroke-miterlimit="10"/>
<path d="M52.0265 107.901C52.0265 107.901 52.0265 92.8396 50.928 90.6902C49.8294 88.5409 44.7505 81.0101 43.8908 79.4339C43.031 77.8577 44.7983 75.9949 46.1516 78.3513C47.2979 80.3573 52.2335 87.2194 53.3321 90.0215C54.4306 92.8237 55.37 108.649 55.37 108.649L52.0265 107.901Z" fill="white"/>
<path d="M60.3692 107.901C60.3692 107.901 60.3692 92.8396 61.4837 90.6902C62.5982 88.5409 67.6452 81.0101 68.505 79.4339C69.3647 77.8577 67.6134 75.9949 66.2601 78.3513C65.0978 80.3573 60.1622 87.2194 59.0637 90.0215C57.9651 92.8237 57.0258 108.649 57.0258 108.649L60.3692 107.901Z" fill="white"/>
<path d="M67.6616 78.9085C65.0738 79.8768 62.2424 79.9829 59.5895 79.211C58.4732 79.8831 57.1729 80.185 55.8746 80.0734C54.5764 79.9619 53.3466 79.4427 52.3613 78.5901C50.114 79.3306 47.7692 79.733 45.4037 79.7842V78.3513C47.347 78.3082 49.2775 78.0247 51.1512 77.5075C49.6706 75.9153 49.3521 74.1322 50.3393 72.9381C50.5443 72.636 50.8084 72.3786 51.1155 72.1812C51.4226 71.9839 51.7665 71.8507 52.1265 71.7897C52.4864 71.7288 52.855 71.7412 53.21 71.8264C53.565 71.9116 53.8991 72.0677 54.1922 72.2853C54.8667 72.8171 55.3118 73.587 55.4362 74.4369C55.5606 75.2867 55.3547 76.1519 54.8609 76.8547C54.578 77.2377 54.2337 77.5713 53.8419 77.8418C54.4595 78.2554 55.161 78.5269 55.896 78.6371C56.631 78.7472 57.3813 78.6931 58.0929 78.4787C57.6711 78.2507 57.2979 77.9424 56.9943 77.5711C56.6345 77.1134 56.4469 76.5437 56.4643 75.9617C56.4818 75.3797 56.7032 74.8223 57.0899 74.3869C57.3594 73.9317 57.7563 73.5655 58.2317 73.3335C58.7071 73.1014 59.24 73.0138 59.7646 73.0814C60.2415 73.2073 60.6708 73.4707 60.9991 73.8387C61.3275 74.2067 61.5404 74.6631 61.6115 75.1511C61.6878 75.6643 61.658 76.1877 61.5238 76.6889C61.3896 77.1901 61.1539 77.6583 60.8313 78.0647C62.9461 78.5607 65.1596 78.4278 67.1998 77.6826L67.6616 78.9085ZM58.6342 74.6735C58.4413 74.8246 58.2699 75.0014 58.1247 75.1989C57.5675 75.9631 57.7745 76.4089 58.0133 76.791C58.3732 77.1967 58.8269 77.5082 59.3348 77.6985C59.6365 77.4272 59.8691 77.0877 60.0131 76.7083C60.1571 76.3289 60.2084 75.9205 60.1627 75.5173C60.1388 75.2955 60.0508 75.0855 59.9094 74.913C59.768 74.7405 59.5794 74.613 59.3666 74.5461C59.2424 74.5144 59.113 74.5094 58.9868 74.5314C58.8605 74.5533 58.7404 74.6018 58.6342 74.6735ZM52.5523 76.9821C52.9678 76.7859 53.3286 76.4907 53.6031 76.1223C53.8958 75.7242 54.0228 75.228 53.9575 74.7382C53.8922 74.2484 53.6396 73.8029 53.2528 73.4953C52.6478 73.0495 51.9632 73.1928 51.3582 73.9093C50.7532 74.6257 51.4378 75.8198 52.1861 76.6318L52.5523 76.9821Z" fill="white"/>
<path d="M56.1994 104.573C52.481 104.621 48.7851 103.99 45.2934 102.711L45.4844 103.029C46.2168 104.621 47.0766 117.024 49.0826 121.848C49.2999 122.52 49.6962 123.12 50.229 123.583C52.0471 124.603 54.1181 125.083 56.1994 124.969C58.286 125.086 60.3627 124.605 62.1858 123.583C62.7184 123.123 63.1102 122.521 63.3162 121.848C65.2905 117.072 66.198 104.542 66.9303 103.029C66.9303 102.918 67.0577 102.822 67.1055 102.711C63.6148 103.994 59.9182 104.625 56.1994 104.573Z" fill="white" stroke="black" stroke-miterlimit="10"/>
<path d="M56.1986 110.226C59.4916 110.211 62.7662 109.734 65.9265 108.809C66.1335 107.328 66.3086 105.991 66.4837 104.972C59.8603 107.472 52.5528 107.472 45.9294 104.972C46.0887 105.991 46.2797 107.328 46.4867 108.809C49.6418 109.733 52.911 110.21 56.1986 110.226Z" fill="black"/>
<path d="M56.1989 116.594C59.1367 116.569 62.0608 116.189 64.9078 115.464C65.1307 114.222 65.3377 112.932 65.5128 111.674C59.4788 113.728 52.9349 113.728 46.9009 111.674C47.076 112.932 47.283 114.222 47.5059 115.464C50.3472 116.19 53.2662 116.57 56.1989 116.594Z" fill="black"/>
<path d="M48.095 118.457C48.3306 119.612 48.6608 120.747 49.0821 121.848L49.2731 122.246C51.5554 122.693 53.8734 122.933 56.1989 122.962C58.5296 122.934 60.853 122.694 63.1405 122.246C63.2084 122.118 63.267 121.985 63.3157 121.848C63.7356 120.745 64.071 119.611 64.3187 118.457C59.0211 120.002 53.3926 120.002 48.095 118.457Z" fill="black"/>
<path d="M56.7401 22.054H56.6923C55.092 22.054 53.7947 23.3513 53.7947 24.9516V38.5324C53.7947 40.1328 55.092 41.4301 56.6923 41.4301H56.7401C58.3404 41.4301 59.6378 40.1328 59.6378 38.5324V24.9516C59.6378 23.3513 58.3404 22.054 56.7401 22.054Z" fill="white" stroke="black" stroke-miterlimit="10"/>
<path d="M82.7556 29.2535L76.3401 41.2234C75.5841 42.6339 76.1147 44.3902 77.5252 45.1462L77.5673 45.1687C78.9778 45.9247 80.7341 45.3942 81.4901 43.9836L87.9056 32.0137C88.6616 30.6032 88.131 28.8469 86.7205 28.0909L86.6784 28.0683C85.2679 27.3123 83.5116 27.8429 82.7556 29.2535Z" fill="white" stroke="black" stroke-miterlimit="10"/>
<path d="M35.8679 45.1718C36.5424 44.8075 37.0451 44.1909 37.2659 43.4568C37.4867 42.7227 37.4077 41.931 37.046 41.2551L30.6775 29.2824C30.4988 28.9469 30.2553 28.6501 29.9613 28.409C29.6673 28.168 29.3285 27.9875 28.9645 27.878C28.6004 27.7685 28.2183 27.7321 27.8401 27.7709C27.4619 27.8097 27.0951 27.923 26.7609 28.1042C26.0826 28.4688 25.5761 29.0872 25.3524 29.8241C25.1286 30.561 25.2057 31.3565 25.5668 32.0368L31.9353 43.9936C32.1157 44.3296 32.3606 44.6268 32.656 44.868C32.9515 45.1092 33.2916 45.2897 33.657 45.3992C34.0223 45.5087 34.4057 45.5449 34.7851 45.5059C35.1645 45.4668 35.5324 45.3533 35.8679 45.1718Z" fill="white" stroke="black" stroke-miterlimit="10"/>
<path d="M20.4399 61.1088C20.3623 61.4803 20.2121 61.8329 19.9978 62.1462C19.7836 62.4595 19.5096 62.7274 19.1915 62.9345C18.8734 63.1416 18.5176 63.2839 18.1444 63.3531C17.7712 63.4223 17.388 63.4171 17.0168 63.3377L3.70668 60.6152C2.95759 60.4544 2.30198 60.005 1.88181 59.3643C1.46165 58.7237 1.31075 57.9433 1.46179 57.1922C1.62245 56.4397 2.07423 55.7814 2.71851 55.3608C3.3628 54.9402 4.14729 54.7916 4.90077 54.9473L18.1791 57.7494C18.9179 57.907 19.5666 58.3454 19.9884 58.9721C20.4102 59.5989 20.5721 60.365 20.4399 61.1088Z" fill="white" stroke="black" stroke-miterlimit="10"/>
<path d="M19.7072 82.9047C19.6012 82.5387 19.4238 82.1974 19.1851 81.9005C18.9464 81.6036 18.6513 81.3569 18.3166 81.1748C17.982 80.9927 17.6146 80.8787 17.2357 80.8395C16.8567 80.8003 16.4738 80.8366 16.109 80.9464L3.08542 84.7515C2.37158 84.96 1.76522 85.4349 1.3918 86.078C1.01839 86.7211 0.906521 87.4832 1.07934 88.2064C1.29718 88.9395 1.796 89.5568 2.46704 89.9236C3.13808 90.2904 3.92693 90.3771 4.66162 90.1647L17.7011 86.3437C18.4115 86.1352 19.0152 85.6628 19.3883 85.0232C19.7613 84.3837 19.8754 83.6257 19.7072 82.9047Z" fill="white" stroke="black" stroke-miterlimit="10"/>
<path d="M93.0079 61.1087C93.0874 61.4809 93.2393 61.8338 93.4551 62.1473C93.671 62.4607 93.9464 62.7285 94.2658 62.9355C94.5851 63.1425 94.9421 63.2846 95.3163 63.3536C95.6906 63.4226 96.0748 63.4172 96.4469 63.3377L109.725 60.6152C110.098 60.5394 110.452 60.3905 110.768 60.177C111.083 59.9635 111.352 59.6898 111.561 59.3715C111.77 59.0532 111.913 58.6968 111.984 58.3227C112.054 57.9487 112.049 57.5644 111.97 57.1921C111.813 56.4409 111.365 55.7827 110.723 55.3618C110.081 54.9409 109.299 54.7919 108.547 54.9472L95.2528 57.7494C94.5129 57.9031 93.8629 58.3414 93.443 58.9697C93.0231 59.5981 92.8669 60.3663 93.0079 61.1087Z" fill="white" stroke="black" stroke-miterlimit="10"/>
<path d="M93.7244 82.9047C93.8303 82.5387 94.0077 82.1974 94.2464 81.9005C94.4851 81.6036 94.7803 81.3569 95.1149 81.1748C95.4495 80.9927 95.8169 80.8787 96.1959 80.8395C96.5748 80.8003 96.9578 80.8366 97.3226 80.9464L110.346 84.7515C111.083 84.9695 111.705 85.47 112.074 86.144C112.444 86.818 112.533 87.6108 112.32 88.3497C112.099 89.084 111.597 89.7014 110.924 90.068C110.25 90.4346 109.459 90.5209 108.722 90.308L95.6986 86.4869C95.333 86.3826 94.9917 86.2069 94.6943 85.97C94.3969 85.7332 94.1493 85.4398 93.9657 85.1068C93.7822 84.7738 93.6664 84.4078 93.625 84.0299C93.5836 83.6519 93.6174 83.2695 93.7244 82.9047Z" fill="white" stroke="black" stroke-miterlimit="10"/>
</svg>
