<svg width="187" height="28" viewBox="0 0 187 28" fill="none" xmlns="http://www.w3.org/2000/svg">
<path d="M44.3514 21.3831C44.9114 21.3831 45.4248 21.3131 45.8914 21.1731C46.3581 21.0331 46.7548 20.8231 47.0814 20.5664C47.4081 20.3097 47.6414 20.0997 47.7814 19.9597C47.9214 19.8197 48.0848 19.6331 48.2714 19.3997H48.4348V21.0797H50.6981V2.80194H48.3881V10.6497H48.2014C47.2214 9.27305 45.9148 8.59639 44.2581 8.59639C42.6014 8.59639 41.2248 9.20305 40.1514 10.4164C39.0781 11.6297 38.5414 13.1464 38.5414 14.9897C38.5414 16.8331 39.1014 18.3731 40.2214 19.5864C41.3414 20.7997 42.7414 21.4064 44.4214 21.4064L44.3514 21.3831ZM44.7014 19.2831C43.6048 19.2831 42.6948 18.8864 41.9714 18.0931C41.2481 17.2997 40.8748 16.2731 40.8748 15.0131C40.8748 13.7764 41.2248 12.7497 41.9481 11.9564C42.6714 11.1631 43.5814 10.7664 44.6781 10.7664C45.7514 10.7664 46.6614 11.1631 47.3848 11.9331C48.1081 12.7031 48.4814 13.7531 48.4814 15.0597C48.4814 16.2497 48.1314 17.2531 47.4314 18.0697C46.7314 18.8864 45.8214 19.3064 44.7014 19.3064V19.2831Z" fill="white"/>
<path d="M57.621 21.3831C58.951 21.3831 60.1177 21.0564 61.0977 20.3797C62.0777 19.7031 62.7543 18.7697 63.1277 17.5797L60.9577 17.0431C60.7477 17.7664 60.3277 18.3497 59.6977 18.7697C59.0677 19.1897 58.3677 19.3997 57.5743 19.3997C56.431 19.3997 55.521 19.0731 54.8443 18.3964C54.1677 17.7197 53.8177 16.7864 53.7943 15.5964H63.291V14.8731C63.291 13.0064 62.7543 11.4897 61.7043 10.3231C60.6543 9.15639 59.2077 8.57305 57.3877 8.57305C55.7077 8.57305 54.2843 9.17972 53.1177 10.3697C51.951 11.5597 51.3677 13.0997 51.3677 14.9897C51.3677 16.8797 51.9277 18.4197 53.0477 19.6097C54.1677 20.7997 55.6377 21.3831 57.481 21.3831H57.621ZM53.771 13.8464C53.841 12.9131 54.2143 12.1431 54.9143 11.5364C55.6143 10.9297 56.431 10.6264 57.3643 10.6264C58.321 10.6264 59.1377 10.9064 59.791 11.4664C60.4443 12.0264 60.7943 12.8197 60.8643 13.8231L53.771 13.8464Z" fill="white"/>
<path d="M68.5558 21.3831C70.0258 21.3831 71.1924 21.0331 72.0791 20.3097C72.9658 19.5864 73.4091 18.6297 73.4091 17.4397C73.4091 16.5297 73.1758 15.8064 72.6858 15.2697C72.1958 14.7331 71.6124 14.3831 70.9124 14.1964C70.2124 14.0097 69.5124 13.8697 68.8124 13.7531C68.1124 13.6364 67.5291 13.4731 67.0391 13.2397C66.5491 13.0064 66.3158 12.6564 66.3158 12.1664C66.3158 11.7231 66.5024 11.3497 66.8991 11.0697C67.2958 10.7897 67.8091 10.6497 68.4624 10.6497C69.1624 10.6497 69.7458 10.8131 70.1891 11.1397C70.6324 11.4664 70.9124 11.9331 71.0291 12.5397L73.0591 11.9564C72.8724 10.9064 72.3591 10.0897 71.5191 9.48305C70.6791 8.87639 69.6758 8.57305 68.5324 8.57305C67.2024 8.57305 66.1291 8.89972 65.3124 9.55305C64.4958 10.2064 64.0758 11.0697 64.0758 12.1197C64.0758 13.0297 64.3091 13.7531 64.7758 14.2897C65.2424 14.8264 65.8258 15.1764 66.5024 15.3631C67.1791 15.5497 67.8558 15.7131 68.5324 15.8297C69.2091 15.9464 69.7924 16.1564 70.2591 16.4364C70.7258 16.7164 70.9591 17.1131 70.9591 17.6497C70.9591 18.1864 70.7491 18.6064 70.3291 18.9097C69.9091 19.2131 69.3258 19.3764 68.5558 19.3764C66.8991 19.3764 65.9658 18.6531 65.7558 17.2064L63.6091 17.6964C63.7724 18.8631 64.2858 19.7731 65.1491 20.4264C66.0124 21.0797 67.1091 21.4064 68.4624 21.4064L68.5558 21.3831Z" fill="white"/>
<path d="M77.3887 7.6475C77.832 7.6475 78.2054 7.5075 78.5087 7.20416C78.812 6.90083 78.952 6.5275 78.952 6.08416C78.952 5.66416 78.812 5.31416 78.5087 5.01083C78.2054 4.7075 77.832 4.5675 77.3887 4.5675C76.9454 4.5675 76.572 4.7075 76.2687 5.01083C75.9654 5.31416 75.8254 5.66416 75.8254 6.08416C75.8254 6.5275 75.9654 6.90083 76.2687 7.20416C76.572 7.5075 76.9454 7.6475 77.3887 7.6475ZM76.222 21.0797H78.532V8.89972H74.0054V10.9064H76.222V21.0797Z" fill="white"/>
<path d="M82.9368 25.6686H88.3268C89.5168 25.6686 90.4501 25.3886 91.1268 24.8053C91.8034 24.2219 92.1301 23.3353 92.1301 22.1219V8.92305H89.8668V10.6031H89.7034C89.5168 10.3697 89.3534 10.1831 89.2134 10.0431C89.0734 9.90305 88.8401 9.69305 88.5134 9.43639C88.1868 9.17972 87.7901 8.96972 87.3234 8.82972C86.8568 8.68972 86.3434 8.61972 85.7834 8.61972C84.1034 8.61972 82.7034 9.22639 81.5834 10.4397C80.4634 11.6531 79.9034 13.1697 79.9034 15.0131C79.9034 16.8797 80.4401 18.4197 81.5134 19.6331C82.5868 20.8464 83.9634 21.4531 85.6434 21.4531C87.4634 21.4531 88.7701 20.7764 89.5868 19.3997H89.7734V22.1453C89.7734 22.6819 89.6568 23.0786 89.4234 23.3353C89.1901 23.5919 88.7934 23.7319 88.2568 23.7319H82.8901L82.9368 25.6686ZM86.0401 19.3064C84.9434 19.3064 84.0334 18.9097 83.3334 18.1164C82.6334 17.3231 82.2834 16.2964 82.2834 15.0364C82.2834 13.7764 82.6334 12.7497 83.3568 11.9797C84.0801 11.2097 84.9668 10.8131 86.0401 10.8131C87.1601 10.8131 88.0701 11.2331 88.7701 12.0497C89.4701 12.8664 89.8201 13.8697 89.8201 15.0597C89.8201 16.3664 89.4468 17.4164 88.7234 18.1864C88.0001 18.9564 87.0901 19.3531 86.0168 19.3531L86.0401 19.3064Z" fill="white"/>
<path d="M93.9636 21.0797H96.2736V13.8697C96.2736 12.9831 96.5536 12.2364 97.1369 11.6531C97.7203 11.0697 98.4436 10.7664 99.3069 10.7664C100.1 10.7664 100.754 11.0464 101.29 11.5831C101.827 12.1197 102.084 12.8197 102.084 13.6597V21.0797H104.394V13.2631C104.394 11.9331 103.997 10.8131 103.18 9.92639C102.364 9.03972 101.29 8.59639 99.9369 8.59639C99.0969 8.59639 98.3736 8.78305 97.7669 9.13305C97.1603 9.48305 96.7169 9.92639 96.4369 10.4631H96.2503V8.87639H93.9403L93.9636 21.0797Z" fill="white"/>
<path d="M110.556 25.6686H112.866V19.3297H113.052C113.356 19.8664 113.822 20.3331 114.476 20.7531C115.129 21.1731 115.969 21.3831 117.019 21.3831C118.676 21.3831 120.052 20.7764 121.126 19.5631C122.199 18.3497 122.736 16.8097 122.736 14.9431C122.736 13.0997 122.176 11.5831 121.056 10.3697C119.936 9.15639 118.536 8.54972 116.856 8.54972C115.269 8.54972 113.986 9.20305 113.006 10.5331H112.819V8.85305H110.556V25.6686ZM116.599 19.1897C115.526 19.1897 114.616 18.8164 113.892 18.0464C113.169 17.2764 112.796 16.2497 112.796 14.9431C112.796 13.7531 113.146 12.7497 113.822 11.9331C114.499 11.1164 115.409 10.7197 116.529 10.7197C117.626 10.7197 118.536 11.1164 119.259 11.8864C119.982 12.6564 120.332 13.6831 120.332 14.9431C120.332 16.2031 119.982 17.2297 119.282 18.0231C118.582 18.8164 117.672 19.2131 116.576 19.2131L116.599 19.1897Z" fill="white"/>
<path d="M128.835 21.3831C130.469 21.3831 131.752 20.7297 132.709 19.3997H132.872C132.872 19.9131 133.035 20.3331 133.362 20.6364C133.689 20.9397 134.109 21.1031 134.622 21.1031H136.279V19.0031H135.719C135.322 19.0031 135.112 18.8164 135.112 18.4431V8.92305H132.802V10.6731H132.615C131.635 9.29639 130.329 8.61972 128.672 8.61972C127.015 8.61972 125.639 9.22639 124.565 10.4397C123.492 11.6531 122.955 13.1697 122.955 15.0131C122.955 16.8564 123.515 18.3964 124.612 19.6097C125.709 20.8231 127.109 21.4297 128.812 21.4297L128.835 21.3831ZM129.092 19.3064C127.995 19.3064 127.085 18.9097 126.362 18.1164C125.639 17.3231 125.265 16.2964 125.265 15.0364C125.265 13.7997 125.615 12.7731 126.339 11.9797C127.062 11.1864 127.972 10.7897 129.069 10.7897C130.142 10.7897 131.052 11.1864 131.775 11.9564C132.499 12.7264 132.872 13.7764 132.872 15.0831C132.872 16.2731 132.522 17.2764 131.822 18.0931C131.122 18.9097 130.212 19.3297 129.092 19.3297V19.3064Z" fill="white"/>
<path d="M142.486 21.0797H144.446V19.0497H142.509C141.972 19.0497 141.576 18.9331 141.342 18.6764C141.109 18.4197 140.992 18.0231 140.992 17.4864V10.9064H144.586V8.89972H140.992V5.42305H138.822V8.89972H136.466V10.9064H138.682V17.5097C138.682 18.7231 139.009 19.6331 139.686 20.2164C140.362 20.7997 141.296 21.1031 142.486 21.1031V21.0797Z" fill="white"/>
<path d="M145.789 21.0797H148.099V14.8264C148.099 13.6364 148.356 12.6797 148.892 11.9797C149.429 11.2797 150.199 10.9297 151.202 10.9297H152.369V8.61972H151.506C150.736 8.61972 150.059 8.85305 149.476 9.29639C148.892 9.73972 148.472 10.2531 148.239 10.8364H148.076V8.92305H145.789V21.0797Z" fill="white"/>
<path d="M158.293 21.3831C160.136 21.3831 161.676 20.7764 162.89 19.5631C164.103 18.3497 164.71 16.8331 164.71 15.0131C164.71 13.1697 164.103 11.6531 162.89 10.4397C161.676 9.22639 160.136 8.61972 158.293 8.61972C156.45 8.61972 154.933 9.22639 153.72 10.4397C152.506 11.6531 151.9 13.1697 151.9 15.0131C151.9 16.8564 152.506 18.3731 153.72 19.5864C154.933 20.7997 156.45 21.4064 158.293 21.4064V21.3831ZM158.293 19.2364C157.126 19.2364 156.17 18.8397 155.423 18.0464C154.676 17.2531 154.303 16.2497 154.303 15.0131C154.303 13.7997 154.676 12.7964 155.423 11.9797C156.17 11.1631 157.126 10.7664 158.293 10.7664C159.483 10.7664 160.463 11.1631 161.233 11.9797C162.003 12.7964 162.376 13.7997 162.376 15.0131C162.376 16.2497 162.003 17.2531 161.233 18.0464C160.463 18.8397 159.483 19.2364 158.293 19.2364Z" fill="white"/>
<path d="M165.799 21.0797H168.109V13.8697C168.109 12.9831 168.389 12.2364 168.973 11.6531C169.556 11.0697 170.279 10.7664 171.143 10.7664C171.936 10.7664 172.589 11.0464 173.126 11.5831C173.663 12.1197 173.919 12.8197 173.919 13.6597V21.0797H176.229V13.2631C176.229 11.9331 175.833 10.8131 175.016 9.92639C174.199 9.03972 173.126 8.59639 171.773 8.59639C170.933 8.59639 170.209 8.78305 169.603 9.13305C168.996 9.48305 168.553 9.92639 168.273 10.4631H168.086V8.87639H165.776L165.799 21.0797Z" fill="white"/>
<path d="M182.052 21.3831C183.522 21.3831 184.689 21.0331 185.576 20.3097C186.462 19.5864 186.906 18.6297 186.906 17.4397C186.906 16.5297 186.672 15.8064 186.182 15.2697C185.692 14.7331 185.109 14.3831 184.409 14.1964C183.709 14.0097 183.009 13.8697 182.309 13.7531C181.609 13.6364 181.026 13.4731 180.536 13.2397C180.046 13.0064 179.812 12.6564 179.812 12.1664C179.812 11.7231 179.999 11.3497 180.396 11.0697C180.792 10.7897 181.306 10.6497 181.959 10.6497C182.659 10.6497 183.242 10.8131 183.686 11.1397C184.129 11.4664 184.409 11.9331 184.526 12.5397L186.556 11.9564C186.369 10.9064 185.856 10.0897 185.016 9.48305C184.176 8.87639 183.172 8.57305 182.029 8.57305C180.699 8.57305 179.626 8.89972 178.809 9.55305C177.992 10.2064 177.572 11.0697 177.572 12.1197C177.572 13.0297 177.806 13.7531 178.272 14.2897C178.739 14.8264 179.322 15.1764 179.999 15.3631C180.676 15.5497 181.352 15.7131 182.029 15.8297C182.706 15.9464 183.289 16.1564 183.756 16.4364C184.222 16.7164 184.456 17.1131 184.456 17.6497C184.456 18.1864 184.246 18.6064 183.826 18.9097C183.406 19.2131 182.822 19.3764 182.052 19.3764C180.396 19.3764 179.462 18.6531 179.252 17.2064L177.106 17.6964C177.269 18.8631 177.782 19.7731 178.646 20.4264C179.509 21.0797 180.606 21.4064 181.959 21.4064L182.052 21.3831Z" fill="white"/>
<path d="M0 2.8C0 1.2536 1.2536 0 2.8 0H25.2C26.7464 0 28 1.2536 28 2.8V25.2C28 26.7464 26.7464 28 25.2 28H2.8C1.2536 28 0 26.7464 0 25.2V2.8Z" fill="#E84238"/>
<path d="M16.0876 21.5074C16.0876 21.0289 16.1454 20.5174 16.1866 19.9894C16.4068 20.3007 16.6873 20.5644 17.0116 20.7649C18.7029 21.7466 21.1366 21.0289 22.539 19.8161C22.965 19.4341 23.2979 18.9597 23.5125 18.4292C23.727 17.8988 23.8174 17.3263 23.7768 16.7556C23.7362 16.1848 23.5657 15.6309 23.2782 15.1362C22.9908 14.6414 22.594 14.2189 22.1183 13.901C20.4683 12.7543 18.0841 13.2658 16.6734 14.5857C16.4965 14.7512 16.3363 14.9336 16.1949 15.1302C15.9227 14 15.6587 12.8615 15.4194 11.723C15.3699 11.4755 15.3204 11.2198 15.2627 10.9723C15.3534 9.24808 15.1554 7.50737 15.1224 5.7749C15.1224 4.38892 15.0812 1.34473 15.0729 0H13.6374C13.6374 2.01296 13.6952 5.6759 13.7612 7.68061C12.1607 6.13789 9.40527 6.36064 7.5408 7.24337C2.39289 9.71008 5.43709 18.1002 10.9645 16.9452C11.7129 16.7927 12.416 16.4691 13.0185 15.9996C13.6211 15.5302 14.1068 14.9277 14.4377 14.2392C14.6769 15.2952 14.9244 16.3512 15.1884 17.3989C14.9378 18.5509 14.7751 19.7203 14.7017 20.8969C14.5173 22.7084 14.4484 26.1797 14.4954 28H16.0051C15.9376 26.3856 15.9652 23.1186 16.0876 21.5074ZM17.4571 15.155C19.6433 11.9458 23.364 15.98 22.077 18.7767C21.9391 19.1442 21.7216 19.4768 21.4401 19.7505C21.1587 20.0242 20.8202 20.2324 20.449 20.3601C20.0777 20.4878 19.6828 20.5319 19.2925 20.4892C18.9023 20.4465 18.5262 20.3181 18.1914 20.1131C17.1931 19.4119 16.9126 18.1249 16.6569 16.9864C16.8229 16.3367 17.0931 15.7182 17.4571 15.155ZM12.9115 14.8002C12.7176 15.186 12.4425 15.5252 12.1049 15.7944C11.7674 16.0635 11.3755 16.2563 10.9562 16.3595C10.4673 16.4225 9.97043 16.3752 9.50216 16.221C9.0339 16.0668 8.60613 15.8097 8.25029 15.4685C6.10532 13.6453 5.28034 9.09134 8.25029 7.57336C9.09791 7.15063 10.0765 7.07349 10.9799 7.35821C11.8833 7.64292 12.6409 8.26724 13.093 9.09959C13.4319 9.78747 13.6787 10.517 13.8272 11.2693C13.8203 12.5041 13.5056 13.7177 12.9115 14.8002Z" fill="white"/>
</svg>
