<svg width="455" height="576" viewBox="0 0 455 576" fill="none" xmlns="http://www.w3.org/2000/svg">
<g opacity="0.8">
<path d="M471.806 145.391C471.763 145.71 471.68 146.02 471.558 146.317C469.738 149.353 467.225 152.03 464.139 154.219C454.588 160.785 445.061 167.527 435.709 174.145C414.997 188.772 394.46 203.276 376.981 213.668C353.049 227.829 341.863 225.228 343.255 206.756C343.522 202.039 343.871 197.287 344.212 192.561C345.238 177.845 346.296 162.741 345.946 149.442C345.808 138.777 343.692 128.006 339.67 117.495L339.51 117.027C332.01 98.015 324.576 79.0205 315.287 63.893C300.666 39.8552 226.801 122.589 206.799 145.851C169.812 188.819 138.515 233.254 110.328 273.253L100.017 287.833C85.6896 308.109 71.1352 329.231 55.8693 352.345C29.5501 391.88 15.3519 422.96 12.373 446.957C11.2099 455.293 11.6343 463.874 13.6315 472.402C16.4476 484.066 27.9271 481.191 50.9437 462.081C84.2228 434.414 122.575 402.552 160.607 379.588C193.806 359.522 233.411 338.254 238.514 367.676C240.626 379.577 256.528 377.859 272.624 376.079L276.952 375.595C312.713 371.859 357.37 369.712 389.995 386.049C394.295 388.192 396.612 392.157 398.845 396.043C399.813 397.797 400.896 399.516 402.09 401.191C402.781 402.198 401.113 404.84 398.249 407.161C395.386 409.483 392.535 410.561 391.837 409.581C390.62 407.874 389.535 406.116 388.587 404.317C386.388 400.441 384.371 396.812 380.456 394.828C348.959 378.397 305.544 380.026 270.676 383.35L266.435 383.772C249.915 385.41 233.541 387.03 231.445 374.142C226.775 346.423 190.752 365.477 157.583 385.295C120.463 407.512 82.5656 438.873 49.689 465.967C25.4312 485.992 12.8757 489.032 9.91179 476.591C7.93504 467.866 7.53854 459.096 8.73561 450.573C11.87 425.597 26.5955 393.214 54.0223 351.935C69.4232 328.716 83.994 307.4 98.3974 286.974L108.58 272.473C137.222 231.973 168.873 186.612 206.976 142.271C251.878 89.9475 310.035 34.2328 322.96 54.6422C332.474 69.8585 340.183 88.7566 347.864 107.761L348.056 108.237C352.264 118.899 354.481 129.848 354.625 140.687C355.065 154.181 354.038 169.434 353.01 184.291L352.105 198.558C351.131 215.47 361.132 217.979 382.349 205.188C399.283 195.103 419.438 180.696 439.835 166.183C449.343 159.379 459.093 152.47 468.829 145.614C470.842 143.943 472.21 143.884 471.806 145.391Z" fill="#D0364F"/>
<path d="M274.938 186.721C273.741 191.189 272.252 195.948 270.527 200.927C256.117 242.888 223.8 287.277 178.461 329.282C145.922 359.499 120.525 380.72 99.8125 395.347C71.8518 415.116 46.7552 430.835 46.5986 407.386C46.6156 407.053 46.7018 406.731 46.8537 406.434L46.9033 406.249C49.5703 390.187 60.7645 367.796 80.5563 338.414C112.398 291.546 145.355 247.158 181.731 202.751C221.392 154.322 249.221 131.061 264.468 135.373C279.714 139.685 282.936 156.871 274.938 186.721ZM50.5884 402.986C50.7885 424.944 75.0202 409.532 101.957 390.396C122.253 375.997 147.214 354.943 179.22 325.121C220.91 286.247 250.369 245.485 263.656 207.049C276.381 170.048 274.212 148.667 258.014 143.789C244.012 139.612 219.3 160.138 182.286 205.195C146.449 248.783 113.931 292.466 82.4578 338.753C63.4894 366.656 53.3669 387.039 50.846 402.289L50.5884 402.986Z" fill="#D0364F"/>
<path d="M193.176 256.034C191.124 262.583 188.17 268.843 184.368 274.701C172.424 293.859 156.996 311.195 138.552 326.184L137.706 326.95C123.091 339.668 115.65 341.415 116.226 332.359C116.24 332.035 116.324 331.722 116.474 331.434C116.501 331.009 116.611 330.599 116.8 330.218C127.567 307.429 156.865 269.655 176.822 253.466C185.69 246.264 191.799 244.444 193.46 248.601C194.13 251.131 194.032 253.686 193.176 256.034ZM121.097 327.062C120.505 336.708 130.56 329.852 139.309 322.165L140.187 321.409C154.12 309.244 167.71 297.3 180.33 276.623C186.285 266.883 189.078 258.847 187.726 255.396C186.374 251.945 181.471 253.38 174.313 259.113C157.058 273.051 130.62 307.056 121.097 327.062Z" fill="#D0364F"/>
</g>
</svg>
