<svg viewBox="0 0 270 200" fill="none" xmlns="http://www.w3.org/2000/svg">
<mask id="mask0" mask-type="alpha" maskUnits="userSpaceOnUse" x="0" y="0">
<rect x="0.5" y="0.5" width="259" height="199" rx="13.5" fill="#C4C4C4" stroke="black"/>
</mask>
<g mask="url(#mask0)">
<path d="M31.4802 168.45C31.4802 168.45 65.3363 136.106 101.367 129.438C137.397 122.77 209.561 123.433 248.615 174.994C287.668 226.554 191.67 272.317 189.02 272.648C186.369 272.98 30.4241 246.951 24.5226 242.457C18.6211 237.964 -3.94959 211.148 31.4802 168.45Z" fill="#DB7294" stroke="black" stroke-width="0.91" stroke-miterlimit="10"/>
<path d="M178.5 141.821C178.5 141.821 236.874 259.105 223.807 281.51C210.741 303.916 114.06 325.285 65.7504 300.809C9.3029 272.172 83.5584 153.334 101.097 125.897L178.5 141.821Z" fill="#DB7294" stroke="black" stroke-width="0.91" stroke-miterlimit="10"/>
<path d="M186.683 135.21C188.398 118.463 168.799 102.737 142.905 100.084C117.012 97.4309 94.6307 108.856 92.9148 125.602C91.199 142.349 110.799 158.075 136.692 160.728C162.585 163.381 184.967 151.956 186.683 135.21Z" fill="#DB7294" stroke="black" stroke-width="0.97" stroke-miterlimit="10"/>
<path d="M114.93 84.0067C114.893 86.4715 115.59 88.8917 116.932 90.9592C118.275 93.0268 120.202 94.6482 122.469 95.6172C124.735 96.5862 127.239 96.859 129.661 96.4008C132.084 95.9427 134.315 94.7743 136.071 93.0444C137.827 91.3145 139.029 89.1013 139.524 86.6862C140.019 84.2712 139.784 81.7636 138.849 79.4825C137.914 77.2014 136.322 75.2499 134.275 73.8763C132.228 72.5027 129.819 71.7691 127.354 71.7688C125.733 71.7524 124.126 72.0564 122.623 72.6633C121.12 73.2702 119.753 74.1681 118.598 75.3053C117.443 76.4425 116.525 77.7966 115.896 79.2899C115.266 80.7832 114.938 82.3861 114.93 84.0067V84.0067Z" stroke="black" stroke-width="1.88" stroke-miterlimit="10"/>
<path d="M168.706 46.0293H153.196C142.843 46.0293 134.56 55.6167 134.56 67.3576V91.3778C134.56 92.0611 134.56 92.7237 134.56 93.4485C134.376 94.1655 134.286 94.9032 134.291 95.6434V125.669C134.302 128.225 135.322 130.673 137.129 132.48C138.936 134.287 141.384 135.307 143.94 135.318H150.152C152.708 135.307 155.156 134.287 156.964 132.48C158.771 130.673 159.791 128.225 159.802 125.669V112.706H168.768C179.122 112.706 187.404 103.119 187.404 91.3778V67.3576C187.446 55.6167 178.997 46.0293 168.706 46.0293Z" fill="white" stroke="black" stroke-width="0.94" stroke-miterlimit="10"/>
<path d="M156.427 75.2065C156.427 75.8995 156.633 76.5769 157.018 77.1528C157.403 77.7288 157.951 78.1773 158.592 78.4415C159.233 78.7058 159.937 78.7739 160.617 78.6372C161.296 78.5004 161.92 78.1651 162.408 77.6736C162.897 77.1821 163.228 76.5566 163.361 75.8764C163.494 75.1962 163.421 74.492 163.153 73.8529C162.885 73.2138 162.434 72.6687 161.855 72.2867C161.277 71.9046 160.599 71.7029 159.906 71.707C158.981 71.7125 158.096 72.0836 157.444 72.7393C156.793 73.395 156.427 74.2819 156.427 75.2065Z" fill="#0C0C0C"/>
<path d="M179.287 74.6888C179.287 75.2785 179.462 75.855 179.79 76.3454C180.118 76.8357 180.583 77.2179 181.128 77.4436C181.673 77.6693 182.272 77.7283 182.851 77.6133C183.429 77.4982 183.961 77.2142 184.378 76.7972C184.795 76.3802 185.079 75.8489 185.194 75.2705C185.309 74.6921 185.25 74.0925 185.024 73.5477C184.798 73.0028 184.416 72.5371 183.926 72.2095C183.435 71.8818 182.859 71.7069 182.269 71.7069C181.478 71.7069 180.72 72.0211 180.161 72.5803C179.602 73.1395 179.287 73.8979 179.287 74.6888Z" fill="#0C0C0C"/>
<path d="M175.953 88.9978C175.953 88.9978 174.193 94.1124 170.487 94.4645C166.78 94.8165 163.86 90.6958 163.674 87.4862L175.953 88.9978Z" fill="#FFF7F7"/>
<path d="M174.918 88.6251L174.752 88.9978C174.897 88.6872 174.752 89.1428 174.752 89.2463L174.463 89.8261C174.013 90.742 173.403 91.5696 172.661 92.2696C172.262 92.6494 171.784 92.9371 171.262 93.1124C170.74 93.2877 170.185 93.3464 169.638 93.2842C168.398 93.0396 167.292 92.3466 166.532 91.3377C165.587 90.2263 165.002 88.8544 164.854 87.4034L163.778 88.4802L174.525 89.8054L176.057 89.9918C176.637 89.9918 177.154 89.4327 177.154 88.915C177.144 88.6272 177.025 88.354 176.822 88.1504C176.618 87.9468 176.345 87.8278 176.057 87.8175L165.186 86.5544L163.674 86.368C163.383 86.368 163.104 86.4837 162.898 86.6895C162.692 86.8953 162.577 87.1744 162.577 87.4655C162.686 89.1816 163.284 90.8306 164.3 92.2176C165.317 93.6046 166.709 94.6717 168.313 95.2928C171.522 96.2867 174.276 94.2367 175.871 91.6069C176.332 90.8697 176.714 90.0853 177.009 89.267C177.444 87.9625 175.374 87.3827 174.918 88.6251Z" fill="#0C0C0C"/>
<path d="M144.313 88.0454C144.309 89.7672 144.816 91.4515 145.77 92.8849C146.724 94.3183 148.082 95.4362 149.672 96.097C151.262 96.7579 153.013 96.9318 154.702 96.5969C156.391 96.262 157.942 95.4333 159.16 94.2157C160.377 92.9982 161.206 91.4466 161.541 89.7577C161.876 88.0687 161.702 86.3183 161.041 84.7283C160.38 83.1383 159.262 81.7802 157.829 80.8262C156.395 79.8721 154.711 79.365 152.989 79.3691C150.69 79.3746 148.486 80.2904 146.86 81.9164C145.234 83.5423 144.318 85.746 144.313 88.0454Z" fill="#E4B0C8"/>
<path d="M185.106 82.1639C185.622 82.1724 186.136 82.2349 186.639 82.3503V91.3579C186.673 92.6697 186.569 93.9815 186.328 95.2715C185.925 95.3447 185.516 95.3862 185.106 95.3958C183.416 95.3011 181.825 94.5629 180.662 93.3325C179.498 92.1022 178.85 90.4731 178.85 88.7798C178.85 87.0866 179.498 85.4575 180.662 84.2272C181.825 82.9968 183.416 82.2586 185.106 82.1639Z" fill="#E4B0C8"/>
<path d="M172.04 71.7069L171.315 83.6135L176.989 80.1554L172.04 71.7069Z" fill="#DB7294"/>
<path d="M138.515 83.6134L141.393 64.7906C141.393 64.7906 193.451 71.3134 210.348 46.03C227.245 20.7467 209.478 10.7038 200.906 12.1326C192.333 13.5614 182.269 25.8821 182.269 25.8821C182.269 25.8821 190.262 15.0109 182.269 13.2922C174.276 11.5735 165.455 19.877 160.879 28.4497C160.879 28.4497 126.567 25.2401 114.95 46.03C103.334 66.8199 112.735 81.5219 133.96 102.974L135.368 90.9851L138.515 83.6134Z" fill="black"/>
<path d="M114.93 84.0067C114.893 86.4715 115.59 88.8917 116.932 90.9592C118.275 93.0268 120.202 94.6482 122.469 95.6172C124.735 96.5862 127.239 96.859 129.661 96.4008C132.084 95.9427 134.315 94.7743 136.071 93.0444C137.827 91.3145 139.029 89.1013 139.524 86.6862C140.019 84.2712 139.784 81.7636 138.849 79.4825C137.914 77.2014 136.322 75.2499 134.275 73.8763C132.228 72.5027 129.819 71.7691 127.354 71.7688C125.733 71.7524 124.126 72.0564 122.623 72.6633C121.12 73.2702 119.753 74.1681 118.598 75.3053C117.443 76.4425 116.525 77.7966 115.896 79.2899C115.266 80.7832 114.938 82.3861 114.93 84.0067Z" fill="white"/>
<path d="M135.285 85.6215C135.333 84.5372 135.2 83.4525 134.891 82.4119C134.634 81.3781 134.156 80.4121 133.492 79.5795C132.827 78.7469 131.991 78.0673 131.04 77.5871C129.434 76.9036 127.678 76.6536 125.946 76.8624C125.596 76.8779 125.265 77.0253 125.019 77.275C124.773 77.5247 124.631 77.8581 124.62 78.2083C124.62 78.5617 124.759 78.901 125.007 79.1528C125.255 79.4047 125.592 79.5489 125.946 79.5543C126.683 79.482 127.425 79.482 128.161 79.5543H128.389C128.389 79.5543 128.099 79.5543 128.389 79.5543H128.803C129.093 79.5543 129.383 79.72 129.652 79.8028C129.921 79.8856 129.425 79.6785 129.652 79.8028L129.963 79.9684C130.169 80.1189 130.383 80.2572 130.605 80.3826C130.605 80.3826 130.336 80.1548 130.605 80.3826H130.729L130.957 80.5896C131.1 80.7762 131.259 80.9494 131.433 81.1073C131.226 80.9831 131.267 80.8795 131.433 81.1073C131.495 81.1852 131.551 81.2683 131.599 81.3558C131.723 81.5422 131.827 81.7285 131.93 81.9149L132.054 82.2048C132.054 82.3498 131.93 81.8528 132.054 82.0806C132.045 82.1215 132.045 82.1639 132.054 82.2048C132.054 82.4119 132.199 82.5982 132.261 82.8053C132.364 83.1454 132.447 83.4911 132.51 83.8407C132.51 83.8407 132.51 84.0063 132.51 84.0684C132.51 84.1306 132.51 83.6957 132.51 84.0684C132.51 84.4412 132.51 84.3583 132.51 84.5033C132.531 84.8274 132.531 85.1524 132.51 85.4765C132.515 85.8318 132.659 86.1711 132.91 86.4223C133.161 86.6736 133.501 86.8171 133.856 86.8225C134.206 86.8069 134.537 86.6595 134.783 86.4099C135.029 86.1602 135.171 85.8267 135.181 85.4765L135.285 85.6215Z" fill="#020202"/>
<path d="M160.879 28.449C160.879 28.449 126.547 63.8995 112.321 74.6879C112.321 74.6879 93.8294 33.75 104.328 22.3197C112.756 13.1465 153.838 18.5303 160.879 28.449Z" fill="#EEDA36" stroke="black" stroke-width="0.94" stroke-miterlimit="10"/>
<path d="M149.531 21.7806L107.682 63.0084" stroke="black" stroke-width="0.94" stroke-miterlimit="10"/>
<path d="M170.404 116.579L175.995 137.286L133.649 150.746L131.454 142.07L115.82 132.772L122.281 115.254L140.917 129.749L142.139 130.764C142.139 130.764 142.822 131.903 146.28 130.018L170.404 116.579Z" fill="#DB7294"/>
<path d="M172.039 115.689L131.661 137.908L131.412 143.188" stroke="black" stroke-width="0.94" stroke-miterlimit="10"/>
<path d="M121.287 115.212L143.319 131.508" stroke="black" stroke-width="0.94" stroke-miterlimit="10"/>
<path d="M121.287 139.419C121.287 139.419 92.7111 158.366 73.2051 150.746" stroke="black" stroke-width="0.94" stroke-miterlimit="10"/>
<path d="M120.583 142.422C122.344 142.422 123.772 140.995 123.772 139.234C123.772 137.472 122.344 136.045 120.583 136.045C118.822 136.045 117.394 137.472 117.394 139.234C117.394 140.995 118.822 142.422 120.583 142.422Z" stroke="black" stroke-width="0.94" stroke-miterlimit="10"/>
<path d="M157.089 146.481C157.089 147.132 157.282 147.769 157.644 148.31C158.006 148.852 158.52 149.274 159.122 149.523C159.723 149.772 160.385 149.837 161.024 149.71C161.663 149.583 162.249 149.27 162.71 148.809C163.17 148.349 163.484 147.762 163.611 147.123C163.738 146.485 163.673 145.823 163.424 145.221C163.174 144.62 162.752 144.105 162.211 143.744C161.67 143.382 161.033 143.189 160.382 143.189C159.509 143.189 158.671 143.536 158.054 144.153C157.436 144.771 157.089 145.608 157.089 146.481Z" stroke="black" stroke-width="0.94" stroke-miterlimit="10"/>
<path d="M160.382 146.481C160.382 146.481 172.04 180.13 192.395 189.966" stroke="black" stroke-width="0.94" stroke-miterlimit="10"/>
</g>
</svg>
