<svg width="80" height="80" viewBox="0 0 80 80" fill="none" xmlns="http://www.w3.org/2000/svg">
<mask id="mask0" mask-type="alpha" maskUnits="userSpaceOnUse" x="0" y="0" width="80" height="80">
<rect width="80" height="80" rx="7" fill="#C4C4C4"/>
</mask>
<g mask="url(#mask0)">
<mask id="mask1" mask-type="alpha" maskUnits="userSpaceOnUse" x="-19" y="2" width="117" height="78">
<rect x="-18.5" y="2.5" width="116" height="77" rx="13.5" fill="#C4C4C4" stroke="black"/>
</mask>
<g mask="url(#mask1)">
<path d="M-6.72236 67.6945C-6.72236 67.6945 6.4815 55.0801 20.5333 52.4797C34.5851 49.8793 62.7291 50.1378 77.96 70.2464C93.1909 90.355 55.7517 108.202 54.718 108.332C53.6843 108.461 -7.13423 98.3097 -9.43582 96.5572C-11.7374 94.8048 -20.54 84.3467 -6.72236 67.6945Z" fill="#DB7294" stroke="black" stroke-width="0.91" stroke-miterlimit="10"/>
<path d="M50.6157 57.3089C50.6157 57.3089 73.3812 103.05 68.2854 111.788C63.1896 120.526 25.4839 128.86 6.64317 119.315C-15.3713 108.146 13.5883 61.799 20.4285 51.0986L50.6157 57.3089Z" fill="#DB7294" stroke="black" stroke-width="0.91" stroke-miterlimit="10"/>
<path d="M53.8064 54.7316C54.4755 48.2005 46.8316 42.0673 36.7333 41.0326C26.6349 39.998 17.9061 44.4537 17.237 50.9848C16.5678 57.5159 24.2117 63.6492 34.31 64.6838C44.4084 65.7185 53.1372 61.2627 53.8064 54.7316Z" fill="#DB7294" stroke="black" stroke-width="0.97" stroke-miterlimit="10"/>
<path d="M25.8228 34.7618C25.8084 35.7231 26.0803 36.667 26.6038 37.4733C27.1274 38.2796 27.879 38.912 28.7631 39.2899C29.6471 39.6678 30.6236 39.7742 31.5682 39.5955C32.5129 39.4168 33.383 38.9612 34.068 38.2865C34.7529 37.6119 35.2217 36.7487 35.4146 35.8068C35.6075 34.865 35.5159 33.887 35.1514 32.9974C34.7869 32.1077 34.166 31.3467 33.3677 30.8109C32.5693 30.2752 31.6297 29.9891 30.6683 29.989C30.0363 29.9826 29.4093 30.1012 28.8232 30.3379C28.2372 30.5746 27.7038 30.9247 27.2535 31.3682C26.8032 31.8118 26.445 32.3399 26.1995 32.9222C25.954 33.5046 25.826 34.1298 25.8228 34.7618V34.7618Z" stroke="black" stroke-width="1.88" stroke-miterlimit="10"/>
<path d="M46.7955 19.951H40.7467C36.7088 19.951 33.4785 23.6901 33.4785 28.2691V37.637C33.4785 37.9035 33.4785 38.1619 33.4785 38.4445C33.4069 38.7242 33.3716 39.0119 33.3735 39.3006V51.0104C33.3778 52.0072 33.7757 52.9619 34.4805 53.6668C35.1853 54.3716 36.1401 54.7695 37.1369 54.7737H39.5596C40.5564 54.7695 41.5111 54.3716 42.2159 53.6668C42.9208 52.9619 43.3186 52.0072 43.3229 51.0104V45.955H46.8197C50.8576 45.955 54.0879 42.2159 54.0879 37.637V28.2691C54.104 23.6901 50.8091 19.951 46.7955 19.951Z" fill="white" stroke="black" stroke-width="0.94" stroke-miterlimit="10"/>
<path d="M42.0067 31.3299C42.0067 31.6002 42.087 31.8644 42.2373 32.089C42.3876 32.3136 42.6013 32.4885 42.8511 32.5916C43.101 32.6946 43.3758 32.7212 43.6408 32.6679C43.9057 32.6146 44.1489 32.4838 44.3394 32.2921C44.53 32.1004 44.6593 31.8565 44.7111 31.5912C44.7628 31.3259 44.7346 31.0512 44.6301 30.802C44.5256 30.5528 44.3494 30.3402 44.1239 30.1912C43.8984 30.0422 43.6337 29.9635 43.3634 29.9651C43.0029 29.9672 42.6578 30.112 42.4036 30.3677C42.1494 30.6234 42.0067 30.9693 42.0067 31.3299Z" fill="#0C0C0C"/>
<path d="M50.9222 31.128C50.9222 31.358 50.9904 31.5828 51.1182 31.7741C51.2459 31.9653 51.4276 32.1144 51.6401 32.2024C51.8526 32.2904 52.0864 32.3134 52.312 32.2686C52.5375 32.2237 52.7448 32.1129 52.9074 31.9503C53.07 31.7877 53.1808 31.5805 53.2257 31.3549C53.2705 31.1293 53.2475 30.8955 53.1595 30.683C53.0715 30.4705 52.9224 30.2889 52.7312 30.1611C52.5399 30.0333 52.3151 29.9651 52.0851 29.9651C51.7767 29.9651 51.4809 30.0876 51.2628 30.3057C51.0447 30.5238 50.9222 30.8196 50.9222 31.128Z" fill="#0C0C0C"/>
<path d="M49.622 36.7084C49.622 36.7084 48.9356 38.7031 47.49 38.8404C46.0444 38.9777 44.9058 37.3706 44.8331 36.1189L49.622 36.7084Z" fill="#FFF7F7"/>
<path d="M49.218 36.5632L49.1534 36.7086C49.2099 36.5875 49.1534 36.7651 49.1534 36.8055L49.0403 37.0316C48.8651 37.3888 48.6272 37.7116 48.3377 37.9846C48.1821 38.1327 47.9958 38.2449 47.7921 38.3133C47.5884 38.3817 47.3722 38.4045 47.1587 38.3803C46.6753 38.2849 46.244 38.0146 45.9473 37.6212C45.579 37.1877 45.3509 36.6526 45.2932 36.0868L44.8732 36.5067L49.0646 37.0236L49.6622 37.0962C49.8883 37.0962 50.0902 36.8782 50.0902 36.6763C50.0862 36.5641 50.0398 36.4575 49.9604 36.3781C49.881 36.2987 49.7744 36.2523 49.6622 36.2483L45.4224 35.7557L44.8329 35.683C44.7193 35.683 44.6105 35.7281 44.5302 35.8083C44.4499 35.8886 44.4048 35.9975 44.4048 36.111C44.4474 36.7803 44.6807 37.4234 45.0771 37.9643C45.4735 38.5052 46.0165 38.9214 46.6418 39.1636C47.8936 39.5513 48.9676 38.7518 49.5895 37.7261C49.7696 37.4386 49.9185 37.1327 50.0336 36.8136C50.2032 36.3048 49.3957 36.0787 49.218 36.5632Z" fill="#0C0C0C"/>
<path d="M37.2824 36.3372C37.2808 37.0088 37.4785 37.6657 37.8506 38.2247C38.2227 38.7837 38.7523 39.2197 39.3724 39.4774C39.9926 39.7351 40.6752 39.803 41.3339 39.6723C41.9926 39.5417 42.5977 39.2185 43.0725 38.7437C43.5474 38.2688 43.8706 37.6637 44.0012 37.005C44.1318 36.3463 44.064 35.6637 43.8063 35.0436C43.5485 34.4235 43.1125 33.8938 42.5535 33.5218C41.9945 33.1497 41.3376 32.9519 40.6661 32.9535C39.7693 32.9556 38.9099 33.3128 38.2758 33.9469C37.6417 34.581 37.2845 35.4405 37.2824 36.3372Z" fill="#E4B0C8"/>
<path d="M53.1915 34.0437C53.3927 34.047 53.593 34.0714 53.7891 34.1164V37.6293C53.8026 38.141 53.762 38.6526 53.668 39.1557C53.5106 39.1842 53.3513 39.2004 53.1915 39.2041C52.5321 39.1672 51.9119 38.8793 51.4582 38.3995C51.0045 37.9196 50.7516 37.2843 50.7516 36.6239C50.7516 35.9635 51.0045 35.3282 51.4582 34.8484C51.9119 34.3685 52.5321 34.0806 53.1915 34.0437Z" fill="#E4B0C8"/>
<path d="M48.0958 29.9651L47.8131 34.6086L50.0259 33.26L48.0958 29.9651Z" fill="#DB7294"/>
<path d="M35.0211 34.6085L36.1436 27.2677C36.1436 27.2677 56.4461 29.8115 63.0359 19.951C69.6257 10.0905 62.6967 6.1738 59.3533 6.73102C56.01 7.28825 52.0852 12.0933 52.0852 12.0933C52.0852 12.0933 55.2024 7.85355 52.0852 7.18327C48.9679 6.51298 45.5276 9.75136 43.7429 13.0947C43.7429 13.0947 30.3614 11.843 25.8309 19.951C21.3004 28.0591 24.9668 33.7929 33.2444 42.1594L33.7936 37.4835L35.0211 34.6085Z" fill="black"/>
<path d="M25.8228 34.7618C25.8084 35.7231 26.0803 36.667 26.6038 37.4733C27.1274 38.2796 27.879 38.912 28.7631 39.2899C29.6471 39.6678 30.6236 39.7742 31.5682 39.5955C32.5129 39.4168 33.383 38.9612 34.068 38.2865C34.7529 37.6119 35.2217 36.7487 35.4146 35.8068C35.6075 34.865 35.5159 33.887 35.1514 32.9974C34.7869 32.1077 34.166 31.3467 33.3677 30.8109C32.5693 30.2752 31.6297 29.9891 30.6683 29.989C30.0363 29.9826 29.4093 30.1012 28.8232 30.3379C28.2372 30.5746 27.7038 30.9247 27.2535 31.3682C26.8032 31.8118 26.445 32.3399 26.1995 32.9222C25.954 33.5046 25.826 34.1298 25.8228 34.7618Z" fill="white"/>
<path d="M33.7611 35.3921C33.7798 34.9692 33.728 34.5462 33.6077 34.1403C33.5072 33.7372 33.321 33.3604 33.0618 33.0357C32.8026 32.711 32.4765 32.446 32.1056 32.2587C31.4796 31.9921 30.7945 31.8946 30.119 31.976C29.9824 31.9821 29.8533 32.0396 29.7574 32.1369C29.6615 32.2343 29.6061 32.3644 29.6021 32.5009C29.6021 32.6388 29.6563 32.7711 29.753 32.8693C29.8497 32.9675 29.9811 33.0237 30.119 33.0259C30.4063 32.9977 30.6957 32.9977 30.9831 33.0259H31.0719C31.0719 33.0259 30.9588 33.0259 31.0719 33.0259H31.2334C31.3465 33.0259 31.4595 33.0905 31.5645 33.1228C31.6695 33.1551 31.4757 33.0743 31.5645 33.1228L31.6857 33.1874C31.7659 33.2461 31.8495 33.3 31.936 33.3489C31.936 33.3489 31.831 33.2601 31.936 33.3489H31.9845L32.0733 33.4297C32.129 33.5024 32.1912 33.57 32.259 33.6316C32.1783 33.5831 32.1944 33.5427 32.259 33.6316C32.2833 33.6619 32.305 33.6943 32.3236 33.7285C32.3721 33.8011 32.4125 33.8738 32.4529 33.9465L32.5013 34.0596C32.5013 34.1161 32.4529 33.9223 32.5013 34.0111C32.4978 34.0271 32.4978 34.0436 32.5013 34.0596C32.5013 34.1403 32.5578 34.213 32.5821 34.2938C32.622 34.4264 32.6543 34.5612 32.679 34.6976C32.679 34.6976 32.679 34.7622 32.679 34.7864C32.679 34.8106 32.679 34.641 32.679 34.7864C32.679 34.9317 32.679 34.8994 32.679 34.956C32.6871 35.0824 32.6871 35.2091 32.679 35.3355C32.6811 35.4741 32.737 35.6064 32.835 35.7044C32.933 35.8024 33.0653 35.8584 33.2039 35.8605C33.3404 35.8544 33.4696 35.7969 33.5654 35.6995C33.6613 35.6022 33.7168 35.4721 33.7207 35.3355L33.7611 35.3921Z" fill="#020202"/>
<path d="M43.7429 13.0947C43.7429 13.0947 30.3533 26.9204 24.8053 31.1279C24.8053 31.1279 17.5936 15.1621 21.688 10.7043C24.9749 7.12673 40.9972 9.22643 43.7429 13.0947Z" fill="#EEDA36" stroke="black" stroke-width="0.94" stroke-miterlimit="10"/>
<path d="M39.3174 10.4939L22.9963 26.5727" stroke="black" stroke-width="0.94" stroke-miterlimit="10"/>
<path d="M47.4574 47.4648L49.6379 55.5406L33.123 60.7898L32.2669 57.4061L26.1697 53.7801L28.6894 46.948L35.9576 52.601L36.434 52.9967C36.434 52.9967 36.7005 53.4409 38.0492 52.706L47.4574 47.4648Z" fill="#DB7294"/>
<path d="M48.0954 47.1182L32.3477 55.7835L32.2508 57.8428" stroke="black" stroke-width="0.94" stroke-miterlimit="10"/>
<path d="M28.3021 46.9319L36.8947 53.2875" stroke="black" stroke-width="0.94" stroke-miterlimit="10"/>
<path d="M28.3022 56.373C28.3022 56.373 17.1577 63.7624 9.55029 60.7905" stroke="black" stroke-width="0.94" stroke-miterlimit="10"/>
<path d="M28.0274 57.5442C28.7143 57.5442 29.2711 56.9874 29.2711 56.3005C29.2711 55.6137 28.7143 55.0569 28.0274 55.0569C27.3406 55.0569 26.7838 55.6137 26.7838 56.3005C26.7838 56.9874 27.3406 57.5442 28.0274 57.5442Z" stroke="black" stroke-width="0.94" stroke-miterlimit="10"/>
<path d="M42.2648 59.1272C42.2648 59.3811 42.3401 59.6294 42.4812 59.8406C42.6223 60.0517 42.8229 60.2163 43.0575 60.3135C43.2921 60.4107 43.5503 60.4361 43.7994 60.3866C44.0485 60.337 44.2773 60.2147 44.4568 60.0351C44.6364 59.8556 44.7587 59.6268 44.8083 59.3777C44.8578 59.1286 44.8324 58.8704 44.7352 58.6358C44.638 58.4012 44.4734 58.2006 44.2623 58.0595C44.0511 57.9184 43.8028 57.8431 43.5489 57.8431C43.2083 57.8431 42.8817 57.9784 42.6409 58.2192C42.4001 58.46 42.2648 58.7866 42.2648 59.1272Z" stroke="black" stroke-width="0.94" stroke-miterlimit="10"/>
<path d="M43.5492 59.1271C43.5492 59.1271 48.0958 72.2502 56.0343 76.0862" stroke="black" stroke-width="0.94" stroke-miterlimit="10"/>
</g>
</g>
</svg>
