<?xml version="1.0" encoding="utf-8"?>
<!-- Generator: Adobe Illustrator 22.1.0, SVG Export Plug-In . SVG Version: 6.00 Build 0)  -->
<svg version="1.1" id="Layer_1" xmlns="http://www.w3.org/2000/svg" xmlns:xlink="http://www.w3.org/1999/xlink" x="0px" y="0px"
	 viewBox="0 0 80 81" style="enable-background:new 0 0 80 81;" xml:space="preserve">
<style type="text/css">
	.st0{fill:#FFFFFF;}
	.st1{fill:#FFFFFF;filter:url(#Adobe_OpacityMaskFilter);stroke:#BEBCBC;}
	.st2{mask:url(#mask0_1_);}
	.st3{fill:#63C1C5;stroke:#000000;stroke-miterlimit:10;}
	.st4{fill:none;stroke:#000000;stroke-miterlimit:10;}
	.st5{fill:#63C1C5;}
	.st6{fill:#FFFFFF;stroke:#000000;stroke-miterlimit:10;}
	.st7{fill:#FEFEFF;stroke:#000000;stroke-miterlimit:10;}
	.st8{fill:none;stroke:#000000;stroke-width:2;stroke-miterlimit:10;}
	.st9{fill:#E4B0C8;}
	.st10{fill:#141414;}
	.st11{fill:#F7F6F6;}
	.st12{fill:none;stroke:#672ED6;stroke-miterlimit:10;}
	.st13{fill:#D96980;}
	.st14{fill:#090909;}
</style>
<path class="st0" d="M6,1.5h68c3,0,5.5,2.5,5.5,5.5v68c0,3-2.5,5.5-5.5,5.5H6c-3,0-5.5-2.5-5.5-5.5V7C0.5,4,3,1.5,6,1.5z"/>
<defs>
	<filter id="Adobe_OpacityMaskFilter" filterUnits="userSpaceOnUse" x="-36.5" y="4" width="139.1" height="121.1">
		<feColorMatrix  type="matrix" values="1 0 0 0 0  0 1 0 0 0  0 0 1 0 0  0 0 0 1 0"/>
	</filter>
</defs>
<mask maskUnits="userSpaceOnUse" x="-36.5" y="4" width="139.1" height="121.1" id="mask0_1_">
	<path class="st1" d="M6,0.5h68c3,0,5.5,2.5,5.5,5.5v68c0,3-2.5,5.5-5.5,5.5H6c-3,0-5.5-2.5-5.5-5.5V6C0.5,3,3,0.5,6,0.5z"/>
</mask>
<g class="st2">
	<path class="st3" d="M56.7,52.9c0,0,29.6,11.6,45.3,61.6l-20,9.9L67.1,86.5L56.7,52.9z"/>
	<path class="st0" d="M-31.5,62.8c0,0-5-3.2-4.4-4.8c0.1-0.2,0.2-0.4,0.3-0.5c0.2-0.1,0.3-0.3,0.5-0.3c0.2-0.1,0.4-0.1,0.6-0.1
		c0.2,0,0.4,0.1,0.6,0.2c0,0-1.5-0.9-0.8-1.9c0.2-0.3,0.4-0.5,0.7-0.6c0.3-0.1,0.6-0.1,0.9,0c0,0-1.1-1.6,0-2.1
		c0.8-0.3,1.7-0.4,2.6-0.2c-0.3-0.6-0.5-1.2-0.6-1.8c0-0.5,0.7-1.5,2.8-1c2.2,0.5,6.7,3.1,8.3,3.8c1.6,0.8,3.3,2.6,3.3,2
		c0-0.6,0.7-4.4,2.2-5.5c1.5-1.1,2-1.3,2.3,0.8s0.2,7.9,3,12.2c2.8,4.3,3.8,7.2,6.8,10.7c3,3.5,4.4,5.2,4.4,5.2l-13.5,11
		c0,0-13.1-19.8-13.2-19.9C-24.6,70-28.9,64.8-31.5,62.8z"/>
	<path class="st4" d="M-19.9,65.8c0,0-1.2-3.5,3.9-5c0,0-1.9-7.5,1.7-10.8c3.6-3.3,1.6,5.2,4.1,10.4c2.4,5.2,5.2,10.2,7.7,12.9
		c2.6,2.7,4.8,5.7,4.8,5.7l-13.7,11c0,0-4.7-7.1-11.9-18.1c-7.2-11-13.6-11.3-12.6-14c1.2-3.3,9.7,4.5,9.7,4.5"/>
	<path class="st5" d="M12,85.9c-2-1.4-4-3-5.7-4.8C2.2,77-1.5,72.6-4.9,67.9l-14.9,12.7c0,0,16.2,25.2,26,28.3
		c9.7,3.1,32-22.2,32-22.2l1.7-33.2c-2.7,1.5-5.2,3.3-7.5,5.3c-5.5,5-15.2,13.9-26.1,22.4"/>
	<path class="st4" d="M12,85.9c-2-1.4-4-3-5.7-4.8C2.2,77-1.5,72.6-4.9,67.9l-14.9,12.7c0,0,16.2,25.2,26,28.3
		c9.7,3.1,32-22.2,32-22.2l1.7-33.2c-2.7,1.5-5.2,3.3-7.5,5.3c-5.5,5-15.2,13.9-26.1,22.4"/>
	<path class="st6" d="M0,74.2c-2.9-3.5-4.8-6.3-4.8-6.3l-14.9,12.7c0,0,1.9,2.9,4.8,6.9L0,74.2z"/>
	<path class="st5" d="M80.3,116.7v-6.2c0-32.8-14-59.4-31.2-59.4c-17.2,0-31.2,26.6-31.2,59.4v6.2H80.3z"/>
	<path class="st4" d="M49.1,66v50.7"/>
	<path class="st6" d="M49.2,66.5l12-10.8c-3.7-3-7.8-4.6-12-4.6c-4.1,0-8.4,1.8-12,4.6L49.2,66.5z"/>
	<path class="st4" d="M22.5,79.8c-3,9.9-4.6,20.3-4.5,30.7v6.3h62.3v-6.2c0.1-10.6-1.5-21.2-4.7-31.4"/>
	<path class="st4" d="M61.2,55.7c-3.7-2.9-7.8-4.6-12-4.6s-8.3,1.6-12,4.5"/>
	<path class="st7" d="M61.5,58.9l-6.6-10c-1.7-1.2-3.7-1.9-5.8-1.9c-2.1,0-4.1,0.7-5.8,1.9l-6.6,10c-0.7,1.1-1,2.4-0.7,3.7
		s1,2.4,2.1,3.1l1,0.6c1.1,0.7,2.4,1,3.7,0.7c1.3-0.3,2.4-1,3.1-2.1l3.3-4.9l3.3,4.9c0.7,1.1,1.9,1.9,3.1,2.1c1.3,0.3,2.6,0,3.7-0.7
		l0.9-0.6c0.5-0.4,1-0.8,1.4-1.4c0.4-0.5,0.6-1.1,0.7-1.8c0.1-0.6,0.1-1.3,0-1.9C62.1,60,61.9,59.4,61.5,58.9z"/>
	<path class="st7" d="M50.1,57.7c0,0.2-0.1,0.4-0.2,0.5c-0.1,0.2-0.3,0.3-0.4,0.4c-0.2,0.1-0.4,0.1-0.6,0.1c-0.2,0-0.4-0.1-0.5-0.3
		c-0.1-0.1-0.2-0.3-0.3-0.5c0-0.2,0-0.4,0.1-0.6c0.1-0.2,0.2-0.3,0.4-0.4c0.2-0.1,0.3-0.2,0.5-0.2c0.3,0,0.5,0.1,0.7,0.3
		C50,57.2,50.1,57.4,50.1,57.7z"/>
	<path class="st8" d="M62.2,34.2c0,1-0.3,2-0.9,2.9c-0.6,0.9-1.4,1.5-2.3,1.9c-0.9,0.4-2,0.5-3,0.3c-1-0.2-1.9-0.7-2.7-1.4
		c-0.7-0.7-1.2-1.6-1.4-2.6c-0.2-1-0.1-2,0.3-3c0.4-0.9,1.1-1.8,1.9-2.3C55,29.3,56,29,57.1,29c0.7,0,1.3,0.1,2,0.4
		c0.6,0.3,1.2,0.6,1.7,1.1c0.5,0.5,0.9,1,1.1,1.7C62.1,32.8,62.2,33.5,62.2,34.2L62.2,34.2z"/>
	<path class="st6" d="M39.7,18.2h6.5c4.3,0,7.9,4,7.9,8.9v10.1c0,0.3,0,0.6,0,0.8c0.1,0.3,0.1,0.6,0.1,0.9v12.6
		c0,1.1-0.4,2.1-1.2,2.8c-0.8,0.7-1.8,1.2-2.8,1.2h-2.6c-1.1,0-2.1-0.4-2.8-1.2s-1.2-1.8-1.2-2.8v-5.4h-3.8c-4.3,0-7.9-4-7.9-8.9
		V27.2C31.9,22.3,35.4,18.2,39.7,18.2z"/>
	<path d="M52.4,34l-1.2-7.9c0,0-21.8,2.7-28.9-7.9c-7.1-10.6,0.4-14.8,4-14.2s7.8,5.8,7.8,5.8s-3.4-4.6,0-5.3c3.4-0.7,7,2.8,9,6.4
		c0,0,14.4-1.3,19.2,7.4c4.8,8.7,0.9,14.9-8,23.9l-0.6-5L52.4,34z"/>
	<path class="st9" d="M50.4,35.5c0,0.7-0.2,1.5-0.6,2.1c-0.4,0.6-1,1.1-1.7,1.4c-0.7,0.3-1.4,0.4-2.2,0.2c-0.7-0.1-1.4-0.5-1.9-1
		c-0.5-0.5-0.9-1.2-1-1.9c-0.1-0.7-0.1-1.5,0.2-2.2c0.3-0.7,0.8-1.3,1.4-1.7s1.3-0.6,2.1-0.6c0.5,0,1,0.1,1.4,0.3
		c0.5,0.2,0.9,0.5,1.2,0.8c0.3,0.3,0.6,0.8,0.8,1.2C50.3,34.6,50.4,35.1,50.4,35.5z"/>
	<path class="st9" d="M32.9,32.6c-0.2,0-0.4,0-0.7,0.1v3.9c0,0.6,0,1.1,0.1,1.7c0.2,0,0.4,0,0.6,0c0.4,0,0.8,0,1.1-0.2
		c0.4-0.1,0.7-0.3,1-0.6c0.3-0.3,0.5-0.6,0.7-0.9c0.2-0.4,0.2-0.7,0.2-1.1c0-0.4-0.1-0.8-0.2-1.1c-0.2-0.4-0.4-0.7-0.7-0.9
		c-0.3-0.3-0.6-0.5-1-0.6C33.6,32.6,33.3,32.5,32.9,32.6L32.9,32.6z"/>
	<path class="st10" d="M43.7,30.3c0,0.3-0.1,0.5-0.2,0.7c-0.1,0.2-0.4,0.4-0.6,0.5c-0.2,0.1-0.5,0.1-0.8,0.1
		c-0.3-0.1-0.5-0.2-0.7-0.4s-0.3-0.4-0.4-0.7c-0.1-0.3,0-0.5,0.1-0.8c0.1-0.2,0.3-0.5,0.5-0.6c0.2-0.1,0.5-0.2,0.7-0.2
		c0.4,0,0.7,0.1,0.9,0.4C43.5,29.6,43.7,30,43.7,30.3z"/>
	<path class="st10" d="M35,30.1c0,0.2,0,0.3-0.1,0.5c-0.1,0.1-0.1,0.3-0.2,0.4s-0.2,0.2-0.4,0.3c-0.1,0.1-0.3,0.1-0.5,0.1
		s-0.3,0-0.5-0.1c-0.1-0.1-0.3-0.2-0.4-0.3c-0.1-0.1-0.2-0.3-0.2-0.4c-0.1-0.1-0.1-0.3-0.1-0.5c0-0.3,0.2-0.5,0.4-0.7
		c0.2-0.2,0.5-0.3,0.8-0.3c0.3,0,0.6,0.1,0.8,0.3C34.8,29.6,35,29.9,35,30.1z"/>
	<path class="st11" d="M36.3,35.6c0,0,0.7,1.9,2.1,2.1c1.4,0.1,2.5-1.4,2.6-2.6L36.3,35.6z"/>
	<path class="st10" d="M35.8,35.7c0.3,0.8,0.7,1.4,1.3,1.9c0.3,0.2,0.6,0.3,0.9,0.4c0.3,0.1,0.6,0.1,0.9,0c0.3-0.1,0.6-0.2,0.9-0.3
		c0.3-0.2,0.5-0.4,0.7-0.7c0.5-0.6,0.7-1.3,0.8-2c0-0.1,0-0.2-0.1-0.3c-0.1-0.1-0.2-0.1-0.3-0.1l-4.1,0.5l-0.6,0.1
		c-0.1,0-0.2,0-0.3,0.1c-0.1,0.1-0.1,0.2-0.1,0.3C35.8,35.6,35.8,35.7,35.8,35.7c0,0.1,0,0.2,0.1,0.2c0,0,0.1,0.1,0.1,0.1
		c0.1,0,0.1,0,0.2,0l4.1-0.5l0.6-0.1L40.4,35c0,0.5-0.2,0.9-0.5,1.3c-0.3,0.4-0.7,0.7-1.1,0.8C38,37.4,37.3,36.7,37,36
		c-0.1-0.2-0.2-0.3-0.2-0.5c0-0.1,0,0.1,0,0v-0.1c0,0,0,0,0-0.1C36.5,34.9,35.6,35.1,35.8,35.7z"/>
	<path class="st12" d="M49.1,29.5c0,2.9-2.1,5.2-4.6,5.2c-2.6,0-4.6-2.3-4.6-5.2s2.1-5.2,4.6-5.2C47,24.4,49.1,26.7,49.1,29.5z"/>
	<path class="st12" d="M32.9,33.5c2.1,0,3.8-2.1,3.8-4.6s-1.7-4.6-3.8-4.6c-2.1,0-3.8,2.1-3.8,4.6S30.8,33.5,32.9,33.5z"/>
	<path class="st13" d="M38.2,29v4.5l-2.4-1.4L38.2,29z"/>
	<path class="st12" d="M36.6,30.3c0,0,1.9-0.8,3.2,0.3"/>
	<path class="st0" d="M62.2,34.2c0,1-0.3,2-0.9,2.9c-0.6,0.9-1.4,1.5-2.3,1.9c-0.9,0.4-2,0.5-3,0.3c-1-0.2-1.9-0.7-2.7-1.4
		c-0.7-0.7-1.2-1.6-1.4-2.6c-0.2-1-0.1-2,0.3-3c0.4-0.9,1.1-1.8,1.9-2.3C55,29.3,56,29,57.1,29c0.7,0,1.3,0.1,2,0.4
		c0.6,0.3,1.2,0.6,1.7,1.1c0.5,0.5,0.9,1,1.1,1.7C62.1,32.8,62.2,33.5,62.2,34.2z"/>
	<path class="st14" d="M54.8,34.8c0-0.1,0-0.2,0-0.3s0-0.1,0-0.2s0-0.1,0-0.1c0,0,0,0.1,0,0c0-0.1,0.1-0.3,0.1-0.4
		c0-0.1,0-0.1,0.1-0.2c0,0,0-0.1,0-0.1v-0.1c0-0.1,0,0,0,0c0.1-0.2,0.2-0.3,0.3-0.5v0c0-0.1,0.1,0,0,0s0.1-0.1,0.1-0.1
		c0.1-0.1,0.1-0.1,0.2-0.2c0.1,0,0.1,0,0,0c0,0,0.1,0,0.1-0.1c0.1-0.1,0.2-0.1,0.3-0.2c0,0,0.1,0,0,0H56l0.2-0.1c0.1,0,0.1,0,0.2,0
		h0.1h0.1c0.1,0,0,0,0,0c0.1,0,0.2,0,0.2,0H57c0.2,0,0.4,0,0.5,0c0.1,0,0.3-0.1,0.4-0.2c0.1-0.1,0.2-0.2,0.2-0.4
		c0-0.1-0.1-0.3-0.2-0.4c-0.1-0.1-0.2-0.2-0.4-0.2c-0.6-0.1-1.1,0-1.7,0.1c-0.5,0.2-1,0.5-1.4,0.9c-0.5,0.6-0.8,1.4-0.8,2.2
		c0,0.2,0,0.3,0,0.5c0,0.1,0.1,0.3,0.2,0.4s0.2,0.2,0.4,0.2s0.3-0.1,0.4-0.2S54.8,35,54.8,34.8L54.8,34.8z"/>
</g>
</svg>
