<svg width="300" height="195" viewBox="0 0 300 195" fill="none" xmlns="http://www.w3.org/2000/svg">
<mask id="mask0" mask-type="alpha" maskUnits="userSpaceOnUse" x="0" y="0" width="300" height="195">
<rect width="300" height="195" rx="14" fill="#C4C4C4"/>
</mask>
<g mask="url(#mask0)">
<path d="M196.773 103.291C196.773 103.291 255.112 126.091 286 224.699L246.503 244.282L217.271 169.64L196.773 103.291Z" fill="#63C1C5" stroke="black" stroke-miterlimit="10"/>
<path d="M22.9392 122.811C22.9392 122.811 13.0059 116.425 14.2357 113.35C14.3768 112.957 14.6063 112.602 14.9066 112.311C15.2068 112.021 15.5697 111.803 15.9674 111.675C16.365 111.547 16.7867 111.512 17.2 111.573C17.6132 111.634 18.007 111.789 18.3509 112.026C18.3509 112.026 15.3867 110.197 16.7742 108.194C17.0851 107.644 17.5767 107.218 18.1656 106.988C18.7546 106.758 19.4049 106.739 20.0065 106.933C20.0065 106.933 17.9094 103.78 19.9277 102.707C21.5273 102.032 23.3015 101.888 24.9889 102.297C24.4601 101.197 24.0835 100.03 23.8695 98.8287C23.8695 97.93 25.2412 95.9275 29.4826 96.9208C33.724 97.9142 42.7744 102.944 45.8332 104.489C48.8921 106.034 52.3294 109.661 52.424 108.494C52.5186 107.327 53.8272 99.8851 56.7284 97.7092C59.6296 95.5333 60.7649 95.1865 61.2852 99.2859C61.8055 103.385 61.6635 114.927 67.2451 123.41C72.8267 131.893 74.7661 137.6 80.6789 144.412C86.5916 151.223 89.3036 154.755 89.3036 154.755L62.6569 176.451C62.6569 176.451 36.7986 137.522 36.6094 137.269C36.4202 137.017 27.9847 126.768 22.9392 122.811Z" fill="white"/>
<path d="M17.4369 111.838C17.4369 111.838 14.1415 106.445 20.3223 107.108C26.5031 107.77 34.9228 113.509 38.975 116.568" stroke="black" stroke-miterlimit="10"/>
<path d="M45.7229 128.739C45.7229 128.739 43.4524 121.817 53.3227 118.948C53.3227 118.948 49.5701 104.253 56.6969 97.7406C63.8237 91.2288 59.945 108.005 64.7067 118.238C69.4684 128.471 74.8765 138.357 79.9536 143.734C85.0306 149.11 89.4139 154.992 89.4139 154.992L62.452 176.64C62.452 176.64 53.2439 162.639 39.0376 140.927C24.8313 119.216 12.2333 118.727 14.2042 113.382C16.5535 106.823 33.2983 122.274 33.2983 122.274" stroke="black" stroke-miterlimit="10"/>
<path d="M20.3218 107.108C20.3218 107.108 17.1684 103.182 21.189 102.157C22.0069 102.002 22.8465 102.002 23.6644 102.157C28.5523 102.787 36.6566 106.887 42.5851 111.459" stroke="black" stroke-miterlimit="10"/>
<path d="M52.4399 109.63C52.4399 109.63 40.8352 98.7976 27.5907 97.0159C22.8605 96.3694 23.0024 101.131 27.7168 103.118" stroke="black" stroke-miterlimit="10"/>
<path d="M108.682 168.425C104.661 165.605 100.894 162.44 97.424 158.964C89.3825 150.891 82.0008 142.186 75.3499 132.933L46.0386 158.034C46.0386 158.034 77.9988 207.638 97.1876 213.834C116.376 220.031 160.257 170.143 160.257 170.143L163.678 104.615C158.369 107.55 153.386 111.039 148.81 115.021C137.93 124.828 118.946 142.361 97.424 159.075" fill="#63C1C5"/>
<path d="M108.682 168.425C104.661 165.605 100.894 162.44 97.424 158.964C89.3825 150.891 82.0008 142.186 75.3499 132.933L46.0386 158.034C46.0386 158.034 77.9988 207.638 97.1876 213.834C116.376 220.031 160.257 170.143 160.257 170.143L163.678 104.615C158.369 107.55 153.386 111.039 148.81 115.021C137.93 124.828 118.946 142.361 97.424 159.075" stroke="black" stroke-miterlimit="10"/>
<path d="M84.8733 145.342C79.1498 138.451 75.3182 133.012 75.3182 133.012L46.007 158.113C46.007 158.113 49.728 163.868 55.3727 171.72L84.8733 145.342Z" fill="white" stroke="black" stroke-miterlimit="10"/>
<path d="M77.6832 142.535C77.6863 142.932 77.5716 143.32 77.3535 143.652C77.1354 143.983 76.8238 144.242 76.4581 144.396C76.0925 144.55 75.6894 144.592 75.2999 144.517C74.9105 144.441 74.5521 144.252 74.2705 143.972C73.9889 143.693 73.7967 143.336 73.7181 142.947C73.6396 142.558 73.6783 142.155 73.8294 141.788C73.9805 141.421 74.2371 141.108 74.5667 140.887C74.8964 140.666 75.2841 140.548 75.6808 140.548C75.9431 140.546 76.2031 140.596 76.4459 140.695C76.6888 140.794 76.9096 140.94 77.0958 141.125C77.2819 141.309 77.4298 141.529 77.5306 141.771C77.6314 142.013 77.6832 142.273 77.6832 142.535Z" fill="white" stroke="black" stroke-miterlimit="10"/>
<path d="M243.271 229.177V216.91C243.271 152.265 215.773 99.8542 181.778 99.8542C147.784 99.8542 120.286 152.265 120.286 216.91V229.177H243.271Z" fill="#63C1C5"/>
<path d="M181.637 129.133V229.113" stroke="black" stroke-miterlimit="10"/>
<path d="M181.842 130.174L205.492 108.825C198.208 103.007 190.198 99.7903 181.842 99.7903C173.721 99.7903 165.239 103.369 158.191 108.809L181.842 130.174Z" fill="white" stroke="black" stroke-miterlimit="10"/>
<path d="M129.242 156.363C123.248 175.959 120.271 196.354 120.412 216.846V229.176H243.271V216.909C243.443 195.941 240.33 175.075 234.047 155.07" stroke="black" stroke-miterlimit="10"/>
<path d="M205.54 108.809C198.24 103.007 190.246 99.7903 181.889 99.7903C173.532 99.7903 165.554 102.944 158.238 108.746" stroke="black" stroke-miterlimit="10"/>
<path d="M206.218 115.149L193.225 95.5185C189.872 93.1003 185.842 91.799 181.707 91.799C177.573 91.799 173.543 93.1003 170.189 95.5185L157.118 115.149C155.689 117.304 155.172 119.937 155.68 122.473C156.189 125.008 157.681 127.239 159.83 128.677L161.707 129.923C163.862 131.352 166.495 131.869 169.031 131.361C171.566 130.852 173.797 129.36 175.235 127.211L181.699 117.482L188.18 127.211C189.615 129.363 191.846 130.858 194.383 131.367C196.919 131.875 199.554 131.356 201.708 129.923L203.569 128.677C204.631 127.963 205.543 127.047 206.251 125.98C206.959 124.914 207.45 123.718 207.696 122.462C207.942 121.205 207.938 119.913 207.685 118.658C207.431 117.403 206.932 116.211 206.218 115.149Z" fill="#FEFEFF" stroke="black" stroke-miterlimit="10"/>
<path d="M183.765 112.83C183.765 113.204 183.654 113.57 183.447 113.881C183.239 114.192 182.943 114.435 182.597 114.578C182.252 114.721 181.871 114.759 181.504 114.686C181.137 114.613 180.8 114.432 180.535 114.168C180.271 113.903 180.091 113.566 180.018 113.199C179.945 112.832 179.982 112.452 180.125 112.106C180.268 111.76 180.511 111.465 180.822 111.257C181.133 111.049 181.499 110.938 181.873 110.938C182.375 110.938 182.856 111.137 183.211 111.492C183.566 111.847 183.765 112.328 183.765 112.83Z" fill="#FEFEFF" stroke="black" stroke-miterlimit="10"/>
<path d="M207.621 66.4435C207.636 68.4613 207.052 70.4383 205.942 72.1236C204.833 73.809 203.248 75.1268 201.388 75.9098C199.528 76.6928 197.478 76.9058 195.497 76.5217C193.516 76.1377 191.693 75.1739 190.261 73.7526C188.829 72.3313 187.851 70.5165 187.451 68.5386C187.052 66.5607 187.249 64.5086 188.017 62.6428C188.786 60.7771 190.091 59.1816 191.768 58.0589C193.445 56.9361 195.417 56.3367 197.435 56.3367C198.768 56.3304 200.089 56.587 201.322 57.0918C202.555 57.5965 203.677 58.3395 204.623 59.2782C205.569 60.2169 206.321 61.3329 206.835 62.5624C207.35 63.7919 207.617 65.1107 207.621 66.4435V66.4435Z" stroke="black" stroke-width="2" stroke-miterlimit="10"/>
<path d="M163.267 35.082H176.054C184.569 35.082 191.538 42.9657 191.538 52.694V72.545C191.538 73.0969 191.538 73.6487 191.538 74.1217C191.683 74.7153 191.757 75.324 191.759 75.935V100.847C191.73 102.945 190.877 104.948 189.384 106.423C187.892 107.898 185.879 108.727 183.78 108.731H178.703C176.606 108.727 174.595 107.897 173.105 106.422C171.615 104.947 170.766 102.944 170.741 100.847V90.157H163.267C154.753 90.157 147.784 82.2734 147.784 72.545V52.694C147.752 43.013 154.721 35.082 163.267 35.082Z" fill="white" stroke="black" stroke-miterlimit="10"/>
<path d="M188.149 66.1271L185.783 50.5806C185.783 50.5806 142.77 55.973 128.848 35.0814C114.925 14.1898 129.557 5.92774 136.731 7.11028C143.906 8.29282 152.105 18.4469 152.105 18.4469C152.105 18.4469 145.498 9.47537 152.105 8.05631C158.711 6.63726 165.98 13.496 169.78 20.5755C169.78 20.5755 198.161 17.9424 207.621 35.0814C217.081 52.2204 209.434 64.4085 191.854 82.1151L190.687 72.2133L188.149 66.1271Z" fill="black"/>
<path d="M184.285 69.1715C184.285 70.6247 183.854 72.0452 183.047 73.2535C182.24 74.4618 181.092 75.4036 179.749 75.9597C178.407 76.5158 176.929 76.6613 175.504 76.3778C174.079 76.0943 172.77 75.3945 171.742 74.367C170.715 73.3394 170.015 72.0302 169.731 70.6049C169.448 69.1796 169.593 67.7023 170.149 66.3597C170.706 65.0171 171.647 63.8696 172.856 63.0622C174.064 62.2549 175.484 61.8239 176.938 61.8239C177.903 61.8219 178.859 62.0105 179.752 62.379C180.644 62.7475 181.455 63.2886 182.138 63.9713C182.82 64.654 183.362 65.4648 183.73 66.3572C184.099 67.2496 184.287 68.206 184.285 69.1715Z" fill="#E4B0C8"/>
<path d="M149.739 63.3052C149.303 63.3013 148.868 63.3544 148.446 63.4629V71.0785C148.364 72.1882 148.401 73.3036 148.556 74.4054C148.95 74.4294 149.345 74.4294 149.739 74.4054C150.498 74.4457 151.257 74.331 151.97 74.0683C152.684 73.8057 153.336 73.4005 153.888 72.8775C154.439 72.3545 154.878 71.7246 155.178 71.0263C155.479 70.3281 155.633 69.5759 155.633 68.8159C155.633 68.0558 155.479 67.3037 155.178 66.6054C154.878 65.9071 154.439 65.2773 153.888 64.7543C153.336 64.2313 152.684 63.8261 151.97 63.5634C151.257 63.3007 150.498 63.1861 149.739 63.2264V63.3052Z" fill="#E4B0C8"/>
<path d="M171.025 58.8896C171.028 59.4079 170.878 59.9155 170.592 60.348C170.306 60.7805 169.899 61.1184 169.421 61.3189C168.943 61.5194 168.416 61.5735 167.907 61.4743C167.398 61.3751 166.93 61.1271 166.563 60.7617C166.195 60.3963 165.944 59.9299 165.842 59.4218C165.74 58.9136 165.791 58.3866 165.988 57.9074C166.186 57.4282 166.521 57.0185 166.952 56.7302C167.383 56.4419 167.89 56.288 168.408 56.288C169.099 56.288 169.763 56.5615 170.253 57.049C170.744 57.5364 171.021 58.1981 171.025 58.8896Z" fill="#141414"/>
<path d="M153.918 58.5275C153.944 58.8362 153.905 59.147 153.805 59.4402C153.704 59.7333 153.544 60.0025 153.335 60.2306C153.125 60.4587 152.87 60.6407 152.587 60.7653C152.303 60.8898 151.996 60.9542 151.687 60.9542C151.377 60.9542 151.07 60.8898 150.786 60.7653C150.503 60.6407 150.248 60.4587 150.038 60.2306C149.829 60.0025 149.669 59.7333 149.568 59.4402C149.468 59.147 149.429 58.8362 149.455 58.5275C149.502 57.9682 149.758 57.4469 150.171 57.067C150.584 56.6871 151.125 56.4763 151.687 56.4763C152.248 56.4763 152.789 56.6871 153.202 57.067C153.615 57.4469 153.87 57.9682 153.918 58.5275Z" fill="#141414"/>
<path d="M156.409 69.2168C156.409 69.2168 157.718 73.0483 160.493 73.3163C163.268 73.5844 165.459 70.494 165.601 68.0974L156.409 69.2168Z" fill="#F7F6F6"/>
<path d="M155.557 69.4543C156.051 70.9607 156.971 72.2915 158.206 73.2857C158.716 73.6504 159.293 73.9101 159.904 74.0497C160.516 74.1893 161.148 74.206 161.766 74.0989C162.384 73.9918 162.974 73.763 163.502 73.4258C164.031 73.0886 164.487 72.6498 164.844 72.1347C165.771 70.9829 166.322 69.5737 166.421 68.0983C166.421 67.8641 166.328 67.6395 166.162 67.4739C165.997 67.3084 165.772 67.2153 165.538 67.2153L157.481 68.2087L156.346 68.3506C156.115 68.3545 155.895 68.4466 155.731 68.608C155.567 68.7693 155.471 68.9876 155.463 69.2178C155.463 69.3337 155.486 69.4485 155.53 69.5557C155.574 69.6628 155.639 69.7601 155.721 69.8421C155.803 69.9241 155.901 69.9892 156.008 70.0335C156.115 70.0779 156.23 70.1007 156.346 70.1007L164.403 69.1232L165.538 68.9813L164.655 68.0983C164.587 69.0337 164.254 69.9305 163.696 70.6842C163.137 71.4378 162.376 72.0174 161.502 72.3555C159.799 72.8127 158.569 71.4883 157.796 70.1323C157.628 69.8302 157.475 69.5197 157.339 69.202C157.339 69.0601 157.339 69.3754 157.339 69.202V69.0916C157.346 69.0499 157.346 69.0072 157.339 68.9655C156.961 67.9249 155.195 68.3506 155.557 69.4543Z" fill="#141414"/>
<path d="M181.637 57.3138C181.637 62.9585 177.553 67.5152 172.523 67.5152C167.493 67.5152 163.394 62.9585 163.394 57.3138C163.394 51.6691 167.478 47.1282 172.523 47.1282C177.569 47.1282 181.637 51.748 181.637 57.3138Z" stroke="#672ED6" stroke-miterlimit="10"/>
<path d="M149.787 65.213C153.932 65.213 157.292 61.1328 157.292 56.0996C157.292 51.0663 153.932 46.9861 149.787 46.9861C145.642 46.9861 142.281 51.0663 142.281 56.0996C142.281 61.1328 145.642 65.213 149.787 65.213Z" stroke="#672ED6" stroke-miterlimit="10"/>
<path d="M160.225 56.3365V65.1977L155.589 62.3754L160.225 56.3365Z" fill="#D96980"/>
<path d="M157.056 58.8907C157.056 58.8907 160.729 57.314 163.362 59.5529" stroke="#672ED6" stroke-miterlimit="10"/>
<path d="M207.621 66.4435C207.636 68.4613 207.052 70.4383 205.942 72.1236C204.833 73.809 203.248 75.1268 201.388 75.9098C199.528 76.6928 197.478 76.9058 195.497 76.5217C193.516 76.1377 191.693 75.1739 190.261 73.7526C188.829 72.3313 187.851 70.5165 187.451 68.5386C187.052 66.5607 187.249 64.5086 188.017 62.6428C188.786 60.7771 190.091 59.1816 191.768 58.0589C193.445 56.9361 195.417 56.3367 197.435 56.3367C198.768 56.3304 200.089 56.587 201.322 57.0918C202.555 57.5965 203.677 58.3395 204.623 59.2782C205.569 60.2169 206.321 61.3329 206.835 62.5624C207.35 63.7919 207.617 65.1107 207.621 66.4435Z" fill="white"/>
<path d="M193.004 67.7813C193.004 67.5606 193.004 67.3399 193.004 67.1191C193.004 66.8984 193.004 66.9141 193.004 66.8195C193.004 66.7249 193.004 66.7092 193.004 66.6461C193.004 66.583 193.004 66.9299 193.004 66.6461C193.045 66.3643 193.103 66.0853 193.178 65.8104C193.212 65.6665 193.255 65.5244 193.304 65.3847C193.297 65.306 193.297 65.2269 193.304 65.1482V65.0378C193.304 64.8486 193.304 65.0378 193.304 65.0378C193.493 64.7383 193.619 64.3914 193.824 64.0918V64.013C193.919 63.8868 193.935 64.013 193.824 64.013C193.714 64.013 193.95 63.8711 193.998 63.808C194.126 63.6636 194.263 63.5267 194.408 63.3981C194.518 63.3034 194.581 63.3981 194.408 63.3981C194.492 63.3548 194.572 63.3019 194.644 63.2404C194.822 63.1167 195.013 63.0111 195.212 62.925C195.212 62.925 195.432 62.8304 195.212 62.925H195.322L195.685 62.8147C195.817 62.7682 195.955 62.7365 196.095 62.7201H196.221H196.363C196.489 62.7201 196.457 62.7201 196.363 62.7201C196.514 62.6959 196.669 62.6959 196.82 62.7201H197.309C197.666 62.6965 198.024 62.6965 198.381 62.7201C198.668 62.716 198.943 62.6001 199.146 62.3969C199.349 62.1937 199.465 61.9194 199.469 61.6321C199.457 61.3473 199.339 61.0773 199.137 60.8757C198.936 60.6742 198.666 60.5558 198.381 60.5442C197.282 60.3597 196.155 60.4488 195.099 60.8035C194.043 61.1583 193.091 61.7678 192.326 62.5782C191.386 63.8073 190.837 65.2904 190.75 66.8353C190.726 67.1344 190.726 67.4349 190.75 67.734C190.75 68.0226 190.864 68.2993 191.068 68.5033C191.272 68.7074 191.549 68.822 191.837 68.822C192.126 68.822 192.403 68.7074 192.607 68.5033C192.811 68.2993 192.925 68.0226 192.925 67.734L193.004 67.7813Z" fill="#090909"/>
</g>
</svg>
