<svg width="596" height="560" viewBox="0 0 596 560" fill="none" xmlns="http://www.w3.org/2000/svg">
<g opacity="0.3">
<rect x="226.525" y="245.49" width="87.4633" height="130.143" rx="9" transform="rotate(-30 226.525 245.49)" stroke="#E94B43" stroke-width="2"/>
<rect x="199.931" y="238.031" width="118.652" height="176.106" rx="9" transform="rotate(-33 199.931 238.031)" stroke="#E94B43" stroke-width="2"/>
<rect x="172.914" y="233.957" width="148.2" height="220.427" rx="9" transform="rotate(-36 172.914 233.957)" stroke="#E94B43" stroke-width="2"/>
<rect x="144.758" y="231.986" width="177.747" height="266.39" rx="9" transform="rotate(-39 144.758 231.986)" stroke="#E94B43" stroke-width="2"/>
<rect x="116.345" y="233.445" width="207.747" height="311.185" rx="9" transform="rotate(-42 116.345 233.445)" stroke="#E94B43" stroke-width="2"/>
<rect x="87.5978" y="237.739" width="237.906" height="356.216" rx="9" transform="rotate(-45 87.5978 237.739)" stroke="#E94B43" stroke-width="2"/>
<rect x="59.0407" y="244.954" width="267.877" height="400.967" rx="9" transform="rotate(-48 59.0407 244.954)" stroke="#E94B43" stroke-width="2"/>
<rect x="30.1828" y="255.003" width="298.467" height="446.643" rx="9" transform="rotate(-51 30.1828 255.003)" stroke="#E94B43" stroke-width="2"/>
<rect x="1.3968" y="267.97" width="329.503" height="492.983" rx="9" transform="rotate(-54 1.3968 267.97)" stroke="#E94B43" stroke-width="2"/>
</g>
</svg>
