<svg width="585" height="397" viewBox="0 0 585 397" fill="none" xmlns="http://www.w3.org/2000/svg">
<path d="M138.062 22.4575V38.9375" stroke="#672ED6" stroke-width="0.75" stroke-linecap="round" stroke-linejoin="round"/>
<path d="M129.812 30.707H146.292" stroke="#672ED6" stroke-width="0.75" stroke-linecap="round" stroke-linejoin="round"/>
<path d="M110.25 303V319.48" stroke="#EEDA36" stroke-width="0.75" stroke-linecap="round" stroke-linejoin="round"/>
<path d="M102 311.232H118.498" stroke="#EEDA36" stroke-width="0.75" stroke-linecap="round" stroke-linejoin="round"/>
<path d="M537.664 63.3288C540.793 63.3288 543.329 60.7928 543.329 57.6644C543.329 54.536 540.793 52 537.664 52C534.536 52 532 54.536 532 57.6644C532 60.7928 534.536 63.3288 537.664 63.3288Z" stroke="#EEDA36" stroke-width="0.75" stroke-linecap="round" stroke-linejoin="round"/>
<path d="M31.4119 31L27.2873 46.1785L23.1811 61.3569L12.0905 50.2114L1 39.0475L16.2151 35.0329L31.4119 31Z" stroke="#D96980" stroke-miterlimit="10"/>
<path d="M68.7707 126.597C68.7707 126.597 66.7543 140.529 57.2952 141.977C47.8362 143.425 39.1654 142.802 44.4632 166.761" stroke="#EEDA36" stroke-miterlimit="10"/>
<path d="M518.653 188.347C546.051 140.92 528.941 79.7578 480.436 51.7367C431.93 23.7156 370.399 39.447 343.001 86.8737" stroke="#C1C0FF" stroke-miterlimit="10" stroke-dasharray="4 4"/>
<path d="M340.265 310.428C312.879 357.862 251.352 373.609 202.839 345.601C154.327 317.592 137.201 256.434 164.587 209" stroke="#C1C0FF" stroke-miterlimit="10" stroke-dasharray="4 4"/>
<path d="M407.996 104.5H572.716C579.065 104.5 584.212 109.647 584.212 115.996V222.004C584.212 228.353 579.065 233.5 572.716 233.5H407.996C401.647 233.5 396.5 228.353 396.5 222.004V115.996C396.5 109.647 401.647 104.5 407.996 104.5Z" fill="#F1F8F8" stroke="black"/>
<path d="M560.215 111.569H420.478C413.853 111.569 408.482 116.94 408.482 123.565V198.668C408.482 205.293 413.853 210.664 420.478 210.664H560.215C566.84 210.664 572.211 205.293 572.211 198.668V123.565C572.211 116.94 566.84 111.569 560.215 111.569Z" fill="white" stroke="black" stroke-miterlimit="10"/>
<path d="M494.821 222.035C494.822 222.888 494.562 223.721 494.077 224.422C493.591 225.123 492.903 225.659 492.104 225.957C491.267 226.273 490.351 226.313 489.489 226.071C488.628 225.829 487.866 225.318 487.315 224.613C486.765 223.907 486.454 223.044 486.428 222.15C486.403 221.255 486.664 220.376 487.174 219.641C487.683 218.905 488.414 218.351 489.261 218.061C490.107 217.77 491.024 217.758 491.878 218.025C492.732 218.292 493.478 218.826 494.007 219.547C494.537 220.269 494.822 221.14 494.821 222.035C494.85 222.267 494.963 222.481 495.139 222.636C495.315 222.79 495.541 222.876 495.775 222.876C496.009 222.876 496.235 222.79 496.41 222.636C496.586 222.481 496.699 222.267 496.728 222.035C496.73 220.777 496.343 219.549 495.62 218.519C494.897 217.49 493.874 216.708 492.69 216.283C491.506 215.857 490.219 215.807 489.006 216.141C487.793 216.474 486.712 217.174 485.912 218.145C485.112 219.116 484.632 220.311 484.537 221.565C484.441 222.82 484.736 224.073 485.38 225.154C486.025 226.234 486.987 227.089 488.136 227.602C489.285 228.115 490.564 228.26 491.799 228.018C493.186 227.746 494.436 227 495.335 225.909C496.234 224.818 496.727 223.449 496.728 222.035C496.699 221.803 496.586 221.589 496.41 221.435C496.235 221.28 496.009 221.195 495.775 221.195C495.541 221.195 495.315 221.28 495.139 221.435C494.963 221.589 494.85 221.803 494.821 222.035Z" fill="#B5221B"/>
<path d="M120.916 53.5H380.668C390.839 53.5 399.085 61.7453 399.085 71.9164V239.084C399.085 249.255 390.839 257.5 380.668 257.5H120.916C110.745 257.5 102.5 249.255 102.5 239.084V71.9164C102.5 61.7453 110.745 53.5 120.916 53.5Z" fill="#F1F8F8" stroke="black"/>
<path d="M360.955 64.9365H140.6C130.153 64.9365 121.684 73.4057 121.684 83.8529V202.285C121.684 212.732 130.153 221.202 140.6 221.202H360.955C371.402 221.202 379.871 212.732 379.871 202.285V83.8529C379.871 73.4057 371.402 64.9365 360.955 64.9365Z" fill="white" stroke="black" stroke-miterlimit="10"/>
<path d="M360.955 64.936H140.6C130.153 64.936 121.684 73.4052 121.684 83.8525V202.285C121.684 212.732 130.153 221.201 140.6 221.201H360.955C371.402 221.201 379.871 212.732 379.871 202.285V83.8525C379.871 73.4052 371.402 64.936 360.955 64.936Z" fill="white" stroke="black" stroke-miterlimit="10"/>
<path d="M257.833 239.132C257.835 240.477 257.425 241.79 256.66 242.896C255.894 244.001 254.809 244.846 253.549 245.317C252.229 245.815 250.784 245.878 249.425 245.496C248.067 245.115 246.866 244.309 245.997 243.197C245.129 242.084 244.639 240.724 244.599 239.313C244.559 237.903 244.97 236.516 245.774 235.356C246.577 234.196 247.73 233.323 249.065 232.865C250.4 232.407 251.846 232.387 253.192 232.809C254.539 233.23 255.716 234.071 256.55 235.209C257.385 236.347 257.835 237.721 257.833 239.132C257.879 239.499 258.058 239.835 258.335 240.079C258.612 240.323 258.968 240.458 259.337 240.458C259.706 240.458 260.063 240.323 260.34 240.079C260.616 239.835 260.795 239.499 260.841 239.132C260.844 237.148 260.233 235.212 259.093 233.588C257.953 231.965 256.339 230.733 254.473 230.061C252.606 229.39 250.577 229.312 248.664 229.837C246.751 230.363 245.047 231.467 243.785 232.998C242.523 234.529 241.766 236.413 241.616 238.391C241.465 240.369 241.93 242.346 242.946 244.05C243.962 245.754 245.48 247.102 247.292 247.911C249.103 248.719 251.121 248.948 253.068 248.566C255.255 248.137 257.226 246.962 258.644 245.242C260.062 243.521 260.838 241.362 260.841 239.132C260.795 238.766 260.616 238.43 260.34 238.185C260.063 237.941 259.706 237.807 259.337 237.807C258.968 237.807 258.612 237.941 258.335 238.185C258.058 238.43 257.879 238.766 257.833 239.132Z" fill="#B5221B"/>
<mask id="mask0" mask-type="alpha" maskUnits="userSpaceOnUse" x="389" y="92" width="183" height="119">
<rect x="389" y="92" width="183" height="118.95" rx="14" fill="#C4C4C4"/>
</mask>
<g mask="url(#mask0)">
<path d="M509.034 155.008C509.034 155.008 544.62 168.916 563.462 229.067L539.369 241.012L521.537 195.481L509.034 155.008Z" fill="white" stroke="black" stroke-miterlimit="10"/>
<path d="M402.995 166.915C402.995 166.915 396.936 163.02 397.686 161.144C397.772 160.904 397.912 160.687 398.095 160.51C398.278 160.333 398.5 160.2 398.742 160.122C398.985 160.044 399.242 160.023 399.494 160.06C399.746 160.097 399.986 160.192 400.196 160.336C400.196 160.336 398.388 159.22 399.234 157.999C399.424 157.663 399.724 157.403 400.083 157.263C400.442 157.123 400.839 157.111 401.206 157.23C401.206 157.23 399.927 155.306 401.158 154.652C402.134 154.24 403.216 154.152 404.245 154.402C403.923 153.731 403.693 153.019 403.563 152.286C403.563 151.738 404.399 150.516 406.987 151.122C409.574 151.728 415.095 154.796 416.96 155.739C418.826 156.681 420.923 158.893 420.981 158.182C421.038 157.47 421.837 152.93 423.606 151.603C425.376 150.276 426.069 150.064 426.386 152.565C426.703 155.065 426.617 162.106 430.022 167.28C433.426 172.455 434.609 175.937 438.216 180.092C441.823 184.247 443.477 186.401 443.477 186.401L427.223 199.635C427.223 199.635 411.449 175.888 411.334 175.735C411.218 175.581 406.073 169.329 402.995 166.915Z" fill="white"/>
<path d="M399.638 160.221C399.638 160.221 397.628 156.932 401.398 157.336C405.168 157.74 410.304 161.241 412.776 163.107" stroke="black" stroke-miterlimit="10"/>
<path d="M416.893 170.531C416.893 170.531 415.508 166.309 421.529 164.558C421.529 164.558 419.24 155.594 423.587 151.622C427.934 147.65 425.568 157.884 428.473 164.126C431.378 170.368 434.677 176.398 437.774 179.678C440.871 182.958 443.544 186.545 443.544 186.545L427.098 199.751C427.098 199.751 421.481 191.21 412.815 177.966C404.149 164.722 396.464 164.424 397.667 161.163C399.1 157.162 409.314 166.588 409.314 166.588" stroke="black" stroke-miterlimit="10"/>
<path d="M401.399 157.336C401.399 157.336 399.475 154.941 401.928 154.316C402.426 154.222 402.939 154.222 403.438 154.316C406.419 154.701 411.363 157.201 414.979 159.991" stroke="black" stroke-miterlimit="10"/>
<path d="M420.99 158.874C420.99 158.874 413.912 152.267 405.832 151.18C402.947 150.786 403.034 153.69 405.909 154.902" stroke="black" stroke-miterlimit="10"/>
<path d="M455.298 194.739C452.846 193.019 450.548 191.088 448.431 188.969C443.526 184.044 439.023 178.733 434.966 173.089L417.086 188.401C417.086 188.401 436.582 218.659 448.287 222.439C459.992 226.219 486.759 195.788 486.759 195.788L488.846 155.815C485.608 157.606 482.568 159.734 479.776 162.163C473.14 168.145 461.56 178.841 448.431 189.036" fill="white"/>
<path d="M455.298 194.739C452.846 193.019 450.548 191.088 448.431 188.969C443.526 184.044 439.023 178.733 434.966 173.089L417.086 188.401C417.086 188.401 436.582 218.659 448.287 222.439C459.992 226.219 486.759 195.788 486.759 195.788L488.846 155.815C485.608 157.606 482.568 159.734 479.776 162.163C473.14 168.145 461.56 178.841 448.431 189.036" stroke="black" stroke-miterlimit="10"/>
<path d="M440.775 180.659C437.284 176.456 434.947 173.137 434.947 173.137L417.067 188.449C417.067 188.449 419.337 191.96 422.78 196.75L440.775 180.659Z" fill="#B5221B" stroke="black" stroke-miterlimit="10"/>
<path d="M436.388 178.947C436.39 179.189 436.32 179.426 436.187 179.628C436.054 179.83 435.864 179.988 435.641 180.082C435.418 180.176 435.172 180.201 434.934 180.155C434.697 180.109 434.478 179.994 434.306 179.823C434.135 179.653 434.017 179.435 433.969 179.198C433.922 178.961 433.945 178.715 434.037 178.491C434.13 178.267 434.286 178.076 434.487 177.941C434.688 177.807 434.925 177.735 435.167 177.735C435.327 177.734 435.485 177.764 435.633 177.824C435.782 177.885 435.916 177.974 436.03 178.086C436.143 178.199 436.234 178.333 436.295 178.481C436.357 178.628 436.388 178.787 436.388 178.947Z" fill="white" stroke="black" stroke-miterlimit="10"/>
<path d="M537.397 231.799V224.316C537.397 184.882 520.623 152.911 499.886 152.911C479.15 152.911 462.376 184.882 462.376 224.316V231.799H537.397Z" fill="white"/>
<path d="M499.8 170.772V231.759" stroke="black" stroke-miterlimit="10"/>
<path d="M499.926 171.406L514.353 158.384C509.909 154.835 505.023 152.872 499.926 152.872C494.972 152.872 489.798 155.056 485.499 158.374L499.926 171.406Z" fill="white" stroke="black" stroke-miterlimit="10"/>
<path d="M467.84 187.382C464.184 199.336 462.368 211.776 462.454 224.277V231.798H537.398V224.315C537.503 211.524 535.604 198.796 531.771 186.593" stroke="black" stroke-miterlimit="10"/>
<path d="M514.381 158.374C509.928 154.835 505.052 152.872 499.954 152.872C494.857 152.872 489.99 154.796 485.527 158.335" stroke="black" stroke-miterlimit="10"/>
<path d="M514.794 162.241L506.869 150.266C504.823 148.791 502.365 147.997 499.843 147.997C497.321 147.997 494.863 148.791 492.817 150.266L484.844 162.241C483.972 163.555 483.656 165.162 483.966 166.709C484.277 168.255 485.187 169.616 486.498 170.493L487.642 171.253C488.957 172.125 490.564 172.44 492.11 172.13C493.657 171.82 495.018 170.91 495.895 169.599L499.838 163.664L503.791 169.599C504.666 170.912 506.027 171.824 507.575 172.134C509.122 172.444 510.73 172.127 512.043 171.253L513.178 170.493C513.826 170.057 514.382 169.498 514.815 168.848C515.247 168.197 515.546 167.468 515.696 166.702C515.846 165.935 515.844 165.147 515.689 164.381C515.534 163.616 515.23 162.889 514.794 162.241Z" fill="#FEFEFF" stroke="black" stroke-miterlimit="10"/>
<path d="M501.097 160.827C501.097 161.055 501.03 161.278 500.903 161.468C500.776 161.658 500.596 161.805 500.385 161.893C500.174 161.98 499.942 162.003 499.718 161.959C499.494 161.914 499.289 161.804 499.127 161.643C498.966 161.481 498.856 161.276 498.811 161.052C498.767 160.828 498.79 160.596 498.877 160.385C498.964 160.174 499.112 159.994 499.302 159.867C499.492 159.74 499.715 159.672 499.943 159.672C500.249 159.672 500.543 159.794 500.759 160.01C500.976 160.227 501.097 160.52 501.097 160.827Z" fill="#FEFEFF" stroke="black" stroke-miterlimit="10"/>
<path d="M515.65 132.531C515.659 133.761 515.303 134.967 514.626 135.995C513.949 137.024 512.982 137.827 511.848 138.305C510.714 138.783 509.463 138.913 508.254 138.678C507.046 138.444 505.934 137.856 505.061 136.989C504.187 136.122 503.59 135.015 503.347 133.809C503.103 132.602 503.223 131.35 503.692 130.212C504.161 129.074 504.957 128.101 505.98 127.416C507.003 126.731 508.206 126.365 509.437 126.365C510.25 126.362 511.055 126.518 511.808 126.826C512.56 127.134 513.244 127.587 513.822 128.16C514.399 128.732 514.857 129.413 515.171 130.163C515.485 130.913 515.647 131.718 515.65 132.531V132.531Z" stroke="black" stroke-width="2" stroke-miterlimit="10"/>
<path d="M488.594 113.4H496.394C501.588 113.4 505.839 118.209 505.839 124.143V136.253C505.839 136.589 505.839 136.926 505.839 137.214C505.928 137.576 505.973 137.948 505.974 138.32V153.517C505.956 154.797 505.436 156.018 504.525 156.918C503.615 157.818 502.387 158.324 501.107 158.326H498.01C496.731 158.323 495.504 157.818 494.595 156.918C493.686 156.018 493.168 154.796 493.153 153.517V146.996H488.594C483.4 146.996 479.149 142.187 479.149 136.253V124.143C479.13 118.238 483.381 113.4 488.594 113.4Z" fill="white" stroke="black" stroke-miterlimit="10"/>
<path d="M503.772 132.338L502.329 122.854C502.329 122.854 476.091 126.144 467.598 113.4C459.105 100.656 468.031 95.6161 472.407 96.3374C476.783 97.0588 481.785 103.253 481.785 103.253C481.785 103.253 477.755 97.7801 481.785 96.9145C485.815 96.0489 490.249 100.233 492.567 104.551C492.567 104.551 509.879 102.945 515.65 113.4C521.421 123.855 516.756 131.289 506.032 142.09L505.32 136.05L503.772 132.338Z" fill="black"/>
<path d="M501.415 134.195C501.415 135.081 501.152 135.948 500.659 136.685C500.167 137.422 499.467 137.996 498.648 138.335C497.829 138.675 496.928 138.763 496.058 138.591C495.189 138.418 494.39 137.991 493.763 137.364C493.137 136.737 492.71 135.938 492.537 135.069C492.364 134.2 492.453 133.298 492.792 132.479C493.131 131.66 493.706 130.96 494.443 130.468C495.18 129.976 496.046 129.713 496.933 129.713C497.522 129.711 498.105 129.826 498.649 130.051C499.194 130.276 499.688 130.606 500.105 131.023C500.521 131.439 500.851 131.934 501.076 132.478C501.301 133.022 501.416 133.606 501.415 134.195Z" fill="#E4B0C8"/>
<path d="M480.343 130.616C480.077 130.614 479.811 130.646 479.554 130.713V135.358C479.504 136.035 479.526 136.715 479.621 137.388C479.861 137.402 480.102 137.402 480.343 137.388C480.806 137.412 481.269 137.342 481.704 137.182C482.139 137.022 482.537 136.775 482.873 136.456C483.21 136.137 483.478 135.752 483.661 135.326C483.844 134.9 483.938 134.442 483.938 133.978C483.938 133.514 483.844 133.056 483.661 132.63C483.478 132.204 483.21 131.819 482.873 131.5C482.537 131.181 482.139 130.934 481.704 130.774C481.269 130.614 480.806 130.544 480.343 130.568V130.616Z" fill="#E4B0C8"/>
<path d="M493.327 127.923C493.329 128.239 493.237 128.549 493.063 128.812C492.888 129.076 492.64 129.282 492.348 129.405C492.056 129.527 491.735 129.56 491.425 129.499C491.114 129.439 490.829 129.288 490.605 129.065C490.381 128.842 490.228 128.557 490.165 128.247C490.103 127.937 490.134 127.616 490.254 127.324C490.375 127.031 490.58 126.781 490.842 126.606C491.105 126.43 491.414 126.336 491.73 126.336C492.152 126.336 492.557 126.503 492.856 126.8C493.155 127.097 493.324 127.501 493.327 127.923Z" fill="#D0364F"/>
<path d="M482.891 127.702C482.907 127.89 482.883 128.08 482.822 128.259C482.761 128.437 482.663 128.602 482.535 128.741C482.407 128.88 482.252 128.991 482.079 129.067C481.906 129.143 481.719 129.182 481.53 129.182C481.341 129.182 481.154 129.143 480.981 129.067C480.808 128.991 480.652 128.88 480.524 128.741C480.397 128.602 480.299 128.437 480.238 128.259C480.176 128.08 480.153 127.89 480.169 127.702C480.198 127.361 480.353 127.043 480.605 126.811C480.858 126.579 481.187 126.451 481.53 126.451C481.872 126.451 482.202 126.579 482.454 126.811C482.706 127.043 482.862 127.361 482.891 127.702Z" fill="#D0364F"/>
<path d="M484.41 134.222C484.41 134.222 485.208 136.559 486.901 136.723C488.594 136.887 489.931 135.001 490.017 133.539L484.41 134.222Z" fill="#F7F6F6"/>
<path d="M483.891 134.367C484.193 135.286 484.754 136.098 485.507 136.704C485.818 136.927 486.17 137.085 486.543 137.17C486.916 137.256 487.302 137.266 487.679 137.2C488.055 137.135 488.415 136.996 488.738 136.79C489.06 136.584 489.338 136.316 489.556 136.002C490.122 135.3 490.458 134.44 490.518 133.54C490.518 133.397 490.461 133.26 490.36 133.159C490.259 133.058 490.122 133.001 489.979 133.001L485.065 133.607L484.372 133.694C484.232 133.696 484.098 133.753 483.997 133.851C483.897 133.949 483.838 134.083 483.833 134.223C483.833 134.294 483.847 134.364 483.875 134.429C483.902 134.494 483.941 134.554 483.991 134.604C484.041 134.654 484.101 134.693 484.166 134.721C484.231 134.748 484.301 134.762 484.372 134.762L489.287 134.165L489.979 134.079L489.441 133.54C489.399 134.111 489.196 134.658 488.856 135.117C488.515 135.577 488.051 135.931 487.517 136.137C486.478 136.416 485.728 135.608 485.257 134.781C485.154 134.597 485.061 134.407 484.978 134.213C484.978 134.127 484.978 134.319 484.978 134.213V134.146C484.982 134.121 484.982 134.095 484.978 134.069C484.747 133.434 483.67 133.694 483.891 134.367Z" fill="#D0364F"/>
<path d="M499.8 126.962C499.8 130.405 497.309 133.185 494.241 133.185C491.173 133.185 488.672 130.405 488.672 126.962C488.672 123.519 491.163 120.749 494.241 120.749C497.318 120.749 499.8 123.567 499.8 126.962Z" stroke="#672ED6" stroke-miterlimit="10"/>
<path d="M480.371 131.78C482.899 131.78 484.949 129.291 484.949 126.221C484.949 123.151 482.899 120.662 480.371 120.662C477.842 120.662 475.792 123.151 475.792 126.221C475.792 129.291 477.842 131.78 480.371 131.78Z" stroke="#672ED6" stroke-miterlimit="10"/>
<path d="M486.738 126.365V131.771L483.911 130.049L486.738 126.365Z" fill="#D96980"/>
<path d="M484.804 127.924C484.804 127.924 487.045 126.962 488.651 128.327" stroke="#672ED6" stroke-miterlimit="10"/>
<path d="M515.65 132.531C515.659 133.761 515.303 134.967 514.626 135.995C513.949 137.024 512.982 137.827 511.848 138.305C510.714 138.783 509.463 138.913 508.254 138.678C507.046 138.444 505.934 137.856 505.061 136.989C504.187 136.122 503.59 135.015 503.347 133.809C503.103 132.602 503.223 131.35 503.692 130.212C504.161 129.074 504.957 128.101 505.98 127.416C507.003 126.731 508.206 126.365 509.437 126.365C510.25 126.362 511.055 126.518 511.808 126.826C512.56 127.134 513.244 127.587 513.822 128.16C514.399 128.732 514.857 129.413 515.171 130.163C515.485 130.913 515.647 131.718 515.65 132.531Z" fill="white"/>
<path d="M506.734 133.347C506.734 133.212 506.734 133.077 506.734 132.943C506.734 132.808 506.734 132.818 506.734 132.76C506.734 132.702 506.734 132.693 506.734 132.654C506.734 132.616 506.734 132.827 506.734 132.654C506.759 132.482 506.794 132.312 506.84 132.145C506.861 132.057 506.887 131.97 506.917 131.885C506.912 131.837 506.912 131.789 506.917 131.741V131.673C506.917 131.558 506.917 131.673 506.917 131.673C507.032 131.491 507.109 131.279 507.234 131.096V131.048C507.292 130.971 507.301 131.048 507.234 131.048C507.167 131.048 507.311 130.962 507.34 130.923C507.418 130.835 507.502 130.751 507.59 130.673C507.657 130.615 507.696 130.673 507.59 130.673C507.641 130.647 507.69 130.614 507.734 130.577C507.843 130.501 507.959 130.437 508.08 130.384C508.08 130.384 508.215 130.327 508.08 130.384H508.148L508.369 130.317C508.45 130.289 508.534 130.269 508.619 130.259H508.696H508.782C508.859 130.259 508.84 130.259 508.782 130.259C508.875 130.245 508.969 130.245 509.061 130.259H509.36C509.577 130.245 509.796 130.245 510.014 130.259C510.189 130.257 510.356 130.186 510.48 130.062C510.604 129.938 510.675 129.771 510.677 129.596C510.67 129.422 510.598 129.257 510.475 129.134C510.352 129.011 510.187 128.939 510.014 128.932C509.343 128.82 508.656 128.874 508.012 129.09C507.368 129.307 506.787 129.679 506.32 130.173C505.747 130.923 505.412 131.827 505.358 132.77C505.344 132.952 505.344 133.135 505.358 133.318C505.358 133.494 505.428 133.663 505.553 133.787C505.677 133.912 505.846 133.982 506.022 133.982C506.198 133.982 506.367 133.912 506.491 133.787C506.616 133.663 506.686 133.494 506.686 133.318L506.734 133.347Z" fill="#090909"/>
</g>
<path d="M245.133 119.089C245.133 119.089 269.459 120.573 294.559 144.157C319.66 167.741 318.998 228.588 318.998 228.588L244.068 226.685L245.133 119.089Z" fill="white" stroke="black" stroke-miterlimit="10"/>
<path d="M270.846 139.221C287.639 151.787 321.805 226.33 310.949 226.637C300.092 226.943 170.606 225.862 166.525 221.797C162.444 217.732 180.092 182.211 180.092 182.211C180.092 182.211 207.337 126.235 249.456 125.881C263.587 125.8 252.908 125.816 270.846 139.221Z" fill="white"/>
<path d="M202.03 185.13C202.03 185.13 190.158 218.377 192.9 222.232C195.642 226.087 282.832 226.959 290.123 226.717C297.415 226.475 285.058 174.048 278.831 158.965" stroke="#1C191B" stroke-miterlimit="10"/>
<path d="M247.633 202.521C247.633 202.521 257.409 195.988 282.687 202.198C282.687 202.198 287.526 204.408 283.832 205.425C280.138 206.441 270.685 204.908 270.685 204.908C270.685 204.908 285.203 206.231 285.574 208.764C285.945 211.296 271.846 208.764 271.846 208.764C271.846 208.764 286.994 211.151 286.8 213.716C286.606 216.281 278.202 213.41 270.024 214.006C261.845 214.603 246.956 220.588 244.649 218.926C242.342 217.265 237.309 206.376 247.633 202.521Z" fill="white" stroke="#1C191B" stroke-miterlimit="10"/>
<path d="M239.455 119.09C224.356 119.22 207.805 123.93 191.771 136.996C169.897 154.837 132.779 210.926 148.974 239.882C149.213 240.307 149.455 240.724 149.702 241.133C158.197 255.176 170.694 247.769 183.77 247.501C196.184 247.246 207.292 242.723 213.5 239.882C226.437 233.961 253.667 226.493 256.425 218.572C259.651 209.281 258.248 202.731 246.585 199.811C234.922 196.892 192.142 201.425 183.77 206.909" fill="white"/>
<path d="M239.455 119.09C224.356 119.22 207.805 123.93 191.771 136.996C169.897 154.837 132.779 210.926 148.974 239.882M148.974 239.882C149.213 240.307 149.455 240.724 149.702 241.133M148.974 239.882L149.702 241.133M183.77 206.909C192.142 201.425 234.922 196.892 246.585 199.811C258.248 202.731 259.651 209.281 256.425 218.572C253.667 226.493 226.437 233.961 213.5 239.882C207.292 242.723 196.184 247.246 183.77 247.501C170.694 247.769 158.197 255.176 149.702 241.133" stroke="black" stroke-miterlimit="10"/>
<path d="M256.425 218.571C259.651 209.489 258.28 203.037 247.343 200.02C246.729 203.357 246.626 206.767 247.037 210.135C247.763 216.345 249.876 221.588 252.457 224.379C254.107 222.688 255.449 220.723 256.425 218.571Z" fill="#B5221B" stroke="black" stroke-miterlimit="10"/>
<path d="M221.324 164.096C221.324 164.096 208.564 154.756 213.468 150.448C218.372 146.141 222.63 155.046 222.63 155.046C222.63 155.046 225.582 147.254 229.809 149.852C234.035 152.449 221.324 164.096 221.324 164.096Z" fill="#B5221B" stroke="#1C191B" stroke-miterlimit="10"/>
<path d="M219.823 86.0852C219.823 86.0852 208.644 121.268 231.47 129.043C254.296 136.818 256.861 130.366 261.926 142.529C266.991 154.692 287.316 149.433 289.268 130.737C291.22 112.04 277.412 113.492 270.217 112.524C263.023 111.557 258.248 98.3611 258.329 91.5537C258.409 84.7463 222.404 71.7445 219.823 86.0852Z" fill="black"/>
<path d="M253.15 124.251C253.15 128.655 247.02 132.22 239.455 132.22C231.889 132.22 225.759 128.655 225.759 124.251C225.759 119.847 231.889 116.185 239.455 116.185C247.02 116.185 253.15 119.831 253.15 124.251Z" fill="#B5221B" stroke="#1C191B" stroke-miterlimit="10"/>
<path d="M213.951 86.0857C213.936 88.1023 214.519 90.0781 215.628 91.7626C216.736 93.4471 218.32 94.7643 220.179 95.5471C222.037 96.3299 224.086 96.543 226.066 96.1594C228.046 95.7758 229.867 94.8128 231.299 93.3925C232.73 91.9722 233.708 90.1587 234.107 88.182C234.507 86.2054 234.31 84.1546 233.542 82.29C232.774 80.4253 231.469 78.8308 229.794 77.7087C228.118 76.5867 226.147 75.9876 224.13 75.9875C222.799 75.9812 221.479 76.2374 220.246 76.7417C219.014 77.2459 217.893 77.9882 216.947 78.9261C216.002 79.864 215.251 80.9792 214.736 82.2077C214.222 83.4362 213.956 84.754 213.951 86.0857Z" fill="white" stroke="black" stroke-miterlimit="10"/>
<path d="M256.296 56.6455H244.262C236.196 56.6455 229.744 64.0982 229.744 73.2124V91.8117C229.744 92.3279 229.744 92.8603 229.744 93.4249C229.609 93.9849 229.538 94.5587 229.534 95.1348V118.428C229.543 120.414 230.336 122.315 231.742 123.717C233.147 125.12 235.05 125.909 237.035 125.913H241.875C243.857 125.905 245.756 125.113 247.158 123.712C248.56 122.31 249.351 120.411 249.36 118.428V108.379H256.328C264.394 108.379 270.846 100.926 270.846 91.8117V73.1478C270.846 64.0336 264.297 56.6455 256.296 56.6455Z" fill="white" stroke="black" stroke-miterlimit="10"/>
<path d="M228.695 81.535C228.695 81.535 240.487 77.6151 244.068 70.0012C247.649 62.3872 246.762 60.7418 246.762 60.7418C246.762 60.7418 253.408 69.856 263.926 72.0337C272.605 73.8727 272.25 72.5983 273.105 70.5658C273.96 68.5332 274.411 55.8701 261.232 47.9819C248.053 40.0937 233.809 40.868 224.13 50.7081C214.451 60.5482 215.548 76.0988 218.839 79.9703C222.13 83.8418 226.453 86.0518 228.695 81.535Z" fill="black"/>
<path d="M235.582 35.871C237.076 29.5413 233.156 23.199 226.826 21.705C220.496 20.2111 214.154 24.1312 212.66 30.4609C211.166 36.7906 215.086 43.133 221.416 44.6269C227.746 46.1209 234.088 42.2007 235.582 35.871Z" fill="black"/>
<path d="M214.548 86.0844C214.535 87.9822 215.086 89.8411 216.131 91.4253C217.177 93.0096 218.669 94.2477 220.418 94.9829C222.168 95.718 224.097 95.917 225.96 95.5546C227.823 95.1922 229.536 94.2847 230.882 92.9473C232.229 91.6098 233.148 89.9026 233.523 88.0421C233.898 86.1817 233.712 84.2518 232.989 82.4971C232.265 80.7425 231.037 79.2421 229.46 78.1864C227.883 77.1306 226.028 76.567 224.13 76.5669C222.876 76.5627 221.633 76.8055 220.473 77.2815C219.313 77.7575 218.258 78.4574 217.368 79.3412C216.478 80.2249 215.771 81.2753 215.287 82.4323C214.804 83.5893 214.552 84.8303 214.548 86.0844Z" fill="white"/>
<path d="M229.308 87.2947C229.308 87.2947 229.728 80.8422 223.098 81.5681" stroke="#020202" stroke-miterlimit="10"/>
<path d="M249.472 81.9554C250.969 81.9554 252.182 80.742 252.182 79.2453C252.182 77.7486 250.969 76.5353 249.472 76.5353C247.976 76.5353 246.762 77.7486 246.762 79.2453C246.762 80.742 247.976 81.9554 249.472 81.9554Z" fill="black"/>
<path d="M264.523 78.8421C264.52 79.3029 264.654 79.7542 264.908 80.1387C265.162 80.5231 265.524 80.8234 265.949 81.0012C266.375 81.179 266.843 81.2264 267.295 81.1372C267.747 81.0481 268.163 80.8265 268.488 80.5007C268.814 80.1749 269.036 79.7595 269.125 79.3074C269.214 78.8553 269.167 78.3869 268.989 77.9618C268.811 77.5367 268.511 77.1741 268.126 76.9201C267.742 76.6661 267.291 76.5321 266.83 76.5353C266.218 76.5353 265.631 76.7784 265.199 77.211C264.766 77.6436 264.523 78.2303 264.523 78.8421Z" fill="black"/>
<path d="M261.926 89.956C261.926 89.956 260.571 93.9243 257.683 94.1986C254.796 94.4728 252.537 91.2788 252.376 88.7784" stroke="#0C0C0C" stroke-miterlimit="10"/>
<path d="M237.326 89.214C237.326 90.5476 237.721 91.8512 238.462 92.9601C239.203 94.069 240.256 94.9332 241.488 95.4436C242.72 95.9539 244.076 96.0875 245.384 95.8273C246.692 95.5671 247.894 94.9249 248.837 93.9819C249.78 93.0389 250.422 91.8374 250.682 90.5294C250.942 89.2214 250.809 87.8657 250.298 86.6336C249.788 85.4015 248.924 84.3484 247.815 83.6075C246.706 82.8665 245.402 82.4711 244.069 82.4711C242.282 82.4753 240.569 83.1871 239.305 84.4507C238.042 85.7143 237.33 87.427 237.326 89.214Z" fill="#E4B0C8"/>
<path d="M269.039 84.6502C269.436 84.6567 269.831 84.7054 270.217 84.7953V91.7963C270.243 92.8129 270.162 93.8294 269.975 94.829C269.666 94.8852 269.353 94.9175 269.039 94.9258C268.34 94.965 267.641 94.8611 266.983 94.6206C266.326 94.3801 265.725 94.008 265.216 93.5271C264.707 93.0462 264.302 92.4665 264.025 91.8236C263.748 91.1807 263.605 90.488 263.605 89.788C263.605 89.0879 263.748 88.3953 264.025 87.7524C264.302 87.1094 264.707 86.5298 265.216 86.0488C265.725 85.5679 266.326 85.1958 266.983 84.9553C267.641 84.7148 268.34 84.611 269.039 84.6502Z" fill="#E4B0C8"/>
<path d="M258.877 76.5353L258.328 85.7785L262.732 83.0846L258.877 76.5353Z" fill="#DB7294"/>
<path d="M266.991 167.951C266.993 169.075 266.648 170.173 266.003 171.094C265.359 172.015 264.446 172.715 263.39 173.099C262.333 173.483 261.184 173.531 260.099 173.239C259.014 172.946 258.045 172.326 257.325 171.463C256.604 170.601 256.167 169.537 256.073 168.417C255.979 167.296 256.233 166.175 256.799 165.204C257.365 164.233 258.217 163.46 259.238 162.99C260.26 162.521 261.401 162.377 262.507 162.58C263.76 162.818 264.892 163.484 265.709 164.464C266.527 165.443 266.98 166.676 266.991 167.951C267.022 168.197 267.142 168.422 267.327 168.586C267.513 168.75 267.752 168.84 267.999 168.84C268.247 168.84 268.486 168.75 268.671 168.586C268.857 168.422 268.976 168.197 269.007 167.951C269.009 166.409 268.534 164.904 267.647 163.642C266.76 162.38 265.506 161.423 264.054 160.901C262.603 160.38 261.026 160.319 259.539 160.728C258.052 161.137 256.727 161.995 255.747 163.185C254.766 164.375 254.176 165.839 254.059 167.377C253.942 168.914 254.303 170.451 255.092 171.776C255.881 173.101 257.061 174.149 258.469 174.779C259.877 175.408 261.445 175.587 262.958 175.291C264.654 174.944 266.18 174.026 267.28 172.691C268.381 171.355 268.991 169.682 269.007 167.951C268.976 167.706 268.857 167.48 268.671 167.317C268.486 167.153 268.247 167.063 267.999 167.063C267.752 167.063 267.513 167.153 267.327 167.317C267.142 167.48 267.022 167.706 266.991 167.951Z" fill="black"/>
<path d="M244.409 219.5H442.26C449.942 219.5 456.169 225.727 456.169 233.409V360.739C456.169 368.42 449.942 374.647 442.26 374.647H244.409C236.727 374.647 230.5 368.42 230.5 360.739V233.409C230.5 225.727 236.727 219.5 244.409 219.5Z" fill="#F1F8F8" stroke="black"/>
<path d="M427.246 228.092H259.403C251.445 228.092 244.994 234.543 244.994 242.5V332.71C244.994 340.667 251.445 347.118 259.403 347.118H427.246C435.203 347.118 441.654 340.667 441.654 332.71V242.5C441.654 234.543 435.203 228.092 427.246 228.092Z" fill="white" stroke="black" stroke-miterlimit="10"/>
<path d="M348.696 360.776C348.697 361.8 348.386 362.8 347.802 363.642C347.219 364.484 346.392 365.128 345.433 365.487C344.427 365.866 343.327 365.914 342.292 365.623C341.257 365.333 340.342 364.719 339.681 363.872C339.02 363.024 338.646 361.988 338.616 360.913C338.585 359.839 338.899 358.783 339.511 357.899C340.123 357.016 341.001 356.351 342.018 356.002C343.034 355.653 344.136 355.638 345.161 355.959C346.187 356.28 347.083 356.921 347.719 357.787C348.355 358.654 348.697 359.701 348.696 360.776C348.731 361.055 348.867 361.311 349.078 361.497C349.289 361.683 349.561 361.785 349.842 361.785C350.123 361.785 350.394 361.683 350.605 361.497C350.816 361.311 350.952 361.055 350.987 360.776C350.989 359.265 350.524 357.79 349.656 356.553C348.788 355.316 347.558 354.378 346.136 353.866C344.714 353.355 343.169 353.295 341.712 353.696C340.255 354.096 338.957 354.937 337.996 356.103C337.035 357.27 336.458 358.704 336.343 360.211C336.229 361.718 336.583 363.223 337.357 364.521C338.131 365.819 339.287 366.847 340.667 367.462C342.047 368.078 343.583 368.253 345.066 367.962C346.733 367.635 348.234 366.74 349.314 365.429C350.394 364.119 350.985 362.474 350.987 360.776C350.952 360.497 350.816 360.24 350.605 360.054C350.394 359.869 350.123 359.766 349.842 359.766C349.561 359.766 349.289 359.869 349.078 360.054C348.867 360.24 348.731 360.497 348.696 360.776Z" fill="#B5221B"/>
<mask id="mask1" mask-type="alpha" maskUnits="userSpaceOnUse" x="228" y="206" width="212" height="141">
<rect x="228.5" y="206.5" width="210.5" height="140" rx="13.5" fill="#C4C4C4" stroke="black"/>
</mask>
<g mask="url(#mask1)">
<path d="M270.193 324.757C270.193 324.757 294.061 301.955 319.462 297.254C344.864 292.553 395.739 293.02 423.272 329.37C450.805 365.721 383.126 397.983 381.258 398.217C379.389 398.451 269.448 380.1 265.287 376.932C261.127 373.764 245.215 354.859 270.193 324.757Z" fill="white" stroke="black" stroke-width="0.91" stroke-miterlimit="10"/>
<path d="M373.842 305.984C373.842 305.984 414.995 388.669 405.783 404.465C396.572 420.26 328.411 435.326 294.353 418.071C254.558 397.881 306.908 314.1 319.273 294.757L373.842 305.984Z" fill="white" stroke="black" stroke-width="0.91" stroke-miterlimit="10"/>
<path d="M379.611 301.323C380.821 289.516 367.003 278.429 348.749 276.559C330.494 274.689 314.715 282.743 313.505 294.55C312.296 306.356 326.113 317.443 344.368 319.313C362.623 321.184 378.402 313.129 379.611 301.323Z" fill="white" stroke="black" stroke-width="0.97" stroke-miterlimit="10"/>
<path d="M329.025 265.225C328.999 266.962 329.49 268.669 330.437 270.126C331.383 271.584 332.742 272.727 334.34 273.41C335.938 274.093 337.703 274.285 339.411 273.962C341.119 273.639 342.691 272.816 343.93 271.596C345.168 270.377 346.015 268.816 346.364 267.114C346.713 265.411 346.547 263.643 345.888 262.035C345.229 260.427 344.107 259.051 342.664 258.083C341.221 257.114 339.522 256.597 337.784 256.597C336.642 256.585 335.508 256.8 334.449 257.228C333.389 257.655 332.425 258.288 331.611 259.09C330.797 259.892 330.15 260.847 329.706 261.899C329.262 262.952 329.031 264.082 329.025 265.225V265.225Z" stroke="black" stroke-width="1.88" stroke-miterlimit="10"/>
<path d="M366.938 238.451H356.004C348.705 238.451 342.865 245.21 342.865 253.487V270.421C342.865 270.903 342.865 271.37 342.865 271.881C342.736 272.387 342.672 272.907 342.675 273.429V294.596C342.683 296.398 343.402 298.124 344.676 299.398C345.951 300.672 347.676 301.392 349.478 301.399H353.858C355.66 301.392 357.386 300.672 358.66 299.398C359.934 298.124 360.653 296.398 360.661 294.596V285.458H366.982C374.281 285.458 380.121 278.699 380.121 270.421V253.487C380.15 245.21 374.194 238.451 366.938 238.451Z" fill="white" stroke="black" stroke-width="0.94" stroke-miterlimit="10"/>
<path d="M358.28 259.021C358.28 259.509 358.425 259.987 358.697 260.393C358.969 260.799 359.355 261.115 359.807 261.301C360.258 261.488 360.755 261.536 361.234 261.439C361.713 261.343 362.153 261.106 362.497 260.76C362.842 260.413 363.075 259.972 363.169 259.493C363.262 259.013 363.212 258.517 363.023 258.066C362.834 257.616 362.515 257.232 362.107 256.962C361.7 256.693 361.221 256.551 360.733 256.554C360.081 256.557 359.457 256.819 358.998 257.281C358.538 257.744 358.28 258.369 358.28 259.021Z" fill="#0C0C0C"/>
<path d="M374.397 258.656C374.397 259.071 374.521 259.478 374.752 259.824C374.983 260.169 375.311 260.439 375.695 260.598C376.079 260.757 376.502 260.799 376.91 260.717C377.318 260.636 377.692 260.436 377.986 260.142C378.28 259.848 378.48 259.474 378.561 259.066C378.643 258.658 378.601 258.235 378.442 257.851C378.283 257.467 378.013 257.139 377.668 256.908C377.322 256.677 376.915 256.553 376.5 256.553C375.942 256.553 375.407 256.775 375.013 257.169C374.619 257.563 374.397 258.098 374.397 258.656Z" fill="#0C0C0C"/>
<path d="M372.047 268.744C372.047 268.744 370.806 272.349 368.193 272.598C365.58 272.846 363.522 269.941 363.39 267.678L372.047 268.744Z" fill="#FFF7F7"/>
<path d="M371.317 268.481L371.2 268.744C371.302 268.525 371.2 268.846 371.2 268.919L370.996 269.327C370.679 269.973 370.249 270.557 369.726 271.05C369.444 271.318 369.108 271.521 368.739 271.644C368.371 271.768 367.98 271.809 367.594 271.765C366.72 271.593 365.941 271.104 365.405 270.393C364.739 269.61 364.326 268.642 364.222 267.619L363.463 268.379L371.04 269.313L372.12 269.444C372.529 269.444 372.894 269.05 372.894 268.685C372.886 268.482 372.802 268.29 372.659 268.146C372.515 268.003 372.323 267.919 372.12 267.911L364.456 267.021L363.39 266.89C363.185 266.89 362.988 266.971 362.843 267.116C362.698 267.261 362.616 267.458 362.616 267.663C362.693 268.873 363.115 270.036 363.831 271.013C364.548 271.991 365.53 272.744 366.66 273.181C368.923 273.882 370.864 272.437 371.988 270.583C372.314 270.063 372.583 269.51 372.791 268.933C373.098 268.014 371.638 267.605 371.317 268.481Z" fill="#0C0C0C"/>
<path d="M349.74 268.072C349.737 269.286 350.095 270.473 350.767 271.484C351.44 272.494 352.398 273.283 353.518 273.748C354.639 274.214 355.873 274.337 357.064 274.101C358.255 273.865 359.349 273.28 360.207 272.422C361.065 271.564 361.65 270.47 361.886 269.279C362.122 268.088 361.999 266.854 361.533 265.733C361.068 264.613 360.279 263.655 359.269 262.982C358.258 262.31 357.071 261.952 355.857 261.955C354.236 261.959 352.682 262.605 351.536 263.751C350.39 264.897 349.744 266.451 349.74 268.072Z" fill="#E4B0C8"/>
<path d="M378.499 263.926C378.863 263.932 379.225 263.976 379.58 264.057V270.407C379.604 271.332 379.531 272.257 379.361 273.166C379.076 273.218 378.788 273.247 378.499 273.254C377.307 273.187 376.186 272.667 375.366 271.8C374.546 270.932 374.089 269.784 374.089 268.59C374.089 267.396 374.546 266.248 375.366 265.38C376.186 264.513 377.307 263.992 378.499 263.926Z" fill="#E4B0C8"/>
<path d="M369.287 256.553L368.776 264.948L372.776 262.51L369.287 256.553Z" fill="#DB7294"/>
<path d="M345.653 264.947L347.682 251.677C347.682 251.677 384.382 256.276 396.295 238.451C408.207 220.626 395.682 213.546 389.638 214.553C383.594 215.561 376.499 224.247 376.499 224.247C376.499 224.247 382.134 216.583 376.499 215.371C370.864 214.159 364.645 220.013 361.419 226.057C361.419 226.057 337.229 223.794 329.04 238.451C320.85 253.108 327.477 263.473 342.441 278.597L343.434 270.144L345.653 264.947Z" fill="black"/>
<path d="M329.025 265.225C328.999 266.962 329.49 268.669 330.437 270.126C331.383 271.584 332.742 272.727 334.34 273.41C335.938 274.093 337.703 274.285 339.411 273.962C341.119 273.639 342.691 272.816 343.93 271.596C345.168 270.377 346.015 268.816 346.364 267.114C346.713 265.411 346.547 263.643 345.888 262.035C345.229 260.427 344.107 259.051 342.664 258.083C341.221 257.114 339.522 256.597 337.784 256.597C336.642 256.585 335.508 256.8 334.449 257.228C333.389 257.655 332.425 258.288 331.611 259.09C330.797 259.892 330.15 260.847 329.706 261.899C329.262 262.952 329.031 264.082 329.025 265.225Z" fill="white"/>
<path d="M343.376 266.363C343.41 265.599 343.316 264.834 343.099 264.1C342.917 263.372 342.581 262.691 342.112 262.104C341.643 261.517 341.054 261.038 340.383 260.699C339.252 260.217 338.013 260.041 336.792 260.188C336.545 260.199 336.312 260.303 336.139 260.479C335.965 260.655 335.865 260.89 335.858 261.137C335.858 261.386 335.956 261.625 336.131 261.803C336.305 261.98 336.543 262.082 336.792 262.086C337.312 262.035 337.835 262.035 338.354 262.086H338.515C338.515 262.086 338.31 262.086 338.515 262.086H338.807C339.011 262.086 339.216 262.203 339.405 262.261C339.595 262.319 339.245 262.173 339.405 262.261L339.624 262.378C339.769 262.484 339.92 262.581 340.077 262.67C340.077 262.67 339.887 262.509 340.077 262.67H340.164L340.325 262.816C340.426 262.947 340.538 263.069 340.661 263.181C340.515 263.093 340.544 263.02 340.661 263.181C340.705 263.236 340.744 263.294 340.778 263.356C340.865 263.487 340.938 263.619 341.011 263.75L341.099 263.954C341.099 264.057 341.011 263.706 341.099 263.867C341.092 263.896 341.092 263.926 341.099 263.954C341.099 264.1 341.201 264.232 341.245 264.378C341.317 264.618 341.375 264.861 341.42 265.108C341.42 265.108 341.42 265.224 341.42 265.268C341.42 265.312 341.42 265.006 341.42 265.268C341.42 265.531 341.42 265.473 341.42 265.575C341.435 265.803 341.435 266.033 341.42 266.261C341.424 266.511 341.525 266.751 341.702 266.928C341.879 267.105 342.118 267.206 342.369 267.21C342.616 267.199 342.849 267.095 343.022 266.919C343.196 266.743 343.296 266.508 343.303 266.261L343.376 266.363Z" fill="#020202"/>
<path d="M361.42 226.057C361.42 226.057 337.216 251.049 327.187 258.655C327.187 258.655 314.15 229.794 321.552 221.736C327.493 215.268 356.457 219.064 361.42 226.057Z" fill="#B5221B" stroke="black" stroke-width="0.94" stroke-miterlimit="10"/>
<path d="M353.419 221.355L323.916 250.421" stroke="black" stroke-width="0.94" stroke-miterlimit="10"/>
<path d="M368.135 288.188L372.077 302.787L342.223 312.276L340.675 306.159L329.653 299.604L334.208 287.254L347.347 297.473L348.208 298.188C348.208 298.188 348.69 298.991 351.128 297.663L368.135 288.188Z" fill="white"/>
<path d="M369.288 287.561L340.821 303.225L340.646 306.948" stroke="black" stroke-width="0.94" stroke-miterlimit="10"/>
<path d="M333.507 287.224L349.04 298.713" stroke="black" stroke-width="0.94" stroke-miterlimit="10"/>
<path d="M333.507 304.29C333.507 304.29 313.361 317.648 299.609 312.276" stroke="black" stroke-width="0.94" stroke-miterlimit="10"/>
<path d="M333.011 306.408C334.253 306.408 335.26 305.401 335.26 304.16C335.26 302.918 334.253 301.912 333.011 301.912C331.77 301.912 330.763 302.918 330.763 304.16C330.763 305.401 331.77 306.408 333.011 306.408Z" stroke="black" stroke-width="0.94" stroke-miterlimit="10"/>
<path d="M358.748 309.269C358.748 309.728 358.884 310.177 359.139 310.559C359.394 310.94 359.757 311.238 360.181 311.414C360.605 311.589 361.072 311.635 361.522 311.546C361.972 311.456 362.386 311.235 362.711 310.91C363.035 310.586 363.256 310.172 363.346 309.722C363.435 309.272 363.389 308.805 363.214 308.381C363.038 307.957 362.74 307.594 362.359 307.339C361.977 307.084 361.528 306.948 361.069 306.948C360.454 306.948 359.863 307.192 359.428 307.628C358.993 308.063 358.748 308.653 358.748 309.269Z" stroke="black" stroke-width="0.94" stroke-miterlimit="10"/>
<path d="M361.068 309.269C361.068 309.269 369.287 332.992 383.638 339.926" stroke="black" stroke-width="0.94" stroke-miterlimit="10"/>
</g>
<path d="M262.148 244.048L267.318 253.03L272.506 261.994H262.148H251.791L256.979 253.03L262.148 244.048Z" fill="#D96980"/>
<path d="M172.364 358.955C176.146 356.052 176.859 350.632 173.955 346.849C171.052 343.066 165.632 342.354 161.849 345.257C158.066 348.161 157.354 353.581 160.257 357.364C163.161 361.146 168.581 361.859 172.364 358.955Z" stroke="#D7D4FC" stroke-miterlimit="10"/>
<path d="M395.78 8H333.422C329.597 8 325.929 9.51944 323.224 12.2241C320.519 14.9287 319 18.5969 319 22.4218V84.7066L333.641 71.2511H395.75C399.577 71.2472 403.245 69.7245 405.949 67.0176C408.653 64.3106 410.172 60.6409 410.172 56.8146V22.4218C410.172 18.602 408.657 14.9382 405.959 12.2344C403.26 9.53062 399.6 8.00776 395.78 8Z" fill="white" stroke="black" stroke-miterlimit="10"/>
<path d="M350.275 40.7814C350.275 42.0208 349.907 43.2324 349.219 44.2629C348.53 45.2935 347.551 46.0967 346.406 46.571C345.261 47.0453 344.001 47.1694 342.786 46.9276C341.57 46.6858 340.454 46.0889 339.577 45.2125C338.701 44.3362 338.104 43.2196 337.862 42.004C337.62 40.7884 337.744 39.5284 338.219 38.3833C338.693 37.2383 339.496 36.2596 340.527 35.571C341.557 34.8824 342.769 34.5149 344.008 34.5149C345.669 34.5188 347.261 35.1802 348.435 36.3546C349.609 37.529 350.271 39.1206 350.275 40.7814Z" fill="#C9261C" stroke="#C9261C" stroke-miterlimit="10"/>
<path d="M372.148 40.7814C372.148 42.0208 371.781 43.2324 371.092 44.2629C370.404 45.2935 369.425 46.0967 368.28 46.571C367.135 47.0453 365.875 47.1694 364.659 46.9276C363.444 46.6858 362.327 46.0889 361.451 45.2125C360.574 44.3362 359.977 43.2196 359.736 42.004C359.494 40.7884 359.618 39.5284 360.092 38.3833C360.567 37.2383 361.37 36.2596 362.4 35.571C363.431 34.8824 364.642 34.5149 365.882 34.5149C367.543 34.5188 369.134 35.1802 370.309 36.3546C371.483 37.529 372.144 39.1206 372.148 40.7814Z" fill="#C9261C" stroke="#C9261C" stroke-miterlimit="10"/>
<path d="M393.965 40.7814C393.965 42.0208 393.597 43.2324 392.909 44.2629C392.22 45.2935 391.241 46.0967 390.096 46.571C388.951 47.0453 387.691 47.1694 386.476 46.9276C385.26 46.6858 384.143 46.0889 383.267 45.2125C382.391 44.3362 381.794 43.2196 381.552 42.004C381.31 40.7884 381.434 39.5284 381.909 38.3833C382.383 37.2383 383.186 36.2596 384.217 35.571C385.247 34.8824 386.459 34.5149 387.698 34.5149C389.359 34.5188 390.951 35.1802 392.125 36.3546C393.299 37.529 393.961 39.1206 393.965 40.7814Z" fill="#C9261C" stroke="#C9261C" stroke-miterlimit="10"/>
</svg>
