<?xml version="1.0" encoding="utf-8"?>
<!-- Generator: Adobe Illustrator 22.1.0, SVG Export Plug-In . SVG Version: 6.00 Build 0)  -->
<svg version="1.1" id="Layer_1" xmlns="http://www.w3.org/2000/svg" xmlns:xlink="http://www.w3.org/1999/xlink" x="0px" y="0px"
	 viewBox="0 0 80 81" style="enable-background:new 0 0 80 81;" xml:space="preserve">
<style type="text/css">
	.st0{fill:#FFFFFF;}
	.st1{fill:#FFFFFF;filter:url(#Adobe_OpacityMaskFilter);stroke:#BEBCBC;}
	.st2{mask:url(#mask0_1_);}
	.st3{fill:none;stroke:#000000;stroke-width:2;stroke-miterlimit:10;}
	.st4{fill:#FFFFFF;stroke:#000000;stroke-miterlimit:10;}
	.st5{fill:#EEDA36;}
	.st6{fill:#EA7068;}
	.st7{fill:none;stroke:#000000;stroke-miterlimit:10;}
	.st8{fill:#672ED6;stroke:#211F21;stroke-miterlimit:10;}
	.st9{fill:#141414;}
	.st10{fill:#E4B0C8;}
	.st11{fill:#D96980;}
	.st12{fill:#090909;}
</style>
<path class="st0" d="M6,1.5h68c3,0,5.5,2.5,5.5,5.5v68c0,3-2.5,5.5-5.5,5.5H6c-3,0-5.5-2.5-5.5-5.5V7C0.5,4,3,1.5,6,1.5z"/>
<defs>
	<filter id="Adobe_OpacityMaskFilter" filterUnits="userSpaceOnUse" x="3.5" y="4" width="73.9" height="88.5">
		<feColorMatrix  type="matrix" values="1 0 0 0 0  0 1 0 0 0  0 0 1 0 0  0 0 0 1 0"/>
	</filter>
</defs>
<mask maskUnits="userSpaceOnUse" x="3.5" y="4" width="73.9" height="88.5" id="mask0_1_">
	<path class="st1" d="M6,0.5h68c3,0,5.5,2.5,5.5,5.5v68c0,3-2.5,5.5-5.5,5.5H6c-3,0-5.5-2.5-5.5-5.5V6C0.5,3,3,0.5,6,0.5z"/>
</mask>
<g class="st2">
	<path class="st3" d="M23.9,32c0,1,0.3,2,0.8,2.8c0.5,0.8,1.3,1.5,2.2,1.9c0.9,0.4,1.9,0.5,2.9,0.3c1-0.2,1.9-0.7,2.6-1.4
		c0.7-0.7,1.2-1.6,1.4-2.6c0.2-1,0.1-2-0.3-2.9c-0.4-0.9-1-1.7-1.8-2.2c-0.8-0.6-1.8-0.8-2.8-0.8c-1.3,0-2.6,0.5-3.5,1.4
		C24.5,29.4,23.9,30.7,23.9,32L23.9,32z"/>
	<path class="st4" d="M36.9,50.5C18.7,50.5,4,69.1,4,92h65.9C69.9,69.1,55.1,50.5,36.9,50.5z"/>
	<path class="st5" d="M26.6,60.5c0,0.5-0.1,0.9-0.4,1.3c-0.3,0.4-0.6,0.7-1.1,0.9c-0.4,0.2-0.9,0.2-1.4,0.1
		c-0.5-0.1-0.9-0.3-1.2-0.6c-0.3-0.3-0.6-0.7-0.6-1.2c-0.1-0.5,0-0.9,0.1-1.4c0.2-0.4,0.5-0.8,0.9-1.1c0.4-0.3,0.8-0.4,1.3-0.4
		c0.3,0,0.6,0.1,0.9,0.2c0.3,0.1,0.5,0.3,0.8,0.5c0.2,0.2,0.4,0.5,0.5,0.8C26.6,59.9,26.6,60.2,26.6,60.5z"/>
	<path class="st5" d="M36,71.9c1.4,0,2.6-1.2,2.6-2.6c0-1.4-1.2-2.6-2.6-2.6s-2.6,1.2-2.6,2.6C33.4,70.8,34.5,71.9,36,71.9z"/>
	<path class="st5" d="M48.4,60.5c0,0.5-0.1,0.9-0.4,1.3c-0.3,0.4-0.6,0.7-1.1,0.9c-0.4,0.2-0.9,0.2-1.4,0.1
		c-0.5-0.1-0.9-0.3-1.2-0.6c-0.3-0.3-0.6-0.7-0.6-1.2c-0.1-0.5,0-0.9,0.1-1.4c0.2-0.4,0.5-0.8,0.9-1.1c0.4-0.3,0.8-0.4,1.3-0.4
		c0.3,0,0.6,0.1,0.9,0.2c0.3,0.1,0.5,0.3,0.8,0.5c0.2,0.2,0.4,0.5,0.5,0.8C48.3,59.9,48.4,60.2,48.4,60.5z"/>
	<path class="st5" d="M57.5,68.6c1.1,0,2-0.9,2-2c0-1.1-0.9-2-2-2c-1.1,0-2,0.9-2,2C55.4,67.7,56.3,68.6,57.5,68.6z"/>
	<path class="st5" d="M18.5,70.7c0,0.5-0.1,1-0.4,1.4c-0.3,0.4-0.7,0.7-1.1,0.9c-0.4,0.2-0.9,0.2-1.4,0.1c-0.5-0.1-0.9-0.3-1.3-0.7
		c-0.3-0.3-0.6-0.8-0.7-1.3c-0.1-0.5,0-1,0.1-1.4c0.2-0.4,0.5-0.8,0.9-1.1c0.4-0.3,0.9-0.4,1.4-0.4c0.6,0,1.3,0.3,1.7,0.7
		C18.2,69.4,18.5,70,18.5,70.7z"/>
	<path class="st5" d="M26.6,80.4c1.4,0,2.6-1.2,2.6-2.6s-1.2-2.6-2.6-2.6s-2.6,1.2-2.6,2.6S25.1,80.4,26.6,80.4z"/>
	<path class="st5" d="M50.8,79.5c1.2,0,2.2-1,2.2-2.2c0-1.2-1-2.2-2.2-2.2s-2.2,1-2.2,2.2C48.6,78.5,49.6,79.5,50.8,79.5z"/>
	<path class="st5" d="M63.7,81.6c0,0.4-0.1,0.8-0.4,1.2c-0.2,0.3-0.6,0.6-0.9,0.8s-0.8,0.2-1.2,0.1c-0.4-0.1-0.8-0.3-1.1-0.6
		c-0.3-0.3-0.5-0.7-0.6-1.1c-0.1-0.4,0-0.8,0.1-1.2c0.2-0.4,0.4-0.7,0.8-0.9c0.3-0.2,0.7-0.4,1.2-0.4c0.3,0,0.5,0.1,0.8,0.2
		c0.3,0.1,0.5,0.3,0.7,0.5c0.2,0.2,0.3,0.4,0.5,0.7C63.6,81,63.7,81.3,63.7,81.6z"/>
	<path class="st6" d="M72.4,70.5l0.7-2.2c0,0,0.1-0.6-0.8-0.9L58.5,62c0,0-1.1-0.6-1.4,0.2c-0.3,0.8-2.5,4.3-2.5,4.3
		s-0.6,0.9,0.1,1.3c0.8,0.4,12.5,4.8,12.5,4.8l3,1.3c0,0,0.9,0.3,1.1-0.1C71.5,73.3,72.4,70.5,72.4,70.5z"/>
	<path class="st0" d="M76.1,54.9c0,0,1.2-6,0.2-7.2c-1-1.1-1.9,0.1-2.4,1.6c-0.5,1.5-1.2,4.4-1.2,4.4l-3-6.1c0,0,6.7-4.9,7-5.8
		c0.2-0.9,0.3-1.5-0.2-1.5c-0.6,0.1-1.3,0.2-1.9,0.4c0,0,2.3-2.2,1.6-3c-0.7-0.8-3.2,1-3.2,1s0.9-3.3,0.5-4
		c-0.4-0.6-3.2,3.2-3.9,4.5c-0.8,1.4-2.1,3.8-2.1,3.8s-0.9,0.7-0.9,1.1c0,0.4-1.1,1.2-1.3,1.4c-0.2,0.2-1.5,3-2.8,6
		c-1.3,2.9-3.2,6.9-3.2,6.9l-0.9,1.8c0,0-1,1.5,1.1,2.1c2.1,0.6,10.3,4,10.3,4l2.6,1c0,0,0.8,1.1,1.4-1.4
		C74.4,63.4,76.1,54.9,76.1,54.9z"/>
	<path class="st7" d="M70.9,75.1c4.5-12.7,6.5-26,5.4-27.4c-1.5-1.9-2.4,1.3-3.6,6l-3-6.1c0,0,7.2-4.9,7.2-6.9
		c0-2-11.4,3.6-12.4,5.7c-0.6,1.3-4.5,12.2-11,21.7"/>
	<path class="st7" d="M73.8,41c0,0,3-1.8,2.3-3.1c-0.7-1.3-9.8,5.1-9.6,6.8"/>
	<path class="st7" d="M72.7,39c0,0,1.8-3.7,0.8-4.2c-1-0.5-4.9,5.7-5.3,7.6"/>
	<path class="st7" d="M73.3,67.7l-15.7-6.1"/>
	<path class="st7" d="M71.2,74.3l-17-7.1"/>
	<path class="st7" d="M71.2,66.9l-2.4,6.4"/>
	<path class="st7" d="M68.2,65.8L65.8,72"/>
	<path class="st7" d="M65.4,64.6L63,70.7"/>
	<path class="st7" d="M62.2,63.4l-2.2,6.2"/>
	<path class="st7" d="M59.6,62.4L57,68.4"/>
	<path class="st8" d="M44.1,51.8c0,2.3-3.2,4.2-7.1,4.2s-7.1-1.8-7.1-4.2c0-2.3,3.2-4.1,7.1-4.1C40.9,47.7,44.1,49.6,44.1,51.8z"/>
	<path class="st4" d="M45.7,16.6h-6.3c-4.2,0-7.6,3.9-7.6,8.6V35c0,0.3,0,0.5,0,0.8c-0.1,0.3-0.1,0.6-0.1,0.9v12.1
		c0,0.5,0.1,1,0.3,1.5c0.2,0.5,0.5,0.9,0.9,1.3c0.4,0.4,0.8,0.6,1.3,0.8c0.5,0.2,1,0.3,1.5,0.3h2.5c1,0,2-0.4,2.7-1.2
		c0.7-0.7,1.1-1.7,1.1-2.7v-5.2h3.6c4.2,0,7.6-3.9,7.6-8.6v-9.7C53.3,20.5,49.9,16.6,45.7,16.6z"/>
	<path class="st9" d="M40.7,28.4c0,0.3,0.1,0.6,0.2,0.8c0.2,0.2,0.4,0.4,0.6,0.5c0.3,0.1,0.5,0.1,0.8,0.1c0.3-0.1,0.5-0.2,0.7-0.4
		c0.2-0.2,0.3-0.4,0.4-0.7c0.1-0.3,0-0.6-0.1-0.8c-0.1-0.3-0.3-0.5-0.5-0.6c-0.2-0.2-0.5-0.2-0.8-0.2c-0.2,0-0.4,0-0.5,0.1
		c-0.2,0.1-0.3,0.2-0.5,0.3c-0.1,0.1-0.2,0.3-0.3,0.5C40.8,28.1,40.7,28.2,40.7,28.4z"/>
	<path class="st9" d="M50,28.2c0,0.2,0.1,0.5,0.2,0.7c0.1,0.2,0.3,0.4,0.5,0.4c0.2,0.1,0.5,0.1,0.7,0.1c0.2,0,0.4-0.2,0.6-0.3
		c0.2-0.2,0.3-0.4,0.3-0.6c0-0.2,0-0.5-0.1-0.7c-0.1-0.2-0.2-0.4-0.4-0.5C51.7,27,51.4,27,51.2,27c-0.3,0-0.6,0.1-0.8,0.4
		C50.1,27.6,50,27.9,50,28.2z"/>
	<path class="st9" d="M48.1,33.9L48.1,34c0.1-0.2,0,0,0,0.1L48,34.3c-0.2,0.4-0.4,0.7-0.7,1c-0.2,0.2-0.3,0.3-0.5,0.3
		c-0.2,0.1-0.4,0.1-0.6,0.1c-0.5-0.1-0.9-0.4-1.2-0.8c-0.2-0.2-0.3-0.5-0.4-0.7c-0.1-0.3-0.2-0.5-0.2-0.8l-0.5,0.5l4.3,0.5l0.6,0.1
		c0.1,0,0.3-0.1,0.4-0.2c0.1-0.1,0.1-0.2,0.2-0.4c0-0.1-0.1-0.3-0.2-0.4c-0.1-0.1-0.2-0.1-0.4-0.2L44.3,33l-0.6-0.1
		c-0.1,0-0.1,0-0.2,0c-0.1,0-0.1,0.1-0.2,0.1c0,0-0.1,0.1-0.1,0.2s0,0.1,0,0.2c0,0.7,0.3,1.4,0.7,2c0.4,0.6,1,1,1.7,1.3
		c0.6,0.2,1.3,0.1,1.8-0.2c0.6-0.3,1-0.7,1.3-1.3c0.2-0.3,0.3-0.6,0.5-1c0-0.1,0-0.1,0-0.2c0-0.1,0-0.1-0.1-0.2
		c0-0.1-0.1-0.1-0.1-0.2c-0.1,0-0.1-0.1-0.2-0.1c-0.1,0-0.1,0-0.2,0c-0.1,0-0.1,0-0.2,0.1c-0.1,0-0.1,0.1-0.2,0.1
		C48.2,33.7,48.2,33.8,48.1,33.9z"/>
	<path class="st10" d="M39.3,37.1c1.9,0,3.5-1.6,3.5-3.5c0-1.9-1.6-3.5-3.5-3.5c-1.9,0-3.5,1.6-3.5,3.5
		C35.8,35.6,37.4,37.1,39.3,37.1z"/>
	<path class="st10" d="M52.3,31.2c0.2,0,0.4,0,0.6,0.1v3.6c0,0.5,0,1.1-0.1,1.6c-0.2,0-0.3,0-0.5,0c-0.6-0.1-1.2-0.4-1.6-0.9
		c-0.4-0.5-0.6-1.1-0.6-1.7s0.2-1.3,0.6-1.7C51.1,31.6,51.7,31.3,52.3,31.2L52.3,31.2z"/>
	<path class="st11" d="M47,27l-0.3,4.8l2.3-1.4L47,27z"/>
	<path d="M33.6,30.1l1.1-5.9c0,0,6.1,1.9,10.8-1.8c4.7-3.8-3-5.2-1.8-2.5s5.5,3.9,10.8,3.3c7.9-0.9,8.1-10.4,3.6-13.2
		c-4.5-2.8-9.7,0.5-9.7,0.5s2.4-4.7-3.5-6.3c-4.9-1.3-8.5,2.8-9,4.6c0,0-8,0.8-11.5,5.8c-1.8,2.4-2.8,5.2-2.8,8.2
		c-0.1,3,0.8,5.9,2.5,8.3c2.1,3.2,4.7,6.1,7.7,8.4C31.6,39.7,32.3,32.6,33.6,30.1z"/>
	<path class="st0" d="M23.9,32c0,1,0.3,2,0.8,2.8c0.5,0.8,1.3,1.5,2.2,1.9c0.9,0.4,1.9,0.5,2.9,0.3c1-0.2,1.9-0.7,2.6-1.4
		c0.7-0.7,1.2-1.6,1.4-2.6c0.2-1,0.1-2-0.3-2.9c-0.4-0.9-1-1.7-1.8-2.2c-0.8-0.6-1.8-0.8-2.8-0.8c-1.3,0-2.6,0.5-3.5,1.4
		C24.5,29.4,23.9,30.7,23.9,32z"/>
	<path class="st12" d="M32.3,32.6c0-0.4,0-0.9-0.2-1.3c-0.1-0.4-0.3-0.8-0.6-1.2c-0.3-0.3-0.6-0.6-1-0.8c-0.7-0.3-1.4-0.4-2.1-0.3
		c-0.2,0-0.3,0.1-0.4,0.2c-0.1,0.1-0.2,0.3-0.2,0.4c0,0.1,0,0.2,0,0.2c0,0.1,0.1,0.1,0.1,0.2c0.1,0.1,0.1,0.1,0.2,0.1
		c0.1,0,0.2,0,0.2,0c0.3,0,0.6,0,0.9,0h0.1h0.2c0.1,0,0.2,0.1,0.3,0.1c0.2,0-0.1-0.1,0,0l0.1,0.1c0.1,0,0.2,0.1,0.3,0.2
		c-0.1-0.1-0.1-0.1-0.1,0h0.1l0.1,0.1c0.1,0.1,0.1,0.1,0.2,0.2c-0.1-0.1,0-0.1,0,0l0.1,0.1c0,0.1,0.1,0.1,0.1,0.2l0.1,0.1
		c0,0.1-0.1-0.2,0-0.1v0.1l0.1,0.2c0,0.1,0.1,0.3,0.1,0.4c0,0,0,0.1,0,0.1c0,0,0-0.2,0-0.1c0,0.1,0,0.1,0,0.2c0,0.1,0,0.3,0,0.4
		c0,0.2,0.1,0.3,0.2,0.4c0.1,0.1,0.3,0.2,0.4,0.2s0.3-0.1,0.4-0.2C32.2,32.9,32.2,32.8,32.3,32.6L32.3,32.6z"/>
</g>
</svg>
